<?xml version="1.0" encoding="utf-8" standalone="no"?>
<!DOCTYPE svg PUBLIC "-//W3C//DTD SVG 1.1//EN"
  "http://www.w3.org/Graphics/SVG/1.1/DTD/svg11.dtd">
<!-- Created with matplotlib (https://matplotlib.org/) -->
<svg height="409.68pt" version="1.1" viewBox="0 0 1153.44 409.68" width="1153.44pt" xmlns="http://www.w3.org/2000/svg" xmlns:xlink="http://www.w3.org/1999/xlink">
 <defs>
  <style type="text/css">
*{stroke-linecap:butt;stroke-linejoin:round;}
  </style>
 </defs>
 <g id="figure_1">
  <g id="patch_1">
   <path d="M 0 409.68 
L 1153.44 409.68 
L 1153.44 0 
L 0 0 
z
" style="fill:#ffffff;"/>
  </g>
  <g id="axes_1">
   <g id="patch_2">
    <path d="M 109.851429 351.154286 
L 1065.558857 351.154286 
L 1065.558857 14.631429 
L 109.851429 14.631429 
z
" style="fill:#ffffff;"/>
   </g>
   <g id="matplotlib.axis_1">
    <g id="xtick_1">
     <g id="line2d_1">
      <path clip-path="url(#p223f5b1fc2)" d="M 153.184609 351.154286 
L 153.184609 14.631429 
" style="fill:none;stroke:#c0c0c0;stroke-dasharray:0.8,1.32;stroke-dashoffset:0;stroke-width:0.8;"/>
     </g>
     <g id="line2d_2">
      <defs>
       <path d="M 0 0 
L 0 3.5 
" id="mc333d7e7dc" style="stroke:#000000;stroke-width:0.8;"/>
      </defs>
      <g>
       <use style="stroke:#000000;stroke-width:0.8;" x="153.184609" xlink:href="#mc333d7e7dc" y="351.154286"/>
      </g>
     </g>
     <g id="text_1">
      <!-- 0 -->
      <defs>
       <path d="M 31.78125 66.40625 
Q 24.171875 66.40625 20.328125 58.90625 
Q 16.5 51.421875 16.5 36.375 
Q 16.5 21.390625 20.328125 13.890625 
Q 24.171875 6.390625 31.78125 6.390625 
Q 39.453125 6.390625 43.28125 13.890625 
Q 47.125 21.390625 47.125 36.375 
Q 47.125 51.421875 43.28125 58.90625 
Q 39.453125 66.40625 31.78125 66.40625 
z
M 31.78125 74.21875 
Q 44.046875 74.21875 50.515625 64.515625 
Q 56.984375 54.828125 56.984375 36.375 
Q 56.984375 17.96875 50.515625 8.265625 
Q 44.046875 -1.421875 31.78125 -1.421875 
Q 19.53125 -1.421875 13.0625 8.265625 
Q 6.59375 17.96875 6.59375 36.375 
Q 6.59375 54.828125 13.0625 64.515625 
Q 19.53125 74.21875 31.78125 74.21875 
z
" id="DejaVuSans-48"/>
      </defs>
      <g transform="translate(146.822109 373.351161)scale(0.2 -0.2)">
       <use xlink:href="#DejaVuSans-48"/>
      </g>
     </g>
    </g>
    <g id="xtick_2">
     <g id="line2d_3">
      <path clip-path="url(#p223f5b1fc2)" d="M 371.518612 351.154286 
L 371.518612 14.631429 
" style="fill:none;stroke:#c0c0c0;stroke-dasharray:0.8,1.32;stroke-dashoffset:0;stroke-width:0.8;"/>
     </g>
     <g id="line2d_4">
      <g>
       <use style="stroke:#000000;stroke-width:0.8;" x="371.518612" xlink:href="#mc333d7e7dc" y="351.154286"/>
      </g>
     </g>
     <g id="text_2">
      <!-- $\frac{\pi}{2}$ -->
      <defs>
       <path d="M 9.125 54.6875 
L 61.53125 54.6875 
L 59.765625 45.703125 
L 52.875 45.703125 
L 46.34375 12.109375 
Q 45.65625 8.59375 46.578125 7.03125 
Q 47.46875 5.515625 50.140625 5.515625 
Q 50.875 5.515625 51.953125 5.671875 
Q 53.078125 5.765625 53.421875 5.8125 
L 52.15625 -0.6875 
Q 50.34375 -1.3125 48.484375 -1.609375 
Q 46.578125 -1.90625 44.78125 -1.90625 
Q 38.921875 -1.90625 37.3125 1.265625 
Q 35.6875 4.5 37.359375 13.09375 
L 43.703125 45.703125 
L 23.53125 45.703125 
L 14.65625 0 
L 5.46875 0 
L 14.359375 45.703125 
L 7.375 45.703125 
z
" id="DejaVuSans-Oblique-960"/>
       <path d="M 19.1875 8.296875 
L 53.609375 8.296875 
L 53.609375 0 
L 7.328125 0 
L 7.328125 8.296875 
Q 12.9375 14.109375 22.625 23.890625 
Q 32.328125 33.6875 34.8125 36.53125 
Q 39.546875 41.84375 41.421875 45.53125 
Q 43.3125 49.21875 43.3125 52.78125 
Q 43.3125 58.59375 39.234375 62.25 
Q 35.15625 65.921875 28.609375 65.921875 
Q 23.96875 65.921875 18.8125 64.3125 
Q 13.671875 62.703125 7.8125 59.421875 
L 7.8125 69.390625 
Q 13.765625 71.78125 18.9375 73 
Q 24.125 74.21875 28.421875 74.21875 
Q 39.75 74.21875 46.484375 68.546875 
Q 53.21875 62.890625 53.21875 53.421875 
Q 53.21875 48.921875 51.53125 44.890625 
Q 49.859375 40.875 45.40625 35.40625 
Q 44.1875 33.984375 37.640625 27.21875 
Q 31.109375 20.453125 19.1875 8.296875 
z
" id="DejaVuSans-50"/>
      </defs>
      <g transform="translate(365.718612 374.954286)scale(0.2 -0.2)">
       <use transform="translate(1 45.71875)scale(0.7)" xlink:href="#DejaVuSans-Oblique-960"/>
       <use transform="translate(0 -38.81875)scale(0.7)" xlink:href="#DejaVuSans-50"/>
       <path d="M 0 19.384375 
L 0 25.634375 
L 44.536133 25.634375 
L 44.536133 19.384375 
L 0 19.384375 
z
"/>
      </g>
     </g>
    </g>
    <g id="xtick_3">
     <g id="line2d_5">
      <path clip-path="url(#p223f5b1fc2)" d="M 589.852615 351.154286 
L 589.852615 14.631429 
" style="fill:none;stroke:#c0c0c0;stroke-dasharray:0.8,1.32;stroke-dashoffset:0;stroke-width:0.8;"/>
     </g>
     <g id="line2d_6">
      <g>
       <use style="stroke:#000000;stroke-width:0.8;" x="589.852615" xlink:href="#mc333d7e7dc" y="351.154286"/>
      </g>
     </g>
     <g id="text_3">
      <!-- $\pi$ -->
      <g transform="translate(583.752615 373.351161)scale(0.2 -0.2)">
       <use transform="translate(0 0.3125)" xlink:href="#DejaVuSans-Oblique-960"/>
      </g>
     </g>
    </g>
    <g id="xtick_4">
     <g id="line2d_7">
      <path clip-path="url(#p223f5b1fc2)" d="M 808.186618 351.154286 
L 808.186618 14.631429 
" style="fill:none;stroke:#c0c0c0;stroke-dasharray:0.8,1.32;stroke-dashoffset:0;stroke-width:0.8;"/>
     </g>
     <g id="line2d_8">
      <g>
       <use style="stroke:#000000;stroke-width:0.8;" x="808.186618" xlink:href="#mc333d7e7dc" y="351.154286"/>
      </g>
     </g>
     <g id="text_4">
      <!-- $\frac{3\pi}{2}$ -->
      <defs>
       <path d="M 40.578125 39.3125 
Q 47.65625 37.796875 51.625 33 
Q 55.609375 28.21875 55.609375 21.1875 
Q 55.609375 10.40625 48.1875 4.484375 
Q 40.765625 -1.421875 27.09375 -1.421875 
Q 22.515625 -1.421875 17.65625 -0.515625 
Q 12.796875 0.390625 7.625 2.203125 
L 7.625 11.71875 
Q 11.71875 9.328125 16.59375 8.109375 
Q 21.484375 6.890625 26.8125 6.890625 
Q 36.078125 6.890625 40.9375 10.546875 
Q 45.796875 14.203125 45.796875 21.1875 
Q 45.796875 27.640625 41.28125 31.265625 
Q 36.765625 34.90625 28.71875 34.90625 
L 20.21875 34.90625 
L 20.21875 43.015625 
L 29.109375 43.015625 
Q 36.375 43.015625 40.234375 45.921875 
Q 44.09375 48.828125 44.09375 54.296875 
Q 44.09375 59.90625 40.109375 62.90625 
Q 36.140625 65.921875 28.71875 65.921875 
Q 24.65625 65.921875 20.015625 65.03125 
Q 15.375 64.15625 9.8125 62.3125 
L 9.8125 71.09375 
Q 15.4375 72.65625 20.34375 73.4375 
Q 25.25 74.21875 29.59375 74.21875 
Q 40.828125 74.21875 47.359375 69.109375 
Q 53.90625 64.015625 53.90625 55.328125 
Q 53.90625 49.265625 50.4375 45.09375 
Q 46.96875 40.921875 40.578125 39.3125 
z
" id="DejaVuSans-51"/>
      </defs>
      <g transform="translate(798.186618 377.754286)scale(0.2 -0.2)">
       <use transform="translate(0 46.046875)scale(0.7)" xlink:href="#DejaVuSans-51"/>
       <use transform="translate(44.536133 46.046875)scale(0.7)" xlink:href="#DejaVuSans-Oblique-960"/>
       <use transform="translate(21 -38.490625)scale(0.7)" xlink:href="#DejaVuSans-50"/>
       <path d="M 0 19.7125 
L 0 25.9625 
L 86.679688 25.9625 
L 86.679688 19.7125 
L 0 19.7125 
z
"/>
      </g>
     </g>
    </g>
    <g id="xtick_5">
     <g id="line2d_9">
      <path clip-path="url(#p223f5b1fc2)" d="M 1026.520621 351.154286 
L 1026.520621 14.631429 
" style="fill:none;stroke:#c0c0c0;stroke-dasharray:0.8,1.32;stroke-dashoffset:0;stroke-width:0.8;"/>
     </g>
     <g id="line2d_10">
      <g>
       <use style="stroke:#000000;stroke-width:0.8;" x="1026.520621" xlink:href="#mc333d7e7dc" y="351.154286"/>
      </g>
     </g>
     <g id="text_5">
      <!-- $2\pi$ -->
      <g transform="translate(1014.120621 373.351161)scale(0.2 -0.2)">
       <use transform="translate(0 0.78125)" xlink:href="#DejaVuSans-50"/>
       <use transform="translate(63.623047 0.78125)" xlink:href="#DejaVuSans-Oblique-960"/>
      </g>
     </g>
    </g>
    <g id="text_6">
     <!-- Rotor angle ($\theta_{e}$) -->
     <defs>
      <path d="M 44.390625 34.1875 
Q 47.5625 33.109375 50.5625 29.59375 
Q 53.5625 26.078125 56.59375 19.921875 
L 66.609375 0 
L 56 0 
L 46.6875 18.703125 
Q 43.0625 26.03125 39.671875 28.421875 
Q 36.28125 30.8125 30.421875 30.8125 
L 19.671875 30.8125 
L 19.671875 0 
L 9.8125 0 
L 9.8125 72.90625 
L 32.078125 72.90625 
Q 44.578125 72.90625 50.734375 67.671875 
Q 56.890625 62.453125 56.890625 51.90625 
Q 56.890625 45.015625 53.6875 40.46875 
Q 50.484375 35.9375 44.390625 34.1875 
z
M 19.671875 64.796875 
L 19.671875 38.921875 
L 32.078125 38.921875 
Q 39.203125 38.921875 42.84375 42.21875 
Q 46.484375 45.515625 46.484375 51.90625 
Q 46.484375 58.296875 42.84375 61.546875 
Q 39.203125 64.796875 32.078125 64.796875 
z
" id="DejaVuSans-82"/>
      <path d="M 30.609375 48.390625 
Q 23.390625 48.390625 19.1875 42.75 
Q 14.984375 37.109375 14.984375 27.296875 
Q 14.984375 17.484375 19.15625 11.84375 
Q 23.34375 6.203125 30.609375 6.203125 
Q 37.796875 6.203125 41.984375 11.859375 
Q 46.1875 17.53125 46.1875 27.296875 
Q 46.1875 37.015625 41.984375 42.703125 
Q 37.796875 48.390625 30.609375 48.390625 
z
M 30.609375 56 
Q 42.328125 56 49.015625 48.375 
Q 55.71875 40.765625 55.71875 27.296875 
Q 55.71875 13.875 49.015625 6.21875 
Q 42.328125 -1.421875 30.609375 -1.421875 
Q 18.84375 -1.421875 12.171875 6.21875 
Q 5.515625 13.875 5.515625 27.296875 
Q 5.515625 40.765625 12.171875 48.375 
Q 18.84375 56 30.609375 56 
z
" id="DejaVuSans-111"/>
      <path d="M 18.3125 70.21875 
L 18.3125 54.6875 
L 36.8125 54.6875 
L 36.8125 47.703125 
L 18.3125 47.703125 
L 18.3125 18.015625 
Q 18.3125 11.328125 20.140625 9.421875 
Q 21.96875 7.515625 27.59375 7.515625 
L 36.8125 7.515625 
L 36.8125 0 
L 27.59375 0 
Q 17.1875 0 13.234375 3.875 
Q 9.28125 7.765625 9.28125 18.015625 
L 9.28125 47.703125 
L 2.6875 47.703125 
L 2.6875 54.6875 
L 9.28125 54.6875 
L 9.28125 70.21875 
z
" id="DejaVuSans-116"/>
      <path d="M 41.109375 46.296875 
Q 39.59375 47.171875 37.8125 47.578125 
Q 36.03125 48 33.890625 48 
Q 26.265625 48 22.1875 43.046875 
Q 18.109375 38.09375 18.109375 28.8125 
L 18.109375 0 
L 9.078125 0 
L 9.078125 54.6875 
L 18.109375 54.6875 
L 18.109375 46.1875 
Q 20.953125 51.171875 25.484375 53.578125 
Q 30.03125 56 36.53125 56 
Q 37.453125 56 38.578125 55.875 
Q 39.703125 55.765625 41.0625 55.515625 
z
" id="DejaVuSans-114"/>
      <path id="DejaVuSans-32"/>
      <path d="M 34.28125 27.484375 
Q 23.390625 27.484375 19.1875 25 
Q 14.984375 22.515625 14.984375 16.5 
Q 14.984375 11.71875 18.140625 8.90625 
Q 21.296875 6.109375 26.703125 6.109375 
Q 34.1875 6.109375 38.703125 11.40625 
Q 43.21875 16.703125 43.21875 25.484375 
L 43.21875 27.484375 
z
M 52.203125 31.203125 
L 52.203125 0 
L 43.21875 0 
L 43.21875 8.296875 
Q 40.140625 3.328125 35.546875 0.953125 
Q 30.953125 -1.421875 24.3125 -1.421875 
Q 15.921875 -1.421875 10.953125 3.296875 
Q 6 8.015625 6 15.921875 
Q 6 25.140625 12.171875 29.828125 
Q 18.359375 34.515625 30.609375 34.515625 
L 43.21875 34.515625 
L 43.21875 35.40625 
Q 43.21875 41.609375 39.140625 45 
Q 35.0625 48.390625 27.6875 48.390625 
Q 23 48.390625 18.546875 47.265625 
Q 14.109375 46.140625 10.015625 43.890625 
L 10.015625 52.203125 
Q 14.9375 54.109375 19.578125 55.046875 
Q 24.21875 56 28.609375 56 
Q 40.484375 56 46.34375 49.84375 
Q 52.203125 43.703125 52.203125 31.203125 
z
" id="DejaVuSans-97"/>
      <path d="M 54.890625 33.015625 
L 54.890625 0 
L 45.90625 0 
L 45.90625 32.71875 
Q 45.90625 40.484375 42.875 44.328125 
Q 39.84375 48.1875 33.796875 48.1875 
Q 26.515625 48.1875 22.3125 43.546875 
Q 18.109375 38.921875 18.109375 30.90625 
L 18.109375 0 
L 9.078125 0 
L 9.078125 54.6875 
L 18.109375 54.6875 
L 18.109375 46.1875 
Q 21.34375 51.125 25.703125 53.5625 
Q 30.078125 56 35.796875 56 
Q 45.21875 56 50.046875 50.171875 
Q 54.890625 44.34375 54.890625 33.015625 
z
" id="DejaVuSans-110"/>
      <path d="M 45.40625 27.984375 
Q 45.40625 37.75 41.375 43.109375 
Q 37.359375 48.484375 30.078125 48.484375 
Q 22.859375 48.484375 18.828125 43.109375 
Q 14.796875 37.75 14.796875 27.984375 
Q 14.796875 18.265625 18.828125 12.890625 
Q 22.859375 7.515625 30.078125 7.515625 
Q 37.359375 7.515625 41.375 12.890625 
Q 45.40625 18.265625 45.40625 27.984375 
z
M 54.390625 6.78125 
Q 54.390625 -7.171875 48.1875 -13.984375 
Q 42 -20.796875 29.203125 -20.796875 
Q 24.46875 -20.796875 20.265625 -20.09375 
Q 16.0625 -19.390625 12.109375 -17.921875 
L 12.109375 -9.1875 
Q 16.0625 -11.328125 19.921875 -12.34375 
Q 23.78125 -13.375 27.78125 -13.375 
Q 36.625 -13.375 41.015625 -8.765625 
Q 45.40625 -4.15625 45.40625 5.171875 
L 45.40625 9.625 
Q 42.625 4.78125 38.28125 2.390625 
Q 33.9375 0 27.875 0 
Q 17.828125 0 11.671875 7.65625 
Q 5.515625 15.328125 5.515625 27.984375 
Q 5.515625 40.671875 11.671875 48.328125 
Q 17.828125 56 27.875 56 
Q 33.9375 56 38.28125 53.609375 
Q 42.625 51.21875 45.40625 46.390625 
L 45.40625 54.6875 
L 54.390625 54.6875 
z
" id="DejaVuSans-103"/>
      <path d="M 9.421875 75.984375 
L 18.40625 75.984375 
L 18.40625 0 
L 9.421875 0 
z
" id="DejaVuSans-108"/>
      <path d="M 56.203125 29.59375 
L 56.203125 25.203125 
L 14.890625 25.203125 
Q 15.484375 15.921875 20.484375 11.0625 
Q 25.484375 6.203125 34.421875 6.203125 
Q 39.59375 6.203125 44.453125 7.46875 
Q 49.3125 8.734375 54.109375 11.28125 
L 54.109375 2.78125 
Q 49.265625 0.734375 44.1875 -0.34375 
Q 39.109375 -1.421875 33.890625 -1.421875 
Q 20.796875 -1.421875 13.15625 6.1875 
Q 5.515625 13.8125 5.515625 26.8125 
Q 5.515625 40.234375 12.765625 48.109375 
Q 20.015625 56 32.328125 56 
Q 43.359375 56 49.78125 48.890625 
Q 56.203125 41.796875 56.203125 29.59375 
z
M 47.21875 32.234375 
Q 47.125 39.59375 43.09375 43.984375 
Q 39.0625 48.390625 32.421875 48.390625 
Q 24.90625 48.390625 20.390625 44.140625 
Q 15.875 39.890625 15.1875 32.171875 
z
" id="DejaVuSans-101"/>
      <path d="M 31 75.875 
Q 24.46875 64.65625 21.28125 53.65625 
Q 18.109375 42.671875 18.109375 31.390625 
Q 18.109375 20.125 21.3125 9.0625 
Q 24.515625 -2 31 -13.1875 
L 23.1875 -13.1875 
Q 15.875 -1.703125 12.234375 9.375 
Q 8.59375 20.453125 8.59375 31.390625 
Q 8.59375 42.28125 12.203125 53.3125 
Q 15.828125 64.359375 23.1875 75.875 
z
" id="DejaVuSans-40"/>
      <path d="M 45.515625 34.671875 
L 14.453125 34.671875 
Q 12.359375 20.0625 14.5 13.875 
Q 17.1875 6.25 24.46875 6.25 
Q 31.78125 6.25 37.359375 13.921875 
Q 42.234375 20.65625 45.515625 34.671875 
z
M 47.015625 42.96875 
Q 48.34375 56.84375 46.625 61.71875 
Q 43.953125 69.4375 36.765625 69.4375 
Q 29.296875 69.4375 23.828125 61.8125 
Q 19.53125 55.671875 16.15625 42.96875 
z
M 38.1875 76.765625 
Q 49.90625 76.765625 54.59375 66.40625 
Q 59.28125 56.109375 55.71875 37.84375 
Q 52.203125 19.625 43.453125 9.28125 
Q 34.765625 -1.125 23.046875 -1.125 
Q 11.28125 -1.125 6.640625 9.28125 
Q 2 19.625 5.515625 37.84375 
Q 9.078125 56.109375 17.71875 66.40625 
Q 26.421875 76.765625 38.1875 76.765625 
z
" id="DejaVuSans-Oblique-952"/>
      <path d="M 48.09375 32.234375 
Q 48.25 33.015625 48.3125 33.84375 
Q 48.390625 34.671875 48.390625 35.5 
Q 48.390625 41.453125 44.890625 44.921875 
Q 41.40625 48.390625 35.40625 48.390625 
Q 28.71875 48.390625 23.578125 44.15625 
Q 18.453125 39.9375 15.828125 32.171875 
z
M 55.90625 25.203125 
L 14.109375 25.203125 
Q 13.8125 23.34375 13.71875 22.265625 
Q 13.625 21.1875 13.625 20.40625 
Q 13.625 13.625 17.796875 9.90625 
Q 21.96875 6.203125 29.59375 6.203125 
Q 35.453125 6.203125 40.671875 7.515625 
Q 45.90625 8.84375 50.390625 11.375 
L 48.6875 2.484375 
Q 43.84375 0.53125 38.6875 -0.4375 
Q 33.546875 -1.421875 28.21875 -1.421875 
Q 16.84375 -1.421875 10.71875 4.015625 
Q 4.59375 9.46875 4.59375 19.484375 
Q 4.59375 28.03125 7.640625 35.375 
Q 10.6875 42.71875 16.609375 48.484375 
Q 20.40625 52.09375 25.65625 54.046875 
Q 30.90625 56 36.8125 56 
Q 46.09375 56 51.578125 50.4375 
Q 57.078125 44.875 57.078125 35.5 
Q 57.078125 33.25 56.78125 30.6875 
Q 56.5 28.125 55.90625 25.203125 
z
" id="DejaVuSans-Oblique-101"/>
      <path d="M 8.015625 75.875 
L 15.828125 75.875 
Q 23.140625 64.359375 26.78125 53.3125 
Q 30.421875 42.28125 30.421875 31.390625 
Q 30.421875 20.453125 26.78125 9.375 
Q 23.140625 -1.703125 15.828125 -13.1875 
L 8.015625 -13.1875 
Q 14.5 -2 17.703125 9.0625 
Q 20.90625 20.125 20.90625 31.390625 
Q 20.90625 42.671875 17.703125 53.65625 
Q 14.5 64.65625 8.015625 75.875 
z
" id="DejaVuSans-41"/>
     </defs>
     <g transform="translate(507.805143 396.154286)scale(0.2 -0.2)">
      <use transform="translate(0 0.234375)" xlink:href="#DejaVuSans-82"/>
      <use transform="translate(69.482422 0.234375)" xlink:href="#DejaVuSans-111"/>
      <use transform="translate(130.664062 0.234375)" xlink:href="#DejaVuSans-116"/>
      <use transform="translate(169.873047 0.234375)" xlink:href="#DejaVuSans-111"/>
      <use transform="translate(231.054688 0.234375)" xlink:href="#DejaVuSans-114"/>
      <use transform="translate(272.167969 0.234375)" xlink:href="#DejaVuSans-32"/>
      <use transform="translate(303.955078 0.234375)" xlink:href="#DejaVuSans-97"/>
      <use transform="translate(365.234375 0.234375)" xlink:href="#DejaVuSans-110"/>
      <use transform="translate(428.613281 0.234375)" xlink:href="#DejaVuSans-103"/>
      <use transform="translate(492.089844 0.234375)" xlink:href="#DejaVuSans-108"/>
      <use transform="translate(519.873047 0.234375)" xlink:href="#DejaVuSans-101"/>
      <use transform="translate(581.396484 0.234375)" xlink:href="#DejaVuSans-32"/>
      <use transform="translate(613.183594 0.234375)" xlink:href="#DejaVuSans-40"/>
      <use transform="translate(652.197266 0.234375)" xlink:href="#DejaVuSans-Oblique-952"/>
      <use transform="translate(713.378906 -16.171875)scale(0.7)" xlink:href="#DejaVuSans-Oblique-101"/>
      <use transform="translate(759.179688 0.234375)" xlink:href="#DejaVuSans-41"/>
     </g>
    </g>
   </g>
   <g id="matplotlib.axis_2">
    <g id="ytick_1">
     <g id="line2d_11">
      <path clip-path="url(#p223f5b1fc2)" d="M 109.851429 335.857792 
L 1065.558857 335.857792 
" style="fill:none;stroke:#c0c0c0;stroke-dasharray:0.8,1.32;stroke-dashoffset:0;stroke-width:0.8;"/>
     </g>
     <g id="line2d_12">
      <defs>
       <path d="M 0 0 
L -3.5 0 
" id="ma36c941344" style="stroke:#000000;stroke-width:0.8;"/>
      </defs>
      <g>
       <use style="stroke:#000000;stroke-width:0.8;" x="109.851429" xlink:href="#ma36c941344" y="335.857792"/>
      </g>
     </g>
     <g id="text_7">
      <!-- −0.230 -->
      <defs>
       <path d="M 10.59375 35.5 
L 73.1875 35.5 
L 73.1875 27.203125 
L 10.59375 27.203125 
z
" id="DejaVuSans-8722"/>
       <path d="M 10.6875 12.40625 
L 21 12.40625 
L 21 0 
L 10.6875 0 
z
" id="DejaVuSans-46"/>
      </defs>
      <g transform="translate(28.835804 343.45623)scale(0.2 -0.2)">
       <use xlink:href="#DejaVuSans-8722"/>
       <use x="83.789062" xlink:href="#DejaVuSans-48"/>
       <use x="147.412109" xlink:href="#DejaVuSans-46"/>
       <use x="179.199219" xlink:href="#DejaVuSans-50"/>
       <use x="242.822266" xlink:href="#DejaVuSans-51"/>
       <use x="306.445312" xlink:href="#DejaVuSans-48"/>
      </g>
     </g>
    </g>
    <g id="ytick_2">
     <g id="line2d_13">
      <path clip-path="url(#p223f5b1fc2)" d="M 109.851429 244.078831 
L 1065.558857 244.078831 
" style="fill:none;stroke:#c0c0c0;stroke-dasharray:0.8,1.32;stroke-dashoffset:0;stroke-width:0.8;"/>
     </g>
     <g id="line2d_14">
      <g>
       <use style="stroke:#000000;stroke-width:0.8;" x="109.851429" xlink:href="#ma36c941344" y="244.078831"/>
      </g>
     </g>
     <g id="text_8">
      <!-- −0.115 -->
      <defs>
       <path d="M 12.40625 8.296875 
L 28.515625 8.296875 
L 28.515625 63.921875 
L 10.984375 60.40625 
L 10.984375 69.390625 
L 28.421875 72.90625 
L 38.28125 72.90625 
L 38.28125 8.296875 
L 54.390625 8.296875 
L 54.390625 0 
L 12.40625 0 
z
" id="DejaVuSans-49"/>
       <path d="M 10.796875 72.90625 
L 49.515625 72.90625 
L 49.515625 64.59375 
L 19.828125 64.59375 
L 19.828125 46.734375 
Q 21.96875 47.46875 24.109375 47.828125 
Q 26.265625 48.1875 28.421875 48.1875 
Q 40.625 48.1875 47.75 41.5 
Q 54.890625 34.8125 54.890625 23.390625 
Q 54.890625 11.625 47.5625 5.09375 
Q 40.234375 -1.421875 26.90625 -1.421875 
Q 22.3125 -1.421875 17.546875 -0.640625 
Q 12.796875 0.140625 7.71875 1.703125 
L 7.71875 11.625 
Q 12.109375 9.234375 16.796875 8.0625 
Q 21.484375 6.890625 26.703125 6.890625 
Q 35.15625 6.890625 40.078125 11.328125 
Q 45.015625 15.765625 45.015625 23.390625 
Q 45.015625 31 40.078125 35.4375 
Q 35.15625 39.890625 26.703125 39.890625 
Q 22.75 39.890625 18.8125 39.015625 
Q 14.890625 38.140625 10.796875 36.28125 
z
" id="DejaVuSans-53"/>
      </defs>
      <g transform="translate(28.835804 251.677269)scale(0.2 -0.2)">
       <use xlink:href="#DejaVuSans-8722"/>
       <use x="83.789062" xlink:href="#DejaVuSans-48"/>
       <use x="147.412109" xlink:href="#DejaVuSans-46"/>
       <use x="179.199219" xlink:href="#DejaVuSans-49"/>
       <use x="242.822266" xlink:href="#DejaVuSans-49"/>
       <use x="306.445312" xlink:href="#DejaVuSans-53"/>
      </g>
     </g>
    </g>
    <g id="ytick_3">
     <g id="line2d_15">
      <path clip-path="url(#p223f5b1fc2)" d="M 109.851429 152.29987 
L 1065.558857 152.29987 
" style="fill:none;stroke:#c0c0c0;stroke-dasharray:0.8,1.32;stroke-dashoffset:0;stroke-width:0.8;"/>
     </g>
     <g id="line2d_16">
      <g>
       <use style="stroke:#000000;stroke-width:0.8;" x="109.851429" xlink:href="#ma36c941344" y="152.29987"/>
      </g>
     </g>
     <g id="text_9">
      <!-- 0.000 -->
      <g transform="translate(45.595179 159.898308)scale(0.2 -0.2)">
       <use xlink:href="#DejaVuSans-48"/>
       <use x="63.623047" xlink:href="#DejaVuSans-46"/>
       <use x="95.410156" xlink:href="#DejaVuSans-48"/>
       <use x="159.033203" xlink:href="#DejaVuSans-48"/>
       <use x="222.65625" xlink:href="#DejaVuSans-48"/>
      </g>
     </g>
    </g>
    <g id="ytick_4">
     <g id="line2d_17">
      <path clip-path="url(#p223f5b1fc2)" d="M 109.851429 60.520909 
L 1065.558857 60.520909 
" style="fill:none;stroke:#c0c0c0;stroke-dasharray:0.8,1.32;stroke-dashoffset:0;stroke-width:0.8;"/>
     </g>
     <g id="line2d_18">
      <g>
       <use style="stroke:#000000;stroke-width:0.8;" x="109.851429" xlink:href="#ma36c941344" y="60.520909"/>
      </g>
     </g>
     <g id="text_10">
      <!-- 0.115 -->
      <g transform="translate(45.595179 68.119347)scale(0.2 -0.2)">
       <use xlink:href="#DejaVuSans-48"/>
       <use x="63.623047" xlink:href="#DejaVuSans-46"/>
       <use x="95.410156" xlink:href="#DejaVuSans-49"/>
       <use x="159.033203" xlink:href="#DejaVuSans-49"/>
       <use x="222.65625" xlink:href="#DejaVuSans-53"/>
      </g>
     </g>
    </g>
    <g id="text_11">
     <!-- Torque [pu.] -->
     <defs>
      <path d="M -0.296875 72.90625 
L 61.375 72.90625 
L 61.375 64.59375 
L 35.5 64.59375 
L 35.5 0 
L 25.59375 0 
L 25.59375 64.59375 
L -0.296875 64.59375 
z
" id="DejaVuSans-84"/>
      <path d="M 14.796875 27.296875 
Q 14.796875 17.390625 18.875 11.75 
Q 22.953125 6.109375 30.078125 6.109375 
Q 37.203125 6.109375 41.296875 11.75 
Q 45.40625 17.390625 45.40625 27.296875 
Q 45.40625 37.203125 41.296875 42.84375 
Q 37.203125 48.484375 30.078125 48.484375 
Q 22.953125 48.484375 18.875 42.84375 
Q 14.796875 37.203125 14.796875 27.296875 
z
M 45.40625 8.203125 
Q 42.578125 3.328125 38.25 0.953125 
Q 33.9375 -1.421875 27.875 -1.421875 
Q 17.96875 -1.421875 11.734375 6.484375 
Q 5.515625 14.40625 5.515625 27.296875 
Q 5.515625 40.1875 11.734375 48.09375 
Q 17.96875 56 27.875 56 
Q 33.9375 56 38.25 53.625 
Q 42.578125 51.265625 45.40625 46.390625 
L 45.40625 54.6875 
L 54.390625 54.6875 
L 54.390625 -20.796875 
L 45.40625 -20.796875 
z
" id="DejaVuSans-113"/>
      <path d="M 8.5 21.578125 
L 8.5 54.6875 
L 17.484375 54.6875 
L 17.484375 21.921875 
Q 17.484375 14.15625 20.5 10.265625 
Q 23.53125 6.390625 29.59375 6.390625 
Q 36.859375 6.390625 41.078125 11.03125 
Q 45.3125 15.671875 45.3125 23.6875 
L 45.3125 54.6875 
L 54.296875 54.6875 
L 54.296875 0 
L 45.3125 0 
L 45.3125 8.40625 
Q 42.046875 3.421875 37.71875 1 
Q 33.40625 -1.421875 27.6875 -1.421875 
Q 18.265625 -1.421875 13.375 4.4375 
Q 8.5 10.296875 8.5 21.578125 
z
M 31.109375 56 
z
" id="DejaVuSans-117"/>
      <path d="M 8.59375 75.984375 
L 29.296875 75.984375 
L 29.296875 69 
L 17.578125 69 
L 17.578125 -6.203125 
L 29.296875 -6.203125 
L 29.296875 -13.1875 
L 8.59375 -13.1875 
z
" id="DejaVuSans-91"/>
      <path d="M 18.109375 8.203125 
L 18.109375 -20.796875 
L 9.078125 -20.796875 
L 9.078125 54.6875 
L 18.109375 54.6875 
L 18.109375 46.390625 
Q 20.953125 51.265625 25.265625 53.625 
Q 29.59375 56 35.59375 56 
Q 45.5625 56 51.78125 48.09375 
Q 58.015625 40.1875 58.015625 27.296875 
Q 58.015625 14.40625 51.78125 6.484375 
Q 45.5625 -1.421875 35.59375 -1.421875 
Q 29.59375 -1.421875 25.265625 0.953125 
Q 20.953125 3.328125 18.109375 8.203125 
z
M 48.6875 27.296875 
Q 48.6875 37.203125 44.609375 42.84375 
Q 40.53125 48.484375 33.40625 48.484375 
Q 26.265625 48.484375 22.1875 42.84375 
Q 18.109375 37.203125 18.109375 27.296875 
Q 18.109375 17.390625 22.1875 11.75 
Q 26.265625 6.109375 33.40625 6.109375 
Q 40.53125 6.109375 44.609375 11.75 
Q 48.6875 17.390625 48.6875 27.296875 
z
" id="DejaVuSans-112"/>
      <path d="M 30.421875 75.984375 
L 30.421875 -13.1875 
L 9.71875 -13.1875 
L 9.71875 -6.203125 
L 21.390625 -6.203125 
L 21.390625 69 
L 9.71875 69 
L 9.71875 75.984375 
z
" id="DejaVuSans-93"/>
     </defs>
     <g transform="translate(21.092366 237.025045)rotate(-90)scale(0.18 -0.18)">
      <use xlink:href="#DejaVuSans-84"/>
      <use x="44.083984" xlink:href="#DejaVuSans-111"/>
      <use x="105.265625" xlink:href="#DejaVuSans-114"/>
      <use x="144.628906" xlink:href="#DejaVuSans-113"/>
      <use x="208.105469" xlink:href="#DejaVuSans-117"/>
      <use x="271.484375" xlink:href="#DejaVuSans-101"/>
      <use x="333.007812" xlink:href="#DejaVuSans-32"/>
      <use x="364.794922" xlink:href="#DejaVuSans-91"/>
      <use x="403.808594" xlink:href="#DejaVuSans-112"/>
      <use x="467.285156" xlink:href="#DejaVuSans-117"/>
      <use x="530.664062" xlink:href="#DejaVuSans-46"/>
      <use x="562.451172" xlink:href="#DejaVuSans-93"/>
     </g>
    </g>
   </g>
   <g id="line2d_19">
    <path clip-path="url(#p223f5b1fc2)" d="M 153.292675 335.857792 
L 157.939094 335.857792 
L 166.722419 274.671818 
L 175.547803 213.485844 
L 184.414624 152.29987 
L 193.285192 91.113896 
L 202.126194 91.113896 
L 210.881825 29.927922 
L 219.568119 29.927922 
L 228.183202 29.927922 
L 237.360686 91.113896 
L 245.880821 152.29987 
L 254.925669 213.485844 
L 263.979679 274.671818 
L 272.502729 335.857792 
L 281.610876 335.857792 
L 290.176195 335.857792 
L 298.838544 335.857792 
L 307.5948 335.857792 
L 316.955309 274.671818 
L 325.717395 213.485844 
L 334.493848 152.29987 
L 343.286334 91.113896 
L 352.044048 29.927922 
L 360.73763 29.927922 
L 369.35417 29.927922 
L 378.536651 91.113896 
L 387.117587 91.113896 
L 396.209492 152.29987 
L 404.714844 274.671818 
L 413.824865 274.671818 
L 422.387268 335.857792 
L 431.561213 335.857792 
L 440.200866 335.857792 
L 448.947752 335.857792 
L 457.766265 274.671818 
L 466.635793 213.485844 
L 475.52406 152.29987 
L 484.424612 152.29987 
L 493.343904 91.113896 
L 502.209891 29.927922 
L 510.467253 29.927922 
L 519.280978 29.927922 
L 528.627536 91.113896 
L 537.348186 152.29987 
L 545.990963 213.485844 
L 554.636238 274.671818 
L 563.823716 274.671818 
L 572.47607 335.857792 
L 581.155285 335.857792 
L 589.95027 335.857792 
L 598.868729 274.671818 
L 607.867352 274.671818 
L 616.813505 213.485844 
L 625.722802 152.29987 
L 634.009106 91.113896 
L 642.854064 29.927922 
L 652.160436 29.927922 
L 660.796965 29.927922 
L 669.388103 91.113896 
L 678.49271 152.29987 
L 686.952253 152.29987 
L 695.941091 152.29987 
L 704.969281 335.857792 
L 713.453602 335.857792 
L 722.549464 335.857792 
L 731.158926 335.857792 
L 739.895817 335.857792 
L 748.761597 274.671818 
L 757.652154 213.485844 
L 766.505649 152.29987 
L 775.348732 91.113896 
L 784.149963 91.113896 
L 792.921211 29.927922 
L 801.645609 29.927922 
L 810.921998 29.927922 
L 819.56519 91.113896 
L 828.197972 152.29987 
L 837.381286 213.485844 
L 846.005739 274.671818 
L 854.636439 274.671818 
L 863.761868 335.857792 
L 872.358836 335.857792 
L 881.048045 335.857792 
L 889.815753 335.857792 
L 898.665083 274.671818 
L 907.510249 213.485844 
L 916.336883 152.29987 
L 925.188504 91.113896 
L 934.032212 29.927922 
L 942.783054 29.927922 
L 952.035705 29.927922 
L 960.651205 91.113896 
L 969.258584 91.113896 
L 978.39484 152.29987 
L 986.959118 213.485844 
L 996.084964 274.671818 
L 1004.703795 335.857792 
L 1013.387382 335.857792 
L 1022.11761 335.857792 
" style="fill:none;stroke:#0000ff;stroke-linecap:square;"/>
    <defs>
     <path d="M 0 2 
C 0.530406 2 1.03916 1.789267 1.414214 1.414214 
C 1.789267 1.03916 2 0.530406 2 0 
C 2 -0.530406 1.789267 -1.03916 1.414214 -1.414214 
C 1.03916 -1.789267 0.530406 -2 0 -2 
C -0.530406 -2 -1.03916 -1.789267 -1.414214 -1.414214 
C -1.789267 -1.03916 -2 -0.530406 -2 0 
C -2 0.530406 -1.789267 1.03916 -1.414214 1.414214 
C -1.03916 1.789267 -0.530406 2 0 2 
z
" id="m8814a926e4" style="stroke:#0000ff;"/>
    </defs>
    <g clip-path="url(#p223f5b1fc2)">
     <use style="fill:#0000ff;stroke:#0000ff;" x="153.292675" xlink:href="#m8814a926e4" y="335.857792"/>
     <use style="fill:#0000ff;stroke:#0000ff;" x="157.939094" xlink:href="#m8814a926e4" y="335.857792"/>
     <use style="fill:#0000ff;stroke:#0000ff;" x="166.722419" xlink:href="#m8814a926e4" y="274.671818"/>
     <use style="fill:#0000ff;stroke:#0000ff;" x="175.547803" xlink:href="#m8814a926e4" y="213.485844"/>
     <use style="fill:#0000ff;stroke:#0000ff;" x="184.414624" xlink:href="#m8814a926e4" y="152.29987"/>
     <use style="fill:#0000ff;stroke:#0000ff;" x="193.285192" xlink:href="#m8814a926e4" y="91.113896"/>
     <use style="fill:#0000ff;stroke:#0000ff;" x="202.126194" xlink:href="#m8814a926e4" y="91.113896"/>
     <use style="fill:#0000ff;stroke:#0000ff;" x="210.881825" xlink:href="#m8814a926e4" y="29.927922"/>
     <use style="fill:#0000ff;stroke:#0000ff;" x="219.568119" xlink:href="#m8814a926e4" y="29.927922"/>
     <use style="fill:#0000ff;stroke:#0000ff;" x="228.183202" xlink:href="#m8814a926e4" y="29.927922"/>
     <use style="fill:#0000ff;stroke:#0000ff;" x="237.360686" xlink:href="#m8814a926e4" y="91.113896"/>
     <use style="fill:#0000ff;stroke:#0000ff;" x="245.880821" xlink:href="#m8814a926e4" y="152.29987"/>
     <use style="fill:#0000ff;stroke:#0000ff;" x="254.925669" xlink:href="#m8814a926e4" y="213.485844"/>
     <use style="fill:#0000ff;stroke:#0000ff;" x="263.979679" xlink:href="#m8814a926e4" y="274.671818"/>
     <use style="fill:#0000ff;stroke:#0000ff;" x="272.502729" xlink:href="#m8814a926e4" y="335.857792"/>
     <use style="fill:#0000ff;stroke:#0000ff;" x="281.610876" xlink:href="#m8814a926e4" y="335.857792"/>
     <use style="fill:#0000ff;stroke:#0000ff;" x="290.176195" xlink:href="#m8814a926e4" y="335.857792"/>
     <use style="fill:#0000ff;stroke:#0000ff;" x="298.838544" xlink:href="#m8814a926e4" y="335.857792"/>
     <use style="fill:#0000ff;stroke:#0000ff;" x="307.5948" xlink:href="#m8814a926e4" y="335.857792"/>
     <use style="fill:#0000ff;stroke:#0000ff;" x="316.955309" xlink:href="#m8814a926e4" y="274.671818"/>
     <use style="fill:#0000ff;stroke:#0000ff;" x="325.717395" xlink:href="#m8814a926e4" y="213.485844"/>
     <use style="fill:#0000ff;stroke:#0000ff;" x="334.493848" xlink:href="#m8814a926e4" y="152.29987"/>
     <use style="fill:#0000ff;stroke:#0000ff;" x="343.286334" xlink:href="#m8814a926e4" y="91.113896"/>
     <use style="fill:#0000ff;stroke:#0000ff;" x="352.044048" xlink:href="#m8814a926e4" y="29.927922"/>
     <use style="fill:#0000ff;stroke:#0000ff;" x="360.73763" xlink:href="#m8814a926e4" y="29.927922"/>
     <use style="fill:#0000ff;stroke:#0000ff;" x="369.35417" xlink:href="#m8814a926e4" y="29.927922"/>
     <use style="fill:#0000ff;stroke:#0000ff;" x="378.536651" xlink:href="#m8814a926e4" y="91.113896"/>
     <use style="fill:#0000ff;stroke:#0000ff;" x="387.117587" xlink:href="#m8814a926e4" y="91.113896"/>
     <use style="fill:#0000ff;stroke:#0000ff;" x="396.209492" xlink:href="#m8814a926e4" y="152.29987"/>
     <use style="fill:#0000ff;stroke:#0000ff;" x="404.714844" xlink:href="#m8814a926e4" y="274.671818"/>
     <use style="fill:#0000ff;stroke:#0000ff;" x="413.824865" xlink:href="#m8814a926e4" y="274.671818"/>
     <use style="fill:#0000ff;stroke:#0000ff;" x="422.387268" xlink:href="#m8814a926e4" y="335.857792"/>
     <use style="fill:#0000ff;stroke:#0000ff;" x="431.561213" xlink:href="#m8814a926e4" y="335.857792"/>
     <use style="fill:#0000ff;stroke:#0000ff;" x="440.200866" xlink:href="#m8814a926e4" y="335.857792"/>
     <use style="fill:#0000ff;stroke:#0000ff;" x="448.947752" xlink:href="#m8814a926e4" y="335.857792"/>
     <use style="fill:#0000ff;stroke:#0000ff;" x="457.766265" xlink:href="#m8814a926e4" y="274.671818"/>
     <use style="fill:#0000ff;stroke:#0000ff;" x="466.635793" xlink:href="#m8814a926e4" y="213.485844"/>
     <use style="fill:#0000ff;stroke:#0000ff;" x="475.52406" xlink:href="#m8814a926e4" y="152.29987"/>
     <use style="fill:#0000ff;stroke:#0000ff;" x="484.424612" xlink:href="#m8814a926e4" y="152.29987"/>
     <use style="fill:#0000ff;stroke:#0000ff;" x="493.343904" xlink:href="#m8814a926e4" y="91.113896"/>
     <use style="fill:#0000ff;stroke:#0000ff;" x="502.209891" xlink:href="#m8814a926e4" y="29.927922"/>
     <use style="fill:#0000ff;stroke:#0000ff;" x="510.467253" xlink:href="#m8814a926e4" y="29.927922"/>
     <use style="fill:#0000ff;stroke:#0000ff;" x="519.280978" xlink:href="#m8814a926e4" y="29.927922"/>
     <use style="fill:#0000ff;stroke:#0000ff;" x="528.627536" xlink:href="#m8814a926e4" y="91.113896"/>
     <use style="fill:#0000ff;stroke:#0000ff;" x="537.348186" xlink:href="#m8814a926e4" y="152.29987"/>
     <use style="fill:#0000ff;stroke:#0000ff;" x="545.990963" xlink:href="#m8814a926e4" y="213.485844"/>
     <use style="fill:#0000ff;stroke:#0000ff;" x="554.636238" xlink:href="#m8814a926e4" y="274.671818"/>
     <use style="fill:#0000ff;stroke:#0000ff;" x="563.823716" xlink:href="#m8814a926e4" y="274.671818"/>
     <use style="fill:#0000ff;stroke:#0000ff;" x="572.47607" xlink:href="#m8814a926e4" y="335.857792"/>
     <use style="fill:#0000ff;stroke:#0000ff;" x="581.155285" xlink:href="#m8814a926e4" y="335.857792"/>
     <use style="fill:#0000ff;stroke:#0000ff;" x="589.95027" xlink:href="#m8814a926e4" y="335.857792"/>
     <use style="fill:#0000ff;stroke:#0000ff;" x="598.868729" xlink:href="#m8814a926e4" y="274.671818"/>
     <use style="fill:#0000ff;stroke:#0000ff;" x="607.867352" xlink:href="#m8814a926e4" y="274.671818"/>
     <use style="fill:#0000ff;stroke:#0000ff;" x="616.813505" xlink:href="#m8814a926e4" y="213.485844"/>
     <use style="fill:#0000ff;stroke:#0000ff;" x="625.722802" xlink:href="#m8814a926e4" y="152.29987"/>
     <use style="fill:#0000ff;stroke:#0000ff;" x="634.009106" xlink:href="#m8814a926e4" y="91.113896"/>
     <use style="fill:#0000ff;stroke:#0000ff;" x="642.854064" xlink:href="#m8814a926e4" y="29.927922"/>
     <use style="fill:#0000ff;stroke:#0000ff;" x="652.160436" xlink:href="#m8814a926e4" y="29.927922"/>
     <use style="fill:#0000ff;stroke:#0000ff;" x="660.796965" xlink:href="#m8814a926e4" y="29.927922"/>
     <use style="fill:#0000ff;stroke:#0000ff;" x="669.388103" xlink:href="#m8814a926e4" y="91.113896"/>
     <use style="fill:#0000ff;stroke:#0000ff;" x="678.49271" xlink:href="#m8814a926e4" y="152.29987"/>
     <use style="fill:#0000ff;stroke:#0000ff;" x="686.952253" xlink:href="#m8814a926e4" y="152.29987"/>
     <use style="fill:#0000ff;stroke:#0000ff;" x="695.941091" xlink:href="#m8814a926e4" y="152.29987"/>
     <use style="fill:#0000ff;stroke:#0000ff;" x="704.969281" xlink:href="#m8814a926e4" y="335.857792"/>
     <use style="fill:#0000ff;stroke:#0000ff;" x="713.453602" xlink:href="#m8814a926e4" y="335.857792"/>
     <use style="fill:#0000ff;stroke:#0000ff;" x="722.549464" xlink:href="#m8814a926e4" y="335.857792"/>
     <use style="fill:#0000ff;stroke:#0000ff;" x="731.158926" xlink:href="#m8814a926e4" y="335.857792"/>
     <use style="fill:#0000ff;stroke:#0000ff;" x="739.895817" xlink:href="#m8814a926e4" y="335.857792"/>
     <use style="fill:#0000ff;stroke:#0000ff;" x="748.761597" xlink:href="#m8814a926e4" y="274.671818"/>
     <use style="fill:#0000ff;stroke:#0000ff;" x="757.652154" xlink:href="#m8814a926e4" y="213.485844"/>
     <use style="fill:#0000ff;stroke:#0000ff;" x="766.505649" xlink:href="#m8814a926e4" y="152.29987"/>
     <use style="fill:#0000ff;stroke:#0000ff;" x="775.348732" xlink:href="#m8814a926e4" y="91.113896"/>
     <use style="fill:#0000ff;stroke:#0000ff;" x="784.149963" xlink:href="#m8814a926e4" y="91.113896"/>
     <use style="fill:#0000ff;stroke:#0000ff;" x="792.921211" xlink:href="#m8814a926e4" y="29.927922"/>
     <use style="fill:#0000ff;stroke:#0000ff;" x="801.645609" xlink:href="#m8814a926e4" y="29.927922"/>
     <use style="fill:#0000ff;stroke:#0000ff;" x="810.921998" xlink:href="#m8814a926e4" y="29.927922"/>
     <use style="fill:#0000ff;stroke:#0000ff;" x="819.56519" xlink:href="#m8814a926e4" y="91.113896"/>
     <use style="fill:#0000ff;stroke:#0000ff;" x="828.197972" xlink:href="#m8814a926e4" y="152.29987"/>
     <use style="fill:#0000ff;stroke:#0000ff;" x="837.381286" xlink:href="#m8814a926e4" y="213.485844"/>
     <use style="fill:#0000ff;stroke:#0000ff;" x="846.005739" xlink:href="#m8814a926e4" y="274.671818"/>
     <use style="fill:#0000ff;stroke:#0000ff;" x="854.636439" xlink:href="#m8814a926e4" y="274.671818"/>
     <use style="fill:#0000ff;stroke:#0000ff;" x="863.761868" xlink:href="#m8814a926e4" y="335.857792"/>
     <use style="fill:#0000ff;stroke:#0000ff;" x="872.358836" xlink:href="#m8814a926e4" y="335.857792"/>
     <use style="fill:#0000ff;stroke:#0000ff;" x="881.048045" xlink:href="#m8814a926e4" y="335.857792"/>
     <use style="fill:#0000ff;stroke:#0000ff;" x="889.815753" xlink:href="#m8814a926e4" y="335.857792"/>
     <use style="fill:#0000ff;stroke:#0000ff;" x="898.665083" xlink:href="#m8814a926e4" y="274.671818"/>
     <use style="fill:#0000ff;stroke:#0000ff;" x="907.510249" xlink:href="#m8814a926e4" y="213.485844"/>
     <use style="fill:#0000ff;stroke:#0000ff;" x="916.336883" xlink:href="#m8814a926e4" y="152.29987"/>
     <use style="fill:#0000ff;stroke:#0000ff;" x="925.188504" xlink:href="#m8814a926e4" y="91.113896"/>
     <use style="fill:#0000ff;stroke:#0000ff;" x="934.032212" xlink:href="#m8814a926e4" y="29.927922"/>
     <use style="fill:#0000ff;stroke:#0000ff;" x="942.783054" xlink:href="#m8814a926e4" y="29.927922"/>
     <use style="fill:#0000ff;stroke:#0000ff;" x="952.035705" xlink:href="#m8814a926e4" y="29.927922"/>
     <use style="fill:#0000ff;stroke:#0000ff;" x="960.651205" xlink:href="#m8814a926e4" y="91.113896"/>
     <use style="fill:#0000ff;stroke:#0000ff;" x="969.258584" xlink:href="#m8814a926e4" y="91.113896"/>
     <use style="fill:#0000ff;stroke:#0000ff;" x="978.39484" xlink:href="#m8814a926e4" y="152.29987"/>
     <use style="fill:#0000ff;stroke:#0000ff;" x="986.959118" xlink:href="#m8814a926e4" y="213.485844"/>
     <use style="fill:#0000ff;stroke:#0000ff;" x="996.084964" xlink:href="#m8814a926e4" y="274.671818"/>
     <use style="fill:#0000ff;stroke:#0000ff;" x="1004.703795" xlink:href="#m8814a926e4" y="335.857792"/>
     <use style="fill:#0000ff;stroke:#0000ff;" x="1013.387382" xlink:href="#m8814a926e4" y="335.857792"/>
     <use style="fill:#0000ff;stroke:#0000ff;" x="1022.11761" xlink:href="#m8814a926e4" y="335.857792"/>
    </g>
   </g>
   <g id="patch_3">
    <path d="M 109.851429 351.154286 
L 109.851429 14.631429 
" style="fill:none;stroke:#000000;stroke-linecap:square;stroke-linejoin:miter;stroke-width:0.8;"/>
   </g>
   <g id="patch_4">
    <path d="M 1065.558857 351.154286 
L 1065.558857 14.631429 
" style="fill:none;stroke:#000000;stroke-linecap:square;stroke-linejoin:miter;stroke-width:0.8;"/>
   </g>
   <g id="patch_5">
    <path d="M 109.851429 351.154286 
L 1065.558857 351.154286 
" style="fill:none;stroke:#000000;stroke-linecap:square;stroke-linejoin:miter;stroke-width:0.8;"/>
   </g>
   <g id="patch_6">
    <path d="M 109.851429 14.631429 
L 1065.558857 14.631429 
" style="fill:none;stroke:#000000;stroke-linecap:square;stroke-linejoin:miter;stroke-width:0.8;"/>
   </g>
  </g>
 </g>
 <defs>
  <clipPath id="p223f5b1fc2">
   <rect height="336.522857" width="955.707429" x="109.851429" y="14.631429"/>
  </clipPath>
 </defs>
</svg>
