<?xml version="1.0" encoding="utf-8" standalone="no"?>
<!DOCTYPE svg PUBLIC "-//W3C//DTD SVG 1.1//EN"
  "http://www.w3.org/Graphics/SVG/1.1/DTD/svg11.dtd">
<!-- Created with matplotlib (https://matplotlib.org/) -->
<svg height="360pt" version="1.1" viewBox="0 0 460.8 360" width="460.8pt" xmlns="http://www.w3.org/2000/svg" xmlns:xlink="http://www.w3.org/1999/xlink">
 <defs>
  <style type="text/css">
*{stroke-linecap:butt;stroke-linejoin:round;}
  </style>
 </defs>
 <g id="figure_1">
  <g id="patch_1">
   <path d="M 0 360 
L 460.8 360 
L 460.8 0 
L 0 0 
z
" style="fill:#ffffff;"/>
  </g>
  <g id="axes_1">
   <g id="patch_2">
    <path d="M 57.6 169.2 
L 414.72 169.2 
L 414.72 43.2 
L 57.6 43.2 
z
" style="fill:#ffffff;"/>
   </g>
   <g id="matplotlib.axis_1">
    <g id="xtick_1">
     <g id="line2d_1">
      <path clip-path="url(#pb613319b67)" d="M 57.6 169.2 
L 57.6 43.2 
" style="fill:none;stroke:#c0c0c0;stroke-dasharray:0.8,1.32;stroke-dashoffset:0;stroke-width:0.8;"/>
     </g>
    </g>
    <g id="xtick_2">
     <g id="line2d_2">
      <path clip-path="url(#pb613319b67)" d="M 102.00714 169.2 
L 102.00714 43.2 
" style="fill:none;stroke:#c0c0c0;stroke-dasharray:0.8,1.32;stroke-dashoffset:0;stroke-width:0.8;"/>
     </g>
    </g>
    <g id="xtick_3">
     <g id="line2d_3">
      <path clip-path="url(#pb613319b67)" d="M 146.41428 169.2 
L 146.41428 43.2 
" style="fill:none;stroke:#c0c0c0;stroke-dasharray:0.8,1.32;stroke-dashoffset:0;stroke-width:0.8;"/>
     </g>
    </g>
    <g id="xtick_4">
     <g id="line2d_4">
      <path clip-path="url(#pb613319b67)" d="M 190.82142 169.2 
L 190.82142 43.2 
" style="fill:none;stroke:#c0c0c0;stroke-dasharray:0.8,1.32;stroke-dashoffset:0;stroke-width:0.8;"/>
     </g>
    </g>
    <g id="xtick_5">
     <g id="line2d_5">
      <path clip-path="url(#pb613319b67)" d="M 235.22856 169.2 
L 235.22856 43.2 
" style="fill:none;stroke:#c0c0c0;stroke-dasharray:0.8,1.32;stroke-dashoffset:0;stroke-width:0.8;"/>
     </g>
    </g>
    <g id="xtick_6">
     <g id="line2d_6">
      <path clip-path="url(#pb613319b67)" d="M 279.6357 169.2 
L 279.6357 43.2 
" style="fill:none;stroke:#c0c0c0;stroke-dasharray:0.8,1.32;stroke-dashoffset:0;stroke-width:0.8;"/>
     </g>
    </g>
    <g id="xtick_7">
     <g id="line2d_7">
      <path clip-path="url(#pb613319b67)" d="M 324.04284 169.2 
L 324.04284 43.2 
" style="fill:none;stroke:#c0c0c0;stroke-dasharray:0.8,1.32;stroke-dashoffset:0;stroke-width:0.8;"/>
     </g>
    </g>
    <g id="xtick_8">
     <g id="line2d_8">
      <path clip-path="url(#pb613319b67)" d="M 368.44998 169.2 
L 368.44998 43.2 
" style="fill:none;stroke:#c0c0c0;stroke-dasharray:0.8,1.32;stroke-dashoffset:0;stroke-width:0.8;"/>
     </g>
    </g>
    <g id="xtick_9">
     <g id="line2d_9">
      <path clip-path="url(#pb613319b67)" d="M 412.857121 169.2 
L 412.857121 43.2 
" style="fill:none;stroke:#c0c0c0;stroke-dasharray:0.8,1.32;stroke-dashoffset:0;stroke-width:0.8;"/>
     </g>
    </g>
   </g>
   <g id="matplotlib.axis_2">
    <g id="ytick_1">
     <g id="line2d_10">
      <path clip-path="url(#pb613319b67)" d="M 57.6 151.517338 
L 414.72 151.517338 
" style="fill:none;stroke:#c0c0c0;stroke-dasharray:0.8,1.32;stroke-dashoffset:0;stroke-width:0.8;"/>
     </g>
     <g id="line2d_11">
      <defs>
       <path d="M 0 0 
L -3.5 0 
" id="m9a5f752f46" style="stroke:#000000;stroke-width:0.8;"/>
      </defs>
      <g>
       <use style="stroke:#000000;stroke-width:0.8;" x="57.6" xlink:href="#m9a5f752f46" y="151.517338"/>
      </g>
     </g>
     <g id="text_1">
      <!-- −0.2 -->
      <defs>
       <path d="M 10.59375 35.5 
L 73.1875 35.5 
L 73.1875 27.203125 
L 10.59375 27.203125 
z
" id="DejaVuSans-8722"/>
       <path d="M 31.78125 66.40625 
Q 24.171875 66.40625 20.328125 58.90625 
Q 16.5 51.421875 16.5 36.375 
Q 16.5 21.390625 20.328125 13.890625 
Q 24.171875 6.390625 31.78125 6.390625 
Q 39.453125 6.390625 43.28125 13.890625 
Q 47.125 21.390625 47.125 36.375 
Q 47.125 51.421875 43.28125 58.90625 
Q 39.453125 66.40625 31.78125 66.40625 
z
M 31.78125 74.21875 
Q 44.046875 74.21875 50.515625 64.515625 
Q 56.984375 54.828125 56.984375 36.375 
Q 56.984375 17.96875 50.515625 8.265625 
Q 44.046875 -1.421875 31.78125 -1.421875 
Q 19.53125 -1.421875 13.0625 8.265625 
Q 6.59375 17.96875 6.59375 36.375 
Q 6.59375 54.828125 13.0625 64.515625 
Q 19.53125 74.21875 31.78125 74.21875 
z
" id="DejaVuSans-48"/>
       <path d="M 10.6875 12.40625 
L 21 12.40625 
L 21 0 
L 10.6875 0 
z
" id="DejaVuSans-46"/>
       <path d="M 19.1875 8.296875 
L 53.609375 8.296875 
L 53.609375 0 
L 7.328125 0 
L 7.328125 8.296875 
Q 12.9375 14.109375 22.625 23.890625 
Q 32.328125 33.6875 34.8125 36.53125 
Q 39.546875 41.84375 41.421875 45.53125 
Q 43.3125 49.21875 43.3125 52.78125 
Q 43.3125 58.59375 39.234375 62.25 
Q 35.15625 65.921875 28.609375 65.921875 
Q 23.96875 65.921875 18.8125 64.3125 
Q 13.671875 62.703125 7.8125 59.421875 
L 7.8125 69.390625 
Q 13.765625 71.78125 18.9375 73 
Q 24.125 74.21875 28.421875 74.21875 
Q 39.75 74.21875 46.484375 68.546875 
Q 53.21875 62.890625 53.21875 53.421875 
Q 53.21875 48.921875 51.53125 44.890625 
Q 49.859375 40.875 45.40625 35.40625 
Q 44.1875 33.984375 37.640625 27.21875 
Q 31.109375 20.453125 19.1875 8.296875 
z
" id="DejaVuSans-50"/>
      </defs>
      <g transform="translate(26.317187 155.316557)scale(0.1 -0.1)">
       <use xlink:href="#DejaVuSans-8722"/>
       <use x="83.789062" xlink:href="#DejaVuSans-48"/>
       <use x="147.412109" xlink:href="#DejaVuSans-46"/>
       <use x="179.199219" xlink:href="#DejaVuSans-50"/>
      </g>
     </g>
    </g>
    <g id="ytick_2">
     <g id="line2d_12">
      <path clip-path="url(#pb613319b67)" d="M 57.6 129.395266 
L 414.72 129.395266 
" style="fill:none;stroke:#c0c0c0;stroke-dasharray:0.8,1.32;stroke-dashoffset:0;stroke-width:0.8;"/>
     </g>
     <g id="line2d_13">
      <g>
       <use style="stroke:#000000;stroke-width:0.8;" x="57.6" xlink:href="#m9a5f752f46" y="129.395266"/>
      </g>
     </g>
     <g id="text_2">
      <!-- −0.1 -->
      <defs>
       <path d="M 12.40625 8.296875 
L 28.515625 8.296875 
L 28.515625 63.921875 
L 10.984375 60.40625 
L 10.984375 69.390625 
L 28.421875 72.90625 
L 38.28125 72.90625 
L 38.28125 8.296875 
L 54.390625 8.296875 
L 54.390625 0 
L 12.40625 0 
z
" id="DejaVuSans-49"/>
      </defs>
      <g transform="translate(26.317187 133.194485)scale(0.1 -0.1)">
       <use xlink:href="#DejaVuSans-8722"/>
       <use x="83.789062" xlink:href="#DejaVuSans-48"/>
       <use x="147.412109" xlink:href="#DejaVuSans-46"/>
       <use x="179.199219" xlink:href="#DejaVuSans-49"/>
      </g>
     </g>
    </g>
    <g id="ytick_3">
     <g id="line2d_14">
      <path clip-path="url(#pb613319b67)" d="M 57.6 107.273194 
L 414.72 107.273194 
" style="fill:none;stroke:#c0c0c0;stroke-dasharray:0.8,1.32;stroke-dashoffset:0;stroke-width:0.8;"/>
     </g>
     <g id="line2d_15">
      <g>
       <use style="stroke:#000000;stroke-width:0.8;" x="57.6" xlink:href="#m9a5f752f46" y="107.273194"/>
      </g>
     </g>
     <g id="text_3">
      <!-- 0.0 -->
      <g transform="translate(34.696875 111.072413)scale(0.1 -0.1)">
       <use xlink:href="#DejaVuSans-48"/>
       <use x="63.623047" xlink:href="#DejaVuSans-46"/>
       <use x="95.410156" xlink:href="#DejaVuSans-48"/>
      </g>
     </g>
    </g>
    <g id="ytick_4">
     <g id="line2d_16">
      <path clip-path="url(#pb613319b67)" d="M 57.6 85.151122 
L 414.72 85.151122 
" style="fill:none;stroke:#c0c0c0;stroke-dasharray:0.8,1.32;stroke-dashoffset:0;stroke-width:0.8;"/>
     </g>
     <g id="line2d_17">
      <g>
       <use style="stroke:#000000;stroke-width:0.8;" x="57.6" xlink:href="#m9a5f752f46" y="85.151122"/>
      </g>
     </g>
     <g id="text_4">
      <!-- 0.1 -->
      <g transform="translate(34.696875 88.950341)scale(0.1 -0.1)">
       <use xlink:href="#DejaVuSans-48"/>
       <use x="63.623047" xlink:href="#DejaVuSans-46"/>
       <use x="95.410156" xlink:href="#DejaVuSans-49"/>
      </g>
     </g>
    </g>
    <g id="ytick_5">
     <g id="line2d_18">
      <path clip-path="url(#pb613319b67)" d="M 57.6 63.029051 
L 414.72 63.029051 
" style="fill:none;stroke:#c0c0c0;stroke-dasharray:0.8,1.32;stroke-dashoffset:0;stroke-width:0.8;"/>
     </g>
     <g id="line2d_19">
      <g>
       <use style="stroke:#000000;stroke-width:0.8;" x="57.6" xlink:href="#m9a5f752f46" y="63.029051"/>
      </g>
     </g>
     <g id="text_5">
      <!-- 0.2 -->
      <g transform="translate(34.696875 66.828269)scale(0.1 -0.1)">
       <use xlink:href="#DejaVuSans-48"/>
       <use x="63.623047" xlink:href="#DejaVuSans-46"/>
       <use x="95.410156" xlink:href="#DejaVuSans-50"/>
      </g>
     </g>
    </g>
   </g>
   <g id="line2d_20">
    <path clip-path="url(#pb613319b67)" d="M 57.6 107.273194 
L 414.72 107.273194 
L 414.72 107.273194 
" style="fill:none;stroke:#008000;stroke-linecap:square;stroke-width:0.8;"/>
   </g>
   <g id="line2d_21">
    <path clip-path="url(#pb613319b67)" d="M 57.6 135.620136 
L 58.314955 143.649726 
L 59.02991 148.807042 
L 59.387387 150.339042 
L 59.744865 151.224925 
L 60.102342 151.517149 
L 60.45982 151.272791 
L 60.817297 150.549709 
L 61.532252 147.891945 
L 62.247207 143.953335 
L 63.31964 136.31713 
L 64.74955 123.952168 
L 66.536937 106.144642 
L 69.754234 73.034509 
L 70.469189 67.610088 
L 71.184144 64.061042 
L 71.541622 63.204463 
L 71.899099 63.068414 
L 72.256577 63.722257 
L 72.614054 65.218307 
L 72.971532 67.585441 
L 73.686486 74.901035 
L 74.401441 85.268522 
L 75.831351 111.052818 
L 76.903784 129.476226 
L 77.618739 139.148099 
L 78.333694 146.041709 
L 79.048649 150.078431 
L 79.406126 151.093209 
L 79.763604 151.502819 
L 80.121081 151.36402 
L 80.478559 150.735006 
L 80.836036 149.672666 
L 81.550991 146.461779 
L 82.265946 142.107906 
L 83.338378 134.03605 
L 84.768288 121.290655 
L 86.555676 103.169851 
L 89.415495 73.700398 
L 90.13045 68.113671 
L 90.845405 64.330911 
L 91.202883 63.329912 
L 91.56036 63.033239 
L 91.917838 63.512833 
L 92.275315 64.825198 
L 92.632793 67.004891 
L 93.347748 73.961957 
L 94.062703 84.041126 
L 95.492613 109.642048 
L 96.565045 128.302688 
L 97.28 138.247563 
L 97.994955 145.448216 
L 98.70991 149.781263 
L 99.067387 150.931063 
L 99.424865 151.463977 
L 99.782342 151.435985 
L 100.13982 150.905326 
L 100.497297 149.929241 
L 101.212252 146.857917 
L 101.927207 142.608841 
L 102.99964 134.646085 
L 104.42955 121.995682 
L 106.216937 103.953642 
L 109.076757 74.345872 
L 109.791712 68.611789 
L 110.506667 64.613388 
L 110.864144 63.478905 
L 111.221622 63.032824 
L 111.579099 63.349592 
L 111.936577 64.488884 
L 112.294054 66.490202 
L 113.009009 73.099716 
L 113.723964 82.89021 
L 114.796396 101.607911 
L 116.226306 127.144397 
L 116.941261 137.344842 
L 117.656216 144.838933 
L 118.371171 149.460934 
L 118.728649 150.744801 
L 119.086126 151.401438 
L 119.443604 151.48503 
L 119.801081 151.053789 
L 120.158559 150.165772 
L 120.873514 147.238437 
L 121.588468 143.097271 
L 122.660901 135.246903 
L 124.090811 122.696561 
L 125.878198 104.741757 
L 128.738018 75.01963 
L 129.452973 69.14162 
L 130.167928 64.930103 
L 130.525405 63.661933 
L 130.882883 63.065339 
L 131.24036 63.217009 
L 131.597838 64.18028 
L 131.955315 65.999009 
L 132.312793 68.691753 
L 133.027748 76.621456 
L 133.742703 87.466648 
L 136.602523 136.388016 
L 137.317477 144.182436 
L 138.032432 149.104334 
L 138.38991 150.527276 
L 138.747387 151.312094 
L 139.104865 151.512299 
L 139.462342 151.18554 
L 139.81982 150.389754 
L 140.534775 147.613025 
L 141.24973 143.586413 
L 142.322162 135.861804 
L 143.752072 123.423271 
L 145.539459 105.559635 
L 148.756757 72.562702 
L 149.471712 67.258325 
L 150.186667 63.883496 
L 150.544144 63.133946 
L 150.901622 63.116852 
L 151.259099 63.899227 
L 151.616577 65.530034 
L 151.974054 68.034063 
L 152.689009 75.608751 
L 153.403964 86.180139 
L 156.621261 139.781119 
L 157.336216 146.451499 
L 158.051171 150.275775 
L 158.408649 151.194206 
L 158.766126 151.5157 
L 159.123604 151.29766 
L 159.481081 150.598396 
L 159.838559 149.474463 
L 160.553514 146.16346 
L 161.268468 141.735692 
L 162.340901 133.581271 
L 163.770811 120.754683 
L 165.558198 102.57406 
L 168.418018 73.203732 
L 169.132973 67.736994 
L 169.847928 64.127029 
L 170.205405 63.233209 
L 170.562883 63.056099 
L 170.92036 63.665614 
L 171.277838 65.115006 
L 171.635315 67.434726 
L 172.35027 74.660639 
L 173.065225 84.956459 
L 174.495135 110.694974 
L 175.567568 129.17867 
L 176.282523 138.919659 
L 176.997477 145.891348 
L 177.712432 150.003768 
L 178.06991 151.053609 
L 178.427387 151.495104 
L 178.784865 151.384783 
L 179.142342 150.780913 
L 179.49982 149.740736 
L 180.214775 146.566602 
L 180.92973 142.242002 
L 182.002162 134.198638 
L 183.432072 121.477323 
L 185.219459 103.378174 
L 188.079279 73.862898 
L 188.794234 68.237885 
L 189.509189 64.40011 
L 189.866667 63.364999 
L 190.224144 63.030117 
L 190.581622 63.468245 
L 190.939099 64.736495 
L 191.296577 66.870606 
L 192.011532 73.738236 
L 192.726486 83.741472 
L 194.156396 109.284497 
L 195.228829 127.996874 
L 195.943784 138.008866 
L 196.658739 145.286419 
L 197.373694 149.696841 
L 197.731171 150.882741 
L 198.088649 151.449211 
L 198.446126 151.45171 
L 198.803604 150.9483 
L 199.161081 149.996392 
L 199.876036 146.965295 
L 200.590991 142.747299 
L 201.663423 134.817486 
L 203.093333 122.199435 
L 204.880721 104.178241 
L 207.740541 74.541079 
L 208.455495 68.765976 
L 209.17045 64.704503 
L 209.527928 63.530075 
L 209.885405 63.039007 
L 210.242883 63.30658 
L 210.60036 64.393886 
L 210.957838 66.341749 
L 211.672793 72.845729 
L 212.387748 82.548177 
L 213.46018 101.199844 
L 214.89009 126.797375 
L 215.605045 137.073978 
L 216.32 144.655511 
L 217.034955 149.363696 
L 217.392432 150.686828 
L 217.74991 151.379058 
L 218.107387 151.495005 
L 218.464865 151.092489 
L 218.822342 150.229365 
L 219.537297 147.343328 
L 220.252252 143.232363 
L 221.324685 135.415558 
L 222.754595 122.890424 
L 224.541982 104.96185 
L 227.401802 75.213346 
L 228.116757 69.295767 
L 228.831712 65.025067 
L 229.189189 63.719523 
L 229.546667 63.080617 
L 229.904144 63.185844 
L 230.261622 64.099625 
L 230.619099 65.867478 
L 230.976577 68.509995 
L 231.691532 76.34662 
L 232.406486 87.121856 
L 235.266306 136.125022 
L 235.981261 144.001445 
L 236.696216 149.004514 
L 237.053694 150.464888 
L 237.411171 151.284212 
L 237.768649 151.515564 
L 238.126126 151.216655 
L 238.483604 150.44534 
L 239.198559 147.709146 
L 239.913514 143.712026 
L 240.985946 136.014158 
L 242.415856 123.602643 
L 244.203243 105.761137 
L 247.420541 72.719887 
L 248.135495 67.374857 
L 248.85045 63.941224 
L 249.207928 63.155601 
L 249.565405 63.098442 
L 249.922883 63.837368 
L 250.28036 65.422155 
L 250.637838 67.878735 
L 251.352793 75.364802 
L 252.067748 85.867728 
L 255.285045 139.568632 
L 256 146.314877 
L 256.714955 150.210641 
L 257.072432 151.16139 
L 257.42991 151.512751 
L 257.787387 151.32153 
L 258.144865 150.645747 
L 258.502342 149.542298 
L 259.217297 146.266171 
L 259.932252 141.863626 
L 261.004685 133.740295 
L 262.434595 120.945654 
L 264.221982 102.78657 
L 267.081802 73.378325 
L 267.796757 67.868533 
L 268.511712 64.197632 
L 268.869189 63.265713 
L 269.226667 63.045586 
L 269.584144 63.608176 
L 269.941622 65.007972 
L 270.299099 67.277019 
L 271.014054 74.405554 
L 271.729009 84.622996 
L 273.158919 110.313704 
L 274.231351 128.862784 
L 274.946306 138.678007 
L 275.661261 145.732768 
L 276.376216 149.925241 
L 276.733694 151.010914 
L 277.091171 151.485354 
L 277.448649 151.404879 
L 277.806126 150.827901 
L 278.163604 149.811507 
L 278.878559 146.674312 
L 279.593514 142.376533 
L 280.665946 134.360455 
L 282.095856 121.659793 
L 283.883243 103.581381 
L 286.743063 74.042985 
L 287.458018 68.37691 
L 288.172973 64.478306 
L 288.53045 63.405848 
L 288.887928 63.029058 
L 289.245405 63.421457 
L 289.602883 64.641453 
L 289.96036 66.726266 
L 290.675315 73.499096 
L 291.39027 83.425843 
L 292.462703 102.244269 
L 293.892613 127.685662 
L 294.607568 137.767844 
L 295.322523 145.125093 
L 296.037477 149.612582 
L 296.394955 150.834394 
L 296.752432 151.433506 
L 297.10991 151.464922 
L 297.467387 150.986953 
L 297.824865 150.057397 
L 298.53982 147.061664 
L 299.254775 142.869142 
L 300.327207 134.963891 
L 301.757117 122.368978 
L 303.544505 104.379105 
L 306.404324 74.701491 
L 307.119279 68.890325 
L 307.834234 64.778673 
L 308.191712 63.572645 
L 308.549189 63.046022 
L 308.906667 63.274539 
L 309.264144 64.320226 
L 309.621622 66.225063 
L 310.336577 72.645764 
L 311.051532 82.278514 
L 312.123964 100.874072 
L 313.553874 126.513039 
L 314.268829 136.84887 
L 314.983784 144.499995 
L 315.698739 149.2787 
L 316.056216 150.634743 
L 316.413694 151.357903 
L 316.771171 151.502267 
L 317.128649 151.125375 
L 317.486126 150.284847 
L 318.201081 147.435403 
L 318.916036 143.353296 
L 319.988468 135.565333 
L 321.418378 123.06952 
L 323.205766 105.152979 
L 326.065586 75.379698 
L 326.780541 69.428212 
L 327.495495 65.107878 
L 327.852973 63.770976 
L 328.21045 63.096015 
L 328.567928 63.160966 
L 328.925405 64.031301 
L 329.282883 65.753865 
L 329.64036 68.350642 
L 330.355315 76.101653 
L 331.07027 86.81098 
L 333.93009 135.883608 
L 334.645045 143.833667 
L 335.36 148.910399 
L 335.717477 150.405324 
L 336.074955 151.25659 
L 336.432432 151.517103 
L 336.78991 151.244427 
L 337.147387 150.496711 
L 337.862342 147.798356 
L 338.577297 143.828769 
L 339.64973 136.162121 
L 341.07964 123.776598 
L 342.867027 105.966222 
L 346.084324 72.885233 
L 346.799279 67.49744 
L 347.514234 64.002886 
L 347.871712 63.180035 
L 348.229189 63.081788 
L 348.586667 63.776308 
L 348.944144 65.314709 
L 349.301622 67.724842 
L 350.016577 75.122785 
L 350.731532 85.555562 
L 352.161441 111.376403 
L 353.233874 129.74253 
L 353.948829 139.349831 
L 354.663784 146.173084 
L 355.378739 150.142423 
L 355.736216 151.126579 
L 356.093694 151.508266 
L 356.451171 151.344339 
L 356.808649 150.693005 
L 357.166126 149.610927 
L 357.881081 146.368198 
L 358.596036 141.991299 
L 359.668468 133.895167 
L 361.098378 121.118537 
L 362.885766 102.979864 
L 365.745586 73.537189 
L 366.460541 67.989258 
L 367.175495 64.262517 
L 367.532973 63.296387 
L 367.89045 63.038486 
L 368.247928 63.560205 
L 368.605405 64.916856 
L 368.962883 67.141645 
L 369.677838 74.18394 
L 370.392793 84.330631 
L 371.822703 109.972586 
L 372.895135 128.576939 
L 373.61009 138.457799 
L 374.325045 145.585939 
L 375.04 149.850755 
L 375.397477 150.969844 
L 375.754955 151.474807 
L 376.112432 151.421882 
L 376.46991 150.868993 
L 376.827387 149.873541 
L 377.542342 146.772059 
L 378.257297 142.500371 
L 379.32973 134.514115 
L 380.75964 121.847801 
L 382.547027 103.797094 
L 385.406847 74.218079 
L 386.121802 68.513313 
L 386.836757 64.556892 
L 387.194234 63.447936 
L 387.551712 63.030429 
L 387.909189 63.378563 
L 388.266667 64.551728 
L 388.624144 66.588392 
L 389.339099 73.266705 
L 390.054054 83.114793 
L 391.126486 101.877158 
L 392.556396 127.377639 
L 393.271351 137.528429 
L 393.986306 144.96444 
L 394.701261 149.528943 
L 395.058739 150.785337 
L 395.416216 151.416262 
L 395.773694 151.476751 
L 396.131171 151.024886 
L 396.488649 150.118336 
L 397.203604 147.160431 
L 397.918559 142.996532 
L 398.990991 135.124867 
L 400.420901 122.550262 
L 402.208288 104.571819 
L 405.068108 74.863974 
L 405.783063 69.018952 
L 406.498018 64.855849 
L 406.855495 63.617857 
L 407.212973 63.05509 
L 407.57045 63.243865 
L 407.927928 64.246969 
L 408.285405 66.107508 
L 408.642883 68.842994 
L 409.357838 76.852786 
L 410.072793 87.758414 
L 412.932613 136.612985 
L 413.647568 144.338263 
L 414.362523 149.190634 
L 414.72 150.58097 
L 414.72 150.58097 
" style="fill:none;stroke:#0000ff;stroke-linecap:square;stroke-width:0.8;"/>
   </g>
   <g id="line2d_22">
    <path clip-path="url(#pb613319b67)" d="M 57.6 139.277272 
L 58.314955 150.897795 
L 59.02991 158.630582 
L 59.387387 161.336357 
L 59.744865 162.871406 
L 60.102342 163.396902 
L 60.45982 162.687471 
L 61.174775 159.583702 
L 61.88973 154.262428 
L 62.604685 146.630904 
L 64.392072 124.474845 
L 66.894414 91.547749 
L 68.324324 74.052402 
L 69.396757 62.582346 
L 70.469189 53.829888 
L 71.184144 50.126234 
L 71.541622 49.341704 
L 71.899099 49.105142 
L 72.256577 49.897697 
L 72.614054 51.540284 
L 73.329009 57.893052 
L 74.043964 67.828729 
L 74.758919 81.223798 
L 76.546306 122.115104 
L 77.618739 143.743307 
L 78.333694 154.112689 
L 79.048649 160.464915 
L 79.406126 162.521597 
L 79.763604 163.364304 
L 80.121081 163.237373 
L 80.478559 161.935905 
L 81.193514 157.894841 
L 81.908468 151.758974 
L 83.695856 130.798764 
L 87.985586 74.265817 
L 89.058018 62.705188 
L 89.772973 56.438503 
L 90.487928 51.837004 
L 90.845405 50.20949 
L 91.202883 49.157273 
L 91.56036 49.095332 
L 91.917838 49.568703 
L 92.275315 50.931297 
L 92.632793 53.224323 
L 93.347748 60.815867 
L 94.062703 72.082295 
L 95.135135 94.544791 
L 96.922523 135.160233 
L 97.637477 147.717486 
L 98.352432 156.727598 
L 99.067387 162.003346 
L 99.424865 163.203489 
L 99.782342 163.339448 
L 100.13982 162.471885 
L 101.212252 155.424444 
L 102.284685 143.999289 
L 103.357117 130.968984 
L 107.289369 79.630193 
L 108.719279 63.809452 
L 109.791712 54.618795 
L 110.506667 50.648276 
L 110.864144 49.501885 
L 111.221622 49.002319 
L 111.579099 49.446765 
L 111.936577 50.610626 
L 112.294054 52.605005 
L 112.651532 55.520463 
L 113.366486 64.417068 
L 114.081441 76.858084 
L 114.438919 84.177703 
L 115.153874 102.420834 
L 116.583784 134.667957 
L 117.298739 147.49836 
L 118.013694 156.578131 
L 118.371171 159.628045 
L 118.728649 161.680322 
L 119.086126 162.926658 
L 119.443604 163.256719 
L 119.801081 162.462725 
L 120.158559 160.982584 
L 120.873514 156.256467 
L 121.588468 149.286096 
L 123.375856 127.668826 
L 125.878198 94.643466 
L 128.023063 68.540265 
L 129.452973 54.784978 
L 130.167928 50.689129 
L 130.525405 49.536524 
L 130.882883 49.081572 
L 131.24036 49.396178 
L 131.597838 50.51549 
L 131.955315 52.593673 
L 132.67027 59.30425 
L 133.385225 69.854515 
L 134.457658 91.678679 
L 136.602523 139.478458 
L 137.317477 151.067077 
L 138.032432 158.714569 
L 138.38991 161.156807 
L 138.747387 162.773905 
L 139.104865 163.328786 
L 139.462342 162.837843 
L 140.177297 159.420058 
L 140.892252 154.228906 
L 141.607207 146.624824 
L 143.037117 129.033284 
L 143.752072 118.397919 
L 146.969369 77.16728 
L 148.399279 61.298041 
L 149.114234 55.595054 
L 149.829189 51.214878 
L 150.186667 49.818473 
L 150.544144 49.119307 
L 150.901622 49.129529 
L 151.259099 49.951215 
L 151.616577 51.664976 
L 151.974054 54.331607 
L 152.689009 62.630264 
L 153.403964 74.320218 
L 154.476396 97.437008 
L 156.263784 137.492406 
L 156.978739 149.555671 
L 157.693694 158.48299 
L 158.408649 162.764524 
L 158.766126 163.345778 
L 159.123604 162.906289 
L 159.481081 161.583782 
L 160.196036 157.184888 
L 160.910991 150.827274 
L 162.340901 133.807183 
L 163.413333 119.704976 
L 165.200721 96.379337 
L 166.988108 74.032006 
L 168.060541 62.695656 
L 169.132973 53.836166 
L 169.847928 50.156858 
L 170.205405 49.213201 
L 170.562883 49.038854 
L 170.92036 49.614492 
L 171.277838 51.082086 
L 171.635315 53.415797 
L 172.707748 67.65383 
L 173.422703 81.076047 
L 176.64 149.301079 
L 177.354955 157.652071 
L 177.712432 160.42875 
L 178.06991 162.233807 
L 178.427387 163.338057 
L 178.784865 163.08084 
L 179.142342 161.980598 
L 179.857297 158.135098 
L 180.572252 151.979664 
L 181.644685 139.572395 
L 183.432072 116.403507 
L 185.219459 93.037107 
L 187.364324 66.468811 
L 188.436757 56.567687 
L 189.151712 51.928335 
L 189.509189 50.27196 
L 189.866667 49.29129 
L 190.224144 48.992876 
L 190.581622 49.605651 
L 190.939099 50.971546 
L 191.296577 53.282276 
L 192.011532 60.806916 
L 192.726486 71.959684 
L 193.798919 94.352723 
L 195.943784 141.642119 
L 196.658739 152.622824 
L 197.373694 159.552807 
L 197.731171 161.951622 
L 198.088649 163.077292 
L 198.446126 163.336125 
L 198.803604 162.340324 
L 199.518559 158.728978 
L 200.233514 153.100649 
L 201.305946 139.860934 
L 202.378378 126.457754 
L 204.523243 97.8054 
L 207.025586 67.633566 
L 208.098018 57.499116 
L 208.812973 52.462683 
L 209.17045 50.641274 
L 209.527928 49.397493 
L 209.885405 48.975179 
L 210.242883 49.270762 
L 210.60036 50.412222 
L 210.957838 52.4168 
L 211.672793 59.394092 
L 212.387748 69.966192 
L 213.102703 83.904616 
L 214.532613 116.850864 
L 215.247568 134.477833 
L 215.962523 147.349796 
L 216.677477 156.370689 
L 217.392432 161.788961 
L 217.74991 163.103185 
L 218.107387 163.199356 
L 218.464865 162.45505 
L 219.17982 159.126006 
L 219.894775 153.104463 
L 221.324685 137.08816 
L 226.686847 68.710159 
L 227.759279 58.251477 
L 228.474234 53.08751 
L 229.189189 49.560556 
L 229.546667 49.053898 
L 229.904144 49.288051 
L 230.261622 50.341008 
L 230.619099 52.339011 
L 230.976577 55.256391 
L 231.691532 63.91877 
L 232.406486 76.277077 
L 233.836396 108.038744 
L 235.266306 139.309499 
L 235.981261 150.994505 
L 236.696216 158.608388 
L 237.411171 162.865307 
L 237.768649 163.472727 
L 238.126126 162.720591 
L 238.483604 161.418712 
L 239.198559 157.365606 
L 239.913514 150.658644 
L 241.700901 129.351206 
L 243.130811 110.066676 
L 243.845766 99.343807 
L 245.990631 73.010334 
L 247.420541 58.550288 
L 248.135495 53.235024 
L 248.492973 51.220368 
L 248.85045 49.862343 
L 249.207928 49.184697 
L 249.565405 49.187222 
L 249.922883 49.9796 
L 250.28036 51.758326 
L 250.637838 54.379912 
L 251.352793 62.311524 
L 252.067748 74.072334 
L 253.14018 97.026078 
L 254.927568 137.143367 
L 255.642523 149.394315 
L 256.357477 157.675787 
L 256.714955 160.546824 
L 257.072432 162.472204 
L 257.42991 163.321067 
L 257.787387 162.796754 
L 258.144865 161.474119 
L 258.85982 157.424271 
L 259.574775 150.79535 
L 261.004685 134.273251 
L 266.009369 70.137022 
L 266.724324 62.66533 
L 267.439279 56.581517 
L 268.154234 51.937708 
L 268.511712 50.297251 
L 268.869189 49.397656 
L 269.226667 49.040994 
L 269.584144 49.579752 
L 269.941622 50.949027 
L 270.299099 53.224134 
L 271.014054 60.840183 
L 271.729009 72.070331 
L 273.516396 113.431032 
L 274.588829 136.808035 
L 275.303784 149.118336 
L 276.018739 157.541348 
L 276.733694 162.489467 
L 277.091171 163.306634 
L 277.448649 163.255784 
L 277.806126 162.145149 
L 278.163604 160.32625 
L 278.878559 155.178578 
L 279.593514 148.255805 
L 281.380901 126.312698 
L 283.883243 93.356164 
L 285.670631 71.343043 
L 287.100541 56.669413 
L 287.815495 51.82526 
L 288.53045 49.347726 
L 288.887928 49.019435 
L 289.245405 49.461308 
L 289.602883 50.846841 
L 289.96036 53.127911 
L 290.675315 60.573409 
L 291.39027 71.750575 
L 292.462703 94.105718 
L 294.607568 141.453989 
L 295.322523 152.564483 
L 296.037477 159.57485 
L 296.394955 161.594099 
L 296.752432 162.970132 
L 297.10991 163.187127 
L 297.467387 162.476542 
L 297.824865 160.910602 
L 298.53982 156.359643 
L 299.254775 149.404565 
L 300.327207 136.757564 
L 301.39964 121.903756 
L 304.616937 80.053449 
L 306.046847 63.982111 
L 306.761802 57.517649 
L 307.476757 52.611184 
L 307.834234 50.700908 
L 308.191712 49.524315 
L 308.549189 49.033802 
L 308.906667 49.280324 
L 309.264144 50.30817 
L 309.621622 52.366538 
L 309.979099 55.334824 
L 310.694054 64.055987 
L 311.409009 76.500266 
L 312.481441 99.840186 
L 314.268829 139.527976 
L 314.983784 152.22784 
L 315.698739 159.452219 
L 316.056216 161.780116 
L 316.413694 163.052574 
L 316.771171 163.186551 
L 317.128649 162.293676 
L 317.486126 160.885711 
L 317.843604 158.9998 
L 318.558559 153.340393 
L 319.630991 141.106374 
L 321.060901 123.293401 
L 323.205766 94.557596 
L 325.350631 69.023909 
L 326.423063 58.188516 
L 327.138018 53.123838 
L 327.852973 49.913735 
L 328.21045 49.149908 
L 328.567928 49.141038 
L 328.925405 49.918675 
L 329.64036 55.119243 
L 330.355315 63.798657 
L 331.07027 76.110412 
L 332.142703 99.42361 
L 333.93009 139.089689 
L 334.645045 150.773889 
L 335.36 158.577493 
L 336.074955 162.869355 
L 336.432432 163.355099 
L 336.78991 162.967947 
L 337.147387 161.565985 
L 337.862342 157.067144 
L 338.577297 150.836193 
L 340.007207 133.945249 
L 343.224505 91.400119 
L 343.939459 81.428882 
L 345.369369 65.339921 
L 346.441802 55.763089 
L 347.156757 51.302881 
L 347.514234 49.894996 
L 347.871712 49.161991 
L 348.229189 49.241013 
L 348.586667 49.975021 
L 348.944144 51.608375 
L 349.301622 54.173093 
L 350.016577 62.157421 
L 350.731532 73.96444 
L 351.803964 96.786227 
L 353.591351 137.039475 
L 354.306306 149.317175 
L 355.021261 157.615226 
L 355.736216 162.471893 
L 356.093694 163.339763 
L 356.451171 163.127811 
L 356.808649 161.997561 
L 357.523604 158.003884 
L 358.596036 146.936899 
L 359.668468 134.216056 
L 363.600721 82.975977 
L 365.388108 62.827549 
L 366.103063 56.546705 
L 366.818018 51.809953 
L 367.175495 50.267323 
L 367.532973 49.324665 
L 367.89045 49.059544 
L 368.247928 49.553383 
L 368.605405 50.930962 
L 368.962883 53.249116 
L 369.677838 60.827643 
L 370.392793 71.962673 
L 371.465225 94.298258 
L 373.61009 143.259137 
L 374.325045 153.731522 
L 375.04 160.281897 
L 375.397477 162.278099 
L 375.754955 163.303628 
L 376.112432 163.089236 
L 376.46991 162.010227 
L 377.184865 158.19729 
L 377.542342 155.594295 
L 378.614775 144.044535 
L 379.687207 131.080614 
L 384.691892 67.398756 
L 385.406847 60.52134 
L 386.479279 52.034857 
L 386.836757 50.33551 
L 387.194234 49.288639 
L 387.551712 48.927273 
L 387.909189 49.432359 
L 388.266667 50.8126 
L 388.624144 53.071825 
L 389.339099 60.486039 
L 390.054054 71.539206 
L 391.126486 93.784992 
L 393.271351 141.295249 
L 393.986306 152.260536 
L 394.701261 159.4882 
L 395.058739 161.890468 
L 395.416216 163.052407 
L 395.773694 163.280648 
L 396.131171 162.539072 
L 396.846126 158.914828 
L 397.561081 153.206083 
L 398.276036 145.621397 
L 400.420901 118.310612 
L 401.135856 107.452215 
L 403.280721 80.11735 
L 404.710631 64.223498 
L 405.783063 54.811442 
L 406.498018 50.812885 
L 406.855495 49.589136 
L 407.212973 49.057007 
L 407.57045 49.241651 
L 407.927928 50.344043 
L 408.285405 52.345473 
L 409.00036 59.117041 
L 409.715315 69.780205 
L 410.787748 91.352319 
L 412.932613 139.298773 
L 413.647568 151.004913 
L 414.362523 158.649881 
L 414.72 161.080711 
L 414.72 161.080711 
" style="fill:none;stroke:#ff0000;stroke-linecap:square;stroke-width:0.8;"/>
   </g>
   <g id="patch_3">
    <path d="M 57.6 169.2 
L 57.6 43.2 
" style="fill:none;stroke:#000000;stroke-linecap:square;stroke-linejoin:miter;stroke-width:0.8;"/>
   </g>
   <g id="patch_4">
    <path d="M 414.72 169.2 
L 414.72 43.2 
" style="fill:none;stroke:#000000;stroke-linecap:square;stroke-linejoin:miter;stroke-width:0.8;"/>
   </g>
   <g id="patch_5">
    <path d="M 57.6 169.2 
L 414.72 169.2 
" style="fill:none;stroke:#000000;stroke-linecap:square;stroke-linejoin:miter;stroke-width:0.8;"/>
   </g>
   <g id="patch_6">
    <path d="M 57.6 43.2 
L 414.72 43.2 
" style="fill:none;stroke:#000000;stroke-linecap:square;stroke-linejoin:miter;stroke-width:0.8;"/>
   </g>
  </g>
  <g id="axes_2">
   <g id="patch_7">
    <path d="M 57.6 320.4 
L 414.72 320.4 
L 414.72 194.4 
L 57.6 194.4 
z
" style="fill:#ffffff;"/>
   </g>
   <g id="matplotlib.axis_3">
    <g id="xtick_10">
     <g id="line2d_23">
      <path clip-path="url(#p0b9c2be949)" d="M 57.6 320.4 
L 57.6 194.4 
" style="fill:none;stroke:#c0c0c0;stroke-dasharray:0.8,1.32;stroke-dashoffset:0;stroke-width:0.8;"/>
     </g>
     <g id="line2d_24">
      <defs>
       <path d="M 0 0 
L 0 3.5 
" id="mfd25e1437b" style="stroke:#000000;stroke-width:0.8;"/>
      </defs>
      <g>
       <use style="stroke:#000000;stroke-width:0.8;" x="57.6" xlink:href="#mfd25e1437b" y="320.4"/>
      </g>
     </g>
     <g id="text_6">
      <!-- 0.00 -->
      <g transform="translate(46.467188 334.998438)scale(0.1 -0.1)">
       <use xlink:href="#DejaVuSans-48"/>
       <use x="63.623047" xlink:href="#DejaVuSans-46"/>
       <use x="95.410156" xlink:href="#DejaVuSans-48"/>
       <use x="159.033203" xlink:href="#DejaVuSans-48"/>
      </g>
     </g>
    </g>
    <g id="xtick_11">
     <g id="line2d_25">
      <path clip-path="url(#p0b9c2be949)" d="M 102.00714 320.4 
L 102.00714 194.4 
" style="fill:none;stroke:#c0c0c0;stroke-dasharray:0.8,1.32;stroke-dashoffset:0;stroke-width:0.8;"/>
     </g>
     <g id="line2d_26">
      <g>
       <use style="stroke:#000000;stroke-width:0.8;" x="102.00714" xlink:href="#mfd25e1437b" y="320.4"/>
      </g>
     </g>
     <g id="text_7">
      <!-- 0.25 -->
      <defs>
       <path d="M 10.796875 72.90625 
L 49.515625 72.90625 
L 49.515625 64.59375 
L 19.828125 64.59375 
L 19.828125 46.734375 
Q 21.96875 47.46875 24.109375 47.828125 
Q 26.265625 48.1875 28.421875 48.1875 
Q 40.625 48.1875 47.75 41.5 
Q 54.890625 34.8125 54.890625 23.390625 
Q 54.890625 11.625 47.5625 5.09375 
Q 40.234375 -1.421875 26.90625 -1.421875 
Q 22.3125 -1.421875 17.546875 -0.640625 
Q 12.796875 0.140625 7.71875 1.703125 
L 7.71875 11.625 
Q 12.109375 9.234375 16.796875 8.0625 
Q 21.484375 6.890625 26.703125 6.890625 
Q 35.15625 6.890625 40.078125 11.328125 
Q 45.015625 15.765625 45.015625 23.390625 
Q 45.015625 31 40.078125 35.4375 
Q 35.15625 39.890625 26.703125 39.890625 
Q 22.75 39.890625 18.8125 39.015625 
Q 14.890625 38.140625 10.796875 36.28125 
z
" id="DejaVuSans-53"/>
      </defs>
      <g transform="translate(90.874328 334.998438)scale(0.1 -0.1)">
       <use xlink:href="#DejaVuSans-48"/>
       <use x="63.623047" xlink:href="#DejaVuSans-46"/>
       <use x="95.410156" xlink:href="#DejaVuSans-50"/>
       <use x="159.033203" xlink:href="#DejaVuSans-53"/>
      </g>
     </g>
    </g>
    <g id="xtick_12">
     <g id="line2d_27">
      <path clip-path="url(#p0b9c2be949)" d="M 146.41428 320.4 
L 146.41428 194.4 
" style="fill:none;stroke:#c0c0c0;stroke-dasharray:0.8,1.32;stroke-dashoffset:0;stroke-width:0.8;"/>
     </g>
     <g id="line2d_28">
      <g>
       <use style="stroke:#000000;stroke-width:0.8;" x="146.41428" xlink:href="#mfd25e1437b" y="320.4"/>
      </g>
     </g>
     <g id="text_8">
      <!-- 0.50 -->
      <g transform="translate(135.281468 334.998438)scale(0.1 -0.1)">
       <use xlink:href="#DejaVuSans-48"/>
       <use x="63.623047" xlink:href="#DejaVuSans-46"/>
       <use x="95.410156" xlink:href="#DejaVuSans-53"/>
       <use x="159.033203" xlink:href="#DejaVuSans-48"/>
      </g>
     </g>
    </g>
    <g id="xtick_13">
     <g id="line2d_29">
      <path clip-path="url(#p0b9c2be949)" d="M 190.82142 320.4 
L 190.82142 194.4 
" style="fill:none;stroke:#c0c0c0;stroke-dasharray:0.8,1.32;stroke-dashoffset:0;stroke-width:0.8;"/>
     </g>
     <g id="line2d_30">
      <g>
       <use style="stroke:#000000;stroke-width:0.8;" x="190.82142" xlink:href="#mfd25e1437b" y="320.4"/>
      </g>
     </g>
     <g id="text_9">
      <!-- 0.75 -->
      <defs>
       <path d="M 8.203125 72.90625 
L 55.078125 72.90625 
L 55.078125 68.703125 
L 28.609375 0 
L 18.3125 0 
L 43.21875 64.59375 
L 8.203125 64.59375 
z
" id="DejaVuSans-55"/>
      </defs>
      <g transform="translate(179.688608 334.998438)scale(0.1 -0.1)">
       <use xlink:href="#DejaVuSans-48"/>
       <use x="63.623047" xlink:href="#DejaVuSans-46"/>
       <use x="95.410156" xlink:href="#DejaVuSans-55"/>
       <use x="159.033203" xlink:href="#DejaVuSans-53"/>
      </g>
     </g>
    </g>
    <g id="xtick_14">
     <g id="line2d_31">
      <path clip-path="url(#p0b9c2be949)" d="M 235.22856 320.4 
L 235.22856 194.4 
" style="fill:none;stroke:#c0c0c0;stroke-dasharray:0.8,1.32;stroke-dashoffset:0;stroke-width:0.8;"/>
     </g>
     <g id="line2d_32">
      <g>
       <use style="stroke:#000000;stroke-width:0.8;" x="235.22856" xlink:href="#mfd25e1437b" y="320.4"/>
      </g>
     </g>
     <g id="text_10">
      <!-- 1.00 -->
      <g transform="translate(224.095748 334.998438)scale(0.1 -0.1)">
       <use xlink:href="#DejaVuSans-49"/>
       <use x="63.623047" xlink:href="#DejaVuSans-46"/>
       <use x="95.410156" xlink:href="#DejaVuSans-48"/>
       <use x="159.033203" xlink:href="#DejaVuSans-48"/>
      </g>
     </g>
    </g>
    <g id="xtick_15">
     <g id="line2d_33">
      <path clip-path="url(#p0b9c2be949)" d="M 279.6357 320.4 
L 279.6357 194.4 
" style="fill:none;stroke:#c0c0c0;stroke-dasharray:0.8,1.32;stroke-dashoffset:0;stroke-width:0.8;"/>
     </g>
     <g id="line2d_34">
      <g>
       <use style="stroke:#000000;stroke-width:0.8;" x="279.6357" xlink:href="#mfd25e1437b" y="320.4"/>
      </g>
     </g>
     <g id="text_11">
      <!-- 1.25 -->
      <g transform="translate(268.502888 334.998438)scale(0.1 -0.1)">
       <use xlink:href="#DejaVuSans-49"/>
       <use x="63.623047" xlink:href="#DejaVuSans-46"/>
       <use x="95.410156" xlink:href="#DejaVuSans-50"/>
       <use x="159.033203" xlink:href="#DejaVuSans-53"/>
      </g>
     </g>
    </g>
    <g id="xtick_16">
     <g id="line2d_35">
      <path clip-path="url(#p0b9c2be949)" d="M 324.04284 320.4 
L 324.04284 194.4 
" style="fill:none;stroke:#c0c0c0;stroke-dasharray:0.8,1.32;stroke-dashoffset:0;stroke-width:0.8;"/>
     </g>
     <g id="line2d_36">
      <g>
       <use style="stroke:#000000;stroke-width:0.8;" x="324.04284" xlink:href="#mfd25e1437b" y="320.4"/>
      </g>
     </g>
     <g id="text_12">
      <!-- 1.50 -->
      <g transform="translate(312.910028 334.998438)scale(0.1 -0.1)">
       <use xlink:href="#DejaVuSans-49"/>
       <use x="63.623047" xlink:href="#DejaVuSans-46"/>
       <use x="95.410156" xlink:href="#DejaVuSans-53"/>
       <use x="159.033203" xlink:href="#DejaVuSans-48"/>
      </g>
     </g>
    </g>
    <g id="xtick_17">
     <g id="line2d_37">
      <path clip-path="url(#p0b9c2be949)" d="M 368.44998 320.4 
L 368.44998 194.4 
" style="fill:none;stroke:#c0c0c0;stroke-dasharray:0.8,1.32;stroke-dashoffset:0;stroke-width:0.8;"/>
     </g>
     <g id="line2d_38">
      <g>
       <use style="stroke:#000000;stroke-width:0.8;" x="368.44998" xlink:href="#mfd25e1437b" y="320.4"/>
      </g>
     </g>
     <g id="text_13">
      <!-- 1.75 -->
      <g transform="translate(357.317168 334.998438)scale(0.1 -0.1)">
       <use xlink:href="#DejaVuSans-49"/>
       <use x="63.623047" xlink:href="#DejaVuSans-46"/>
       <use x="95.410156" xlink:href="#DejaVuSans-55"/>
       <use x="159.033203" xlink:href="#DejaVuSans-53"/>
      </g>
     </g>
    </g>
    <g id="xtick_18">
     <g id="line2d_39">
      <path clip-path="url(#p0b9c2be949)" d="M 412.857121 320.4 
L 412.857121 194.4 
" style="fill:none;stroke:#c0c0c0;stroke-dasharray:0.8,1.32;stroke-dashoffset:0;stroke-width:0.8;"/>
     </g>
     <g id="line2d_40">
      <g>
       <use style="stroke:#000000;stroke-width:0.8;" x="412.857121" xlink:href="#mfd25e1437b" y="320.4"/>
      </g>
     </g>
     <g id="text_14">
      <!-- 2.00 -->
      <g transform="translate(401.724308 334.998438)scale(0.1 -0.1)">
       <use xlink:href="#DejaVuSans-50"/>
       <use x="63.623047" xlink:href="#DejaVuSans-46"/>
       <use x="95.410156" xlink:href="#DejaVuSans-48"/>
       <use x="159.033203" xlink:href="#DejaVuSans-48"/>
      </g>
     </g>
    </g>
   </g>
   <g id="matplotlib.axis_4">
    <g id="ytick_6">
     <g id="line2d_41">
      <path clip-path="url(#p0b9c2be949)" d="M 57.6 300.232107 
L 414.72 300.232107 
" style="fill:none;stroke:#c0c0c0;stroke-dasharray:0.8,1.32;stroke-dashoffset:0;stroke-width:0.8;"/>
     </g>
     <g id="line2d_42">
      <g>
       <use style="stroke:#000000;stroke-width:0.8;" x="57.6" xlink:href="#m9a5f752f46" y="300.232107"/>
      </g>
     </g>
     <g id="text_15">
      <!-- −0.2 -->
      <g transform="translate(26.317187 304.031326)scale(0.1 -0.1)">
       <use xlink:href="#DejaVuSans-8722"/>
       <use x="83.789062" xlink:href="#DejaVuSans-48"/>
       <use x="147.412109" xlink:href="#DejaVuSans-46"/>
       <use x="179.199219" xlink:href="#DejaVuSans-50"/>
      </g>
     </g>
    </g>
    <g id="ytick_7">
     <g id="line2d_43">
      <path clip-path="url(#p0b9c2be949)" d="M 57.6 277.941556 
L 414.72 277.941556 
" style="fill:none;stroke:#c0c0c0;stroke-dasharray:0.8,1.32;stroke-dashoffset:0;stroke-width:0.8;"/>
     </g>
     <g id="line2d_44">
      <g>
       <use style="stroke:#000000;stroke-width:0.8;" x="57.6" xlink:href="#m9a5f752f46" y="277.941556"/>
      </g>
     </g>
     <g id="text_16">
      <!-- −0.1 -->
      <g transform="translate(26.317187 281.740775)scale(0.1 -0.1)">
       <use xlink:href="#DejaVuSans-8722"/>
       <use x="83.789062" xlink:href="#DejaVuSans-48"/>
       <use x="147.412109" xlink:href="#DejaVuSans-46"/>
       <use x="179.199219" xlink:href="#DejaVuSans-49"/>
      </g>
     </g>
    </g>
    <g id="ytick_8">
     <g id="line2d_45">
      <path clip-path="url(#p0b9c2be949)" d="M 57.6 255.651004 
L 414.72 255.651004 
" style="fill:none;stroke:#c0c0c0;stroke-dasharray:0.8,1.32;stroke-dashoffset:0;stroke-width:0.8;"/>
     </g>
     <g id="line2d_46">
      <g>
       <use style="stroke:#000000;stroke-width:0.8;" x="57.6" xlink:href="#m9a5f752f46" y="255.651004"/>
      </g>
     </g>
     <g id="text_17">
      <!-- 0.0 -->
      <g transform="translate(34.696875 259.450223)scale(0.1 -0.1)">
       <use xlink:href="#DejaVuSans-48"/>
       <use x="63.623047" xlink:href="#DejaVuSans-46"/>
       <use x="95.410156" xlink:href="#DejaVuSans-48"/>
      </g>
     </g>
    </g>
    <g id="ytick_9">
     <g id="line2d_47">
      <path clip-path="url(#p0b9c2be949)" d="M 57.6 233.360452 
L 414.72 233.360452 
" style="fill:none;stroke:#c0c0c0;stroke-dasharray:0.8,1.32;stroke-dashoffset:0;stroke-width:0.8;"/>
     </g>
     <g id="line2d_48">
      <g>
       <use style="stroke:#000000;stroke-width:0.8;" x="57.6" xlink:href="#m9a5f752f46" y="233.360452"/>
      </g>
     </g>
     <g id="text_18">
      <!-- 0.1 -->
      <g transform="translate(34.696875 237.159671)scale(0.1 -0.1)">
       <use xlink:href="#DejaVuSans-48"/>
       <use x="63.623047" xlink:href="#DejaVuSans-46"/>
       <use x="95.410156" xlink:href="#DejaVuSans-49"/>
      </g>
     </g>
    </g>
    <g id="ytick_10">
     <g id="line2d_49">
      <path clip-path="url(#p0b9c2be949)" d="M 57.6 211.069901 
L 414.72 211.069901 
" style="fill:none;stroke:#c0c0c0;stroke-dasharray:0.8,1.32;stroke-dashoffset:0;stroke-width:0.8;"/>
     </g>
     <g id="line2d_50">
      <g>
       <use style="stroke:#000000;stroke-width:0.8;" x="57.6" xlink:href="#m9a5f752f46" y="211.069901"/>
      </g>
     </g>
     <g id="text_19">
      <!-- 0.2 -->
      <g transform="translate(34.696875 214.869119)scale(0.1 -0.1)">
       <use xlink:href="#DejaVuSans-48"/>
       <use x="63.623047" xlink:href="#DejaVuSans-46"/>
       <use x="95.410156" xlink:href="#DejaVuSans-50"/>
      </g>
     </g>
    </g>
   </g>
   <g id="line2d_51">
    <path clip-path="url(#p0b9c2be949)" d="M 57.6 205.962295 
L 58.314955 201.024404 
L 58.672432 200.238179 
L 59.02991 200.127273 
L 59.387387 200.479367 
L 59.744865 201.168911 
L 60.102342 202.338795 
L 60.45982 204.229388 
L 60.817297 206.803883 
L 61.532252 215.450013 
L 62.247207 224.166009 
L 62.962162 234.042833 
L 63.677117 247.330848 
L 64.392072 258.803374 
L 64.74955 267.333624 
L 66.536937 295.582299 
L 67.966847 311.348742 
L 68.681802 313.938824 
L 69.039279 314.438352 
L 69.396757 314.050767 
L 69.754234 313.129329 
L 70.469189 308.325562 
L 72.256577 284.23496 
L 72.971532 270.67519 
L 73.329009 265.102569 
L 73.686486 256.528996 
L 75.831351 221.680685 
L 76.546306 213.787613 
L 77.618739 203.191297 
L 77.976216 201.578664 
L 78.333694 200.575878 
L 78.691171 200.362844 
L 79.048649 200.463022 
L 79.406126 200.801484 
L 79.763604 201.862873 
L 81.193514 213.908043 
L 81.908468 222.114725 
L 82.265946 226.908673 
L 82.980901 239.944075 
L 83.695856 251.100817 
L 84.053333 259.658331 
L 85.125766 276.271469 
L 85.840721 291.415084 
L 87.270631 308.304354 
L 87.985586 313.404067 
L 88.343063 314.336879 
L 88.700541 314.60908 
L 89.415495 313.143764 
L 90.487928 305.231959 
L 91.202883 295.884952 
L 91.56036 291.451445 
L 92.275315 278.663115 
L 92.632793 273.216384 
L 92.99027 264.777568 
L 94.42018 241.862522 
L 94.777658 233.658528 
L 96.565045 210.170514 
L 97.28 204.534011 
L 97.637477 202.231532 
L 97.994955 200.78861 
L 98.352432 200.404433 
L 99.067387 200.599358 
L 99.424865 201.719717 
L 99.782342 203.447376 
L 100.13982 205.867179 
L 100.497297 209.09838 
L 101.212252 218.239511 
L 102.284685 232.135346 
L 102.642162 240.330063 
L 104.072072 262.671893 
L 104.42955 271.273094 
L 106.574414 304.012399 
L 107.646847 312.609327 
L 108.361802 314.449001 
L 108.719279 314.310579 
L 109.076757 313.535794 
L 110.149189 306.594997 
L 110.864144 297.307871 
L 111.221622 293.15834 
L 111.936577 280.891703 
L 112.294054 275.603118 
L 113.009009 261.219448 
L 113.723964 249.596077 
L 114.081441 241.287468 
L 114.438919 235.795978 
L 114.796396 228.14103 
L 115.868829 214.993758 
L 116.583784 208.429951 
L 117.656216 200.600634 
L 118.013694 200.127731 
L 118.371171 200.237535 
L 118.728649 200.60273 
L 119.086126 201.304234 
L 119.443604 202.701548 
L 119.801081 204.82291 
L 120.516036 212.472541 
L 121.230991 220.458832 
L 121.945946 230.304901 
L 122.660901 243.500383 
L 123.375856 254.692381 
L 124.090811 269.119143 
L 124.805766 280.059747 
L 125.163243 287.579118 
L 126.593153 305.873822 
L 127.308108 312.050476 
L 128.023063 314.5226 
L 128.380541 314.530552 
L 129.095495 312.114063 
L 130.167928 302.92759 
L 130.882883 292.682382 
L 131.24036 287.921859 
L 131.597838 280.211913 
L 132.312793 269.50799 
L 133.027748 255.04968 
L 133.742703 243.720752 
L 134.10018 235.510522 
L 135.172613 220.802131 
L 136.245045 207.711038 
L 136.96 202.916429 
L 137.317477 201.318504 
L 137.674955 200.524075 
L 138.032432 200.242624 
L 138.38991 200.549375 
L 138.747387 201.189435 
L 139.462342 205.430707 
L 140.177297 211.411495 
L 140.892252 218.848179 
L 141.24973 223.228321 
L 141.964685 235.869314 
L 142.67964 246.67217 
L 143.752072 269.449112 
L 145.539459 297.032588 
L 146.969369 311.945362 
L 147.326847 313.40046 
L 147.684324 314.323034 
L 148.041802 314.535042 
L 148.399279 313.934918 
L 148.756757 312.701154 
L 149.471712 307.542875 
L 150.186667 298.87383 
L 150.544144 294.67974 
L 151.259099 282.44171 
L 151.974054 271.721239 
L 152.331532 263.221301 
L 153.403964 246.103925 
L 153.761441 237.723583 
L 155.548829 212.581083 
L 156.263784 206.170393 
L 156.978739 201.636356 
L 157.336216 200.5002 
L 157.693694 200.326058 
L 158.051171 200.551192 
L 158.408649 201.06122 
L 158.766126 202.367842 
L 159.123604 204.268314 
L 159.838559 211.68267 
L 160.910991 223.562732 
L 161.268468 228.542074 
L 161.983423 241.768513 
L 163.055856 258.378449 
L 163.413333 267.194084 
L 164.128288 278.083293 
L 164.485766 285.961117 
L 165.915676 304.709585 
L 166.273153 307.536013 
L 166.630631 311.384378 
L 167.345586 314.042822 
L 167.703063 314.62972 
L 168.060541 314.183735 
L 168.418018 313.18897 
L 169.132973 308.536939 
L 169.847928 300.351106 
L 170.205405 296.560057 
L 170.92036 284.636572 
L 171.277838 279.443653 
L 171.635315 271.16768 
L 171.992793 265.552515 
L 172.35027 256.886916 
L 173.422703 239.89709 
L 173.78018 231.904799 
L 174.495135 222.125467 
L 175.925045 205.940851 
L 176.282523 203.36241 
L 176.997477 200.411734 
L 177.354955 200.171047 
L 177.712432 200.353982 
L 178.06991 200.767043 
L 178.427387 201.71893 
L 179.49982 210.024166 
L 180.214775 217.608383 
L 180.92973 226.65671 
L 181.287207 234.106242 
L 182.35964 250.395079 
L 183.074595 264.701345 
L 183.78955 275.95953 
L 184.147027 283.976902 
L 185.934414 308.034897 
L 186.649369 312.921313 
L 187.006847 313.970611 
L 187.364324 314.4906 
L 187.721802 314.081823 
L 188.079279 313.188293 
L 189.151712 305.504453 
L 189.866667 296.077778 
L 190.224144 291.623153 
L 190.939099 279.121203 
L 191.296577 273.634253 
L 191.654054 265.151954 
L 192.726486 248.052592 
L 193.083964 239.485273 
L 194.513874 219.729951 
L 194.871351 215.742389 
L 195.228829 210.337784 
L 195.943784 204.510272 
L 196.301261 202.440849 
L 196.658739 201.08642 
L 197.016216 200.570112 
L 197.373694 200.463068 
L 197.731171 200.847956 
L 198.088649 201.891212 
L 198.446126 203.634787 
L 199.161081 208.97153 
L 199.876036 215.697199 
L 200.590991 226.913662 
L 200.948468 231.920897 
L 201.305946 240.011277 
L 202.378378 256.684993 
L 202.735856 265.24365 
L 205.238198 303.675826 
L 206.310631 312.736927 
L 206.668108 313.902466 
L 207.025586 314.592386 
L 207.383063 314.355313 
L 207.740541 313.62604 
L 208.812973 306.722346 
L 209.527928 297.908241 
L 209.885405 293.594902 
L 210.60036 281.329321 
L 210.957838 276.013211 
L 211.672793 261.81884 
L 212.387748 250.168442 
L 212.745225 241.738674 
L 214.532613 215.175802 
L 215.962523 202.002312 
L 216.32 200.735993 
L 216.677477 200.370653 
L 217.392432 200.543094 
L 217.74991 201.021913 
L 218.107387 202.396068 
L 219.894775 220.196154 
L 220.252252 224.682035 
L 220.967207 237.584568 
L 222.03964 254.007257 
L 222.397117 262.697533 
L 223.46955 279.38143 
L 223.827027 287.074687 
L 225.614414 309.698323 
L 226.329369 313.361386 
L 226.686847 314.503295 
L 227.044324 314.520129 
L 227.401802 314.029442 
L 228.116757 310.483757 
L 228.831712 303.407946 
L 229.189189 297.339466 
L 229.904144 288.540451 
L 230.619099 275.626493 
L 230.976577 269.896545 
L 231.334054 261.15452 
L 232.406486 243.992851 
L 232.763964 235.815337 
L 233.836396 221.25165 
L 235.266306 205.468981 
L 235.623784 202.966963 
L 235.981261 201.272012 
L 236.338739 200.347166 
L 236.696216 200.225428 
L 237.053694 200.464746 
L 237.411171 201.301913 
L 237.768649 202.709111 
L 238.126126 204.8499 
L 238.841081 210.831795 
L 239.556036 218.434788 
L 240.270991 230.447847 
L 241.343423 246.251016 
L 241.700901 254.763998 
L 242.773333 271.792276 
L 243.488288 287.647675 
L 244.918198 305.896718 
L 245.633153 312.095051 
L 245.990631 313.466832 
L 246.348108 314.229473 
L 246.705586 314.542104 
L 247.063063 313.981067 
L 247.778018 310.133061 
L 248.135495 307.603115 
L 248.85045 299.226369 
L 249.207928 294.966337 
L 249.565405 287.879602 
L 250.28036 277.729173 
L 250.637838 269.543953 
L 251.71027 252.421284 
L 252.067748 243.71945 
L 254.212613 212.676993 
L 254.927568 206.504269 
L 255.642523 202.135695 
L 256 200.767163 
L 256.357477 200.2625 
L 256.714955 200.570138 
L 257.072432 201.209168 
L 257.42991 202.161859 
L 259.217297 218.700177 
L 259.932252 227.925837 
L 260.28973 235.835556 
L 261.362162 252.139381 
L 261.71964 260.950467 
L 262.792072 277.635334 
L 263.14955 285.623704 
L 264.579459 304.498899 
L 265.651892 312.739943 
L 266.366847 314.630172 
L 266.724324 314.167499 
L 267.439279 311.05598 
L 267.796757 308.850709 
L 268.869189 296.767614 
L 269.584144 284.944042 
L 269.941622 279.866533 
L 270.299099 271.628522 
L 271.371532 254.593329 
L 271.729009 246.035507 
L 272.086486 240.409023 
L 272.443964 232.414202 
L 273.516396 218.257999 
L 273.873874 214.355462 
L 274.231351 209.011963 
L 274.946306 203.541658 
L 275.303784 201.57808 
L 275.661261 200.605483 
L 276.018739 200.248187 
L 276.376216 200.370058 
L 276.733694 200.768256 
L 277.448649 204.223383 
L 278.521081 213.260131 
L 279.236036 221.333991 
L 279.950991 233.590415 
L 281.023423 250.006186 
L 281.380901 258.338966 
L 282.453333 275.190814 
L 282.810811 283.439077 
L 283.525766 293.192363 
L 283.883243 299.277614 
L 284.955676 310.177895 
L 285.670631 314.045067 
L 286.028108 314.5582 
L 286.385586 314.187229 
L 286.743063 313.312426 
L 287.815495 305.744667 
L 288.172973 300.283492 
L 288.53045 296.705083 
L 288.887928 291.985232 
L 289.245405 284.546136 
L 289.96036 273.951319 
L 290.317838 265.512334 
L 291.39027 248.271026 
L 291.747748 239.954566 
L 292.82018 224.783252 
L 293.177658 220.163556 
L 293.535135 214.070377 
L 294.607568 204.876862 
L 294.965045 202.533979 
L 295.322523 201.114554 
L 295.68 200.462135 
L 296.037477 200.433689 
L 296.394955 200.838224 
L 296.752432 201.787225 
L 297.10991 203.252118 
L 297.467387 205.505741 
L 298.182342 211.938914 
L 298.897297 222.064985 
L 299.96973 236.733985 
L 300.684685 250.425946 
L 301.042162 256.002083 
L 301.39964 264.887178 
L 302.114595 276.006577 
L 302.472072 283.994158 
L 303.901982 303.511226 
L 304.974414 312.321116 
L 305.689369 314.49153 
L 306.046847 314.431456 
L 306.404324 313.637964 
L 307.119279 309.555499 
L 308.191712 298.056097 
L 308.906667 286.800038 
L 309.264144 281.596416 
L 309.979099 268.007568 
L 310.694054 256.597767 
L 311.051532 248.038082 
L 312.838919 219.730768 
L 313.911351 208.683582 
L 314.626306 202.38887 
L 314.983784 201.018216 
L 315.341261 200.449171 
L 315.698739 200.383833 
L 316.056216 200.547605 
L 316.413694 201.140685 
L 317.128649 205.887649 
L 318.201081 215.720085 
L 318.558559 220.022078 
L 319.273514 231.939815 
L 320.345946 248.128814 
L 320.703423 256.695448 
L 323.563243 301.881906 
L 324.635676 311.720646 
L 325.350631 314.49915 
L 325.708108 314.38805 
L 326.065586 313.58856 
L 326.423063 312.356563 
L 326.780541 310.509857 
L 327.852973 299.917999 
L 331.785225 231.059723 
L 333.572613 208.456796 
L 334.287568 203.27892 
L 334.645045 201.384852 
L 335.002523 200.531519 
L 335.36 200.437785 
L 335.717477 200.555374 
L 336.074955 201.042483 
L 336.432432 202.448286 
L 336.78991 204.584475 
L 337.504865 210.905314 
L 337.862342 214.376869 
L 338.577297 224.720452 
L 339.64973 240.157036 
L 340.364685 254.12501 
L 341.07964 265.899002 
L 341.437117 274.100596 
L 343.581982 305.82383 
L 344.654414 313.450662 
L 345.011892 314.672727 
L 345.369369 314.574775 
L 345.726847 314.038191 
L 346.441802 310.477372 
L 346.799279 307.968186 
L 348.586667 283.539773 
L 348.944144 278.117663 
L 349.301622 269.864424 
L 350.374054 252.581014 
L 350.731532 244.023774 
L 351.803964 228.33541 
L 352.161441 221.312813 
L 352.876396 213.212922 
L 353.948829 204.375915 
L 354.306306 201.908787 
L 354.663784 200.359004 
L 355.021261 200.240538 
L 355.378739 200.493055 
L 355.736216 200.933755 
L 356.093694 202.00189 
L 356.451171 203.631184 
L 357.166126 209.193961 
L 357.881081 218.454233 
L 358.238559 222.945591 
L 358.596036 230.574025 
L 360.025946 251.815225 
L 360.383423 260.556374 
L 361.455856 277.270003 
L 361.813333 285.121731 
L 363.243243 304.303772 
L 363.958198 311.041133 
L 364.673153 314.191056 
L 365.030631 314.549531 
L 365.388108 314.2763 
L 366.103063 311.123896 
L 366.460541 308.932047 
L 367.89045 290.474979 
L 368.605405 280.451333 
L 369.32036 266.731658 
L 369.677838 261.03242 
L 370.035315 252.394601 
L 372.18018 218.470498 
L 373.252613 206.503611 
L 373.967568 201.982409 
L 374.325045 200.626034 
L 374.682523 200.18444 
L 375.04 200.192355 
L 375.397477 200.99351 
L 375.754955 202.078325 
L 376.46991 206.48875 
L 377.184865 212.883025 
L 377.542342 216.623311 
L 378.257297 227.935335 
L 379.32973 243.808809 
L 380.044685 257.959812 
L 380.75964 269.272623 
L 381.117117 277.556793 
L 381.832072 287.853953 
L 382.18955 294.654971 
L 383.261982 307.511058 
L 384.334414 313.856649 
L 384.691892 314.458733 
L 385.049369 314.59782 
L 385.764324 312.1282 
L 386.121802 308.976327 
L 387.551712 290.130365 
L 388.624144 274.548414 
L 388.981622 266.014696 
L 389.696577 254.640489 
L 390.054054 246.042026 
L 391.841441 218.235067 
L 392.913874 207.424976 
L 393.628829 202.661251 
L 393.986306 201.101311 
L 394.343784 200.26325 
L 394.701261 200.403224 
L 395.058739 200.809579 
L 395.416216 201.612916 
L 395.773694 203.104957 
L 396.488649 208.357256 
L 396.846126 211.604374 
L 397.561081 221.387544 
L 398.633514 236.283146 
L 399.348468 250.032066 
L 400.063423 261.469562 
L 400.420901 269.766747 
L 400.778378 275.350773 
L 401.135856 283.485185 
L 401.850811 293.273203 
L 402.208288 299.442147 
L 403.638198 312.502652 
L 404.353153 314.583397 
L 404.710631 314.588652 
L 405.425586 311.902527 
L 405.783063 309.855641 
L 406.855495 298.525439 
L 407.57045 287.27867 
L 407.927928 282.137919 
L 408.285405 273.9838 
L 409.357838 257.209634 
L 409.715315 248.322111 
L 410.787748 232.166771 
L 411.145225 224.843269 
L 411.86018 216.330453 
L 412.575135 209.052569 
L 413.29009 203.475008 
L 413.647568 201.112644 
L 414.005045 200.474734 
L 414.362523 200.323384 
L 414.72 200.576513 
L 414.72 200.576513 
" style="fill:none;stroke:#008000;stroke-linecap:square;stroke-width:0.8;"/>
   </g>
   <g id="line2d_52">
    <path clip-path="url(#p0b9c2be949)" d="M 57.6 297.666731 
L 57.957477 299.027013 
L 58.314955 299.881827 
L 58.672432 300.224924 
L 59.02991 300.053588 
L 59.387387 299.369743 
L 59.744865 298.180613 
L 60.45982 294.337018 
L 61.174775 288.662968 
L 62.247207 277.218164 
L 63.677117 258.251884 
L 65.821982 229.289065 
L 66.536937 221.613475 
L 67.251892 215.781018 
L 67.966847 212.18377 
L 68.324324 211.309381 
L 68.681802 211.076147 
L 69.039279 211.489045 
L 69.396757 212.54205 
L 69.754234 214.217793 
L 70.469189 219.316174 
L 71.184144 226.448001 
L 72.256577 239.924723 
L 75.473874 283.074366 
L 76.188829 290.086179 
L 76.903784 295.397876 
L 77.618739 298.807389 
L 77.976216 299.760034 
L 78.333694 300.200041 
L 78.691171 300.123727 
L 79.048649 299.53249 
L 79.406126 298.432945 
L 80.121081 294.757174 
L 80.836036 289.234966 
L 81.550991 282.078564 
L 82.623423 268.93917 
L 85.840721 225.915372 
L 86.555676 218.949486 
L 87.270631 214.00329 
L 87.628108 212.398642 
L 87.985586 211.414912 
L 88.343063 211.070267 
L 88.700541 211.371771 
L 89.058018 212.315105 
L 89.415495 213.884971 
L 90.13045 218.789347 
L 90.845405 225.75805 
L 91.917838 239.066944 
L 95.135135 282.336974 
L 95.85009 289.481667 
L 96.565045 294.957328 
L 97.28 298.555113 
L 97.637477 299.608091 
L 97.994955 300.151855 
L 98.352432 300.181924 
L 98.70991 299.698178 
L 99.067387 298.706183 
L 99.424865 297.216223 
L 100.13982 292.80272 
L 100.854775 286.618706 
L 101.927207 274.577637 
L 103.357117 255.23964 
L 105.144505 231.031068 
L 106.216937 219.682726 
L 106.931892 214.477981 
L 107.289369 212.729125 
L 107.646847 211.59439 
L 108.004324 211.094433 
L 108.361802 211.239733 
L 108.719279 212.028926 
L 109.076757 213.44914 
L 109.791712 218.077525 
L 110.506667 224.816887 
L 111.579099 237.894988 
L 115.153874 285.236511 
L 115.868829 291.780211 
L 116.583784 296.5625 
L 117.298739 299.406652 
L 117.656216 300.070384 
L 118.013694 300.221066 
L 118.371171 299.857546 
L 118.728649 298.983802 
L 119.086126 297.608834 
L 119.801081 293.412175 
L 120.516036 287.421047 
L 121.588468 275.598408 
L 123.018378 256.367862 
L 124.805766 231.981437 
L 125.878198 220.362994 
L 126.593153 214.926149 
L 126.950631 213.049672 
L 127.308108 211.782033 
L 127.665586 211.146426 
L 128.023063 211.155235 
L 128.380541 211.809405 
L 128.738018 213.098645 
L 129.452973 217.486218 
L 130.167928 224.024087 
L 131.24036 236.896835 
L 134.815135 284.47576 
L 135.53009 291.188779 
L 136.245045 296.162782 
L 136.96 299.213273 
L 137.317477 299.980237 
L 137.674955 300.232069 
L 138.032432 299.968 
L 138.38991 299.191019 
L 138.747387 297.908969 
L 139.462342 293.886317 
L 140.177297 288.052174 
L 141.24973 276.424045 
L 142.67964 257.334537 
L 144.824505 228.522161 
L 145.539459 221.00041 
L 146.254414 215.360378 
L 146.969369 211.981734 
L 147.326847 211.22083 
L 147.684324 211.102262 
L 148.041802 211.629203 
L 148.399279 212.793661 
L 148.756757 214.576425 
L 149.471712 219.867139 
L 150.186667 227.149328 
L 151.259099 240.760191 
L 154.118919 279.695847 
L 155.191351 290.567183 
L 155.906306 295.726737 
L 156.621261 298.981137 
L 156.978739 299.856774 
L 157.336216 300.220986 
L 157.693694 300.070537 
L 158.051171 299.407073 
L 158.408649 298.237766 
L 159.123604 294.432712 
L 159.838559 288.797983 
L 160.910991 277.412803 
L 162.340901 258.497948 
L 164.485766 229.53039 
L 165.558198 218.627219 
L 166.273153 213.807182 
L 166.630631 212.267679 
L 166.988108 211.350007 
L 167.345586 211.071392 
L 167.703063 211.438004 
L 168.060541 212.444626 
L 168.418018 214.074927 
L 169.132973 219.087332 
L 169.847928 226.142877 
L 170.92036 239.532364 
L 174.137658 282.726297 
L 174.852613 289.806514 
L 175.567568 295.197693 
L 176.282523 298.69562 
L 176.64 299.694297 
L 176.997477 300.18111 
L 177.354955 300.152505 
L 177.712432 299.609005 
L 178.06991 298.556407 
L 178.784865 294.971318 
L 179.49982 289.533386 
L 180.214775 282.450469 
L 181.287207 269.385766 
L 184.861982 222.537635 
L 185.576937 216.434919 
L 186.291892 212.522887 
L 186.649369 211.480165 
L 187.006847 211.075167 
L 187.364324 211.316049 
L 187.721802 212.200007 
L 188.079279 213.712751 
L 188.794234 218.513905 
L 189.509189 225.400248 
L 190.581622 238.626372 
L 193.798919 282.010671 
L 194.513874 289.229832 
L 195.228829 294.78197 
L 195.943784 298.45633 
L 196.301261 299.547785 
L 196.658739 300.129534 
L 197.016216 300.197013 
L 197.373694 299.74996 
L 197.731171 298.793743 
L 198.088649 297.338267 
L 198.803604 292.990331 
L 199.518559 286.867647 
L 200.590991 274.896819 
L 202.020901 255.580319 
L 203.808288 231.307637 
L 204.880721 219.879601 
L 205.595676 214.60747 
L 205.953153 212.821407 
L 206.310631 211.64728 
L 206.668108 211.106954 
L 207.025586 211.211199 
L 207.383063 211.958993 
L 207.740541 213.338609 
L 208.455495 217.891522 
L 209.17045 224.565729 
L 210.242883 237.577016 
L 213.817658 284.981442 
L 214.532613 291.579411 
L 215.247568 296.426445 
L 215.962523 299.341978 
L 216.32 300.041445 
L 216.677477 300.227061 
L 217.034955 299.897542 
L 217.392432 299.056715 
L 217.74991 297.713586 
L 218.464865 293.574376 
L 219.17982 287.631157 
L 220.252252 275.876575 
L 221.682162 256.702837 
L 223.46955 232.277554 
L 224.541982 220.5778 
L 225.256937 215.068119 
L 225.614414 213.151908 
L 225.971892 211.843801 
L 226.329369 211.16735 
L 226.686847 211.136025 
L 227.044324 211.751247 
L 227.401802 213.003027 
L 228.116757 217.32244 
L 228.831712 223.805195 
L 229.904144 236.624204 
L 233.478919 284.267632 
L 234.193874 291.030059 
L 234.908829 296.055605 
L 235.623784 299.158685 
L 235.981261 299.952333 
L 236.338739 300.231663 
L 236.696216 299.995227 
L 237.053694 299.245596 
L 237.411171 297.990361 
L 238.126126 294.018044 
L 238.841081 288.227986 
L 239.913514 276.638939 
L 241.343423 257.558571 
L 243.488288 228.702868 
L 244.203243 221.143086 
L 244.918198 215.456783 
L 245.633153 212.026375 
L 245.990631 211.239452 
L 246.348108 211.094414 
L 246.705586 211.59498 
L 247.063063 212.733645 
L 247.420541 214.49148 
L 248.135495 219.737432 
L 248.85045 226.984951 
L 249.922883 240.56478 
L 252.782703 279.559538 
L 253.855135 290.469793 
L 254.57009 295.660333 
L 255.285045 298.947389 
L 255.642523 299.838424 
L 256 300.217608 
L 256.357477 300.082564 
L 256.714955 299.435103 
L 257.072432 298.282297 
L 257.787387 294.510885 
L 258.502342 288.911195 
L 259.217297 281.695654 
L 260.28973 268.500268 
L 263.507027 225.612526 
L 264.221982 218.72863 
L 264.936937 213.868813 
L 265.294414 212.309184 
L 265.651892 211.370488 
L 266.009369 211.070286 
L 266.366847 211.415533 
L 266.724324 212.401635 
L 267.081802 214.012575 
L 267.796757 218.991083 
L 268.511712 226.019921 
L 269.584144 239.383231 
L 272.801441 282.60461 
L 273.516396 289.699897 
L 274.231351 295.113808 
L 274.946306 298.646122 
L 275.303784 299.66435 
L 275.661261 300.171417 
L 276.018739 300.163888 
L 276.376216 299.64217 
L 276.733694 298.611696 
L 277.448649 295.07156 
L 278.163604 289.678218 
L 278.878559 282.636557 
L 279.950991 269.618392 
L 283.525766 222.728215 
L 284.240721 216.571293 
L 284.955676 212.594336 
L 285.313153 211.517868 
L 285.670631 211.080055 
L 286.028108 211.289311 
L 286.385586 212.14291 
L 286.743063 213.627059 
L 287.458018 218.377362 
L 288.172973 225.222359 
L 289.245405 238.415243 
L 292.462703 281.869134 
L 293.535135 292.139036 
L 294.25009 296.808831 
L 294.965045 299.524822 
L 295.322523 300.120852 
L 295.68 300.201618 
L 296.037477 299.766789 
L 296.394955 298.821409 
L 296.752432 297.375363 
L 297.467387 293.040964 
L 298.182342 286.924322 
L 299.254775 274.958984 
L 300.684685 255.653761 
L 302.472072 231.37042 
L 303.544505 219.917124 
L 304.259459 214.631146 
L 304.616937 212.838041 
L 304.974414 211.656877 
L 305.331892 211.10949 
L 305.689369 211.206306 
L 306.046847 211.946687 
L 306.404324 213.318933 
L 307.119279 217.857824 
L 307.834234 224.521069 
L 308.906667 237.522739 
L 312.481441 284.945 
L 313.196396 291.551444 
L 313.911351 296.406255 
L 314.626306 299.33069 
L 314.983784 300.035811 
L 315.341261 300.22799 
L 315.698739 299.905768 
L 316.056216 299.072321 
L 316.413694 297.73625 
L 317.128649 293.613196 
L 317.843604 287.687461 
L 318.916036 275.945553 
L 320.345946 256.787413 
L 322.133333 232.378371 
L 323.205766 220.667756 
L 323.920721 215.136002 
L 324.635676 211.877107 
L 324.993153 211.180024 
L 325.350631 211.125834 
L 325.708108 211.716477 
L 326.065586 212.942985 
L 326.423063 214.78543 
L 327.138018 220.185556 
L 327.852973 227.558854 
L 328.925405 241.255282 
L 331.785225 280.142197 
L 332.857658 290.904726 
L 333.572613 295.96866 
L 334.287568 299.112938 
L 334.645045 299.928251 
L 335.002523 300.230202 
L 335.36 300.016889 
L 335.717477 299.290592 
L 336.074955 298.059043 
L 336.78991 294.13268 
L 337.504865 288.381698 
L 338.577297 276.850519 
L 340.007207 257.816736 
L 342.152072 228.904225 
L 342.867027 221.301181 
L 343.581982 215.562595 
L 344.296937 212.076295 
L 344.654414 211.260732 
L 345.011892 211.087213 
L 345.369369 211.559463 
L 345.726847 212.670206 
L 346.084324 214.40119 
L 346.799279 219.597294 
L 347.514234 226.801226 
L 348.586667 240.329754 
L 351.446486 279.338089 
L 352.518919 290.3113 
L 353.233874 295.549552 
L 353.948829 298.886808 
L 354.306306 299.804232 
L 354.663784 300.210391 
L 355.021261 300.102766 
L 355.378739 299.482571 
L 355.736216 298.356224 
L 356.451171 294.635289 
L 357.166126 289.07649 
L 357.881081 281.891962 
L 358.953514 268.726607 
L 362.170811 225.787069 
L 362.885766 218.85607 
L 363.600721 213.945288 
L 363.958198 212.359927 
L 364.315676 211.395561 
L 364.673153 211.069909 
L 365.030631 211.389507 
L 365.388108 212.349621 
L 365.745586 213.934726 
L 366.460541 218.865687 
L 367.175495 225.856069 
L 368.247928 239.184881 
L 371.465225 282.429341 
L 372.18018 289.556812 
L 372.895135 295.011934 
L 373.61009 298.588123 
L 373.967568 299.628635 
L 374.325045 300.15919 
L 374.682523 300.175787 
L 375.04 299.678488 
L 375.397477 298.67287 
L 375.754955 297.169078 
L 376.46991 292.726024 
L 377.184865 286.510758 
L 378.257297 274.429477 
L 379.687207 255.045206 
L 381.474595 230.842732 
L 382.547027 219.536473 
L 383.261982 214.376403 
L 383.619459 212.656207 
L 383.976937 211.552826 
L 384.334414 211.085996 
L 384.691892 211.265407 
L 385.049369 212.089383 
L 385.406847 213.54476 
L 386.121802 218.24203 
L 386.836757 225.041891 
L 387.909189 238.184614 
L 391.126486 281.646904 
L 392.198919 291.972549 
L 392.913874 296.695183 
L 393.628829 299.473152 
L 393.986306 300.099969 
L 394.343784 300.211214 
L 394.701261 299.806857 
L 395.058739 298.891167 
L 395.416216 297.473815 
L 396.131171 293.193793 
L 396.846126 287.125949 
L 397.918559 275.216951 
L 399.348468 255.938708 
L 401.135856 231.612256 
L 402.208288 220.093789 
L 402.923243 214.745375 
L 403.280721 212.918208 
L 403.638198 211.702924 
L 403.995676 211.121892 
L 404.353153 211.186041 
L 404.710631 211.895101 
L 405.068108 213.237623 
L 405.783063 217.72231 
L 406.498018 224.339985 
L 407.57045 237.293434 
L 411.145225 284.752703 
L 411.86018 291.397286 
L 412.575135 296.297382 
L 413.29009 299.275787 
L 413.647568 300.009475 
L 414.005045 300.230881 
L 414.362523 299.9386 
L 414.72 299.135477 
L 414.72 299.135477 
" style="fill:none;stroke:#0000ff;stroke-linecap:square;stroke-width:0.8;"/>
   </g>
   <g id="line2d_53">
    <path clip-path="url(#p0b9c2be949)" d="M 57.6 259.848829 
L 57.957477 259.262065 
L 58.672432 256.978434 
L 59.02991 255.718386 
L 59.744865 254.072424 
L 60.45982 251.893097 
L 61.174775 249.431076 
L 62.247207 246.96951 
L 63.31964 245.017708 
L 63.677117 244.647914 
L 64.034595 243.940737 
L 64.74955 243.163138 
L 65.821982 242.885375 
L 66.179459 243.195527 
L 66.536937 243.695405 
L 67.609369 245.844094 
L 69.039279 250.456526 
L 71.899099 260.132525 
L 72.614054 262.003711 
L 72.971532 262.867141 
L 73.329009 263.129309 
L 73.686486 263.535428 
L 74.043964 263.560505 
L 74.401441 263.793813 
L 74.758919 263.708622 
L 75.116396 263.407628 
L 75.473874 263.297988 
L 75.831351 262.571278 
L 76.188829 262.101722 
L 76.903784 260.86615 
L 77.261261 260.389976 
L 77.618739 259.597453 
L 79.048649 255.352248 
L 79.763604 253.513021 
L 81.193514 249.097858 
L 82.265946 246.619551 
L 83.338378 244.518415 
L 84.053333 243.389728 
L 84.410811 243.12498 
L 85.125766 243.142202 
L 85.483243 243.171322 
L 85.840721 243.454389 
L 87.270631 246.010223 
L 87.985586 247.951126 
L 90.487928 256.791551 
L 92.632793 262.601241 
L 92.99027 263.235992 
L 93.347748 263.465552 
L 93.705225 263.893801 
L 94.062703 263.790609 
L 94.42018 263.826885 
L 94.777658 263.731676 
L 95.492613 263.151892 
L 96.207568 261.738417 
L 97.637477 258.90724 
L 98.70991 255.425571 
L 99.424865 253.845527 
L 99.782342 252.765253 
L 100.497297 249.933874 
L 101.212252 248.078259 
L 103.357117 244.132184 
L 104.072072 243.203726 
L 104.42955 242.927063 
L 104.787027 243.001044 
L 106.216937 244.135813 
L 106.931892 245.521062 
L 108.004324 248.402367 
L 110.864144 258.668882 
L 111.579099 260.683727 
L 112.294054 262.303237 
L 113.009009 263.368323 
L 113.723964 263.781545 
L 114.081441 263.63936 
L 114.438919 263.649034 
L 115.868829 261.946888 
L 116.583784 260.396902 
L 116.941261 260.012781 
L 117.298739 259.300569 
L 118.728649 254.726631 
L 119.443604 252.787073 
L 120.158559 250.174117 
L 120.873514 248.337236 
L 121.588468 246.278601 
L 123.018378 244.218622 
L 124.090811 242.993365 
L 124.448288 242.894646 
L 125.520721 243.801205 
L 125.878198 244.178201 
L 126.593153 245.422333 
L 127.665586 248.386821 
L 128.380541 250.782359 
L 129.452973 254.973402 
L 130.525405 258.782524 
L 131.597838 261.349682 
L 133.027748 263.668694 
L 133.742703 263.84306 
L 134.457658 263.53779 
L 135.53009 262.05732 
L 136.245045 260.430506 
L 136.96 258.661403 
L 137.674955 257.325759 
L 138.38991 254.939515 
L 139.104865 253.2758 
L 140.534775 248.875609 
L 141.24973 247.383316 
L 141.607207 246.271659 
L 141.964685 245.642321 
L 142.322162 244.73754 
L 142.67964 244.444419 
L 143.037117 243.55004 
L 144.10955 242.847206 
L 144.824505 243.289433 
L 145.539459 244.1053 
L 146.254414 245.493853 
L 148.041802 250.698987 
L 150.901622 260.305983 
L 151.259099 261.335974 
L 152.331532 263.284968 
L 152.689009 263.599304 
L 153.046486 263.760223 
L 153.403964 263.681819 
L 153.761441 263.873044 
L 154.118919 263.481934 
L 154.476396 263.46784 
L 155.191351 262.242136 
L 155.906306 261.046286 
L 156.621261 259.483954 
L 156.978739 258.481071 
L 157.336216 256.777851 
L 158.051171 254.903029 
L 158.766126 253.147227 
L 160.553514 247.997578 
L 161.625946 245.608089 
L 162.698378 244.080386 
L 163.770811 243.182831 
L 164.128288 243.185161 
L 164.843243 243.566419 
L 166.273153 245.668418 
L 166.630631 246.48631 
L 170.562883 260.112989 
L 170.92036 260.909893 
L 171.277838 262.007315 
L 171.992793 263.206785 
L 172.35027 263.323192 
L 172.707748 263.63925 
L 173.065225 263.667509 
L 173.78018 263.245322 
L 175.21009 261.510125 
L 175.567568 260.700643 
L 175.925045 260.349141 
L 176.282523 259.685739 
L 176.997477 257.555857 
L 177.712432 255.231363 
L 178.427387 253.526969 
L 180.92973 246.385065 
L 181.644685 245.08949 
L 183.074595 243.129059 
L 183.432072 243.099861 
L 183.78955 243.254269 
L 184.147027 243.240957 
L 184.504505 243.404185 
L 185.219459 244.215148 
L 185.576937 244.767277 
L 186.291892 247.008765 
L 188.436757 253.926036 
L 190.224144 260.124583 
L 190.939099 261.907849 
L 191.296577 262.586074 
L 191.654054 262.742415 
L 192.011532 263.164672 
L 192.369009 263.384314 
L 192.726486 263.817246 
L 193.083964 263.682638 
L 194.513874 262.537186 
L 194.871351 261.750622 
L 195.228829 261.473261 
L 195.943784 260.13778 
L 196.658739 257.843276 
L 197.373694 255.675979 
L 198.088649 253.961629 
L 198.803604 251.874836 
L 199.518559 249.487645 
L 200.948468 245.663436 
L 201.663423 244.371219 
L 202.020901 243.964074 
L 202.378378 243.371506 
L 202.735856 243.339449 
L 203.093333 243.181049 
L 203.808288 243.215253 
L 204.880721 244.288255 
L 205.595676 245.613041 
L 207.025586 249.955697 
L 210.242883 260.556335 
L 210.957838 262.153574 
L 211.315315 262.849506 
L 211.672793 263.174005 
L 212.03027 263.648885 
L 212.745225 263.917371 
L 213.46018 263.451873 
L 213.817658 263.142871 
L 214.175135 262.587367 
L 216.32 257.803626 
L 217.034955 255.609868 
L 217.74991 253.976065 
L 218.822342 250.197504 
L 222.03964 243.475906 
L 222.397117 243.211878 
L 222.754595 243.251712 
L 223.112072 242.950864 
L 223.827027 243.085314 
L 224.184505 243.368358 
L 225.614414 246.076394 
L 226.686847 249.435886 
L 227.759279 253.360667 
L 229.546667 259.954326 
L 229.904144 260.59992 
L 230.261622 261.734056 
L 230.619099 262.347409 
L 231.334054 263.132637 
L 231.691532 263.271904 
L 232.049009 263.622193 
L 232.763964 263.619122 
L 233.836396 262.569804 
L 234.551351 261.419004 
L 235.623784 259.03288 
L 235.981261 258.476802 
L 237.411171 254.132219 
L 238.126126 252.09577 
L 239.913514 246.662886 
L 240.270991 246.204382 
L 240.985946 244.865176 
L 241.343423 244.537795 
L 241.700901 243.980748 
L 242.415856 243.384429 
L 242.773333 243.351796 
L 243.130811 243.190076 
L 243.845766 243.533794 
L 244.560721 244.697317 
L 245.275676 246.325913 
L 246.705586 250.670239 
L 247.778018 254.505746 
L 248.85045 258.305936 
L 250.28036 261.912836 
L 251.352793 263.439837 
L 252.067748 263.934096 
L 252.782703 263.807713 
L 253.497658 263.056787 
L 254.212613 261.638154 
L 254.927568 260.11101 
L 255.285045 259.598293 
L 257.42991 253.318531 
L 259.217297 247.792165 
L 259.574775 247.112035 
L 260.28973 245.280496 
L 261.71964 243.434737 
L 262.077117 243.512081 
L 262.434595 243.260884 
L 263.507027 243.769193 
L 263.864505 243.96873 
L 264.221982 244.303424 
L 264.936937 245.709786 
L 266.009369 248.800235 
L 267.796757 255.319964 
L 269.226667 260.078104 
L 269.584144 261.118138 
L 270.299099 262.527289 
L 270.656577 262.772493 
L 271.014054 263.410946 
L 271.729009 263.844594 
L 272.801441 263.307442 
L 273.516396 262.623681 
L 274.946306 259.214307 
L 275.303784 258.512769 
L 279.593514 246.263137 
L 279.950991 245.562908 
L 281.023423 244.311188 
L 281.380901 243.55216 
L 281.738378 243.383219 
L 282.095856 243.006714 
L 282.453333 242.813554 
L 282.810811 243.072524 
L 283.168288 243.094623 
L 283.883243 243.973874 
L 285.313153 247.284734 
L 286.743063 252.711709 
L 288.172973 257.85573 
L 289.602883 261.959495 
L 289.96036 262.226584 
L 290.317838 262.977458 
L 290.675315 263.083355 
L 291.032793 263.475178 
L 291.39027 263.444983 
L 291.747748 263.529629 
L 292.462703 263.255055 
L 292.82018 262.993546 
L 293.177658 262.365602 
L 293.535135 261.988436 
L 293.892613 261.153658 
L 294.607568 260.160671 
L 295.322523 257.947678 
L 296.037477 255.765589 
L 297.10991 252.899508 
L 298.182342 249.342907 
L 298.53982 248.401156 
L 298.897297 247.895852 
L 299.96973 245.403442 
L 300.327207 244.539422 
L 300.684685 243.988653 
L 301.042162 243.773071 
L 301.39964 243.19384 
L 301.757117 243.152436 
L 302.114595 242.799113 
L 302.82955 243.160735 
L 303.187027 243.642112 
L 304.616937 246.640113 
L 306.761802 253.66425 
L 307.834234 257.390739 
L 308.906667 260.694166 
L 309.979099 262.803881 
L 310.336577 263.475195 
L 310.694054 263.442496 
L 311.051532 263.741157 
L 311.409009 263.568988 
L 311.766486 263.665282 
L 312.838919 262.862527 
L 313.553874 261.499227 
L 314.268829 260.012795 
L 314.983784 257.973295 
L 315.698739 255.490396 
L 317.128649 251.613684 
L 317.843604 249.166959 
L 318.558559 247.642466 
L 319.630991 245.551881 
L 319.988468 244.749829 
L 321.418378 243.259609 
L 322.133333 243.118283 
L 322.490811 243.482316 
L 322.848288 243.685142 
L 323.205766 244.047401 
L 323.920721 245.216988 
L 324.278198 245.972417 
L 324.993153 248.233779 
L 326.065586 251.857948 
L 328.925405 261.438814 
L 329.282883 262.309484 
L 329.64036 262.750525 
L 331.07027 263.689672 
L 331.785225 263.248577 
L 332.142703 263.001141 
L 332.857658 261.982961 
L 333.572613 260.723218 
L 333.93009 259.896732 
L 334.287568 259.465735 
L 335.002523 257.321026 
L 335.717477 255.05263 
L 336.432432 253.150363 
L 337.504865 249.854153 
L 339.64973 244.918179 
L 340.722162 243.378418 
L 341.07964 243.054736 
L 341.794595 243.016716 
L 342.152072 243.1468 
L 342.867027 243.749473 
L 344.296937 247.369557 
L 346.799279 255.919283 
L 347.871712 259.513362 
L 348.944144 261.928654 
L 349.659099 262.884556 
L 350.374054 263.527386 
L 351.089009 263.638084 
L 351.446486 263.514865 
L 351.803964 263.268845 
L 352.518919 262.30285 
L 353.591351 260.442277 
L 354.663784 257.738476 
L 355.378739 255.23818 
L 356.093694 253.5592 
L 357.881081 247.967446 
L 358.596036 246.219542 
L 358.953514 245.503501 
L 359.310991 245.080725 
L 359.668468 244.46458 
L 360.025946 244.2945 
L 360.383423 243.653436 
L 361.098378 242.900752 
L 361.455856 242.916644 
L 362.170811 243.347132 
L 363.243243 244.762214 
L 364.673153 249.291582 
L 366.818018 256.449442 
L 367.532973 258.867312 
L 368.247928 260.876305 
L 369.32036 263.23433 
L 369.677838 263.616123 
L 370.392793 263.936068 
L 370.75027 263.805142 
L 371.107748 263.899585 
L 371.465225 263.248559 
L 371.822703 262.965882 
L 372.537658 261.538294 
L 373.967568 258.714338 
L 375.04 255.32582 
L 375.754955 253.489512 
L 377.184865 248.893348 
L 377.89982 247.414182 
L 378.614775 245.799519 
L 379.687207 243.847703 
L 380.044685 243.520276 
L 381.832072 243.208629 
L 382.904505 244.38412 
L 384.691892 249.828602 
L 385.764324 253.592649 
L 386.479279 256.659043 
L 387.194234 259.147948 
L 388.624144 262.55415 
L 389.696577 263.658902 
L 390.411532 263.859978 
L 391.483964 262.957758 
L 391.841441 262.483704 
L 393.271351 259.460241 
L 394.343784 256.880739 
L 395.058739 254.776327 
L 395.773694 252.910939 
L 396.846126 249.474741 
L 397.203604 248.471825 
L 397.918559 247.047485 
L 398.276036 245.967283 
L 399.705946 243.642392 
L 400.420901 243.10598 
L 401.135856 243.035231 
L 401.850811 243.735553 
L 402.923243 245.31848 
L 403.995676 248.806172 
L 405.068108 252.537145 
L 406.498018 257.528344 
L 407.212973 259.849338 
L 408.642883 263.017603 
L 409.00036 263.208537 
L 409.715315 263.820356 
L 410.072793 263.881997 
L 410.43027 263.765974 
L 410.787748 263.367867 
L 411.145225 263.299578 
L 412.217658 261.600025 
L 413.647568 258.283982 
L 414.72 254.498836 
L 414.72 254.498836 
" style="fill:none;stroke:#ff0000;stroke-linecap:square;stroke-width:0.8;"/>
   </g>
   <g id="patch_8">
    <path d="M 57.6 320.4 
L 57.6 194.4 
" style="fill:none;stroke:#000000;stroke-linecap:square;stroke-linejoin:miter;stroke-width:0.8;"/>
   </g>
   <g id="patch_9">
    <path d="M 414.72 320.4 
L 414.72 194.4 
" style="fill:none;stroke:#000000;stroke-linecap:square;stroke-linejoin:miter;stroke-width:0.8;"/>
   </g>
   <g id="patch_10">
    <path d="M 57.6 320.4 
L 414.72 320.4 
" style="fill:none;stroke:#000000;stroke-linecap:square;stroke-linejoin:miter;stroke-width:0.8;"/>
   </g>
   <g id="patch_11">
    <path d="M 57.6 194.4 
L 414.72 194.4 
" style="fill:none;stroke:#000000;stroke-linecap:square;stroke-linejoin:miter;stroke-width:0.8;"/>
   </g>
  </g>
  <g id="text_20">
   <!-- Time [s] -->
   <defs>
    <path d="M -0.296875 72.90625 
L 61.375 72.90625 
L 61.375 64.59375 
L 35.5 64.59375 
L 35.5 0 
L 25.59375 0 
L 25.59375 64.59375 
L -0.296875 64.59375 
z
" id="DejaVuSans-84"/>
    <path d="M 9.421875 54.6875 
L 18.40625 54.6875 
L 18.40625 0 
L 9.421875 0 
z
M 9.421875 75.984375 
L 18.40625 75.984375 
L 18.40625 64.59375 
L 9.421875 64.59375 
z
" id="DejaVuSans-105"/>
    <path d="M 52 44.1875 
Q 55.375 50.25 60.0625 53.125 
Q 64.75 56 71.09375 56 
Q 79.640625 56 84.28125 50.015625 
Q 88.921875 44.046875 88.921875 33.015625 
L 88.921875 0 
L 79.890625 0 
L 79.890625 32.71875 
Q 79.890625 40.578125 77.09375 44.375 
Q 74.3125 48.1875 68.609375 48.1875 
Q 61.625 48.1875 57.5625 43.546875 
Q 53.515625 38.921875 53.515625 30.90625 
L 53.515625 0 
L 44.484375 0 
L 44.484375 32.71875 
Q 44.484375 40.625 41.703125 44.40625 
Q 38.921875 48.1875 33.109375 48.1875 
Q 26.21875 48.1875 22.15625 43.53125 
Q 18.109375 38.875 18.109375 30.90625 
L 18.109375 0 
L 9.078125 0 
L 9.078125 54.6875 
L 18.109375 54.6875 
L 18.109375 46.1875 
Q 21.1875 51.21875 25.484375 53.609375 
Q 29.78125 56 35.6875 56 
Q 41.65625 56 45.828125 52.96875 
Q 50 49.953125 52 44.1875 
z
" id="DejaVuSans-109"/>
    <path d="M 56.203125 29.59375 
L 56.203125 25.203125 
L 14.890625 25.203125 
Q 15.484375 15.921875 20.484375 11.0625 
Q 25.484375 6.203125 34.421875 6.203125 
Q 39.59375 6.203125 44.453125 7.46875 
Q 49.3125 8.734375 54.109375 11.28125 
L 54.109375 2.78125 
Q 49.265625 0.734375 44.1875 -0.34375 
Q 39.109375 -1.421875 33.890625 -1.421875 
Q 20.796875 -1.421875 13.15625 6.1875 
Q 5.515625 13.8125 5.515625 26.8125 
Q 5.515625 40.234375 12.765625 48.109375 
Q 20.015625 56 32.328125 56 
Q 43.359375 56 49.78125 48.890625 
Q 56.203125 41.796875 56.203125 29.59375 
z
M 47.21875 32.234375 
Q 47.125 39.59375 43.09375 43.984375 
Q 39.0625 48.390625 32.421875 48.390625 
Q 24.90625 48.390625 20.390625 44.140625 
Q 15.875 39.890625 15.1875 32.171875 
z
" id="DejaVuSans-101"/>
    <path id="DejaVuSans-32"/>
    <path d="M 8.59375 75.984375 
L 29.296875 75.984375 
L 29.296875 69 
L 17.578125 69 
L 17.578125 -6.203125 
L 29.296875 -6.203125 
L 29.296875 -13.1875 
L 8.59375 -13.1875 
z
" id="DejaVuSans-91"/>
    <path d="M 44.28125 53.078125 
L 44.28125 44.578125 
Q 40.484375 46.53125 36.375 47.5 
Q 32.28125 48.484375 27.875 48.484375 
Q 21.1875 48.484375 17.84375 46.4375 
Q 14.5 44.390625 14.5 40.28125 
Q 14.5 37.15625 16.890625 35.375 
Q 19.28125 33.59375 26.515625 31.984375 
L 29.59375 31.296875 
Q 39.15625 29.25 43.1875 25.515625 
Q 47.21875 21.78125 47.21875 15.09375 
Q 47.21875 7.46875 41.1875 3.015625 
Q 35.15625 -1.421875 24.609375 -1.421875 
Q 20.21875 -1.421875 15.453125 -0.5625 
Q 10.6875 0.296875 5.421875 2 
L 5.421875 11.28125 
Q 10.40625 8.6875 15.234375 7.390625 
Q 20.0625 6.109375 24.8125 6.109375 
Q 31.15625 6.109375 34.5625 8.28125 
Q 37.984375 10.453125 37.984375 14.40625 
Q 37.984375 18.0625 35.515625 20.015625 
Q 33.0625 21.96875 24.703125 23.78125 
L 21.578125 24.515625 
Q 13.234375 26.265625 9.515625 29.90625 
Q 5.8125 33.546875 5.8125 39.890625 
Q 5.8125 47.609375 11.28125 51.796875 
Q 16.75 56 26.8125 56 
Q 31.78125 56 36.171875 55.265625 
Q 40.578125 54.546875 44.28125 53.078125 
z
" id="DejaVuSans-115"/>
    <path d="M 30.421875 75.984375 
L 30.421875 -13.1875 
L 9.71875 -13.1875 
L 9.71875 -6.203125 
L 21.390625 -6.203125 
L 21.390625 69 
L 9.71875 69 
L 9.71875 75.984375 
z
" id="DejaVuSans-93"/>
   </defs>
   <g transform="translate(210.071094 345.6)scale(0.1 -0.1)">
    <use xlink:href="#DejaVuSans-84"/>
    <use x="57.958984" xlink:href="#DejaVuSans-105"/>
    <use x="85.742188" xlink:href="#DejaVuSans-109"/>
    <use x="183.154297" xlink:href="#DejaVuSans-101"/>
    <use x="244.677734" xlink:href="#DejaVuSans-32"/>
    <use x="276.464844" xlink:href="#DejaVuSans-91"/>
    <use x="315.478516" xlink:href="#DejaVuSans-115"/>
    <use x="367.578125" xlink:href="#DejaVuSans-93"/>
   </g>
  </g>
  <g id="text_21">
   <!-- Amplitude [pu.] -->
   <defs>
    <path d="M 34.1875 63.1875 
L 20.796875 26.90625 
L 47.609375 26.90625 
z
M 28.609375 72.90625 
L 39.796875 72.90625 
L 67.578125 0 
L 57.328125 0 
L 50.6875 18.703125 
L 17.828125 18.703125 
L 11.1875 0 
L 0.78125 0 
z
" id="DejaVuSans-65"/>
    <path d="M 18.109375 8.203125 
L 18.109375 -20.796875 
L 9.078125 -20.796875 
L 9.078125 54.6875 
L 18.109375 54.6875 
L 18.109375 46.390625 
Q 20.953125 51.265625 25.265625 53.625 
Q 29.59375 56 35.59375 56 
Q 45.5625 56 51.78125 48.09375 
Q 58.015625 40.1875 58.015625 27.296875 
Q 58.015625 14.40625 51.78125 6.484375 
Q 45.5625 -1.421875 35.59375 -1.421875 
Q 29.59375 -1.421875 25.265625 0.953125 
Q 20.953125 3.328125 18.109375 8.203125 
z
M 48.6875 27.296875 
Q 48.6875 37.203125 44.609375 42.84375 
Q 40.53125 48.484375 33.40625 48.484375 
Q 26.265625 48.484375 22.1875 42.84375 
Q 18.109375 37.203125 18.109375 27.296875 
Q 18.109375 17.390625 22.1875 11.75 
Q 26.265625 6.109375 33.40625 6.109375 
Q 40.53125 6.109375 44.609375 11.75 
Q 48.6875 17.390625 48.6875 27.296875 
z
" id="DejaVuSans-112"/>
    <path d="M 9.421875 75.984375 
L 18.40625 75.984375 
L 18.40625 0 
L 9.421875 0 
z
" id="DejaVuSans-108"/>
    <path d="M 18.3125 70.21875 
L 18.3125 54.6875 
L 36.8125 54.6875 
L 36.8125 47.703125 
L 18.3125 47.703125 
L 18.3125 18.015625 
Q 18.3125 11.328125 20.140625 9.421875 
Q 21.96875 7.515625 27.59375 7.515625 
L 36.8125 7.515625 
L 36.8125 0 
L 27.59375 0 
Q 17.1875 0 13.234375 3.875 
Q 9.28125 7.765625 9.28125 18.015625 
L 9.28125 47.703125 
L 2.6875 47.703125 
L 2.6875 54.6875 
L 9.28125 54.6875 
L 9.28125 70.21875 
z
" id="DejaVuSans-116"/>
    <path d="M 8.5 21.578125 
L 8.5 54.6875 
L 17.484375 54.6875 
L 17.484375 21.921875 
Q 17.484375 14.15625 20.5 10.265625 
Q 23.53125 6.390625 29.59375 6.390625 
Q 36.859375 6.390625 41.078125 11.03125 
Q 45.3125 15.671875 45.3125 23.6875 
L 45.3125 54.6875 
L 54.296875 54.6875 
L 54.296875 0 
L 45.3125 0 
L 45.3125 8.40625 
Q 42.046875 3.421875 37.71875 1 
Q 33.40625 -1.421875 27.6875 -1.421875 
Q 18.265625 -1.421875 13.375 4.4375 
Q 8.5 10.296875 8.5 21.578125 
z
M 31.109375 56 
z
" id="DejaVuSans-117"/>
    <path d="M 45.40625 46.390625 
L 45.40625 75.984375 
L 54.390625 75.984375 
L 54.390625 0 
L 45.40625 0 
L 45.40625 8.203125 
Q 42.578125 3.328125 38.25 0.953125 
Q 33.9375 -1.421875 27.875 -1.421875 
Q 17.96875 -1.421875 11.734375 6.484375 
Q 5.515625 14.40625 5.515625 27.296875 
Q 5.515625 40.1875 11.734375 48.09375 
Q 17.96875 56 27.875 56 
Q 33.9375 56 38.25 53.625 
Q 42.578125 51.265625 45.40625 46.390625 
z
M 14.796875 27.296875 
Q 14.796875 17.390625 18.875 11.75 
Q 22.953125 6.109375 30.078125 6.109375 
Q 37.203125 6.109375 41.296875 11.75 
Q 45.40625 17.390625 45.40625 27.296875 
Q 45.40625 37.203125 41.296875 42.84375 
Q 37.203125 48.484375 30.078125 48.484375 
Q 22.953125 48.484375 18.875 42.84375 
Q 14.796875 37.203125 14.796875 27.296875 
z
" id="DejaVuSans-100"/>
   </defs>
   <g transform="translate(16.814438 219.045312)rotate(-90)scale(0.1 -0.1)">
    <use xlink:href="#DejaVuSans-65"/>
    <use x="68.408203" xlink:href="#DejaVuSans-109"/>
    <use x="165.820312" xlink:href="#DejaVuSans-112"/>
    <use x="229.296875" xlink:href="#DejaVuSans-108"/>
    <use x="257.080078" xlink:href="#DejaVuSans-105"/>
    <use x="284.863281" xlink:href="#DejaVuSans-116"/>
    <use x="324.072266" xlink:href="#DejaVuSans-117"/>
    <use x="387.451172" xlink:href="#DejaVuSans-100"/>
    <use x="450.927734" xlink:href="#DejaVuSans-101"/>
    <use x="512.451172" xlink:href="#DejaVuSans-32"/>
    <use x="544.238281" xlink:href="#DejaVuSans-91"/>
    <use x="583.251953" xlink:href="#DejaVuSans-112"/>
    <use x="646.728516" xlink:href="#DejaVuSans-117"/>
    <use x="710.107422" xlink:href="#DejaVuSans-46"/>
    <use x="741.894531" xlink:href="#DejaVuSans-93"/>
   </g>
  </g>
  <g id="legend_1">
   <g id="patch_12">
    <path d="M 37.814844 22.678125 
L 422.985156 22.678125 
Q 424.985156 22.678125 424.985156 20.678125 
L 424.985156 7 
Q 424.985156 5 422.985156 5 
L 37.814844 5 
Q 35.814844 5 35.814844 7 
L 35.814844 20.678125 
Q 35.814844 22.678125 37.814844 22.678125 
z
" style="fill:#ffffff;opacity:0.8;stroke:#cccccc;stroke-linejoin:miter;"/>
   </g>
   <g id="line2d_54">
    <path d="M 39.814844 13.098438 
L 59.814844 13.098438 
" style="fill:none;stroke:#008000;stroke-linecap:square;stroke-width:0.8;"/>
   </g>
   <g id="line2d_55"/>
   <g id="text_22">
    <!-- Compensation torque -->
    <defs>
     <path d="M 64.40625 67.28125 
L 64.40625 56.890625 
Q 59.421875 61.53125 53.78125 63.8125 
Q 48.140625 66.109375 41.796875 66.109375 
Q 29.296875 66.109375 22.65625 58.46875 
Q 16.015625 50.828125 16.015625 36.375 
Q 16.015625 21.96875 22.65625 14.328125 
Q 29.296875 6.6875 41.796875 6.6875 
Q 48.140625 6.6875 53.78125 8.984375 
Q 59.421875 11.28125 64.40625 15.921875 
L 64.40625 5.609375 
Q 59.234375 2.09375 53.4375 0.328125 
Q 47.65625 -1.421875 41.21875 -1.421875 
Q 24.65625 -1.421875 15.125 8.703125 
Q 5.609375 18.84375 5.609375 36.375 
Q 5.609375 53.953125 15.125 64.078125 
Q 24.65625 74.21875 41.21875 74.21875 
Q 47.75 74.21875 53.53125 72.484375 
Q 59.328125 70.75 64.40625 67.28125 
z
" id="DejaVuSans-67"/>
     <path d="M 30.609375 48.390625 
Q 23.390625 48.390625 19.1875 42.75 
Q 14.984375 37.109375 14.984375 27.296875 
Q 14.984375 17.484375 19.15625 11.84375 
Q 23.34375 6.203125 30.609375 6.203125 
Q 37.796875 6.203125 41.984375 11.859375 
Q 46.1875 17.53125 46.1875 27.296875 
Q 46.1875 37.015625 41.984375 42.703125 
Q 37.796875 48.390625 30.609375 48.390625 
z
M 30.609375 56 
Q 42.328125 56 49.015625 48.375 
Q 55.71875 40.765625 55.71875 27.296875 
Q 55.71875 13.875 49.015625 6.21875 
Q 42.328125 -1.421875 30.609375 -1.421875 
Q 18.84375 -1.421875 12.171875 6.21875 
Q 5.515625 13.875 5.515625 27.296875 
Q 5.515625 40.765625 12.171875 48.375 
Q 18.84375 56 30.609375 56 
z
" id="DejaVuSans-111"/>
     <path d="M 54.890625 33.015625 
L 54.890625 0 
L 45.90625 0 
L 45.90625 32.71875 
Q 45.90625 40.484375 42.875 44.328125 
Q 39.84375 48.1875 33.796875 48.1875 
Q 26.515625 48.1875 22.3125 43.546875 
Q 18.109375 38.921875 18.109375 30.90625 
L 18.109375 0 
L 9.078125 0 
L 9.078125 54.6875 
L 18.109375 54.6875 
L 18.109375 46.1875 
Q 21.34375 51.125 25.703125 53.5625 
Q 30.078125 56 35.796875 56 
Q 45.21875 56 50.046875 50.171875 
Q 54.890625 44.34375 54.890625 33.015625 
z
" id="DejaVuSans-110"/>
     <path d="M 34.28125 27.484375 
Q 23.390625 27.484375 19.1875 25 
Q 14.984375 22.515625 14.984375 16.5 
Q 14.984375 11.71875 18.140625 8.90625 
Q 21.296875 6.109375 26.703125 6.109375 
Q 34.1875 6.109375 38.703125 11.40625 
Q 43.21875 16.703125 43.21875 25.484375 
L 43.21875 27.484375 
z
M 52.203125 31.203125 
L 52.203125 0 
L 43.21875 0 
L 43.21875 8.296875 
Q 40.140625 3.328125 35.546875 0.953125 
Q 30.953125 -1.421875 24.3125 -1.421875 
Q 15.921875 -1.421875 10.953125 3.296875 
Q 6 8.015625 6 15.921875 
Q 6 25.140625 12.171875 29.828125 
Q 18.359375 34.515625 30.609375 34.515625 
L 43.21875 34.515625 
L 43.21875 35.40625 
Q 43.21875 41.609375 39.140625 45 
Q 35.0625 48.390625 27.6875 48.390625 
Q 23 48.390625 18.546875 47.265625 
Q 14.109375 46.140625 10.015625 43.890625 
L 10.015625 52.203125 
Q 14.9375 54.109375 19.578125 55.046875 
Q 24.21875 56 28.609375 56 
Q 40.484375 56 46.34375 49.84375 
Q 52.203125 43.703125 52.203125 31.203125 
z
" id="DejaVuSans-97"/>
     <path d="M 41.109375 46.296875 
Q 39.59375 47.171875 37.8125 47.578125 
Q 36.03125 48 33.890625 48 
Q 26.265625 48 22.1875 43.046875 
Q 18.109375 38.09375 18.109375 28.8125 
L 18.109375 0 
L 9.078125 0 
L 9.078125 54.6875 
L 18.109375 54.6875 
L 18.109375 46.1875 
Q 20.953125 51.171875 25.484375 53.578125 
Q 30.03125 56 36.53125 56 
Q 37.453125 56 38.578125 55.875 
Q 39.703125 55.765625 41.0625 55.515625 
z
" id="DejaVuSans-114"/>
     <path d="M 14.796875 27.296875 
Q 14.796875 17.390625 18.875 11.75 
Q 22.953125 6.109375 30.078125 6.109375 
Q 37.203125 6.109375 41.296875 11.75 
Q 45.40625 17.390625 45.40625 27.296875 
Q 45.40625 37.203125 41.296875 42.84375 
Q 37.203125 48.484375 30.078125 48.484375 
Q 22.953125 48.484375 18.875 42.84375 
Q 14.796875 37.203125 14.796875 27.296875 
z
M 45.40625 8.203125 
Q 42.578125 3.328125 38.25 0.953125 
Q 33.9375 -1.421875 27.875 -1.421875 
Q 17.96875 -1.421875 11.734375 6.484375 
Q 5.515625 14.40625 5.515625 27.296875 
Q 5.515625 40.1875 11.734375 48.09375 
Q 17.96875 56 27.875 56 
Q 33.9375 56 38.25 53.625 
Q 42.578125 51.265625 45.40625 46.390625 
L 45.40625 54.6875 
L 54.390625 54.6875 
L 54.390625 -20.796875 
L 45.40625 -20.796875 
z
" id="DejaVuSans-113"/>
    </defs>
    <g transform="translate(67.814844 16.598438)scale(0.1 -0.1)">
     <use xlink:href="#DejaVuSans-67"/>
     <use x="69.824219" xlink:href="#DejaVuSans-111"/>
     <use x="131.005859" xlink:href="#DejaVuSans-109"/>
     <use x="228.417969" xlink:href="#DejaVuSans-112"/>
     <use x="291.894531" xlink:href="#DejaVuSans-101"/>
     <use x="353.417969" xlink:href="#DejaVuSans-110"/>
     <use x="416.796875" xlink:href="#DejaVuSans-115"/>
     <use x="468.896484" xlink:href="#DejaVuSans-97"/>
     <use x="530.175781" xlink:href="#DejaVuSans-116"/>
     <use x="569.384766" xlink:href="#DejaVuSans-105"/>
     <use x="597.167969" xlink:href="#DejaVuSans-111"/>
     <use x="658.349609" xlink:href="#DejaVuSans-110"/>
     <use x="721.728516" xlink:href="#DejaVuSans-32"/>
     <use x="753.515625" xlink:href="#DejaVuSans-116"/>
     <use x="792.724609" xlink:href="#DejaVuSans-111"/>
     <use x="853.90625" xlink:href="#DejaVuSans-114"/>
     <use x="893.269531" xlink:href="#DejaVuSans-113"/>
     <use x="956.746094" xlink:href="#DejaVuSans-117"/>
     <use x="1020.125" xlink:href="#DejaVuSans-101"/>
    </g>
   </g>
   <g id="line2d_56">
    <path d="M 195.980469 13.098438 
L 215.980469 13.098438 
" style="fill:none;stroke:#0000ff;stroke-linecap:square;stroke-width:0.8;"/>
   </g>
   <g id="line2d_57"/>
   <g id="text_23">
    <!-- Pulsating torque -->
    <defs>
     <path d="M 19.671875 64.796875 
L 19.671875 37.40625 
L 32.078125 37.40625 
Q 38.96875 37.40625 42.71875 40.96875 
Q 46.484375 44.53125 46.484375 51.125 
Q 46.484375 57.671875 42.71875 61.234375 
Q 38.96875 64.796875 32.078125 64.796875 
z
M 9.8125 72.90625 
L 32.078125 72.90625 
Q 44.34375 72.90625 50.609375 67.359375 
Q 56.890625 61.8125 56.890625 51.125 
Q 56.890625 40.328125 50.609375 34.8125 
Q 44.34375 29.296875 32.078125 29.296875 
L 19.671875 29.296875 
L 19.671875 0 
L 9.8125 0 
z
" id="DejaVuSans-80"/>
     <path d="M 45.40625 27.984375 
Q 45.40625 37.75 41.375 43.109375 
Q 37.359375 48.484375 30.078125 48.484375 
Q 22.859375 48.484375 18.828125 43.109375 
Q 14.796875 37.75 14.796875 27.984375 
Q 14.796875 18.265625 18.828125 12.890625 
Q 22.859375 7.515625 30.078125 7.515625 
Q 37.359375 7.515625 41.375 12.890625 
Q 45.40625 18.265625 45.40625 27.984375 
z
M 54.390625 6.78125 
Q 54.390625 -7.171875 48.1875 -13.984375 
Q 42 -20.796875 29.203125 -20.796875 
Q 24.46875 -20.796875 20.265625 -20.09375 
Q 16.0625 -19.390625 12.109375 -17.921875 
L 12.109375 -9.1875 
Q 16.0625 -11.328125 19.921875 -12.34375 
Q 23.78125 -13.375 27.78125 -13.375 
Q 36.625 -13.375 41.015625 -8.765625 
Q 45.40625 -4.15625 45.40625 5.171875 
L 45.40625 9.625 
Q 42.625 4.78125 38.28125 2.390625 
Q 33.9375 0 27.875 0 
Q 17.828125 0 11.671875 7.65625 
Q 5.515625 15.328125 5.515625 27.984375 
Q 5.515625 40.671875 11.671875 48.328125 
Q 17.828125 56 27.875 56 
Q 33.9375 56 38.28125 53.609375 
Q 42.625 51.21875 45.40625 46.390625 
L 45.40625 54.6875 
L 54.390625 54.6875 
z
" id="DejaVuSans-103"/>
    </defs>
    <g transform="translate(223.980469 16.598438)scale(0.1 -0.1)">
     <use xlink:href="#DejaVuSans-80"/>
     <use x="58.552734" xlink:href="#DejaVuSans-117"/>
     <use x="121.931641" xlink:href="#DejaVuSans-108"/>
     <use x="149.714844" xlink:href="#DejaVuSans-115"/>
     <use x="201.814453" xlink:href="#DejaVuSans-97"/>
     <use x="263.09375" xlink:href="#DejaVuSans-116"/>
     <use x="302.302734" xlink:href="#DejaVuSans-105"/>
     <use x="330.085938" xlink:href="#DejaVuSans-110"/>
     <use x="393.464844" xlink:href="#DejaVuSans-103"/>
     <use x="456.941406" xlink:href="#DejaVuSans-32"/>
     <use x="488.728516" xlink:href="#DejaVuSans-116"/>
     <use x="527.9375" xlink:href="#DejaVuSans-111"/>
     <use x="589.119141" xlink:href="#DejaVuSans-114"/>
     <use x="628.482422" xlink:href="#DejaVuSans-113"/>
     <use x="691.958984" xlink:href="#DejaVuSans-117"/>
     <use x="755.337891" xlink:href="#DejaVuSans-101"/>
    </g>
   </g>
   <g id="line2d_58">
    <path d="M 325.664844 13.098438 
L 345.664844 13.098438 
" style="fill:none;stroke:#ff0000;stroke-linecap:square;stroke-width:0.8;"/>
   </g>
   <g id="line2d_59"/>
   <g id="text_24">
    <!-- Actual torque -->
    <defs>
     <path d="M 48.78125 52.59375 
L 48.78125 44.1875 
Q 44.96875 46.296875 41.140625 47.34375 
Q 37.3125 48.390625 33.40625 48.390625 
Q 24.65625 48.390625 19.8125 42.84375 
Q 14.984375 37.3125 14.984375 27.296875 
Q 14.984375 17.28125 19.8125 11.734375 
Q 24.65625 6.203125 33.40625 6.203125 
Q 37.3125 6.203125 41.140625 7.25 
Q 44.96875 8.296875 48.78125 10.40625 
L 48.78125 2.09375 
Q 45.015625 0.34375 40.984375 -0.53125 
Q 36.96875 -1.421875 32.421875 -1.421875 
Q 20.0625 -1.421875 12.78125 6.34375 
Q 5.515625 14.109375 5.515625 27.296875 
Q 5.515625 40.671875 12.859375 48.328125 
Q 20.21875 56 33.015625 56 
Q 37.15625 56 41.109375 55.140625 
Q 45.0625 54.296875 48.78125 52.59375 
z
" id="DejaVuSans-99"/>
    </defs>
    <g transform="translate(353.664844 16.598438)scale(0.1 -0.1)">
     <use xlink:href="#DejaVuSans-65"/>
     <use x="66.658203" xlink:href="#DejaVuSans-99"/>
     <use x="121.638672" xlink:href="#DejaVuSans-116"/>
     <use x="160.847656" xlink:href="#DejaVuSans-117"/>
     <use x="224.226562" xlink:href="#DejaVuSans-97"/>
     <use x="285.505859" xlink:href="#DejaVuSans-108"/>
     <use x="313.289062" xlink:href="#DejaVuSans-32"/>
     <use x="345.076172" xlink:href="#DejaVuSans-116"/>
     <use x="384.285156" xlink:href="#DejaVuSans-111"/>
     <use x="445.466797" xlink:href="#DejaVuSans-114"/>
     <use x="484.830078" xlink:href="#DejaVuSans-113"/>
     <use x="548.306641" xlink:href="#DejaVuSans-117"/>
     <use x="611.685547" xlink:href="#DejaVuSans-101"/>
    </g>
   </g>
  </g>
 </g>
 <defs>
  <clipPath id="pb613319b67">
   <rect height="126" width="357.12" x="57.6" y="43.2"/>
  </clipPath>
  <clipPath id="p0b9c2be949">
   <rect height="126" width="357.12" x="57.6" y="194.4"/>
  </clipPath>
 </defs>
</svg>
