<?xml version="1.0" encoding="utf-8" standalone="no"?>
<!DOCTYPE svg PUBLIC "-//W3C//DTD SVG 1.1//EN"
  "http://www.w3.org/Graphics/SVG/1.1/DTD/svg11.dtd">
<!-- Created with matplotlib (https://matplotlib.org/) -->
<svg height="360pt" version="1.1" viewBox="0 0 460.8 360" width="460.8pt" xmlns="http://www.w3.org/2000/svg" xmlns:xlink="http://www.w3.org/1999/xlink">
 <defs>
  <style type="text/css">
*{stroke-linecap:butt;stroke-linejoin:round;}
  </style>
 </defs>
 <g id="figure_1">
  <g id="patch_1">
   <path d="M 0 360 
L 460.8 360 
L 460.8 0 
L 0 0 
z
" style="fill:#ffffff;"/>
  </g>
  <g id="axes_1">
   <g id="patch_2">
    <path d="M 57.6 320.4 
L 414.72 320.4 
L 414.72 43.2 
L 57.6 43.2 
z
" style="fill:#ffffff;"/>
   </g>
   <g id="matplotlib.axis_1">
    <g id="xtick_1">
     <g id="line2d_1">
      <path clip-path="url(#pfcb054e23a)" d="M 73.832727 320.4 
L 73.832727 43.2 
" style="fill:none;stroke:#c0c0c0;stroke-dasharray:0.8,1.32;stroke-dashoffset:0;stroke-width:0.8;"/>
     </g>
     <g id="line2d_2">
      <defs>
       <path d="M 0 0 
L 0 3.5 
" id="m0eb2a7fbb1" style="stroke:#000000;stroke-width:0.8;"/>
      </defs>
      <g>
       <use style="stroke:#000000;stroke-width:0.8;" x="73.832727" xlink:href="#m0eb2a7fbb1" y="320.4"/>
      </g>
     </g>
     <g id="text_1">
      <!-- 0 -->
      <defs>
       <path d="M 31.78125 66.40625 
Q 24.171875 66.40625 20.328125 58.90625 
Q 16.5 51.421875 16.5 36.375 
Q 16.5 21.390625 20.328125 13.890625 
Q 24.171875 6.390625 31.78125 6.390625 
Q 39.453125 6.390625 43.28125 13.890625 
Q 47.125 21.390625 47.125 36.375 
Q 47.125 51.421875 43.28125 58.90625 
Q 39.453125 66.40625 31.78125 66.40625 
z
M 31.78125 74.21875 
Q 44.046875 74.21875 50.515625 64.515625 
Q 56.984375 54.828125 56.984375 36.375 
Q 56.984375 17.96875 50.515625 8.265625 
Q 44.046875 -1.421875 31.78125 -1.421875 
Q 19.53125 -1.421875 13.0625 8.265625 
Q 6.59375 17.96875 6.59375 36.375 
Q 6.59375 54.828125 13.0625 64.515625 
Q 19.53125 74.21875 31.78125 74.21875 
z
" id="DejaVuSans-48"/>
      </defs>
      <g transform="translate(70.651477 334.998438)scale(0.1 -0.1)">
       <use xlink:href="#DejaVuSans-48"/>
      </g>
     </g>
    </g>
    <g id="xtick_2">
     <g id="line2d_3">
      <path clip-path="url(#pfcb054e23a)" d="M 138.763636 320.4 
L 138.763636 43.2 
" style="fill:none;stroke:#c0c0c0;stroke-dasharray:0.8,1.32;stroke-dashoffset:0;stroke-width:0.8;"/>
     </g>
     <g id="line2d_4">
      <g>
       <use style="stroke:#000000;stroke-width:0.8;" x="138.763636" xlink:href="#m0eb2a7fbb1" y="320.4"/>
      </g>
     </g>
     <g id="text_2">
      <!-- 100 -->
      <defs>
       <path d="M 12.40625 8.296875 
L 28.515625 8.296875 
L 28.515625 63.921875 
L 10.984375 60.40625 
L 10.984375 69.390625 
L 28.421875 72.90625 
L 38.28125 72.90625 
L 38.28125 8.296875 
L 54.390625 8.296875 
L 54.390625 0 
L 12.40625 0 
z
" id="DejaVuSans-49"/>
      </defs>
      <g transform="translate(129.219886 334.998438)scale(0.1 -0.1)">
       <use xlink:href="#DejaVuSans-49"/>
       <use x="63.623047" xlink:href="#DejaVuSans-48"/>
       <use x="127.246094" xlink:href="#DejaVuSans-48"/>
      </g>
     </g>
    </g>
    <g id="xtick_3">
     <g id="line2d_5">
      <path clip-path="url(#pfcb054e23a)" d="M 203.694545 320.4 
L 203.694545 43.2 
" style="fill:none;stroke:#c0c0c0;stroke-dasharray:0.8,1.32;stroke-dashoffset:0;stroke-width:0.8;"/>
     </g>
     <g id="line2d_6">
      <g>
       <use style="stroke:#000000;stroke-width:0.8;" x="203.694545" xlink:href="#m0eb2a7fbb1" y="320.4"/>
      </g>
     </g>
     <g id="text_3">
      <!-- 200 -->
      <defs>
       <path d="M 19.1875 8.296875 
L 53.609375 8.296875 
L 53.609375 0 
L 7.328125 0 
L 7.328125 8.296875 
Q 12.9375 14.109375 22.625 23.890625 
Q 32.328125 33.6875 34.8125 36.53125 
Q 39.546875 41.84375 41.421875 45.53125 
Q 43.3125 49.21875 43.3125 52.78125 
Q 43.3125 58.59375 39.234375 62.25 
Q 35.15625 65.921875 28.609375 65.921875 
Q 23.96875 65.921875 18.8125 64.3125 
Q 13.671875 62.703125 7.8125 59.421875 
L 7.8125 69.390625 
Q 13.765625 71.78125 18.9375 73 
Q 24.125 74.21875 28.421875 74.21875 
Q 39.75 74.21875 46.484375 68.546875 
Q 53.21875 62.890625 53.21875 53.421875 
Q 53.21875 48.921875 51.53125 44.890625 
Q 49.859375 40.875 45.40625 35.40625 
Q 44.1875 33.984375 37.640625 27.21875 
Q 31.109375 20.453125 19.1875 8.296875 
z
" id="DejaVuSans-50"/>
      </defs>
      <g transform="translate(194.150795 334.998438)scale(0.1 -0.1)">
       <use xlink:href="#DejaVuSans-50"/>
       <use x="63.623047" xlink:href="#DejaVuSans-48"/>
       <use x="127.246094" xlink:href="#DejaVuSans-48"/>
      </g>
     </g>
    </g>
    <g id="xtick_4">
     <g id="line2d_7">
      <path clip-path="url(#pfcb054e23a)" d="M 268.625455 320.4 
L 268.625455 43.2 
" style="fill:none;stroke:#c0c0c0;stroke-dasharray:0.8,1.32;stroke-dashoffset:0;stroke-width:0.8;"/>
     </g>
     <g id="line2d_8">
      <g>
       <use style="stroke:#000000;stroke-width:0.8;" x="268.625455" xlink:href="#m0eb2a7fbb1" y="320.4"/>
      </g>
     </g>
     <g id="text_4">
      <!-- 300 -->
      <defs>
       <path d="M 40.578125 39.3125 
Q 47.65625 37.796875 51.625 33 
Q 55.609375 28.21875 55.609375 21.1875 
Q 55.609375 10.40625 48.1875 4.484375 
Q 40.765625 -1.421875 27.09375 -1.421875 
Q 22.515625 -1.421875 17.65625 -0.515625 
Q 12.796875 0.390625 7.625 2.203125 
L 7.625 11.71875 
Q 11.71875 9.328125 16.59375 8.109375 
Q 21.484375 6.890625 26.8125 6.890625 
Q 36.078125 6.890625 40.9375 10.546875 
Q 45.796875 14.203125 45.796875 21.1875 
Q 45.796875 27.640625 41.28125 31.265625 
Q 36.765625 34.90625 28.71875 34.90625 
L 20.21875 34.90625 
L 20.21875 43.015625 
L 29.109375 43.015625 
Q 36.375 43.015625 40.234375 45.921875 
Q 44.09375 48.828125 44.09375 54.296875 
Q 44.09375 59.90625 40.109375 62.90625 
Q 36.140625 65.921875 28.71875 65.921875 
Q 24.65625 65.921875 20.015625 65.03125 
Q 15.375 64.15625 9.8125 62.3125 
L 9.8125 71.09375 
Q 15.4375 72.65625 20.34375 73.4375 
Q 25.25 74.21875 29.59375 74.21875 
Q 40.828125 74.21875 47.359375 69.109375 
Q 53.90625 64.015625 53.90625 55.328125 
Q 53.90625 49.265625 50.4375 45.09375 
Q 46.96875 40.921875 40.578125 39.3125 
z
" id="DejaVuSans-51"/>
      </defs>
      <g transform="translate(259.081705 334.998438)scale(0.1 -0.1)">
       <use xlink:href="#DejaVuSans-51"/>
       <use x="63.623047" xlink:href="#DejaVuSans-48"/>
       <use x="127.246094" xlink:href="#DejaVuSans-48"/>
      </g>
     </g>
    </g>
    <g id="xtick_5">
     <g id="line2d_9">
      <path clip-path="url(#pfcb054e23a)" d="M 333.556364 320.4 
L 333.556364 43.2 
" style="fill:none;stroke:#c0c0c0;stroke-dasharray:0.8,1.32;stroke-dashoffset:0;stroke-width:0.8;"/>
     </g>
     <g id="line2d_10">
      <g>
       <use style="stroke:#000000;stroke-width:0.8;" x="333.556364" xlink:href="#m0eb2a7fbb1" y="320.4"/>
      </g>
     </g>
     <g id="text_5">
      <!-- 400 -->
      <defs>
       <path d="M 37.796875 64.3125 
L 12.890625 25.390625 
L 37.796875 25.390625 
z
M 35.203125 72.90625 
L 47.609375 72.90625 
L 47.609375 25.390625 
L 58.015625 25.390625 
L 58.015625 17.1875 
L 47.609375 17.1875 
L 47.609375 0 
L 37.796875 0 
L 37.796875 17.1875 
L 4.890625 17.1875 
L 4.890625 26.703125 
z
" id="DejaVuSans-52"/>
      </defs>
      <g transform="translate(324.012614 334.998438)scale(0.1 -0.1)">
       <use xlink:href="#DejaVuSans-52"/>
       <use x="63.623047" xlink:href="#DejaVuSans-48"/>
       <use x="127.246094" xlink:href="#DejaVuSans-48"/>
      </g>
     </g>
    </g>
    <g id="xtick_6">
     <g id="line2d_11">
      <path clip-path="url(#pfcb054e23a)" d="M 398.487273 320.4 
L 398.487273 43.2 
" style="fill:none;stroke:#c0c0c0;stroke-dasharray:0.8,1.32;stroke-dashoffset:0;stroke-width:0.8;"/>
     </g>
     <g id="line2d_12">
      <g>
       <use style="stroke:#000000;stroke-width:0.8;" x="398.487273" xlink:href="#m0eb2a7fbb1" y="320.4"/>
      </g>
     </g>
     <g id="text_6">
      <!-- 500 -->
      <defs>
       <path d="M 10.796875 72.90625 
L 49.515625 72.90625 
L 49.515625 64.59375 
L 19.828125 64.59375 
L 19.828125 46.734375 
Q 21.96875 47.46875 24.109375 47.828125 
Q 26.265625 48.1875 28.421875 48.1875 
Q 40.625 48.1875 47.75 41.5 
Q 54.890625 34.8125 54.890625 23.390625 
Q 54.890625 11.625 47.5625 5.09375 
Q 40.234375 -1.421875 26.90625 -1.421875 
Q 22.3125 -1.421875 17.546875 -0.640625 
Q 12.796875 0.140625 7.71875 1.703125 
L 7.71875 11.625 
Q 12.109375 9.234375 16.796875 8.0625 
Q 21.484375 6.890625 26.703125 6.890625 
Q 35.15625 6.890625 40.078125 11.328125 
Q 45.015625 15.765625 45.015625 23.390625 
Q 45.015625 31 40.078125 35.4375 
Q 35.15625 39.890625 26.703125 39.890625 
Q 22.75 39.890625 18.8125 39.015625 
Q 14.890625 38.140625 10.796875 36.28125 
z
" id="DejaVuSans-53"/>
      </defs>
      <g transform="translate(388.943523 334.998438)scale(0.1 -0.1)">
       <use xlink:href="#DejaVuSans-53"/>
       <use x="63.623047" xlink:href="#DejaVuSans-48"/>
       <use x="127.246094" xlink:href="#DejaVuSans-48"/>
      </g>
     </g>
    </g>
    <g id="text_7">
     <!-- Frequency [Hz] -->
     <defs>
      <path d="M 9.8125 72.90625 
L 51.703125 72.90625 
L 51.703125 64.59375 
L 19.671875 64.59375 
L 19.671875 43.109375 
L 48.578125 43.109375 
L 48.578125 34.8125 
L 19.671875 34.8125 
L 19.671875 0 
L 9.8125 0 
z
" id="DejaVuSans-70"/>
      <path d="M 41.109375 46.296875 
Q 39.59375 47.171875 37.8125 47.578125 
Q 36.03125 48 33.890625 48 
Q 26.265625 48 22.1875 43.046875 
Q 18.109375 38.09375 18.109375 28.8125 
L 18.109375 0 
L 9.078125 0 
L 9.078125 54.6875 
L 18.109375 54.6875 
L 18.109375 46.1875 
Q 20.953125 51.171875 25.484375 53.578125 
Q 30.03125 56 36.53125 56 
Q 37.453125 56 38.578125 55.875 
Q 39.703125 55.765625 41.0625 55.515625 
z
" id="DejaVuSans-114"/>
      <path d="M 56.203125 29.59375 
L 56.203125 25.203125 
L 14.890625 25.203125 
Q 15.484375 15.921875 20.484375 11.0625 
Q 25.484375 6.203125 34.421875 6.203125 
Q 39.59375 6.203125 44.453125 7.46875 
Q 49.3125 8.734375 54.109375 11.28125 
L 54.109375 2.78125 
Q 49.265625 0.734375 44.1875 -0.34375 
Q 39.109375 -1.421875 33.890625 -1.421875 
Q 20.796875 -1.421875 13.15625 6.1875 
Q 5.515625 13.8125 5.515625 26.8125 
Q 5.515625 40.234375 12.765625 48.109375 
Q 20.015625 56 32.328125 56 
Q 43.359375 56 49.78125 48.890625 
Q 56.203125 41.796875 56.203125 29.59375 
z
M 47.21875 32.234375 
Q 47.125 39.59375 43.09375 43.984375 
Q 39.0625 48.390625 32.421875 48.390625 
Q 24.90625 48.390625 20.390625 44.140625 
Q 15.875 39.890625 15.1875 32.171875 
z
" id="DejaVuSans-101"/>
      <path d="M 14.796875 27.296875 
Q 14.796875 17.390625 18.875 11.75 
Q 22.953125 6.109375 30.078125 6.109375 
Q 37.203125 6.109375 41.296875 11.75 
Q 45.40625 17.390625 45.40625 27.296875 
Q 45.40625 37.203125 41.296875 42.84375 
Q 37.203125 48.484375 30.078125 48.484375 
Q 22.953125 48.484375 18.875 42.84375 
Q 14.796875 37.203125 14.796875 27.296875 
z
M 45.40625 8.203125 
Q 42.578125 3.328125 38.25 0.953125 
Q 33.9375 -1.421875 27.875 -1.421875 
Q 17.96875 -1.421875 11.734375 6.484375 
Q 5.515625 14.40625 5.515625 27.296875 
Q 5.515625 40.1875 11.734375 48.09375 
Q 17.96875 56 27.875 56 
Q 33.9375 56 38.25 53.625 
Q 42.578125 51.265625 45.40625 46.390625 
L 45.40625 54.6875 
L 54.390625 54.6875 
L 54.390625 -20.796875 
L 45.40625 -20.796875 
z
" id="DejaVuSans-113"/>
      <path d="M 8.5 21.578125 
L 8.5 54.6875 
L 17.484375 54.6875 
L 17.484375 21.921875 
Q 17.484375 14.15625 20.5 10.265625 
Q 23.53125 6.390625 29.59375 6.390625 
Q 36.859375 6.390625 41.078125 11.03125 
Q 45.3125 15.671875 45.3125 23.6875 
L 45.3125 54.6875 
L 54.296875 54.6875 
L 54.296875 0 
L 45.3125 0 
L 45.3125 8.40625 
Q 42.046875 3.421875 37.71875 1 
Q 33.40625 -1.421875 27.6875 -1.421875 
Q 18.265625 -1.421875 13.375 4.4375 
Q 8.5 10.296875 8.5 21.578125 
z
M 31.109375 56 
z
" id="DejaVuSans-117"/>
      <path d="M 54.890625 33.015625 
L 54.890625 0 
L 45.90625 0 
L 45.90625 32.71875 
Q 45.90625 40.484375 42.875 44.328125 
Q 39.84375 48.1875 33.796875 48.1875 
Q 26.515625 48.1875 22.3125 43.546875 
Q 18.109375 38.921875 18.109375 30.90625 
L 18.109375 0 
L 9.078125 0 
L 9.078125 54.6875 
L 18.109375 54.6875 
L 18.109375 46.1875 
Q 21.34375 51.125 25.703125 53.5625 
Q 30.078125 56 35.796875 56 
Q 45.21875 56 50.046875 50.171875 
Q 54.890625 44.34375 54.890625 33.015625 
z
" id="DejaVuSans-110"/>
      <path d="M 48.78125 52.59375 
L 48.78125 44.1875 
Q 44.96875 46.296875 41.140625 47.34375 
Q 37.3125 48.390625 33.40625 48.390625 
Q 24.65625 48.390625 19.8125 42.84375 
Q 14.984375 37.3125 14.984375 27.296875 
Q 14.984375 17.28125 19.8125 11.734375 
Q 24.65625 6.203125 33.40625 6.203125 
Q 37.3125 6.203125 41.140625 7.25 
Q 44.96875 8.296875 48.78125 10.40625 
L 48.78125 2.09375 
Q 45.015625 0.34375 40.984375 -0.53125 
Q 36.96875 -1.421875 32.421875 -1.421875 
Q 20.0625 -1.421875 12.78125 6.34375 
Q 5.515625 14.109375 5.515625 27.296875 
Q 5.515625 40.671875 12.859375 48.328125 
Q 20.21875 56 33.015625 56 
Q 37.15625 56 41.109375 55.140625 
Q 45.0625 54.296875 48.78125 52.59375 
z
" id="DejaVuSans-99"/>
      <path d="M 32.171875 -5.078125 
Q 28.375 -14.84375 24.75 -17.8125 
Q 21.140625 -20.796875 15.09375 -20.796875 
L 7.90625 -20.796875 
L 7.90625 -13.28125 
L 13.1875 -13.28125 
Q 16.890625 -13.28125 18.9375 -11.515625 
Q 21 -9.765625 23.484375 -3.21875 
L 25.09375 0.875 
L 2.984375 54.6875 
L 12.5 54.6875 
L 29.59375 11.921875 
L 46.6875 54.6875 
L 56.203125 54.6875 
z
" id="DejaVuSans-121"/>
      <path id="DejaVuSans-32"/>
      <path d="M 8.59375 75.984375 
L 29.296875 75.984375 
L 29.296875 69 
L 17.578125 69 
L 17.578125 -6.203125 
L 29.296875 -6.203125 
L 29.296875 -13.1875 
L 8.59375 -13.1875 
z
" id="DejaVuSans-91"/>
      <path d="M 9.8125 72.90625 
L 19.671875 72.90625 
L 19.671875 43.015625 
L 55.515625 43.015625 
L 55.515625 72.90625 
L 65.375 72.90625 
L 65.375 0 
L 55.515625 0 
L 55.515625 34.71875 
L 19.671875 34.71875 
L 19.671875 0 
L 9.8125 0 
z
" id="DejaVuSans-72"/>
      <path d="M 5.515625 54.6875 
L 48.1875 54.6875 
L 48.1875 46.484375 
L 14.40625 7.171875 
L 48.1875 7.171875 
L 48.1875 0 
L 4.296875 0 
L 4.296875 8.203125 
L 38.09375 47.515625 
L 5.515625 47.515625 
z
" id="DejaVuSans-122"/>
      <path d="M 30.421875 75.984375 
L 30.421875 -13.1875 
L 9.71875 -13.1875 
L 9.71875 -6.203125 
L 21.390625 -6.203125 
L 21.390625 69 
L 9.71875 69 
L 9.71875 75.984375 
z
" id="DejaVuSans-93"/>
     </defs>
     <g transform="translate(198.455312 348.676562)scale(0.1 -0.1)">
      <use xlink:href="#DejaVuSans-70"/>
      <use x="50.269531" xlink:href="#DejaVuSans-114"/>
      <use x="89.132812" xlink:href="#DejaVuSans-101"/>
      <use x="150.65625" xlink:href="#DejaVuSans-113"/>
      <use x="214.132812" xlink:href="#DejaVuSans-117"/>
      <use x="277.511719" xlink:href="#DejaVuSans-101"/>
      <use x="339.035156" xlink:href="#DejaVuSans-110"/>
      <use x="402.414062" xlink:href="#DejaVuSans-99"/>
      <use x="457.394531" xlink:href="#DejaVuSans-121"/>
      <use x="516.574219" xlink:href="#DejaVuSans-32"/>
      <use x="548.361328" xlink:href="#DejaVuSans-91"/>
      <use x="587.375" xlink:href="#DejaVuSans-72"/>
      <use x="662.570312" xlink:href="#DejaVuSans-122"/>
      <use x="715.060547" xlink:href="#DejaVuSans-93"/>
     </g>
    </g>
   </g>
   <g id="matplotlib.axis_2">
    <g id="ytick_1">
     <g id="line2d_13">
      <path clip-path="url(#pfcb054e23a)" d="M 57.6 307.8 
L 414.72 307.8 
" style="fill:none;stroke:#c0c0c0;stroke-dasharray:0.8,1.32;stroke-dashoffset:0;stroke-width:0.8;"/>
     </g>
     <g id="line2d_14">
      <defs>
       <path d="M 0 0 
L -3.5 0 
" id="ma0a3d2e46f" style="stroke:#000000;stroke-width:0.8;"/>
      </defs>
      <g>
       <use style="stroke:#000000;stroke-width:0.8;" x="57.6" xlink:href="#ma0a3d2e46f" y="307.8"/>
      </g>
     </g>
     <g id="text_8">
      <!-- 0.0000 -->
      <defs>
       <path d="M 10.6875 12.40625 
L 21 12.40625 
L 21 0 
L 10.6875 0 
z
" id="DejaVuSans-46"/>
      </defs>
      <g transform="translate(15.609375 311.599219)scale(0.1 -0.1)">
       <use xlink:href="#DejaVuSans-48"/>
       <use x="63.623047" xlink:href="#DejaVuSans-46"/>
       <use x="95.410156" xlink:href="#DejaVuSans-48"/>
       <use x="159.033203" xlink:href="#DejaVuSans-48"/>
       <use x="222.65625" xlink:href="#DejaVuSans-48"/>
       <use x="286.279297" xlink:href="#DejaVuSans-48"/>
      </g>
     </g>
    </g>
    <g id="ytick_2">
     <g id="line2d_15">
      <path clip-path="url(#pfcb054e23a)" d="M 57.6 276.224968 
L 414.72 276.224968 
" style="fill:none;stroke:#c0c0c0;stroke-dasharray:0.8,1.32;stroke-dashoffset:0;stroke-width:0.8;"/>
     </g>
     <g id="line2d_16">
      <g>
       <use style="stroke:#000000;stroke-width:0.8;" x="57.6" xlink:href="#ma0a3d2e46f" y="276.224968"/>
      </g>
     </g>
     <g id="text_9">
      <!-- 0.0025 -->
      <g transform="translate(15.609375 280.024187)scale(0.1 -0.1)">
       <use xlink:href="#DejaVuSans-48"/>
       <use x="63.623047" xlink:href="#DejaVuSans-46"/>
       <use x="95.410156" xlink:href="#DejaVuSans-48"/>
       <use x="159.033203" xlink:href="#DejaVuSans-48"/>
       <use x="222.65625" xlink:href="#DejaVuSans-50"/>
       <use x="286.279297" xlink:href="#DejaVuSans-53"/>
      </g>
     </g>
    </g>
    <g id="ytick_3">
     <g id="line2d_17">
      <path clip-path="url(#pfcb054e23a)" d="M 57.6 244.649936 
L 414.72 244.649936 
" style="fill:none;stroke:#c0c0c0;stroke-dasharray:0.8,1.32;stroke-dashoffset:0;stroke-width:0.8;"/>
     </g>
     <g id="line2d_18">
      <g>
       <use style="stroke:#000000;stroke-width:0.8;" x="57.6" xlink:href="#ma0a3d2e46f" y="244.649936"/>
      </g>
     </g>
     <g id="text_10">
      <!-- 0.0050 -->
      <g transform="translate(15.609375 248.449155)scale(0.1 -0.1)">
       <use xlink:href="#DejaVuSans-48"/>
       <use x="63.623047" xlink:href="#DejaVuSans-46"/>
       <use x="95.410156" xlink:href="#DejaVuSans-48"/>
       <use x="159.033203" xlink:href="#DejaVuSans-48"/>
       <use x="222.65625" xlink:href="#DejaVuSans-53"/>
       <use x="286.279297" xlink:href="#DejaVuSans-48"/>
      </g>
     </g>
    </g>
    <g id="ytick_4">
     <g id="line2d_19">
      <path clip-path="url(#pfcb054e23a)" d="M 57.6 213.074904 
L 414.72 213.074904 
" style="fill:none;stroke:#c0c0c0;stroke-dasharray:0.8,1.32;stroke-dashoffset:0;stroke-width:0.8;"/>
     </g>
     <g id="line2d_20">
      <g>
       <use style="stroke:#000000;stroke-width:0.8;" x="57.6" xlink:href="#ma0a3d2e46f" y="213.074904"/>
      </g>
     </g>
     <g id="text_11">
      <!-- 0.0075 -->
      <defs>
       <path d="M 8.203125 72.90625 
L 55.078125 72.90625 
L 55.078125 68.703125 
L 28.609375 0 
L 18.3125 0 
L 43.21875 64.59375 
L 8.203125 64.59375 
z
" id="DejaVuSans-55"/>
      </defs>
      <g transform="translate(15.609375 216.874123)scale(0.1 -0.1)">
       <use xlink:href="#DejaVuSans-48"/>
       <use x="63.623047" xlink:href="#DejaVuSans-46"/>
       <use x="95.410156" xlink:href="#DejaVuSans-48"/>
       <use x="159.033203" xlink:href="#DejaVuSans-48"/>
       <use x="222.65625" xlink:href="#DejaVuSans-55"/>
       <use x="286.279297" xlink:href="#DejaVuSans-53"/>
      </g>
     </g>
    </g>
    <g id="ytick_5">
     <g id="line2d_21">
      <path clip-path="url(#pfcb054e23a)" d="M 57.6 181.499872 
L 414.72 181.499872 
" style="fill:none;stroke:#c0c0c0;stroke-dasharray:0.8,1.32;stroke-dashoffset:0;stroke-width:0.8;"/>
     </g>
     <g id="line2d_22">
      <g>
       <use style="stroke:#000000;stroke-width:0.8;" x="57.6" xlink:href="#ma0a3d2e46f" y="181.499872"/>
      </g>
     </g>
     <g id="text_12">
      <!-- 0.0100 -->
      <g transform="translate(15.609375 185.299091)scale(0.1 -0.1)">
       <use xlink:href="#DejaVuSans-48"/>
       <use x="63.623047" xlink:href="#DejaVuSans-46"/>
       <use x="95.410156" xlink:href="#DejaVuSans-48"/>
       <use x="159.033203" xlink:href="#DejaVuSans-49"/>
       <use x="222.65625" xlink:href="#DejaVuSans-48"/>
       <use x="286.279297" xlink:href="#DejaVuSans-48"/>
      </g>
     </g>
    </g>
    <g id="ytick_6">
     <g id="line2d_23">
      <path clip-path="url(#pfcb054e23a)" d="M 57.6 149.92484 
L 414.72 149.92484 
" style="fill:none;stroke:#c0c0c0;stroke-dasharray:0.8,1.32;stroke-dashoffset:0;stroke-width:0.8;"/>
     </g>
     <g id="line2d_24">
      <g>
       <use style="stroke:#000000;stroke-width:0.8;" x="57.6" xlink:href="#ma0a3d2e46f" y="149.92484"/>
      </g>
     </g>
     <g id="text_13">
      <!-- 0.0125 -->
      <g transform="translate(15.609375 153.724059)scale(0.1 -0.1)">
       <use xlink:href="#DejaVuSans-48"/>
       <use x="63.623047" xlink:href="#DejaVuSans-46"/>
       <use x="95.410156" xlink:href="#DejaVuSans-48"/>
       <use x="159.033203" xlink:href="#DejaVuSans-49"/>
       <use x="222.65625" xlink:href="#DejaVuSans-50"/>
       <use x="286.279297" xlink:href="#DejaVuSans-53"/>
      </g>
     </g>
    </g>
    <g id="ytick_7">
     <g id="line2d_25">
      <path clip-path="url(#pfcb054e23a)" d="M 57.6 118.349809 
L 414.72 118.349809 
" style="fill:none;stroke:#c0c0c0;stroke-dasharray:0.8,1.32;stroke-dashoffset:0;stroke-width:0.8;"/>
     </g>
     <g id="line2d_26">
      <g>
       <use style="stroke:#000000;stroke-width:0.8;" x="57.6" xlink:href="#ma0a3d2e46f" y="118.349809"/>
      </g>
     </g>
     <g id="text_14">
      <!-- 0.0150 -->
      <g transform="translate(15.609375 122.149027)scale(0.1 -0.1)">
       <use xlink:href="#DejaVuSans-48"/>
       <use x="63.623047" xlink:href="#DejaVuSans-46"/>
       <use x="95.410156" xlink:href="#DejaVuSans-48"/>
       <use x="159.033203" xlink:href="#DejaVuSans-49"/>
       <use x="222.65625" xlink:href="#DejaVuSans-53"/>
       <use x="286.279297" xlink:href="#DejaVuSans-48"/>
      </g>
     </g>
    </g>
    <g id="ytick_8">
     <g id="line2d_27">
      <path clip-path="url(#pfcb054e23a)" d="M 57.6 86.774777 
L 414.72 86.774777 
" style="fill:none;stroke:#c0c0c0;stroke-dasharray:0.8,1.32;stroke-dashoffset:0;stroke-width:0.8;"/>
     </g>
     <g id="line2d_28">
      <g>
       <use style="stroke:#000000;stroke-width:0.8;" x="57.6" xlink:href="#ma0a3d2e46f" y="86.774777"/>
      </g>
     </g>
     <g id="text_15">
      <!-- 0.0175 -->
      <g transform="translate(15.609375 90.573995)scale(0.1 -0.1)">
       <use xlink:href="#DejaVuSans-48"/>
       <use x="63.623047" xlink:href="#DejaVuSans-46"/>
       <use x="95.410156" xlink:href="#DejaVuSans-48"/>
       <use x="159.033203" xlink:href="#DejaVuSans-49"/>
       <use x="222.65625" xlink:href="#DejaVuSans-55"/>
       <use x="286.279297" xlink:href="#DejaVuSans-53"/>
      </g>
     </g>
    </g>
    <g id="ytick_9">
     <g id="line2d_29">
      <path clip-path="url(#pfcb054e23a)" d="M 57.6 55.199745 
L 414.72 55.199745 
" style="fill:none;stroke:#c0c0c0;stroke-dasharray:0.8,1.32;stroke-dashoffset:0;stroke-width:0.8;"/>
     </g>
     <g id="line2d_30">
      <g>
       <use style="stroke:#000000;stroke-width:0.8;" x="57.6" xlink:href="#ma0a3d2e46f" y="55.199745"/>
      </g>
     </g>
     <g id="text_16">
      <!-- 0.0200 -->
      <g transform="translate(15.609375 58.998963)scale(0.1 -0.1)">
       <use xlink:href="#DejaVuSans-48"/>
       <use x="63.623047" xlink:href="#DejaVuSans-46"/>
       <use x="95.410156" xlink:href="#DejaVuSans-48"/>
       <use x="159.033203" xlink:href="#DejaVuSans-50"/>
       <use x="222.65625" xlink:href="#DejaVuSans-48"/>
       <use x="286.279297" xlink:href="#DejaVuSans-48"/>
      </g>
     </g>
    </g>
    <g id="text_17">
     <!-- Amplitude [p.u.] -->
     <defs>
      <path d="M 34.1875 63.1875 
L 20.796875 26.90625 
L 47.609375 26.90625 
z
M 28.609375 72.90625 
L 39.796875 72.90625 
L 67.578125 0 
L 57.328125 0 
L 50.6875 18.703125 
L 17.828125 18.703125 
L 11.1875 0 
L 0.78125 0 
z
" id="DejaVuSans-65"/>
      <path d="M 52 44.1875 
Q 55.375 50.25 60.0625 53.125 
Q 64.75 56 71.09375 56 
Q 79.640625 56 84.28125 50.015625 
Q 88.921875 44.046875 88.921875 33.015625 
L 88.921875 0 
L 79.890625 0 
L 79.890625 32.71875 
Q 79.890625 40.578125 77.09375 44.375 
Q 74.3125 48.1875 68.609375 48.1875 
Q 61.625 48.1875 57.5625 43.546875 
Q 53.515625 38.921875 53.515625 30.90625 
L 53.515625 0 
L 44.484375 0 
L 44.484375 32.71875 
Q 44.484375 40.625 41.703125 44.40625 
Q 38.921875 48.1875 33.109375 48.1875 
Q 26.21875 48.1875 22.15625 43.53125 
Q 18.109375 38.875 18.109375 30.90625 
L 18.109375 0 
L 9.078125 0 
L 9.078125 54.6875 
L 18.109375 54.6875 
L 18.109375 46.1875 
Q 21.1875 51.21875 25.484375 53.609375 
Q 29.78125 56 35.6875 56 
Q 41.65625 56 45.828125 52.96875 
Q 50 49.953125 52 44.1875 
z
" id="DejaVuSans-109"/>
      <path d="M 18.109375 8.203125 
L 18.109375 -20.796875 
L 9.078125 -20.796875 
L 9.078125 54.6875 
L 18.109375 54.6875 
L 18.109375 46.390625 
Q 20.953125 51.265625 25.265625 53.625 
Q 29.59375 56 35.59375 56 
Q 45.5625 56 51.78125 48.09375 
Q 58.015625 40.1875 58.015625 27.296875 
Q 58.015625 14.40625 51.78125 6.484375 
Q 45.5625 -1.421875 35.59375 -1.421875 
Q 29.59375 -1.421875 25.265625 0.953125 
Q 20.953125 3.328125 18.109375 8.203125 
z
M 48.6875 27.296875 
Q 48.6875 37.203125 44.609375 42.84375 
Q 40.53125 48.484375 33.40625 48.484375 
Q 26.265625 48.484375 22.1875 42.84375 
Q 18.109375 37.203125 18.109375 27.296875 
Q 18.109375 17.390625 22.1875 11.75 
Q 26.265625 6.109375 33.40625 6.109375 
Q 40.53125 6.109375 44.609375 11.75 
Q 48.6875 17.390625 48.6875 27.296875 
z
" id="DejaVuSans-112"/>
      <path d="M 9.421875 75.984375 
L 18.40625 75.984375 
L 18.40625 0 
L 9.421875 0 
z
" id="DejaVuSans-108"/>
      <path d="M 9.421875 54.6875 
L 18.40625 54.6875 
L 18.40625 0 
L 9.421875 0 
z
M 9.421875 75.984375 
L 18.40625 75.984375 
L 18.40625 64.59375 
L 9.421875 64.59375 
z
" id="DejaVuSans-105"/>
      <path d="M 18.3125 70.21875 
L 18.3125 54.6875 
L 36.8125 54.6875 
L 36.8125 47.703125 
L 18.3125 47.703125 
L 18.3125 18.015625 
Q 18.3125 11.328125 20.140625 9.421875 
Q 21.96875 7.515625 27.59375 7.515625 
L 36.8125 7.515625 
L 36.8125 0 
L 27.59375 0 
Q 17.1875 0 13.234375 3.875 
Q 9.28125 7.765625 9.28125 18.015625 
L 9.28125 47.703125 
L 2.6875 47.703125 
L 2.6875 54.6875 
L 9.28125 54.6875 
L 9.28125 70.21875 
z
" id="DejaVuSans-116"/>
      <path d="M 45.40625 46.390625 
L 45.40625 75.984375 
L 54.390625 75.984375 
L 54.390625 0 
L 45.40625 0 
L 45.40625 8.203125 
Q 42.578125 3.328125 38.25 0.953125 
Q 33.9375 -1.421875 27.875 -1.421875 
Q 17.96875 -1.421875 11.734375 6.484375 
Q 5.515625 14.40625 5.515625 27.296875 
Q 5.515625 40.1875 11.734375 48.09375 
Q 17.96875 56 27.875 56 
Q 33.9375 56 38.25 53.625 
Q 42.578125 51.265625 45.40625 46.390625 
z
M 14.796875 27.296875 
Q 14.796875 17.390625 18.875 11.75 
Q 22.953125 6.109375 30.078125 6.109375 
Q 37.203125 6.109375 41.296875 11.75 
Q 45.40625 17.390625 45.40625 27.296875 
Q 45.40625 37.203125 41.296875 42.84375 
Q 37.203125 48.484375 30.078125 48.484375 
Q 22.953125 48.484375 18.875 42.84375 
Q 14.796875 37.203125 14.796875 27.296875 
z
" id="DejaVuSans-100"/>
     </defs>
     <g transform="translate(9.529687 222.434375)rotate(-90)scale(0.1 -0.1)">
      <use xlink:href="#DejaVuSans-65"/>
      <use x="68.408203" xlink:href="#DejaVuSans-109"/>
      <use x="165.820312" xlink:href="#DejaVuSans-112"/>
      <use x="229.296875" xlink:href="#DejaVuSans-108"/>
      <use x="257.080078" xlink:href="#DejaVuSans-105"/>
      <use x="284.863281" xlink:href="#DejaVuSans-116"/>
      <use x="324.072266" xlink:href="#DejaVuSans-117"/>
      <use x="387.451172" xlink:href="#DejaVuSans-100"/>
      <use x="450.927734" xlink:href="#DejaVuSans-101"/>
      <use x="512.451172" xlink:href="#DejaVuSans-32"/>
      <use x="544.238281" xlink:href="#DejaVuSans-91"/>
      <use x="583.251953" xlink:href="#DejaVuSans-112"/>
      <use x="646.728516" xlink:href="#DejaVuSans-46"/>
      <use x="678.515625" xlink:href="#DejaVuSans-117"/>
      <use x="741.894531" xlink:href="#DejaVuSans-46"/>
      <use x="773.681641" xlink:href="#DejaVuSans-93"/>
     </g>
    </g>
   </g>
   <g id="line2d_31">
    <path clip-path="url(#pfcb054e23a)" d="M 73.832727 307.8 
L 398.487273 307.8 
L 398.487273 307.8 
" style="fill:none;stroke:#9acd32;stroke-linecap:square;stroke-width:0.8;"/>
   </g>
   <g id="line2d_32">
    <path clip-path="url(#pfcb054e23a)" d="M 73.832727 305.462184 
L 74.483338 305.660434 
L 75.133948 299.784282 
L 75.784558 296.593075 
L 76.435169 306.632095 
L 77.085779 304.432083 
L 79.03761 307.558998 
L 79.68822 306.335995 
L 80.33883 306.009217 
L 80.989441 306.825515 
L 81.640051 303.494331 
L 82.290661 301.264414 
L 82.941272 298.02802 
L 83.591882 303.062362 
L 84.242492 55.8 
L 84.893103 302.580435 
L 85.543713 297.443751 
L 86.194323 300.446677 
L 86.844934 302.793131 
L 87.495544 305.591507 
L 88.146154 305.410104 
L 88.796764 304.721807 
L 89.447375 305.906204 
L 90.097985 305.966702 
L 90.748595 305.153014 
L 91.399206 306.654814 
L 93.351037 303.225565 
L 94.001647 305.828401 
L 94.652257 230.917548 
L 95.302868 305.575984 
L 95.953478 302.233208 
L 96.604088 303.169562 
L 97.254698 304.350006 
L 97.905309 306.194269 
L 98.555919 305.26588 
L 99.206529 304.915757 
L 99.85714 306.02901 
L 100.50775 305.43586 
L 101.15836 304.489802 
L 101.808971 305.505429 
L 102.459581 304.098032 
L 103.110191 303.605032 
L 103.760802 303.983492 
L 104.411412 307.347919 
L 105.062022 258.000222 
L 105.712633 305.406638 
L 106.363243 303.252488 
L 107.664463 305.229378 
L 108.315074 306.803219 
L 108.965684 304.824167 
L 109.616294 304.349988 
L 110.266905 305.80569 
L 110.917515 303.457655 
L 111.568125 300.622219 
L 112.218736 302.737129 
L 112.869346 296.489669 
L 113.519956 292.963042 
L 114.170567 291.8802 
L 114.821177 303.039929 
L 115.471787 188.325696 
L 116.122398 294.653768 
L 116.773008 286.81101 
L 117.423618 297.209935 
L 118.074228 301.960794 
L 118.724839 303.306679 
L 119.375449 305.834379 
L 120.026059 302.718737 
L 120.67667 304.356432 
L 121.32728 305.459571 
L 121.97789 305.193067 
L 123.279111 306.049025 
L 123.929721 306.152502 
L 124.580332 307.146995 
L 125.230942 306.961659 
L 125.881552 303.448502 
L 126.532163 306.744554 
L 127.182773 307.386902 
L 127.833383 307.399537 
L 128.483993 307.170004 
L 129.134604 307.286136 
L 129.785214 307.041575 
L 131.086435 307.491465 
L 131.737045 307.269063 
L 132.387655 307.341589 
L 133.688876 307.096081 
L 134.339486 307.308445 
L 135.640707 307.313485 
L 136.291317 307.706499 
L 136.941927 307.342288 
L 138.893758 307.429224 
L 141.4962 307.426315 
L 142.14681 307.524171 
L 145.399862 307.510475 
L 147.351692 307.546061 
L 148.652913 307.50692 
L 149.954134 307.552233 
L 151.905965 307.54021 
L 153.857796 307.612711 
L 161.665119 307.61722 
L 179.882208 307.688731 
L 187.038921 307.688613 
L 194.195635 307.705331 
L 208.509062 307.720137 
L 239.087746 307.738493 
L 259.256666 307.745006 
L 398.487273 307.780684 
L 398.487273 307.780684 
" style="fill:none;stroke:#ff8c00;stroke-linecap:square;stroke-width:0.8;"/>
   </g>
   <g id="line2d_33">
    <path clip-path="url(#pfcb054e23a)" d="M 73.832727 180.063539 
L 74.483338 305.053615 
L 75.133948 292.690832 
L 75.784558 294.228091 
L 76.435169 294.402527 
L 77.085779 299.468835 
L 77.736389 293.866003 
L 78.386999 285.136489 
L 79.03761 294.431704 
L 79.68822 287.443292 
L 80.33883 296.14603 
L 80.989441 300.684592 
L 81.640051 302.050667 
L 82.290661 290.390944 
L 82.941272 285.713674 
L 83.591882 293.366192 
L 84.242492 88.358325 
L 84.893103 296.683171 
L 85.543713 294.795554 
L 86.194323 292.543371 
L 86.844934 303.847795 
L 87.495544 302.748294 
L 88.146154 289.980037 
L 88.796764 294.929313 
L 89.447375 293.507312 
L 90.097985 303.911681 
L 90.748595 301.182741 
L 92.049816 283.41486 
L 92.700426 300.916792 
L 93.351037 295.407533 
L 94.001647 301.206259 
L 94.652257 257.999079 
L 95.302868 303.574986 
L 95.953478 303.03753 
L 96.604088 291.740705 
L 97.254698 291.796039 
L 97.905309 305.145559 
L 98.555919 303.526594 
L 99.206529 304.968879 
L 99.85714 300.024075 
L 100.50775 301.0912 
L 101.15836 304.363889 
L 101.808971 300.225969 
L 102.459581 300.566396 
L 103.110191 305.219289 
L 103.760802 300.558386 
L 104.411412 300.045818 
L 105.062022 282.478479 
L 105.712633 304.494388 
L 106.363243 298.528057 
L 107.013853 296.67125 
L 107.664463 298.808314 
L 108.315074 306.028919 
L 108.965684 298.157487 
L 109.616294 303.061341 
L 110.266905 299.185694 
L 110.917515 301.763171 
L 111.568125 301.938899 
L 112.218736 298.28585 
L 112.869346 304.579017 
L 113.519956 293.331282 
L 114.170567 301.828526 
L 114.821177 304.867342 
L 115.471787 257.625204 
L 116.122398 297.476084 
L 116.773008 299.953545 
L 117.423618 295.465545 
L 118.074228 304.344486 
L 118.724839 297.127627 
L 120.026059 306.366679 
L 120.67667 304.121762 
L 121.32728 305.311767 
L 121.97789 304.739504 
L 122.628501 301.52565 
L 123.279111 304.485809 
L 123.929721 302.685151 
L 124.580332 298.002521 
L 125.230942 303.339458 
L 125.881552 303.877631 
L 126.532163 299.313047 
L 127.182773 305.930719 
L 127.833383 301.999834 
L 128.483993 302.712427 
L 129.134604 300.966166 
L 129.785214 304.243544 
L 130.435824 306.123464 
L 131.086435 302.275222 
L 131.737045 299.391567 
L 132.387655 303.573037 
L 133.688876 305.785337 
L 134.339486 306.538685 
L 134.990097 305.209781 
L 135.640707 301.854411 
L 136.291317 303.046356 
L 136.941927 301.674307 
L 137.592538 302.667803 
L 138.243148 301.610624 
L 138.893758 306.719347 
L 139.544369 302.274555 
L 140.845589 305.606155 
L 141.4962 301.82396 
L 142.14681 305.578557 
L 142.79742 307.514373 
L 144.098641 304.17572 
L 144.749251 305.052852 
L 145.399862 307.054214 
L 146.050472 301.887709 
L 147.351692 305.680717 
L 148.002303 306.861902 
L 148.652913 303.960199 
L 149.303523 305.164267 
L 149.954134 301.763128 
L 150.604744 305.593734 
L 151.255354 305.996326 
L 151.905965 302.730713 
L 152.556575 306.280062 
L 153.207185 303.918583 
L 153.857796 304.912793 
L 154.508406 302.079927 
L 155.159016 305.326169 
L 155.809627 300.986718 
L 156.460237 306.865959 
L 157.110847 306.258164 
L 157.761457 305.279915 
L 158.412068 305.460425 
L 159.062678 306.755442 
L 159.713288 305.543017 
L 160.363899 306.971428 
L 161.014509 304.00765 
L 161.665119 307.098986 
L 162.31573 303.694218 
L 162.96634 306.672209 
L 163.61695 305.067993 
L 164.267561 304.973958 
L 164.918171 307.005101 
L 165.568781 303.482398 
L 166.219392 303.497828 
L 166.870002 304.97147 
L 167.520612 305.603296 
L 168.171222 302.985598 
L 168.821833 306.806486 
L 169.472443 303.959499 
L 170.123053 302.666603 
L 170.773664 306.92974 
L 171.424274 305.470497 
L 172.074884 305.51103 
L 172.725495 305.781818 
L 173.376105 304.132541 
L 174.026715 303.630094 
L 174.677326 306.549338 
L 175.327936 305.799738 
L 175.978546 305.275821 
L 176.629156 306.624121 
L 177.279767 304.294775 
L 177.930377 303.362208 
L 178.580987 306.264095 
L 179.231598 306.696167 
L 179.882208 306.964047 
L 180.532818 304.041576 
L 181.183429 306.154669 
L 181.834039 306.728039 
L 182.484649 305.723387 
L 183.13526 303.348478 
L 184.43648 304.863298 
L 185.087091 305.265084 
L 185.737701 307.407326 
L 186.388311 307.083333 
L 187.038921 306.150652 
L 187.689532 304.322798 
L 188.340142 305.511647 
L 188.990752 305.280938 
L 189.641363 303.090652 
L 190.291973 305.505042 
L 190.942583 305.687093 
L 191.593194 303.798734 
L 192.243804 305.808081 
L 192.894414 305.257209 
L 193.545025 305.511218 
L 194.195635 306.371102 
L 194.846245 306.440919 
L 195.496856 307.060477 
L 196.147466 305.234306 
L 196.798076 306.455484 
L 197.448686 306.666873 
L 198.099297 301.557535 
L 198.749907 305.902786 
L 199.400517 304.891166 
L 200.051128 305.474261 
L 200.701738 306.792841 
L 201.352348 305.944998 
L 202.002959 306.87611 
L 202.653569 306.573641 
L 203.304179 305.870389 
L 203.95479 306.622014 
L 204.6054 306.405259 
L 205.25601 307.269839 
L 205.906621 307.671845 
L 206.557231 307.258813 
L 207.207841 305.823491 
L 207.858451 307.468719 
L 208.509062 305.984682 
L 209.159672 306.049626 
L 209.810282 304.903993 
L 210.460893 305.755762 
L 211.111503 307.259903 
L 211.762113 304.875155 
L 212.412724 306.188353 
L 213.713944 305.655933 
L 214.364555 305.114152 
L 215.015165 306.587269 
L 215.665775 307.038451 
L 216.316385 305.933489 
L 216.966996 306.558202 
L 217.617606 305.806367 
L 218.268216 304.497986 
L 218.918827 306.581845 
L 219.569437 305.557496 
L 220.220047 305.088125 
L 220.870658 305.970675 
L 221.521268 304.598775 
L 222.171878 305.575056 
L 222.822489 304.810781 
L 223.473099 307.275903 
L 224.123709 305.098727 
L 224.77432 306.240719 
L 225.42493 306.134986 
L 226.07554 304.523144 
L 226.72615 306.919636 
L 227.376761 306.362477 
L 228.027371 306.173154 
L 229.328592 306.690238 
L 229.979202 305.436822 
L 230.629812 306.905828 
L 231.280423 306.142862 
L 231.931033 304.622545 
L 232.581643 306.842164 
L 233.232254 306.146033 
L 233.882864 306.841501 
L 234.533474 306.314071 
L 235.184085 307.309141 
L 236.485305 306.936597 
L 237.135915 305.00313 
L 237.786526 306.395463 
L 238.437136 306.205574 
L 239.087746 306.897252 
L 239.738357 306.451625 
L 240.388967 307.269929 
L 241.039577 306.799308 
L 241.690188 306.51079 
L 242.991408 307.197043 
L 243.642019 306.681259 
L 244.943239 306.603547 
L 245.59385 306.359893 
L 246.24446 306.722257 
L 246.89507 307.354998 
L 248.196291 306.195259 
L 248.846901 307.439479 
L 249.497511 305.291115 
L 250.798732 307.498021 
L 251.449342 306.923012 
L 252.099953 305.966392 
L 253.401173 307.327529 
L 254.051784 306.825954 
L 254.702394 306.784276 
L 255.353004 306.195967 
L 256.003615 306.734861 
L 256.654225 306.943901 
L 257.304835 305.543474 
L 257.955445 307.290802 
L 258.606056 306.152346 
L 259.256666 306.805953 
L 259.907276 307.011629 
L 260.557887 305.849199 
L 261.208497 306.627369 
L 261.859107 306.909653 
L 262.509718 306.896773 
L 263.160328 306.580365 
L 263.810938 307.445502 
L 264.461549 305.737946 
L 265.112159 306.39201 
L 265.762769 306.494645 
L 266.413379 306.3965 
L 267.06399 307.15849 
L 267.7146 307.41493 
L 268.36521 306.685071 
L 269.015821 306.169247 
L 269.666431 307.167795 
L 270.317041 306.984777 
L 271.618262 307.348661 
L 272.268872 306.837033 
L 272.919483 306.503785 
L 273.570093 307.391721 
L 274.220703 307.210034 
L 274.871314 307.633614 
L 275.521924 307.13781 
L 276.172534 307.111582 
L 276.823144 306.518637 
L 277.473755 307.200388 
L 278.774975 307.237626 
L 280.076196 306.93673 
L 280.726806 307.627467 
L 281.377417 306.879777 
L 282.028027 307.676357 
L 282.678637 306.73064 
L 283.329248 307.059638 
L 283.979858 306.385479 
L 284.630468 306.373293 
L 285.281079 307.398636 
L 285.931689 306.806115 
L 286.582299 306.445876 
L 287.232909 306.528636 
L 287.88352 306.920045 
L 288.53413 307.633542 
L 289.18474 306.452895 
L 289.835351 307.0163 
L 290.485961 306.933657 
L 291.136571 307.082088 
L 291.787182 307.053108 
L 292.437792 307.353476 
L 293.088402 306.586072 
L 293.739013 306.804507 
L 294.389623 306.524312 
L 295.690844 307.368507 
L 296.341454 307.698773 
L 296.992064 307.547709 
L 297.642674 306.686724 
L 298.943895 307.381833 
L 299.594505 305.997021 
L 300.245116 307.067918 
L 300.895726 307.486761 
L 301.546336 306.166318 
L 302.196947 307.13639 
L 302.847557 307.22401 
L 303.498167 307.018991 
L 304.148778 307.632224 
L 304.799388 307.576933 
L 305.449998 307.051361 
L 306.100608 307.023271 
L 306.751219 307.159413 
L 307.401829 306.759532 
L 308.052439 307.400348 
L 308.70305 307.462259 
L 309.35366 306.787636 
L 310.00427 307.359151 
L 310.654881 307.082114 
L 311.305491 307.321234 
L 311.956101 306.465384 
L 312.606712 307.245314 
L 314.558543 306.570856 
L 315.209153 307.569472 
L 315.859763 307.267669 
L 316.510373 307.70739 
L 317.811594 306.603166 
L 319.112815 307.492552 
L 319.763425 306.625054 
L 320.414035 306.899665 
L 321.064646 306.974542 
L 321.715256 306.612299 
L 322.365866 306.691312 
L 323.016477 307.200417 
L 323.667087 307.000849 
L 325.618918 307.362606 
L 326.269528 307.744664 
L 326.920138 306.884269 
L 327.570749 306.437571 
L 328.221359 307.069559 
L 328.871969 306.671763 
L 329.52258 307.608141 
L 330.17319 307.288287 
L 332.125021 307.087095 
L 332.775631 307.595357 
L 333.426242 307.111697 
L 334.076852 306.832123 
L 334.727462 307.645917 
L 335.378073 307.297308 
L 336.679293 307.226945 
L 337.329903 307.218081 
L 337.980514 307.735626 
L 338.631124 306.923446 
L 339.281734 307.503083 
L 339.932345 307.634921 
L 340.582955 307.254973 
L 341.884176 307.403039 
L 342.534786 306.926629 
L 343.836007 307.400648 
L 344.486617 307.302915 
L 345.787837 307.529926 
L 347.089058 307.122298 
L 347.739668 306.501858 
L 348.390279 307.178578 
L 349.040889 307.536285 
L 349.691499 306.747183 
L 350.34211 306.520401 
L 350.99272 307.074533 
L 352.293941 307.269227 
L 352.944551 307.240645 
L 353.595161 307.464341 
L 354.245772 307.26947 
L 354.896382 306.919491 
L 355.546992 307.501366 
L 356.848213 307.464225 
L 357.498823 307.058105 
L 358.149433 307.081702 
L 358.800044 307.346311 
L 359.450654 307.16784 
L 360.101264 307.401061 
L 360.751875 307.230516 
L 361.402485 307.261313 
L 362.703706 307.099447 
L 363.354316 307.139393 
L 364.004926 306.969483 
L 364.655537 307.243767 
L 365.306147 307.106 
L 365.956757 307.426034 
L 366.607367 307.204165 
L 367.257978 307.478462 
L 367.908588 307.296372 
L 368.559198 306.821246 
L 369.209809 306.502352 
L 370.511029 307.687067 
L 371.16164 307.24599 
L 371.81225 307.201531 
L 372.46286 306.539887 
L 373.113471 307.210892 
L 374.414691 307.435944 
L 375.065302 306.665696 
L 375.715912 307.416084 
L 376.366522 307.531965 
L 377.017132 307.082108 
L 377.667743 306.182898 
L 378.318353 307.365955 
L 378.968963 307.177059 
L 379.619574 307.54068 
L 380.270184 307.666049 
L 380.920794 307.183968 
L 381.571405 307.609021 
L 383.523236 307.474283 
L 384.173846 306.956913 
L 385.475066 306.944402 
L 386.125677 307.334185 
L 386.776287 307.498308 
L 387.426897 307.233455 
L 388.077508 307.305654 
L 388.728118 307.598542 
L 390.029339 306.66916 
L 390.679949 306.868876 
L 391.330559 307.465028 
L 391.98117 306.828496 
L 393.28239 307.098253 
L 393.933001 307.483544 
L 394.583611 307.16081 
L 395.234221 307.394577 
L 395.884831 307.311636 
L 396.535442 307.039519 
L 397.186052 307.689723 
L 397.836662 307.720461 
L 398.487273 307.494413 
L 398.487273 307.494413 
" style="fill:none;stroke:#ff0000;stroke-linecap:square;stroke-width:0.8;"/>
   </g>
   <g id="patch_3">
    <path d="M 57.6 320.4 
L 57.6 43.2 
" style="fill:none;stroke:#000000;stroke-linecap:square;stroke-linejoin:miter;stroke-width:0.8;"/>
   </g>
   <g id="patch_4">
    <path d="M 414.72 320.4 
L 414.72 43.2 
" style="fill:none;stroke:#000000;stroke-linecap:square;stroke-linejoin:miter;stroke-width:0.8;"/>
   </g>
   <g id="patch_5">
    <path d="M 57.6 320.4 
L 414.72 320.4 
" style="fill:none;stroke:#000000;stroke-linecap:square;stroke-linejoin:miter;stroke-width:0.8;"/>
   </g>
   <g id="patch_6">
    <path d="M 57.6 43.2 
L 414.72 43.2 
" style="fill:none;stroke:#000000;stroke-linecap:square;stroke-linejoin:miter;stroke-width:0.8;"/>
   </g>
   <g id="text_18">
    <!-- Torque pulsations - compensator disabled -->
    <defs>
     <path d="M -0.296875 72.90625 
L 61.375 72.90625 
L 61.375 64.59375 
L 35.5 64.59375 
L 35.5 0 
L 25.59375 0 
L 25.59375 64.59375 
L -0.296875 64.59375 
z
" id="DejaVuSans-84"/>
     <path d="M 30.609375 48.390625 
Q 23.390625 48.390625 19.1875 42.75 
Q 14.984375 37.109375 14.984375 27.296875 
Q 14.984375 17.484375 19.15625 11.84375 
Q 23.34375 6.203125 30.609375 6.203125 
Q 37.796875 6.203125 41.984375 11.859375 
Q 46.1875 17.53125 46.1875 27.296875 
Q 46.1875 37.015625 41.984375 42.703125 
Q 37.796875 48.390625 30.609375 48.390625 
z
M 30.609375 56 
Q 42.328125 56 49.015625 48.375 
Q 55.71875 40.765625 55.71875 27.296875 
Q 55.71875 13.875 49.015625 6.21875 
Q 42.328125 -1.421875 30.609375 -1.421875 
Q 18.84375 -1.421875 12.171875 6.21875 
Q 5.515625 13.875 5.515625 27.296875 
Q 5.515625 40.765625 12.171875 48.375 
Q 18.84375 56 30.609375 56 
z
" id="DejaVuSans-111"/>
     <path d="M 44.28125 53.078125 
L 44.28125 44.578125 
Q 40.484375 46.53125 36.375 47.5 
Q 32.28125 48.484375 27.875 48.484375 
Q 21.1875 48.484375 17.84375 46.4375 
Q 14.5 44.390625 14.5 40.28125 
Q 14.5 37.15625 16.890625 35.375 
Q 19.28125 33.59375 26.515625 31.984375 
L 29.59375 31.296875 
Q 39.15625 29.25 43.1875 25.515625 
Q 47.21875 21.78125 47.21875 15.09375 
Q 47.21875 7.46875 41.1875 3.015625 
Q 35.15625 -1.421875 24.609375 -1.421875 
Q 20.21875 -1.421875 15.453125 -0.5625 
Q 10.6875 0.296875 5.421875 2 
L 5.421875 11.28125 
Q 10.40625 8.6875 15.234375 7.390625 
Q 20.0625 6.109375 24.8125 6.109375 
Q 31.15625 6.109375 34.5625 8.28125 
Q 37.984375 10.453125 37.984375 14.40625 
Q 37.984375 18.0625 35.515625 20.015625 
Q 33.0625 21.96875 24.703125 23.78125 
L 21.578125 24.515625 
Q 13.234375 26.265625 9.515625 29.90625 
Q 5.8125 33.546875 5.8125 39.890625 
Q 5.8125 47.609375 11.28125 51.796875 
Q 16.75 56 26.8125 56 
Q 31.78125 56 36.171875 55.265625 
Q 40.578125 54.546875 44.28125 53.078125 
z
" id="DejaVuSans-115"/>
     <path d="M 34.28125 27.484375 
Q 23.390625 27.484375 19.1875 25 
Q 14.984375 22.515625 14.984375 16.5 
Q 14.984375 11.71875 18.140625 8.90625 
Q 21.296875 6.109375 26.703125 6.109375 
Q 34.1875 6.109375 38.703125 11.40625 
Q 43.21875 16.703125 43.21875 25.484375 
L 43.21875 27.484375 
z
M 52.203125 31.203125 
L 52.203125 0 
L 43.21875 0 
L 43.21875 8.296875 
Q 40.140625 3.328125 35.546875 0.953125 
Q 30.953125 -1.421875 24.3125 -1.421875 
Q 15.921875 -1.421875 10.953125 3.296875 
Q 6 8.015625 6 15.921875 
Q 6 25.140625 12.171875 29.828125 
Q 18.359375 34.515625 30.609375 34.515625 
L 43.21875 34.515625 
L 43.21875 35.40625 
Q 43.21875 41.609375 39.140625 45 
Q 35.0625 48.390625 27.6875 48.390625 
Q 23 48.390625 18.546875 47.265625 
Q 14.109375 46.140625 10.015625 43.890625 
L 10.015625 52.203125 
Q 14.9375 54.109375 19.578125 55.046875 
Q 24.21875 56 28.609375 56 
Q 40.484375 56 46.34375 49.84375 
Q 52.203125 43.703125 52.203125 31.203125 
z
" id="DejaVuSans-97"/>
     <path d="M 4.890625 31.390625 
L 31.203125 31.390625 
L 31.203125 23.390625 
L 4.890625 23.390625 
z
" id="DejaVuSans-45"/>
     <path d="M 48.6875 27.296875 
Q 48.6875 37.203125 44.609375 42.84375 
Q 40.53125 48.484375 33.40625 48.484375 
Q 26.265625 48.484375 22.1875 42.84375 
Q 18.109375 37.203125 18.109375 27.296875 
Q 18.109375 17.390625 22.1875 11.75 
Q 26.265625 6.109375 33.40625 6.109375 
Q 40.53125 6.109375 44.609375 11.75 
Q 48.6875 17.390625 48.6875 27.296875 
z
M 18.109375 46.390625 
Q 20.953125 51.265625 25.265625 53.625 
Q 29.59375 56 35.59375 56 
Q 45.5625 56 51.78125 48.09375 
Q 58.015625 40.1875 58.015625 27.296875 
Q 58.015625 14.40625 51.78125 6.484375 
Q 45.5625 -1.421875 35.59375 -1.421875 
Q 29.59375 -1.421875 25.265625 0.953125 
Q 20.953125 3.328125 18.109375 8.203125 
L 18.109375 0 
L 9.078125 0 
L 9.078125 75.984375 
L 18.109375 75.984375 
z
" id="DejaVuSans-98"/>
    </defs>
    <g transform="translate(111.021563 37.2)scale(0.12 -0.12)">
     <use xlink:href="#DejaVuSans-84"/>
     <use x="44.083984" xlink:href="#DejaVuSans-111"/>
     <use x="105.265625" xlink:href="#DejaVuSans-114"/>
     <use x="144.628906" xlink:href="#DejaVuSans-113"/>
     <use x="208.105469" xlink:href="#DejaVuSans-117"/>
     <use x="271.484375" xlink:href="#DejaVuSans-101"/>
     <use x="333.007812" xlink:href="#DejaVuSans-32"/>
     <use x="364.794922" xlink:href="#DejaVuSans-112"/>
     <use x="428.271484" xlink:href="#DejaVuSans-117"/>
     <use x="491.650391" xlink:href="#DejaVuSans-108"/>
     <use x="519.433594" xlink:href="#DejaVuSans-115"/>
     <use x="571.533203" xlink:href="#DejaVuSans-97"/>
     <use x="632.8125" xlink:href="#DejaVuSans-116"/>
     <use x="672.021484" xlink:href="#DejaVuSans-105"/>
     <use x="699.804688" xlink:href="#DejaVuSans-111"/>
     <use x="760.986328" xlink:href="#DejaVuSans-110"/>
     <use x="824.365234" xlink:href="#DejaVuSans-115"/>
     <use x="876.464844" xlink:href="#DejaVuSans-32"/>
     <use x="908.251953" xlink:href="#DejaVuSans-45"/>
     <use x="944.335938" xlink:href="#DejaVuSans-32"/>
     <use x="976.123047" xlink:href="#DejaVuSans-99"/>
     <use x="1031.103516" xlink:href="#DejaVuSans-111"/>
     <use x="1092.285156" xlink:href="#DejaVuSans-109"/>
     <use x="1189.697266" xlink:href="#DejaVuSans-112"/>
     <use x="1253.173828" xlink:href="#DejaVuSans-101"/>
     <use x="1314.697266" xlink:href="#DejaVuSans-110"/>
     <use x="1378.076172" xlink:href="#DejaVuSans-115"/>
     <use x="1430.175781" xlink:href="#DejaVuSans-97"/>
     <use x="1491.455078" xlink:href="#DejaVuSans-116"/>
     <use x="1530.664062" xlink:href="#DejaVuSans-111"/>
     <use x="1591.845703" xlink:href="#DejaVuSans-114"/>
     <use x="1632.958984" xlink:href="#DejaVuSans-32"/>
     <use x="1664.746094" xlink:href="#DejaVuSans-100"/>
     <use x="1728.222656" xlink:href="#DejaVuSans-105"/>
     <use x="1756.005859" xlink:href="#DejaVuSans-115"/>
     <use x="1808.105469" xlink:href="#DejaVuSans-97"/>
     <use x="1869.384766" xlink:href="#DejaVuSans-98"/>
     <use x="1932.861328" xlink:href="#DejaVuSans-108"/>
     <use x="1960.644531" xlink:href="#DejaVuSans-101"/>
     <use x="2022.167969" xlink:href="#DejaVuSans-100"/>
    </g>
   </g>
   <g id="legend_1">
    <g id="patch_7">
     <path d="M 261.880938 95.234375 
L 407.72 95.234375 
Q 409.72 95.234375 409.72 93.234375 
L 409.72 50.2 
Q 409.72 48.2 407.72 48.2 
L 261.880938 48.2 
Q 259.880938 48.2 259.880938 50.2 
L 259.880938 93.234375 
Q 259.880938 95.234375 261.880938 95.234375 
z
" style="fill:#ffffff;opacity:0.8;stroke:#cccccc;stroke-linejoin:miter;"/>
    </g>
    <g id="line2d_34">
     <path d="M 263.880938 56.298437 
L 283.880938 56.298437 
" style="fill:none;stroke:#9acd32;stroke-linecap:square;stroke-width:0.8;"/>
    </g>
    <g id="line2d_35"/>
    <g id="text_19">
     <!-- Compensation torque -->
     <defs>
      <path d="M 64.40625 67.28125 
L 64.40625 56.890625 
Q 59.421875 61.53125 53.78125 63.8125 
Q 48.140625 66.109375 41.796875 66.109375 
Q 29.296875 66.109375 22.65625 58.46875 
Q 16.015625 50.828125 16.015625 36.375 
Q 16.015625 21.96875 22.65625 14.328125 
Q 29.296875 6.6875 41.796875 6.6875 
Q 48.140625 6.6875 53.78125 8.984375 
Q 59.421875 11.28125 64.40625 15.921875 
L 64.40625 5.609375 
Q 59.234375 2.09375 53.4375 0.328125 
Q 47.65625 -1.421875 41.21875 -1.421875 
Q 24.65625 -1.421875 15.125 8.703125 
Q 5.609375 18.84375 5.609375 36.375 
Q 5.609375 53.953125 15.125 64.078125 
Q 24.65625 74.21875 41.21875 74.21875 
Q 47.75 74.21875 53.53125 72.484375 
Q 59.328125 70.75 64.40625 67.28125 
z
" id="DejaVuSans-67"/>
     </defs>
     <g transform="translate(291.880938 59.798437)scale(0.1 -0.1)">
      <use xlink:href="#DejaVuSans-67"/>
      <use x="69.824219" xlink:href="#DejaVuSans-111"/>
      <use x="131.005859" xlink:href="#DejaVuSans-109"/>
      <use x="228.417969" xlink:href="#DejaVuSans-112"/>
      <use x="291.894531" xlink:href="#DejaVuSans-101"/>
      <use x="353.417969" xlink:href="#DejaVuSans-110"/>
      <use x="416.796875" xlink:href="#DejaVuSans-115"/>
      <use x="468.896484" xlink:href="#DejaVuSans-97"/>
      <use x="530.175781" xlink:href="#DejaVuSans-116"/>
      <use x="569.384766" xlink:href="#DejaVuSans-105"/>
      <use x="597.167969" xlink:href="#DejaVuSans-111"/>
      <use x="658.349609" xlink:href="#DejaVuSans-110"/>
      <use x="721.728516" xlink:href="#DejaVuSans-32"/>
      <use x="753.515625" xlink:href="#DejaVuSans-116"/>
      <use x="792.724609" xlink:href="#DejaVuSans-111"/>
      <use x="853.90625" xlink:href="#DejaVuSans-114"/>
      <use x="893.269531" xlink:href="#DejaVuSans-113"/>
      <use x="956.746094" xlink:href="#DejaVuSans-117"/>
      <use x="1020.125" xlink:href="#DejaVuSans-101"/>
     </g>
    </g>
    <g id="line2d_36">
     <path d="M 263.880938 70.976562 
L 283.880938 70.976562 
" style="fill:none;stroke:#ff8c00;stroke-linecap:square;stroke-width:0.8;"/>
    </g>
    <g id="line2d_37"/>
    <g id="text_20">
     <!-- Pulsating torque -->
     <defs>
      <path d="M 19.671875 64.796875 
L 19.671875 37.40625 
L 32.078125 37.40625 
Q 38.96875 37.40625 42.71875 40.96875 
Q 46.484375 44.53125 46.484375 51.125 
Q 46.484375 57.671875 42.71875 61.234375 
Q 38.96875 64.796875 32.078125 64.796875 
z
M 9.8125 72.90625 
L 32.078125 72.90625 
Q 44.34375 72.90625 50.609375 67.359375 
Q 56.890625 61.8125 56.890625 51.125 
Q 56.890625 40.328125 50.609375 34.8125 
Q 44.34375 29.296875 32.078125 29.296875 
L 19.671875 29.296875 
L 19.671875 0 
L 9.8125 0 
z
" id="DejaVuSans-80"/>
      <path d="M 45.40625 27.984375 
Q 45.40625 37.75 41.375 43.109375 
Q 37.359375 48.484375 30.078125 48.484375 
Q 22.859375 48.484375 18.828125 43.109375 
Q 14.796875 37.75 14.796875 27.984375 
Q 14.796875 18.265625 18.828125 12.890625 
Q 22.859375 7.515625 30.078125 7.515625 
Q 37.359375 7.515625 41.375 12.890625 
Q 45.40625 18.265625 45.40625 27.984375 
z
M 54.390625 6.78125 
Q 54.390625 -7.171875 48.1875 -13.984375 
Q 42 -20.796875 29.203125 -20.796875 
Q 24.46875 -20.796875 20.265625 -20.09375 
Q 16.0625 -19.390625 12.109375 -17.921875 
L 12.109375 -9.1875 
Q 16.0625 -11.328125 19.921875 -12.34375 
Q 23.78125 -13.375 27.78125 -13.375 
Q 36.625 -13.375 41.015625 -8.765625 
Q 45.40625 -4.15625 45.40625 5.171875 
L 45.40625 9.625 
Q 42.625 4.78125 38.28125 2.390625 
Q 33.9375 0 27.875 0 
Q 17.828125 0 11.671875 7.65625 
Q 5.515625 15.328125 5.515625 27.984375 
Q 5.515625 40.671875 11.671875 48.328125 
Q 17.828125 56 27.875 56 
Q 33.9375 56 38.28125 53.609375 
Q 42.625 51.21875 45.40625 46.390625 
L 45.40625 54.6875 
L 54.390625 54.6875 
z
" id="DejaVuSans-103"/>
     </defs>
     <g transform="translate(291.880938 74.476562)scale(0.1 -0.1)">
      <use xlink:href="#DejaVuSans-80"/>
      <use x="58.552734" xlink:href="#DejaVuSans-117"/>
      <use x="121.931641" xlink:href="#DejaVuSans-108"/>
      <use x="149.714844" xlink:href="#DejaVuSans-115"/>
      <use x="201.814453" xlink:href="#DejaVuSans-97"/>
      <use x="263.09375" xlink:href="#DejaVuSans-116"/>
      <use x="302.302734" xlink:href="#DejaVuSans-105"/>
      <use x="330.085938" xlink:href="#DejaVuSans-110"/>
      <use x="393.464844" xlink:href="#DejaVuSans-103"/>
      <use x="456.941406" xlink:href="#DejaVuSans-32"/>
      <use x="488.728516" xlink:href="#DejaVuSans-116"/>
      <use x="527.9375" xlink:href="#DejaVuSans-111"/>
      <use x="589.119141" xlink:href="#DejaVuSans-114"/>
      <use x="628.482422" xlink:href="#DejaVuSans-113"/>
      <use x="691.958984" xlink:href="#DejaVuSans-117"/>
      <use x="755.337891" xlink:href="#DejaVuSans-101"/>
     </g>
    </g>
    <g id="line2d_38">
     <path d="M 263.880938 85.654687 
L 283.880938 85.654687 
" style="fill:none;stroke:#ff0000;stroke-linecap:square;stroke-width:0.8;"/>
    </g>
    <g id="line2d_39"/>
    <g id="text_21">
     <!-- Actual torque (filtered) -->
     <defs>
      <path d="M 31 75.875 
Q 24.46875 64.65625 21.28125 53.65625 
Q 18.109375 42.671875 18.109375 31.390625 
Q 18.109375 20.125 21.3125 9.0625 
Q 24.515625 -2 31 -13.1875 
L 23.1875 -13.1875 
Q 15.875 -1.703125 12.234375 9.375 
Q 8.59375 20.453125 8.59375 31.390625 
Q 8.59375 42.28125 12.203125 53.3125 
Q 15.828125 64.359375 23.1875 75.875 
z
" id="DejaVuSans-40"/>
      <path d="M 37.109375 75.984375 
L 37.109375 68.5 
L 28.515625 68.5 
Q 23.6875 68.5 21.796875 66.546875 
Q 19.921875 64.59375 19.921875 59.515625 
L 19.921875 54.6875 
L 34.71875 54.6875 
L 34.71875 47.703125 
L 19.921875 47.703125 
L 19.921875 0 
L 10.890625 0 
L 10.890625 47.703125 
L 2.296875 47.703125 
L 2.296875 54.6875 
L 10.890625 54.6875 
L 10.890625 58.5 
Q 10.890625 67.625 15.140625 71.796875 
Q 19.390625 75.984375 28.609375 75.984375 
z
" id="DejaVuSans-102"/>
      <path d="M 8.015625 75.875 
L 15.828125 75.875 
Q 23.140625 64.359375 26.78125 53.3125 
Q 30.421875 42.28125 30.421875 31.390625 
Q 30.421875 20.453125 26.78125 9.375 
Q 23.140625 -1.703125 15.828125 -13.1875 
L 8.015625 -13.1875 
Q 14.5 -2 17.703125 9.0625 
Q 20.90625 20.125 20.90625 31.390625 
Q 20.90625 42.671875 17.703125 53.65625 
Q 14.5 64.65625 8.015625 75.875 
z
" id="DejaVuSans-41"/>
     </defs>
     <g transform="translate(291.880938 89.154687)scale(0.1 -0.1)">
      <use xlink:href="#DejaVuSans-65"/>
      <use x="66.658203" xlink:href="#DejaVuSans-99"/>
      <use x="121.638672" xlink:href="#DejaVuSans-116"/>
      <use x="160.847656" xlink:href="#DejaVuSans-117"/>
      <use x="224.226562" xlink:href="#DejaVuSans-97"/>
      <use x="285.505859" xlink:href="#DejaVuSans-108"/>
      <use x="313.289062" xlink:href="#DejaVuSans-32"/>
      <use x="345.076172" xlink:href="#DejaVuSans-116"/>
      <use x="384.285156" xlink:href="#DejaVuSans-111"/>
      <use x="445.466797" xlink:href="#DejaVuSans-114"/>
      <use x="484.830078" xlink:href="#DejaVuSans-113"/>
      <use x="548.306641" xlink:href="#DejaVuSans-117"/>
      <use x="611.685547" xlink:href="#DejaVuSans-101"/>
      <use x="673.208984" xlink:href="#DejaVuSans-32"/>
      <use x="704.996094" xlink:href="#DejaVuSans-40"/>
      <use x="744.009766" xlink:href="#DejaVuSans-102"/>
      <use x="779.214844" xlink:href="#DejaVuSans-105"/>
      <use x="806.998047" xlink:href="#DejaVuSans-108"/>
      <use x="834.78125" xlink:href="#DejaVuSans-116"/>
      <use x="873.990234" xlink:href="#DejaVuSans-101"/>
      <use x="935.513672" xlink:href="#DejaVuSans-114"/>
      <use x="974.376953" xlink:href="#DejaVuSans-101"/>
      <use x="1035.900391" xlink:href="#DejaVuSans-100"/>
      <use x="1099.376953" xlink:href="#DejaVuSans-41"/>
     </g>
    </g>
   </g>
  </g>
 </g>
 <defs>
  <clipPath id="pfcb054e23a">
   <rect height="277.2" width="357.12" x="57.6" y="43.2"/>
  </clipPath>
 </defs>
</svg>
