<?xml version="1.0" encoding="utf-8" standalone="no"?>
<!DOCTYPE svg PUBLIC "-//W3C//DTD SVG 1.1//EN"
  "http://www.w3.org/Graphics/SVG/1.1/DTD/svg11.dtd">
<!-- Created with matplotlib (https://matplotlib.org/) -->
<svg height="360pt" version="1.1" viewBox="0 0 460.8 360" width="460.8pt" xmlns="http://www.w3.org/2000/svg" xmlns:xlink="http://www.w3.org/1999/xlink">
 <defs>
  <style type="text/css">
*{stroke-linecap:butt;stroke-linejoin:round;}
  </style>
 </defs>
 <g id="figure_1">
  <g id="patch_1">
   <path d="M 0 360 
L 460.8 360 
L 460.8 0 
L 0 0 
z
" style="fill:#ffffff;"/>
  </g>
  <g id="axes_1">
   <g id="patch_2">
    <path d="M 57.6 320.4 
L 414.72 320.4 
L 414.72 43.2 
L 57.6 43.2 
z
" style="fill:#ffffff;"/>
   </g>
   <g id="matplotlib.axis_1">
    <g id="xtick_1">
     <g id="line2d_1">
      <path clip-path="url(#p1e7b185822)" d="M 73.832727 320.4 
L 73.832727 43.2 
" style="fill:none;stroke:#c0c0c0;stroke-dasharray:0.8,1.32;stroke-dashoffset:0;stroke-width:0.8;"/>
     </g>
     <g id="line2d_2">
      <defs>
       <path d="M 0 0 
L 0 3.5 
" id="m2d47375312" style="stroke:#000000;stroke-width:0.8;"/>
      </defs>
      <g>
       <use style="stroke:#000000;stroke-width:0.8;" x="73.832727" xlink:href="#m2d47375312" y="320.4"/>
      </g>
     </g>
     <g id="text_1">
      <!-- 0 -->
      <defs>
       <path d="M 31.78125 66.40625 
Q 24.171875 66.40625 20.328125 58.90625 
Q 16.5 51.421875 16.5 36.375 
Q 16.5 21.390625 20.328125 13.890625 
Q 24.171875 6.390625 31.78125 6.390625 
Q 39.453125 6.390625 43.28125 13.890625 
Q 47.125 21.390625 47.125 36.375 
Q 47.125 51.421875 43.28125 58.90625 
Q 39.453125 66.40625 31.78125 66.40625 
z
M 31.78125 74.21875 
Q 44.046875 74.21875 50.515625 64.515625 
Q 56.984375 54.828125 56.984375 36.375 
Q 56.984375 17.96875 50.515625 8.265625 
Q 44.046875 -1.421875 31.78125 -1.421875 
Q 19.53125 -1.421875 13.0625 8.265625 
Q 6.59375 17.96875 6.59375 36.375 
Q 6.59375 54.828125 13.0625 64.515625 
Q 19.53125 74.21875 31.78125 74.21875 
z
" id="DejaVuSans-48"/>
      </defs>
      <g transform="translate(70.651477 334.998438)scale(0.1 -0.1)">
       <use xlink:href="#DejaVuSans-48"/>
      </g>
     </g>
    </g>
    <g id="xtick_2">
     <g id="line2d_3">
      <path clip-path="url(#p1e7b185822)" d="M 138.763636 320.4 
L 138.763636 43.2 
" style="fill:none;stroke:#c0c0c0;stroke-dasharray:0.8,1.32;stroke-dashoffset:0;stroke-width:0.8;"/>
     </g>
     <g id="line2d_4">
      <g>
       <use style="stroke:#000000;stroke-width:0.8;" x="138.763636" xlink:href="#m2d47375312" y="320.4"/>
      </g>
     </g>
     <g id="text_2">
      <!-- 100 -->
      <defs>
       <path d="M 12.40625 8.296875 
L 28.515625 8.296875 
L 28.515625 63.921875 
L 10.984375 60.40625 
L 10.984375 69.390625 
L 28.421875 72.90625 
L 38.28125 72.90625 
L 38.28125 8.296875 
L 54.390625 8.296875 
L 54.390625 0 
L 12.40625 0 
z
" id="DejaVuSans-49"/>
      </defs>
      <g transform="translate(129.219886 334.998438)scale(0.1 -0.1)">
       <use xlink:href="#DejaVuSans-49"/>
       <use x="63.623047" xlink:href="#DejaVuSans-48"/>
       <use x="127.246094" xlink:href="#DejaVuSans-48"/>
      </g>
     </g>
    </g>
    <g id="xtick_3">
     <g id="line2d_5">
      <path clip-path="url(#p1e7b185822)" d="M 203.694546 320.4 
L 203.694546 43.2 
" style="fill:none;stroke:#c0c0c0;stroke-dasharray:0.8,1.32;stroke-dashoffset:0;stroke-width:0.8;"/>
     </g>
     <g id="line2d_6">
      <g>
       <use style="stroke:#000000;stroke-width:0.8;" x="203.694546" xlink:href="#m2d47375312" y="320.4"/>
      </g>
     </g>
     <g id="text_3">
      <!-- 200 -->
      <defs>
       <path d="M 19.1875 8.296875 
L 53.609375 8.296875 
L 53.609375 0 
L 7.328125 0 
L 7.328125 8.296875 
Q 12.9375 14.109375 22.625 23.890625 
Q 32.328125 33.6875 34.8125 36.53125 
Q 39.546875 41.84375 41.421875 45.53125 
Q 43.3125 49.21875 43.3125 52.78125 
Q 43.3125 58.59375 39.234375 62.25 
Q 35.15625 65.921875 28.609375 65.921875 
Q 23.96875 65.921875 18.8125 64.3125 
Q 13.671875 62.703125 7.8125 59.421875 
L 7.8125 69.390625 
Q 13.765625 71.78125 18.9375 73 
Q 24.125 74.21875 28.421875 74.21875 
Q 39.75 74.21875 46.484375 68.546875 
Q 53.21875 62.890625 53.21875 53.421875 
Q 53.21875 48.921875 51.53125 44.890625 
Q 49.859375 40.875 45.40625 35.40625 
Q 44.1875 33.984375 37.640625 27.21875 
Q 31.109375 20.453125 19.1875 8.296875 
z
" id="DejaVuSans-50"/>
      </defs>
      <g transform="translate(194.150796 334.998438)scale(0.1 -0.1)">
       <use xlink:href="#DejaVuSans-50"/>
       <use x="63.623047" xlink:href="#DejaVuSans-48"/>
       <use x="127.246094" xlink:href="#DejaVuSans-48"/>
      </g>
     </g>
    </g>
    <g id="xtick_4">
     <g id="line2d_7">
      <path clip-path="url(#p1e7b185822)" d="M 268.625455 320.4 
L 268.625455 43.2 
" style="fill:none;stroke:#c0c0c0;stroke-dasharray:0.8,1.32;stroke-dashoffset:0;stroke-width:0.8;"/>
     </g>
     <g id="line2d_8">
      <g>
       <use style="stroke:#000000;stroke-width:0.8;" x="268.625455" xlink:href="#m2d47375312" y="320.4"/>
      </g>
     </g>
     <g id="text_4">
      <!-- 300 -->
      <defs>
       <path d="M 40.578125 39.3125 
Q 47.65625 37.796875 51.625 33 
Q 55.609375 28.21875 55.609375 21.1875 
Q 55.609375 10.40625 48.1875 4.484375 
Q 40.765625 -1.421875 27.09375 -1.421875 
Q 22.515625 -1.421875 17.65625 -0.515625 
Q 12.796875 0.390625 7.625 2.203125 
L 7.625 11.71875 
Q 11.71875 9.328125 16.59375 8.109375 
Q 21.484375 6.890625 26.8125 6.890625 
Q 36.078125 6.890625 40.9375 10.546875 
Q 45.796875 14.203125 45.796875 21.1875 
Q 45.796875 27.640625 41.28125 31.265625 
Q 36.765625 34.90625 28.71875 34.90625 
L 20.21875 34.90625 
L 20.21875 43.015625 
L 29.109375 43.015625 
Q 36.375 43.015625 40.234375 45.921875 
Q 44.09375 48.828125 44.09375 54.296875 
Q 44.09375 59.90625 40.109375 62.90625 
Q 36.140625 65.921875 28.71875 65.921875 
Q 24.65625 65.921875 20.015625 65.03125 
Q 15.375 64.15625 9.8125 62.3125 
L 9.8125 71.09375 
Q 15.4375 72.65625 20.34375 73.4375 
Q 25.25 74.21875 29.59375 74.21875 
Q 40.828125 74.21875 47.359375 69.109375 
Q 53.90625 64.015625 53.90625 55.328125 
Q 53.90625 49.265625 50.4375 45.09375 
Q 46.96875 40.921875 40.578125 39.3125 
z
" id="DejaVuSans-51"/>
      </defs>
      <g transform="translate(259.081705 334.998438)scale(0.1 -0.1)">
       <use xlink:href="#DejaVuSans-51"/>
       <use x="63.623047" xlink:href="#DejaVuSans-48"/>
       <use x="127.246094" xlink:href="#DejaVuSans-48"/>
      </g>
     </g>
    </g>
    <g id="xtick_5">
     <g id="line2d_9">
      <path clip-path="url(#p1e7b185822)" d="M 333.556364 320.4 
L 333.556364 43.2 
" style="fill:none;stroke:#c0c0c0;stroke-dasharray:0.8,1.32;stroke-dashoffset:0;stroke-width:0.8;"/>
     </g>
     <g id="line2d_10">
      <g>
       <use style="stroke:#000000;stroke-width:0.8;" x="333.556364" xlink:href="#m2d47375312" y="320.4"/>
      </g>
     </g>
     <g id="text_5">
      <!-- 400 -->
      <defs>
       <path d="M 37.796875 64.3125 
L 12.890625 25.390625 
L 37.796875 25.390625 
z
M 35.203125 72.90625 
L 47.609375 72.90625 
L 47.609375 25.390625 
L 58.015625 25.390625 
L 58.015625 17.1875 
L 47.609375 17.1875 
L 47.609375 0 
L 37.796875 0 
L 37.796875 17.1875 
L 4.890625 17.1875 
L 4.890625 26.703125 
z
" id="DejaVuSans-52"/>
      </defs>
      <g transform="translate(324.012614 334.998438)scale(0.1 -0.1)">
       <use xlink:href="#DejaVuSans-52"/>
       <use x="63.623047" xlink:href="#DejaVuSans-48"/>
       <use x="127.246094" xlink:href="#DejaVuSans-48"/>
      </g>
     </g>
    </g>
    <g id="xtick_6">
     <g id="line2d_11">
      <path clip-path="url(#p1e7b185822)" d="M 398.487273 320.4 
L 398.487273 43.2 
" style="fill:none;stroke:#c0c0c0;stroke-dasharray:0.8,1.32;stroke-dashoffset:0;stroke-width:0.8;"/>
     </g>
     <g id="line2d_12">
      <g>
       <use style="stroke:#000000;stroke-width:0.8;" x="398.487273" xlink:href="#m2d47375312" y="320.4"/>
      </g>
     </g>
     <g id="text_6">
      <!-- 500 -->
      <defs>
       <path d="M 10.796875 72.90625 
L 49.515625 72.90625 
L 49.515625 64.59375 
L 19.828125 64.59375 
L 19.828125 46.734375 
Q 21.96875 47.46875 24.109375 47.828125 
Q 26.265625 48.1875 28.421875 48.1875 
Q 40.625 48.1875 47.75 41.5 
Q 54.890625 34.8125 54.890625 23.390625 
Q 54.890625 11.625 47.5625 5.09375 
Q 40.234375 -1.421875 26.90625 -1.421875 
Q 22.3125 -1.421875 17.546875 -0.640625 
Q 12.796875 0.140625 7.71875 1.703125 
L 7.71875 11.625 
Q 12.109375 9.234375 16.796875 8.0625 
Q 21.484375 6.890625 26.703125 6.890625 
Q 35.15625 6.890625 40.078125 11.328125 
Q 45.015625 15.765625 45.015625 23.390625 
Q 45.015625 31 40.078125 35.4375 
Q 35.15625 39.890625 26.703125 39.890625 
Q 22.75 39.890625 18.8125 39.015625 
Q 14.890625 38.140625 10.796875 36.28125 
z
" id="DejaVuSans-53"/>
      </defs>
      <g transform="translate(388.943523 334.998438)scale(0.1 -0.1)">
       <use xlink:href="#DejaVuSans-53"/>
       <use x="63.623047" xlink:href="#DejaVuSans-48"/>
       <use x="127.246094" xlink:href="#DejaVuSans-48"/>
      </g>
     </g>
    </g>
    <g id="text_7">
     <!-- Frequency [Hz] -->
     <defs>
      <path d="M 9.8125 72.90625 
L 51.703125 72.90625 
L 51.703125 64.59375 
L 19.671875 64.59375 
L 19.671875 43.109375 
L 48.578125 43.109375 
L 48.578125 34.8125 
L 19.671875 34.8125 
L 19.671875 0 
L 9.8125 0 
z
" id="DejaVuSans-70"/>
      <path d="M 41.109375 46.296875 
Q 39.59375 47.171875 37.8125 47.578125 
Q 36.03125 48 33.890625 48 
Q 26.265625 48 22.1875 43.046875 
Q 18.109375 38.09375 18.109375 28.8125 
L 18.109375 0 
L 9.078125 0 
L 9.078125 54.6875 
L 18.109375 54.6875 
L 18.109375 46.1875 
Q 20.953125 51.171875 25.484375 53.578125 
Q 30.03125 56 36.53125 56 
Q 37.453125 56 38.578125 55.875 
Q 39.703125 55.765625 41.0625 55.515625 
z
" id="DejaVuSans-114"/>
      <path d="M 56.203125 29.59375 
L 56.203125 25.203125 
L 14.890625 25.203125 
Q 15.484375 15.921875 20.484375 11.0625 
Q 25.484375 6.203125 34.421875 6.203125 
Q 39.59375 6.203125 44.453125 7.46875 
Q 49.3125 8.734375 54.109375 11.28125 
L 54.109375 2.78125 
Q 49.265625 0.734375 44.1875 -0.34375 
Q 39.109375 -1.421875 33.890625 -1.421875 
Q 20.796875 -1.421875 13.15625 6.1875 
Q 5.515625 13.8125 5.515625 26.8125 
Q 5.515625 40.234375 12.765625 48.109375 
Q 20.015625 56 32.328125 56 
Q 43.359375 56 49.78125 48.890625 
Q 56.203125 41.796875 56.203125 29.59375 
z
M 47.21875 32.234375 
Q 47.125 39.59375 43.09375 43.984375 
Q 39.0625 48.390625 32.421875 48.390625 
Q 24.90625 48.390625 20.390625 44.140625 
Q 15.875 39.890625 15.1875 32.171875 
z
" id="DejaVuSans-101"/>
      <path d="M 14.796875 27.296875 
Q 14.796875 17.390625 18.875 11.75 
Q 22.953125 6.109375 30.078125 6.109375 
Q 37.203125 6.109375 41.296875 11.75 
Q 45.40625 17.390625 45.40625 27.296875 
Q 45.40625 37.203125 41.296875 42.84375 
Q 37.203125 48.484375 30.078125 48.484375 
Q 22.953125 48.484375 18.875 42.84375 
Q 14.796875 37.203125 14.796875 27.296875 
z
M 45.40625 8.203125 
Q 42.578125 3.328125 38.25 0.953125 
Q 33.9375 -1.421875 27.875 -1.421875 
Q 17.96875 -1.421875 11.734375 6.484375 
Q 5.515625 14.40625 5.515625 27.296875 
Q 5.515625 40.1875 11.734375 48.09375 
Q 17.96875 56 27.875 56 
Q 33.9375 56 38.25 53.625 
Q 42.578125 51.265625 45.40625 46.390625 
L 45.40625 54.6875 
L 54.390625 54.6875 
L 54.390625 -20.796875 
L 45.40625 -20.796875 
z
" id="DejaVuSans-113"/>
      <path d="M 8.5 21.578125 
L 8.5 54.6875 
L 17.484375 54.6875 
L 17.484375 21.921875 
Q 17.484375 14.15625 20.5 10.265625 
Q 23.53125 6.390625 29.59375 6.390625 
Q 36.859375 6.390625 41.078125 11.03125 
Q 45.3125 15.671875 45.3125 23.6875 
L 45.3125 54.6875 
L 54.296875 54.6875 
L 54.296875 0 
L 45.3125 0 
L 45.3125 8.40625 
Q 42.046875 3.421875 37.71875 1 
Q 33.40625 -1.421875 27.6875 -1.421875 
Q 18.265625 -1.421875 13.375 4.4375 
Q 8.5 10.296875 8.5 21.578125 
z
M 31.109375 56 
z
" id="DejaVuSans-117"/>
      <path d="M 54.890625 33.015625 
L 54.890625 0 
L 45.90625 0 
L 45.90625 32.71875 
Q 45.90625 40.484375 42.875 44.328125 
Q 39.84375 48.1875 33.796875 48.1875 
Q 26.515625 48.1875 22.3125 43.546875 
Q 18.109375 38.921875 18.109375 30.90625 
L 18.109375 0 
L 9.078125 0 
L 9.078125 54.6875 
L 18.109375 54.6875 
L 18.109375 46.1875 
Q 21.34375 51.125 25.703125 53.5625 
Q 30.078125 56 35.796875 56 
Q 45.21875 56 50.046875 50.171875 
Q 54.890625 44.34375 54.890625 33.015625 
z
" id="DejaVuSans-110"/>
      <path d="M 48.78125 52.59375 
L 48.78125 44.1875 
Q 44.96875 46.296875 41.140625 47.34375 
Q 37.3125 48.390625 33.40625 48.390625 
Q 24.65625 48.390625 19.8125 42.84375 
Q 14.984375 37.3125 14.984375 27.296875 
Q 14.984375 17.28125 19.8125 11.734375 
Q 24.65625 6.203125 33.40625 6.203125 
Q 37.3125 6.203125 41.140625 7.25 
Q 44.96875 8.296875 48.78125 10.40625 
L 48.78125 2.09375 
Q 45.015625 0.34375 40.984375 -0.53125 
Q 36.96875 -1.421875 32.421875 -1.421875 
Q 20.0625 -1.421875 12.78125 6.34375 
Q 5.515625 14.109375 5.515625 27.296875 
Q 5.515625 40.671875 12.859375 48.328125 
Q 20.21875 56 33.015625 56 
Q 37.15625 56 41.109375 55.140625 
Q 45.0625 54.296875 48.78125 52.59375 
z
" id="DejaVuSans-99"/>
      <path d="M 32.171875 -5.078125 
Q 28.375 -14.84375 24.75 -17.8125 
Q 21.140625 -20.796875 15.09375 -20.796875 
L 7.90625 -20.796875 
L 7.90625 -13.28125 
L 13.1875 -13.28125 
Q 16.890625 -13.28125 18.9375 -11.515625 
Q 21 -9.765625 23.484375 -3.21875 
L 25.09375 0.875 
L 2.984375 54.6875 
L 12.5 54.6875 
L 29.59375 11.921875 
L 46.6875 54.6875 
L 56.203125 54.6875 
z
" id="DejaVuSans-121"/>
      <path id="DejaVuSans-32"/>
      <path d="M 8.59375 75.984375 
L 29.296875 75.984375 
L 29.296875 69 
L 17.578125 69 
L 17.578125 -6.203125 
L 29.296875 -6.203125 
L 29.296875 -13.1875 
L 8.59375 -13.1875 
z
" id="DejaVuSans-91"/>
      <path d="M 9.8125 72.90625 
L 19.671875 72.90625 
L 19.671875 43.015625 
L 55.515625 43.015625 
L 55.515625 72.90625 
L 65.375 72.90625 
L 65.375 0 
L 55.515625 0 
L 55.515625 34.71875 
L 19.671875 34.71875 
L 19.671875 0 
L 9.8125 0 
z
" id="DejaVuSans-72"/>
      <path d="M 5.515625 54.6875 
L 48.1875 54.6875 
L 48.1875 46.484375 
L 14.40625 7.171875 
L 48.1875 7.171875 
L 48.1875 0 
L 4.296875 0 
L 4.296875 8.203125 
L 38.09375 47.515625 
L 5.515625 47.515625 
z
" id="DejaVuSans-122"/>
      <path d="M 30.421875 75.984375 
L 30.421875 -13.1875 
L 9.71875 -13.1875 
L 9.71875 -6.203125 
L 21.390625 -6.203125 
L 21.390625 69 
L 9.71875 69 
L 9.71875 75.984375 
z
" id="DejaVuSans-93"/>
     </defs>
     <g transform="translate(198.455312 348.676562)scale(0.1 -0.1)">
      <use xlink:href="#DejaVuSans-70"/>
      <use x="50.269531" xlink:href="#DejaVuSans-114"/>
      <use x="89.132812" xlink:href="#DejaVuSans-101"/>
      <use x="150.65625" xlink:href="#DejaVuSans-113"/>
      <use x="214.132812" xlink:href="#DejaVuSans-117"/>
      <use x="277.511719" xlink:href="#DejaVuSans-101"/>
      <use x="339.035156" xlink:href="#DejaVuSans-110"/>
      <use x="402.414062" xlink:href="#DejaVuSans-99"/>
      <use x="457.394531" xlink:href="#DejaVuSans-121"/>
      <use x="516.574219" xlink:href="#DejaVuSans-32"/>
      <use x="548.361328" xlink:href="#DejaVuSans-91"/>
      <use x="587.375" xlink:href="#DejaVuSans-72"/>
      <use x="662.570312" xlink:href="#DejaVuSans-122"/>
      <use x="715.060547" xlink:href="#DejaVuSans-93"/>
     </g>
    </g>
   </g>
   <g id="matplotlib.axis_2">
    <g id="ytick_1">
     <g id="line2d_13">
      <path clip-path="url(#p1e7b185822)" d="M 57.6 307.829123 
L 414.72 307.829123 
" style="fill:none;stroke:#c0c0c0;stroke-dasharray:0.8,1.32;stroke-dashoffset:0;stroke-width:0.8;"/>
     </g>
     <g id="line2d_14">
      <defs>
       <path d="M 0 0 
L -3.5 0 
" id="mf1e9b1c95d" style="stroke:#000000;stroke-width:0.8;"/>
      </defs>
      <g>
       <use style="stroke:#000000;stroke-width:0.8;" x="57.6" xlink:href="#mf1e9b1c95d" y="307.829123"/>
      </g>
     </g>
     <g id="text_8">
      <!-- 0.0000 -->
      <defs>
       <path d="M 10.6875 12.40625 
L 21 12.40625 
L 21 0 
L 10.6875 0 
z
" id="DejaVuSans-46"/>
      </defs>
      <g transform="translate(15.609375 311.628342)scale(0.1 -0.1)">
       <use xlink:href="#DejaVuSans-48"/>
       <use x="63.623047" xlink:href="#DejaVuSans-46"/>
       <use x="95.410156" xlink:href="#DejaVuSans-48"/>
       <use x="159.033203" xlink:href="#DejaVuSans-48"/>
       <use x="222.65625" xlink:href="#DejaVuSans-48"/>
       <use x="286.279297" xlink:href="#DejaVuSans-48"/>
      </g>
     </g>
    </g>
    <g id="ytick_2">
     <g id="line2d_15">
      <path clip-path="url(#p1e7b185822)" d="M 57.6 275.943692 
L 414.72 275.943692 
" style="fill:none;stroke:#c0c0c0;stroke-dasharray:0.8,1.32;stroke-dashoffset:0;stroke-width:0.8;"/>
     </g>
     <g id="line2d_16">
      <g>
       <use style="stroke:#000000;stroke-width:0.8;" x="57.6" xlink:href="#mf1e9b1c95d" y="275.943692"/>
      </g>
     </g>
     <g id="text_9">
      <!-- 0.0025 -->
      <g transform="translate(15.609375 279.742911)scale(0.1 -0.1)">
       <use xlink:href="#DejaVuSans-48"/>
       <use x="63.623047" xlink:href="#DejaVuSans-46"/>
       <use x="95.410156" xlink:href="#DejaVuSans-48"/>
       <use x="159.033203" xlink:href="#DejaVuSans-48"/>
       <use x="222.65625" xlink:href="#DejaVuSans-50"/>
       <use x="286.279297" xlink:href="#DejaVuSans-53"/>
      </g>
     </g>
    </g>
    <g id="ytick_3">
     <g id="line2d_17">
      <path clip-path="url(#p1e7b185822)" d="M 57.6 244.058261 
L 414.72 244.058261 
" style="fill:none;stroke:#c0c0c0;stroke-dasharray:0.8,1.32;stroke-dashoffset:0;stroke-width:0.8;"/>
     </g>
     <g id="line2d_18">
      <g>
       <use style="stroke:#000000;stroke-width:0.8;" x="57.6" xlink:href="#mf1e9b1c95d" y="244.058261"/>
      </g>
     </g>
     <g id="text_10">
      <!-- 0.0050 -->
      <g transform="translate(15.609375 247.85748)scale(0.1 -0.1)">
       <use xlink:href="#DejaVuSans-48"/>
       <use x="63.623047" xlink:href="#DejaVuSans-46"/>
       <use x="95.410156" xlink:href="#DejaVuSans-48"/>
       <use x="159.033203" xlink:href="#DejaVuSans-48"/>
       <use x="222.65625" xlink:href="#DejaVuSans-53"/>
       <use x="286.279297" xlink:href="#DejaVuSans-48"/>
      </g>
     </g>
    </g>
    <g id="ytick_4">
     <g id="line2d_19">
      <path clip-path="url(#p1e7b185822)" d="M 57.6 212.172831 
L 414.72 212.172831 
" style="fill:none;stroke:#c0c0c0;stroke-dasharray:0.8,1.32;stroke-dashoffset:0;stroke-width:0.8;"/>
     </g>
     <g id="line2d_20">
      <g>
       <use style="stroke:#000000;stroke-width:0.8;" x="57.6" xlink:href="#mf1e9b1c95d" y="212.172831"/>
      </g>
     </g>
     <g id="text_11">
      <!-- 0.0075 -->
      <defs>
       <path d="M 8.203125 72.90625 
L 55.078125 72.90625 
L 55.078125 68.703125 
L 28.609375 0 
L 18.3125 0 
L 43.21875 64.59375 
L 8.203125 64.59375 
z
" id="DejaVuSans-55"/>
      </defs>
      <g transform="translate(15.609375 215.972049)scale(0.1 -0.1)">
       <use xlink:href="#DejaVuSans-48"/>
       <use x="63.623047" xlink:href="#DejaVuSans-46"/>
       <use x="95.410156" xlink:href="#DejaVuSans-48"/>
       <use x="159.033203" xlink:href="#DejaVuSans-48"/>
       <use x="222.65625" xlink:href="#DejaVuSans-55"/>
       <use x="286.279297" xlink:href="#DejaVuSans-53"/>
      </g>
     </g>
    </g>
    <g id="ytick_5">
     <g id="line2d_21">
      <path clip-path="url(#p1e7b185822)" d="M 57.6 180.2874 
L 414.72 180.2874 
" style="fill:none;stroke:#c0c0c0;stroke-dasharray:0.8,1.32;stroke-dashoffset:0;stroke-width:0.8;"/>
     </g>
     <g id="line2d_22">
      <g>
       <use style="stroke:#000000;stroke-width:0.8;" x="57.6" xlink:href="#mf1e9b1c95d" y="180.2874"/>
      </g>
     </g>
     <g id="text_12">
      <!-- 0.0100 -->
      <g transform="translate(15.609375 184.086618)scale(0.1 -0.1)">
       <use xlink:href="#DejaVuSans-48"/>
       <use x="63.623047" xlink:href="#DejaVuSans-46"/>
       <use x="95.410156" xlink:href="#DejaVuSans-48"/>
       <use x="159.033203" xlink:href="#DejaVuSans-49"/>
       <use x="222.65625" xlink:href="#DejaVuSans-48"/>
       <use x="286.279297" xlink:href="#DejaVuSans-48"/>
      </g>
     </g>
    </g>
    <g id="ytick_6">
     <g id="line2d_23">
      <path clip-path="url(#p1e7b185822)" d="M 57.6 148.401969 
L 414.72 148.401969 
" style="fill:none;stroke:#c0c0c0;stroke-dasharray:0.8,1.32;stroke-dashoffset:0;stroke-width:0.8;"/>
     </g>
     <g id="line2d_24">
      <g>
       <use style="stroke:#000000;stroke-width:0.8;" x="57.6" xlink:href="#mf1e9b1c95d" y="148.401969"/>
      </g>
     </g>
     <g id="text_13">
      <!-- 0.0125 -->
      <g transform="translate(15.609375 152.201188)scale(0.1 -0.1)">
       <use xlink:href="#DejaVuSans-48"/>
       <use x="63.623047" xlink:href="#DejaVuSans-46"/>
       <use x="95.410156" xlink:href="#DejaVuSans-48"/>
       <use x="159.033203" xlink:href="#DejaVuSans-49"/>
       <use x="222.65625" xlink:href="#DejaVuSans-50"/>
       <use x="286.279297" xlink:href="#DejaVuSans-53"/>
      </g>
     </g>
    </g>
    <g id="ytick_7">
     <g id="line2d_25">
      <path clip-path="url(#p1e7b185822)" d="M 57.6 116.516538 
L 414.72 116.516538 
" style="fill:none;stroke:#c0c0c0;stroke-dasharray:0.8,1.32;stroke-dashoffset:0;stroke-width:0.8;"/>
     </g>
     <g id="line2d_26">
      <g>
       <use style="stroke:#000000;stroke-width:0.8;" x="57.6" xlink:href="#mf1e9b1c95d" y="116.516538"/>
      </g>
     </g>
     <g id="text_14">
      <!-- 0.0150 -->
      <g transform="translate(15.609375 120.315757)scale(0.1 -0.1)">
       <use xlink:href="#DejaVuSans-48"/>
       <use x="63.623047" xlink:href="#DejaVuSans-46"/>
       <use x="95.410156" xlink:href="#DejaVuSans-48"/>
       <use x="159.033203" xlink:href="#DejaVuSans-49"/>
       <use x="222.65625" xlink:href="#DejaVuSans-53"/>
       <use x="286.279297" xlink:href="#DejaVuSans-48"/>
      </g>
     </g>
    </g>
    <g id="ytick_8">
     <g id="line2d_27">
      <path clip-path="url(#p1e7b185822)" d="M 57.6 84.631107 
L 414.72 84.631107 
" style="fill:none;stroke:#c0c0c0;stroke-dasharray:0.8,1.32;stroke-dashoffset:0;stroke-width:0.8;"/>
     </g>
     <g id="line2d_28">
      <g>
       <use style="stroke:#000000;stroke-width:0.8;" x="57.6" xlink:href="#mf1e9b1c95d" y="84.631107"/>
      </g>
     </g>
     <g id="text_15">
      <!-- 0.0175 -->
      <g transform="translate(15.609375 88.430326)scale(0.1 -0.1)">
       <use xlink:href="#DejaVuSans-48"/>
       <use x="63.623047" xlink:href="#DejaVuSans-46"/>
       <use x="95.410156" xlink:href="#DejaVuSans-48"/>
       <use x="159.033203" xlink:href="#DejaVuSans-49"/>
       <use x="222.65625" xlink:href="#DejaVuSans-55"/>
       <use x="286.279297" xlink:href="#DejaVuSans-53"/>
      </g>
     </g>
    </g>
    <g id="ytick_9">
     <g id="line2d_29">
      <path clip-path="url(#p1e7b185822)" d="M 57.6 52.745676 
L 414.72 52.745676 
" style="fill:none;stroke:#c0c0c0;stroke-dasharray:0.8,1.32;stroke-dashoffset:0;stroke-width:0.8;"/>
     </g>
     <g id="line2d_30">
      <g>
       <use style="stroke:#000000;stroke-width:0.8;" x="57.6" xlink:href="#mf1e9b1c95d" y="52.745676"/>
      </g>
     </g>
     <g id="text_16">
      <!-- 0.0200 -->
      <g transform="translate(15.609375 56.544895)scale(0.1 -0.1)">
       <use xlink:href="#DejaVuSans-48"/>
       <use x="63.623047" xlink:href="#DejaVuSans-46"/>
       <use x="95.410156" xlink:href="#DejaVuSans-48"/>
       <use x="159.033203" xlink:href="#DejaVuSans-50"/>
       <use x="222.65625" xlink:href="#DejaVuSans-48"/>
       <use x="286.279297" xlink:href="#DejaVuSans-48"/>
      </g>
     </g>
    </g>
    <g id="text_17">
     <!-- Amplitude [p.u.] -->
     <defs>
      <path d="M 34.1875 63.1875 
L 20.796875 26.90625 
L 47.609375 26.90625 
z
M 28.609375 72.90625 
L 39.796875 72.90625 
L 67.578125 0 
L 57.328125 0 
L 50.6875 18.703125 
L 17.828125 18.703125 
L 11.1875 0 
L 0.78125 0 
z
" id="DejaVuSans-65"/>
      <path d="M 52 44.1875 
Q 55.375 50.25 60.0625 53.125 
Q 64.75 56 71.09375 56 
Q 79.640625 56 84.28125 50.015625 
Q 88.921875 44.046875 88.921875 33.015625 
L 88.921875 0 
L 79.890625 0 
L 79.890625 32.71875 
Q 79.890625 40.578125 77.09375 44.375 
Q 74.3125 48.1875 68.609375 48.1875 
Q 61.625 48.1875 57.5625 43.546875 
Q 53.515625 38.921875 53.515625 30.90625 
L 53.515625 0 
L 44.484375 0 
L 44.484375 32.71875 
Q 44.484375 40.625 41.703125 44.40625 
Q 38.921875 48.1875 33.109375 48.1875 
Q 26.21875 48.1875 22.15625 43.53125 
Q 18.109375 38.875 18.109375 30.90625 
L 18.109375 0 
L 9.078125 0 
L 9.078125 54.6875 
L 18.109375 54.6875 
L 18.109375 46.1875 
Q 21.1875 51.21875 25.484375 53.609375 
Q 29.78125 56 35.6875 56 
Q 41.65625 56 45.828125 52.96875 
Q 50 49.953125 52 44.1875 
z
" id="DejaVuSans-109"/>
      <path d="M 18.109375 8.203125 
L 18.109375 -20.796875 
L 9.078125 -20.796875 
L 9.078125 54.6875 
L 18.109375 54.6875 
L 18.109375 46.390625 
Q 20.953125 51.265625 25.265625 53.625 
Q 29.59375 56 35.59375 56 
Q 45.5625 56 51.78125 48.09375 
Q 58.015625 40.1875 58.015625 27.296875 
Q 58.015625 14.40625 51.78125 6.484375 
Q 45.5625 -1.421875 35.59375 -1.421875 
Q 29.59375 -1.421875 25.265625 0.953125 
Q 20.953125 3.328125 18.109375 8.203125 
z
M 48.6875 27.296875 
Q 48.6875 37.203125 44.609375 42.84375 
Q 40.53125 48.484375 33.40625 48.484375 
Q 26.265625 48.484375 22.1875 42.84375 
Q 18.109375 37.203125 18.109375 27.296875 
Q 18.109375 17.390625 22.1875 11.75 
Q 26.265625 6.109375 33.40625 6.109375 
Q 40.53125 6.109375 44.609375 11.75 
Q 48.6875 17.390625 48.6875 27.296875 
z
" id="DejaVuSans-112"/>
      <path d="M 9.421875 75.984375 
L 18.40625 75.984375 
L 18.40625 0 
L 9.421875 0 
z
" id="DejaVuSans-108"/>
      <path d="M 9.421875 54.6875 
L 18.40625 54.6875 
L 18.40625 0 
L 9.421875 0 
z
M 9.421875 75.984375 
L 18.40625 75.984375 
L 18.40625 64.59375 
L 9.421875 64.59375 
z
" id="DejaVuSans-105"/>
      <path d="M 18.3125 70.21875 
L 18.3125 54.6875 
L 36.8125 54.6875 
L 36.8125 47.703125 
L 18.3125 47.703125 
L 18.3125 18.015625 
Q 18.3125 11.328125 20.140625 9.421875 
Q 21.96875 7.515625 27.59375 7.515625 
L 36.8125 7.515625 
L 36.8125 0 
L 27.59375 0 
Q 17.1875 0 13.234375 3.875 
Q 9.28125 7.765625 9.28125 18.015625 
L 9.28125 47.703125 
L 2.6875 47.703125 
L 2.6875 54.6875 
L 9.28125 54.6875 
L 9.28125 70.21875 
z
" id="DejaVuSans-116"/>
      <path d="M 45.40625 46.390625 
L 45.40625 75.984375 
L 54.390625 75.984375 
L 54.390625 0 
L 45.40625 0 
L 45.40625 8.203125 
Q 42.578125 3.328125 38.25 0.953125 
Q 33.9375 -1.421875 27.875 -1.421875 
Q 17.96875 -1.421875 11.734375 6.484375 
Q 5.515625 14.40625 5.515625 27.296875 
Q 5.515625 40.1875 11.734375 48.09375 
Q 17.96875 56 27.875 56 
Q 33.9375 56 38.25 53.625 
Q 42.578125 51.265625 45.40625 46.390625 
z
M 14.796875 27.296875 
Q 14.796875 17.390625 18.875 11.75 
Q 22.953125 6.109375 30.078125 6.109375 
Q 37.203125 6.109375 41.296875 11.75 
Q 45.40625 17.390625 45.40625 27.296875 
Q 45.40625 37.203125 41.296875 42.84375 
Q 37.203125 48.484375 30.078125 48.484375 
Q 22.953125 48.484375 18.875 42.84375 
Q 14.796875 37.203125 14.796875 27.296875 
z
" id="DejaVuSans-100"/>
     </defs>
     <g transform="translate(9.529687 222.434375)rotate(-90)scale(0.1 -0.1)">
      <use xlink:href="#DejaVuSans-65"/>
      <use x="68.408203" xlink:href="#DejaVuSans-109"/>
      <use x="165.820312" xlink:href="#DejaVuSans-112"/>
      <use x="229.296875" xlink:href="#DejaVuSans-108"/>
      <use x="257.080078" xlink:href="#DejaVuSans-105"/>
      <use x="284.863281" xlink:href="#DejaVuSans-116"/>
      <use x="324.072266" xlink:href="#DejaVuSans-117"/>
      <use x="387.451172" xlink:href="#DejaVuSans-100"/>
      <use x="450.927734" xlink:href="#DejaVuSans-101"/>
      <use x="512.451172" xlink:href="#DejaVuSans-32"/>
      <use x="544.238281" xlink:href="#DejaVuSans-91"/>
      <use x="583.251953" xlink:href="#DejaVuSans-112"/>
      <use x="646.728516" xlink:href="#DejaVuSans-46"/>
      <use x="678.515625" xlink:href="#DejaVuSans-117"/>
      <use x="741.894531" xlink:href="#DejaVuSans-46"/>
      <use x="773.681641" xlink:href="#DejaVuSans-93"/>
     </g>
    </g>
   </g>
   <g id="line2d_31">
    <path clip-path="url(#p1e7b185822)" d="M 73.832727 250.966743 
L 74.483338 305.986018 
L 75.133948 300.060045 
L 75.784558 297.343471 
L 76.435169 305.448728 
L 77.085779 296.649246 
L 77.736389 303.741364 
L 78.386999 304.716911 
L 79.03761 291.793401 
L 79.68822 302.877873 
L 80.33883 303.227943 
L 80.989441 304.077894 
L 81.640051 302.180042 
L 82.290661 292.503407 
L 83.591882 293.988073 
L 84.242492 110.748888 
L 84.893103 301.349714 
L 85.543713 301.556318 
L 86.194323 297.260888 
L 86.844934 302.779697 
L 87.495544 297.119192 
L 88.146154 304.180649 
L 88.796764 302.355913 
L 89.447375 292.636577 
L 90.097985 303.486945 
L 90.748595 297.386976 
L 91.399206 289.651262 
L 92.049816 303.032257 
L 92.700426 305.891036 
L 93.351037 297.017635 
L 94.001647 298.42383 
L 94.652257 241.321879 
L 95.302868 304.972362 
L 95.953478 304.620259 
L 96.604088 301.095271 
L 97.254698 302.676426 
L 97.905309 293.279195 
L 98.555919 302.684659 
L 99.206529 303.005482 
L 99.85714 283.88095 
L 100.50775 302.790957 
L 101.808971 288.372733 
L 102.459581 297.777586 
L 103.110191 284.648766 
L 103.760802 305.545531 
L 104.411412 304.105766 
L 105.062022 273.769857 
L 105.712633 304.44606 
L 106.363243 302.836109 
L 107.013853 297.055714 
L 107.664463 300.231843 
L 108.315074 289.328286 
L 108.965684 304.371182 
L 109.616294 306.480198 
L 110.266905 278.954622 
L 110.917515 304.885294 
L 111.568125 299.725089 
L 112.218736 289.059527 
L 112.869346 293.749513 
L 113.519956 293.407711 
L 114.170567 293.927762 
L 114.821177 283.87953 
L 115.471787 210.98585 
L 116.122398 293.462251 
L 116.773008 298.334737 
L 117.423618 294.096301 
L 118.074228 295.861094 
L 118.724839 283.534728 
L 119.375449 297.437434 
L 120.026059 301.277996 
L 120.67667 297.266429 
L 121.32728 303.278588 
L 121.97789 300.429783 
L 122.628501 295.429178 
L 123.279111 299.305691 
L 123.929721 294.900256 
L 124.580332 298.288791 
L 125.230942 298.261027 
L 125.881552 296.688752 
L 126.532163 301.320987 
L 127.182773 295.806035 
L 127.833383 300.401747 
L 128.483993 299.894478 
L 129.134604 286.712338 
L 129.785214 301.371634 
L 130.435824 295.929739 
L 131.086435 273.094788 
L 131.737045 305.476529 
L 132.387655 297.781906 
L 133.038266 305.347647 
L 133.688876 300.79747 
L 134.339486 288.032826 
L 134.990097 301.860284 
L 135.640707 298.638129 
L 136.291317 270.430284 
L 136.941927 301.416847 
L 137.592538 299.109616 
L 138.243148 296.234433 
L 138.893758 303.754167 
L 139.544369 300.209697 
L 140.194979 301.193773 
L 140.845589 299.826741 
L 141.4962 291.837476 
L 142.14681 301.959048 
L 142.79742 298.503586 
L 143.448031 301.476309 
L 144.098641 303.200518 
L 144.749251 282.95885 
L 145.399862 304.308548 
L 146.050472 301.511588 
L 146.701082 293.28299 
L 147.351692 303.733919 
L 148.002303 301.911965 
L 148.652913 300.495546 
L 149.303523 302.400693 
L 149.954134 295.310304 
L 150.604744 302.692623 
L 151.255354 302.18829 
L 151.905965 299.524439 
L 152.556575 304.174551 
L 153.207185 301.559829 
L 153.857796 301.786732 
L 154.508406 306.667348 
L 155.159016 267.417139 
L 155.809627 304.020234 
L 156.460237 297.613882 
L 157.110847 288.579177 
L 157.761457 303.2253 
L 158.412068 298.565243 
L 159.062678 303.52108 
L 159.713288 299.772131 
L 161.014509 297.492958 
L 161.665119 293.597325 
L 162.31573 285.725765 
L 162.96634 298.155801 
L 163.61695 279.281216 
L 164.267561 295.119831 
L 164.918171 301.689522 
L 165.568781 300.668415 
L 166.219392 306.003469 
L 166.870002 307.647621 
L 167.520612 301.515285 
L 168.171222 305.246227 
L 168.821833 298.27642 
L 169.472443 305.61989 
L 170.123053 303.577985 
L 170.773664 303.775979 
L 171.424274 301.948252 
L 172.074884 306.884145 
L 173.376105 298.58482 
L 174.026715 288.636013 
L 174.677326 299.381461 
L 175.327936 305.183973 
L 175.978546 302.784819 
L 176.629156 304.326204 
L 177.279767 301.19937 
L 177.930377 297.372618 
L 178.580987 303.870243 
L 179.231598 300.044281 
L 179.882208 307.146066 
L 180.532818 302.213926 
L 181.183429 295.69822 
L 181.834039 299.390635 
L 182.484649 296.992334 
L 183.13526 290.751875 
L 183.78587 303.170227 
L 185.087091 301.660963 
L 185.737701 304.520277 
L 186.388311 298.227417 
L 187.038921 300.657265 
L 187.689532 297.402416 
L 188.340142 292.491442 
L 188.990752 303.887162 
L 189.641363 296.650336 
L 190.291973 306.22639 
L 190.942583 305.542581 
L 191.593194 304.200749 
L 192.243804 306.668397 
L 192.894414 304.123033 
L 193.545025 300.877476 
L 194.195635 307.175786 
L 194.846245 302.668648 
L 195.496856 304.10098 
L 196.147466 303.999703 
L 196.798076 303.130016 
L 197.448686 303.755173 
L 198.099297 302.074572 
L 198.749907 306.092934 
L 199.400517 302.452483 
L 200.051128 305.585875 
L 200.701738 304.433986 
L 201.352348 300.224579 
L 202.002959 304.752762 
L 203.304179 284.560177 
L 203.95479 288.904863 
L 204.6054 304.151478 
L 205.25601 304.018516 
L 205.906621 304.874861 
L 206.557231 302.925123 
L 207.207841 303.051702 
L 207.858451 302.966356 
L 208.509062 304.864513 
L 209.159672 302.111 
L 209.810282 304.844906 
L 210.460893 303.440358 
L 211.111503 307.027943 
L 211.762113 302.626483 
L 212.412724 302.553873 
L 213.063334 302.840046 
L 213.713944 304.353152 
L 214.364555 300.361043 
L 215.015165 305.907561 
L 215.665775 306.147755 
L 216.316385 305.594674 
L 216.966996 305.316749 
L 217.617606 304.665883 
L 218.268216 306.365109 
L 218.918827 306.441216 
L 219.569437 304.559251 
L 220.220047 305.869734 
L 220.870658 305.667337 
L 221.521268 306.599189 
L 222.171878 306.782051 
L 222.822489 305.702739 
L 224.123709 301.893242 
L 224.77432 304.852005 
L 225.42493 304.941852 
L 226.07554 306.556374 
L 226.72615 306.972796 
L 227.376761 306.401084 
L 228.027371 304.299437 
L 228.677981 305.843076 
L 229.328592 303.737412 
L 229.979202 302.67576 
L 230.629812 306.160274 
L 231.280423 305.173076 
L 231.931033 306.80061 
L 232.581643 305.379748 
L 233.232254 305.323942 
L 233.882864 304.559722 
L 234.533474 299.003544 
L 235.834695 306.814821 
L 236.485305 305.269446 
L 237.135915 306.88607 
L 237.786526 304.126025 
L 238.437136 303.755742 
L 239.087746 305.644232 
L 239.738357 304.428341 
L 240.388967 307.131827 
L 241.039577 306.718962 
L 241.690188 306.889796 
L 242.340798 304.44243 
L 242.991408 305.294764 
L 243.642019 304.154954 
L 244.292629 306.384956 
L 244.943239 304.974961 
L 245.59385 306.860116 
L 246.24446 306.150067 
L 246.89507 304.950196 
L 247.54568 306.402684 
L 248.846901 302.965139 
L 249.497511 305.270397 
L 250.148122 305.693884 
L 250.798732 303.840947 
L 251.449342 305.593541 
L 252.750563 303.176598 
L 253.401173 303.434567 
L 254.051784 306.203073 
L 254.702394 305.472144 
L 255.353004 298.982684 
L 256.654225 306.870312 
L 257.304835 306.205771 
L 257.955445 305.07888 
L 258.606056 305.936003 
L 259.256666 303.743097 
L 259.907276 306.353116 
L 260.557887 305.526485 
L 261.208497 304.014097 
L 261.859107 305.940701 
L 262.509718 305.207989 
L 263.160328 306.554775 
L 263.810938 305.481878 
L 264.461549 305.883338 
L 265.112159 307.533004 
L 265.762769 301.005 
L 266.413379 302.814594 
L 267.06399 307.63391 
L 267.7146 303.912182 
L 268.36521 304.45172 
L 269.015821 302.602714 
L 269.666431 307.054536 
L 270.317041 302.546906 
L 270.967652 306.119138 
L 271.618262 305.689201 
L 272.268872 307.282299 
L 272.919483 305.309409 
L 273.570093 304.729148 
L 274.220703 303.347152 
L 274.871314 302.681355 
L 275.521924 305.660151 
L 276.172534 306.374169 
L 277.473755 303.785798 
L 278.124365 306.28833 
L 278.774975 306.406919 
L 279.425586 303.964161 
L 280.076196 302.474168 
L 280.726806 303.80565 
L 281.377417 305.56509 
L 282.028027 305.80052 
L 282.678637 300.075208 
L 283.329248 302.05383 
L 283.979858 299.332175 
L 284.630468 303.737718 
L 285.281079 303.85412 
L 285.931689 302.514448 
L 286.582299 295.183446 
L 287.232909 301.728239 
L 287.88352 304.921052 
L 288.53413 303.166711 
L 289.18474 304.754623 
L 289.835351 305.969123 
L 290.485961 298.405389 
L 291.136571 306.526646 
L 291.787182 304.05486 
L 292.437792 303.806649 
L 293.088402 307.36669 
L 293.739013 300.869661 
L 294.389623 303.595293 
L 295.040233 305.177001 
L 295.690844 305.122787 
L 296.341454 306.699662 
L 296.992064 302.769869 
L 297.642674 303.743314 
L 298.293285 307.105055 
L 298.943895 301.894095 
L 299.594505 305.894282 
L 300.245116 305.10121 
L 300.895726 304.782194 
L 301.546336 302.68179 
L 302.196947 300.034118 
L 302.847557 303.60613 
L 303.498167 303.506525 
L 304.148778 302.647237 
L 304.799388 303.508284 
L 305.449998 305.103649 
L 306.100608 301.459429 
L 306.751219 303.064768 
L 307.401829 298.886599 
L 308.052439 303.520881 
L 308.70305 302.242495 
L 309.35366 304.713227 
L 310.00427 301.733151 
L 310.654881 307.142254 
L 311.305491 306.13868 
L 311.956101 306.606021 
L 312.606712 305.428942 
L 313.257322 299.76276 
L 313.907932 306.628657 
L 314.558543 305.836526 
L 315.209153 306.387213 
L 315.859763 304.708955 
L 316.510373 303.678186 
L 317.160984 303.994264 
L 318.462204 301.329537 
L 319.112815 306.988717 
L 319.763425 305.06593 
L 320.414035 301.922904 
L 321.064646 299.918353 
L 321.715256 304.210627 
L 322.365866 306.191052 
L 323.016477 301.298295 
L 323.667087 303.648275 
L 324.317697 305.211677 
L 324.968308 305.936715 
L 325.618918 302.37494 
L 326.269528 297.601817 
L 326.920138 305.657059 
L 327.570749 305.276805 
L 328.221359 302.760641 
L 328.871969 305.831201 
L 329.52258 304.260996 
L 330.17319 303.760628 
L 330.8238 303.047428 
L 331.474411 306.107978 
L 332.125021 303.916434 
L 332.775631 306.998171 
L 333.426242 299.044615 
L 334.076852 303.827747 
L 334.727462 299.661855 
L 335.378073 301.077111 
L 336.028683 304.592323 
L 336.679293 301.058881 
L 337.329903 305.955533 
L 337.980514 306.132232 
L 338.631124 303.848051 
L 339.281734 304.320148 
L 339.932345 306.302232 
L 340.582955 303.854071 
L 341.233565 303.129663 
L 341.884176 305.232088 
L 342.534786 303.383516 
L 343.836007 304.856324 
L 344.486617 299.29682 
L 345.137227 304.919414 
L 345.787837 304.016845 
L 346.438448 305.283468 
L 347.089058 305.048224 
L 347.739668 304.01198 
L 348.390279 304.539233 
L 349.040889 303.926881 
L 349.691499 303.805969 
L 350.34211 305.85356 
L 350.99272 304.195023 
L 351.64333 304.266678 
L 352.293941 303.159899 
L 352.944551 305.577677 
L 353.595161 303.251659 
L 354.245772 301.895061 
L 354.896382 307.198709 
L 355.546992 307.580993 
L 356.197602 303.230128 
L 356.848213 302.892576 
L 357.498823 303.587963 
L 358.149433 306.546686 
L 358.800044 305.316762 
L 359.450654 300.490746 
L 360.101264 306.785533 
L 360.751875 301.60092 
L 361.402485 304.852047 
L 362.053095 306.069779 
L 362.703706 306.548459 
L 363.354316 306.702343 
L 364.004926 306.057818 
L 364.655537 305.058354 
L 365.306147 307.733647 
L 365.956757 304.40956 
L 366.607367 304.559904 
L 367.257978 305.44106 
L 367.908588 306.005802 
L 368.559198 303.924978 
L 369.209809 307.224731 
L 369.860419 306.834742 
L 370.511029 306.277553 
L 371.16164 304.077997 
L 371.81225 304.036008 
L 372.46286 304.160248 
L 373.113471 305.598657 
L 373.764081 300.438624 
L 374.414691 305.777485 
L 375.065302 298.304564 
L 375.715912 305.673958 
L 376.366522 302.701249 
L 377.017132 306.208956 
L 377.667743 302.862707 
L 378.318353 304.1561 
L 378.968963 306.306821 
L 379.619574 306.543594 
L 380.270184 303.516439 
L 380.920794 306.699329 
L 381.571405 307.00936 
L 382.222015 306.106936 
L 382.872625 303.588994 
L 383.523236 304.692365 
L 384.173846 304.76846 
L 384.824456 304.151833 
L 385.475066 304.878182 
L 386.125677 306.331073 
L 386.776287 305.721718 
L 387.426897 305.535779 
L 388.077508 304.169987 
L 388.728118 306.901254 
L 389.378728 304.565333 
L 390.029339 306.299192 
L 390.679949 305.426122 
L 391.330559 306.824267 
L 391.98117 304.725362 
L 393.28239 307.498808 
L 393.933001 304.970718 
L 394.583611 306.807096 
L 395.234221 305.547516 
L 395.884831 306.650894 
L 396.535442 304.348646 
L 397.186052 306.105187 
L 397.836662 305.515631 
L 398.487273 306.128399 
L 398.487273 306.128399 
" style="fill:none;stroke:#9acd32;stroke-linecap:square;stroke-width:0.8;"/>
   </g>
   <g id="line2d_32">
    <path clip-path="url(#p1e7b185822)" d="M 73.832727 305.387019 
L 74.483338 305.331194 
L 75.133948 299.341419 
L 75.784558 295.651968 
L 76.435169 305.168567 
L 77.085779 306.492363 
L 77.736389 302.91854 
L 78.386999 303.964729 
L 79.03761 302.549638 
L 79.68822 302.596938 
L 80.33883 302.132452 
L 80.989441 301.469397 
L 81.640051 299.9715 
L 82.290661 299.036174 
L 82.941272 298.441948 
L 83.591882 295.266626 
L 84.242492 55.8 
L 84.893103 300.495791 
L 85.543713 303.547587 
L 86.194323 302.703673 
L 86.844934 304.366232 
L 87.495544 305.635105 
L 88.146154 305.91372 
L 88.796764 306.421198 
L 89.447375 305.775943 
L 90.097985 306.242095 
L 90.748595 305.89399 
L 91.399206 305.253874 
L 92.700426 302.905228 
L 93.351037 302.687764 
L 94.001647 300.606702 
L 94.652257 231.94388 
L 95.302868 303.438442 
L 95.953478 305.042319 
L 96.604088 304.67888 
L 97.254698 305.322203 
L 97.905309 306.258142 
L 99.206529 306.663541 
L 99.85714 305.807424 
L 100.50775 306.276785 
L 101.15836 305.891271 
L 101.808971 305.198389 
L 102.459581 303.524738 
L 103.110191 302.881415 
L 103.760802 302.031684 
L 104.411412 300.063368 
L 105.062022 259.181924 
L 105.712633 304.729491 
L 106.363243 305.930977 
L 107.013853 305.085723 
L 107.664463 306.217001 
L 108.315074 306.078677 
L 108.965684 307.147921 
L 109.616294 306.95177 
L 110.266905 303.97757 
L 110.917515 303.672392 
L 111.568125 302.084137 
L 112.218736 300.956157 
L 112.869346 296.165172 
L 114.170567 290.795854 
L 114.821177 283.075974 
L 115.471787 188.727845 
L 116.122398 293.449273 
L 116.773008 299.432917 
L 117.423618 296.006147 
L 118.074228 299.503633 
L 118.724839 300.261889 
L 119.375449 300.307036 
L 120.026059 300.942962 
L 120.67667 301.016125 
L 121.32728 303.636047 
L 122.628501 303.584523 
L 123.279111 303.91842 
L 123.929721 305.515719 
L 124.580332 304.443013 
L 125.230942 304.724022 
L 125.881552 304.651528 
L 126.532163 305.20833 
L 127.182773 305.185337 
L 127.833383 305.435811 
L 128.483993 305.197567 
L 129.134604 305.241204 
L 129.785214 305.571762 
L 131.737045 305.579791 
L 132.387655 305.881888 
L 133.038266 305.760444 
L 133.688876 305.970456 
L 134.339486 305.952215 
L 136.291317 306.218574 
L 136.941927 306.106763 
L 138.243148 306.244637 
L 139.544369 306.293422 
L 142.14681 306.359904 
L 143.448031 306.456548 
L 145.399862 306.54512 
L 146.050472 306.529874 
L 146.701082 306.627943 
L 148.002303 306.591052 
L 149.303523 306.64793 
L 151.255354 306.727984 
L 153.207185 306.712851 
L 154.508406 306.777181 
L 156.460237 306.820192 
L 164.267561 306.945167 
L 168.171222 306.978021 
L 181.834039 307.113384 
L 189.641363 307.169518 
L 211.111503 307.280566 
L 218.918827 307.304371 
L 235.184085 307.357463 
L 287.232909 307.451175 
L 343.836007 307.497593 
L 386.776287 307.507773 
L 397.836662 307.508883 
L 398.487273 307.669183 
L 398.487273 307.669183 
" style="fill:none;stroke:#ff8c00;stroke-linecap:square;stroke-width:0.8;"/>
   </g>
   <g id="line2d_33">
    <path clip-path="url(#p1e7b185822)" d="M 73.832727 178.66315 
L 74.483338 305.686877 
L 75.133948 302.736618 
L 75.784558 298.585032 
L 76.435169 296.884423 
L 77.085779 301.752467 
L 77.736389 291.068439 
L 78.386999 293.171642 
L 79.03761 281.563522 
L 79.68822 293.688199 
L 80.33883 291.134279 
L 80.989441 292.74571 
L 81.640051 292.540249 
L 82.290661 273.520656 
L 82.941272 297.985192 
L 83.591882 285.853903 
L 84.242492 263.197946 
L 84.893103 296.742503 
L 85.543713 292.803828 
L 86.194323 306.869591 
L 86.844934 289.68017 
L 87.495544 282.014888 
L 88.146154 303.609646 
L 88.796764 303.585534 
L 90.097985 293.255139 
L 90.748595 294.883803 
L 91.399206 286.478839 
L 92.049816 299.343003 
L 92.700426 305.864086 
L 93.351037 299.947356 
L 94.001647 299.59721 
L 94.652257 299.955453 
L 95.302868 295.066112 
L 95.953478 300.852618 
L 96.604088 305.234487 
L 97.254698 297.28815 
L 97.905309 302.616735 
L 98.555919 302.317538 
L 99.206529 293.39569 
L 100.50775 300.804863 
L 101.15836 297.617273 
L 101.808971 304.799944 
L 102.459581 293.756474 
L 103.110191 301.693029 
L 103.760802 298.317493 
L 104.411412 303.553261 
L 105.062022 294.006048 
L 106.363243 298.564181 
L 107.013853 295.332486 
L 107.664463 305.582782 
L 108.315074 299.385523 
L 108.965684 305.072507 
L 110.266905 297.090605 
L 110.917515 298.813897 
L 111.568125 294.573705 
L 112.218736 297.34284 
L 112.869346 302.041755 
L 113.519956 299.633426 
L 114.170567 300.677259 
L 114.821177 298.030966 
L 115.471787 280.129484 
L 116.122398 301.934837 
L 116.773008 299.796136 
L 117.423618 305.133213 
L 118.074228 301.063085 
L 118.724839 292.11624 
L 119.375449 300.401164 
L 120.026059 303.373246 
L 120.67667 304.190866 
L 121.32728 303.727896 
L 121.97789 306.703134 
L 122.628501 305.163951 
L 123.279111 306.787803 
L 123.929721 299.095363 
L 124.580332 300.272406 
L 125.230942 293.277334 
L 125.881552 302.513547 
L 126.532163 304.53268 
L 127.182773 302.969844 
L 127.833383 305.331218 
L 128.483993 301.300823 
L 129.134604 299.136895 
L 129.785214 305.872765 
L 130.435824 303.799409 
L 131.086435 296.865044 
L 131.737045 302.708841 
L 132.387655 303.267768 
L 133.038266 304.407457 
L 133.688876 303.088223 
L 134.339486 304.765728 
L 134.990097 302.720054 
L 135.640707 303.869032 
L 136.291317 301.167631 
L 136.941927 300.589434 
L 137.592538 306.938904 
L 138.243148 303.150606 
L 138.893758 303.301582 
L 139.544369 302.815844 
L 140.194979 303.2889 
L 140.845589 302.932984 
L 141.4962 300.957661 
L 142.14681 306.266405 
L 142.79742 297.59562 
L 143.448031 305.71495 
L 144.098641 304.661457 
L 144.749251 301.114795 
L 145.399862 301.420323 
L 146.050472 302.961929 
L 146.701082 302.733645 
L 147.351692 304.284891 
L 148.002303 305.141653 
L 148.652913 302.035504 
L 149.303523 302.839447 
L 149.954134 306.931043 
L 150.604744 306.473106 
L 151.255354 307.022278 
L 151.905965 306.697551 
L 152.556575 304.953893 
L 153.207185 307.527211 
L 153.857796 304.496315 
L 154.508406 302.375174 
L 155.159016 294.941372 
L 155.809627 303.000152 
L 156.460237 301.222123 
L 157.110847 306.446461 
L 158.412068 302.14874 
L 159.062678 303.112438 
L 159.713288 304.962217 
L 160.363899 303.077887 
L 161.014509 305.1163 
L 161.665119 302.920352 
L 162.31573 305.499545 
L 162.96634 304.066164 
L 163.61695 303.64084 
L 164.267561 304.964335 
L 164.918171 305.485492 
L 165.568781 303.717293 
L 166.219392 305.481346 
L 166.870002 304.589268 
L 167.520612 306.09459 
L 168.171222 306.337191 
L 168.821833 302.669088 
L 169.472443 305.696755 
L 170.123053 303.593625 
L 170.773664 305.00473 
L 171.424274 307.396472 
L 172.074884 305.319768 
L 172.725495 304.815392 
L 173.376105 306.192439 
L 174.026715 302.353594 
L 174.677326 306.410368 
L 175.978546 305.658691 
L 176.629156 307.517816 
L 177.279767 305.295093 
L 177.930377 305.775575 
L 178.580987 304.818548 
L 179.231598 305.581635 
L 179.882208 302.354996 
L 180.532818 301.290322 
L 181.183429 304.370373 
L 181.834039 306.09679 
L 182.484649 306.176239 
L 183.13526 304.964892 
L 183.78587 306.198814 
L 184.43648 306.791015 
L 185.087091 305.389254 
L 185.737701 304.843812 
L 186.388311 305.120287 
L 187.038921 306.139904 
L 187.689532 303.638072 
L 188.340142 304.255012 
L 188.990752 303.673192 
L 189.641363 305.939678 
L 190.291973 306.450667 
L 190.942583 304.966115 
L 191.593194 307.70691 
L 192.243804 306.014515 
L 192.894414 304.888079 
L 193.545025 307.484195 
L 194.195635 307.062136 
L 194.846245 306.370865 
L 195.496856 307.616446 
L 196.147466 307.007743 
L 196.798076 306.195013 
L 197.448686 303.568207 
L 198.099297 303.884937 
L 198.749907 307.28891 
L 199.400517 305.287729 
L 200.051128 306.983129 
L 200.701738 306.469495 
L 201.352348 305.505788 
L 202.002959 305.322624 
L 202.653569 301.498779 
L 203.95479 306.148893 
L 204.6054 306.221484 
L 205.25601 307.153535 
L 205.906621 306.619081 
L 206.557231 306.24289 
L 207.207841 306.058277 
L 207.858451 306.377206 
L 208.509062 302.207243 
L 209.810282 307.338924 
L 210.460893 306.042777 
L 211.111503 307.156478 
L 211.762113 305.592101 
L 212.412724 307.318749 
L 213.063334 305.839184 
L 214.364555 307.092219 
L 215.015165 306.401638 
L 216.316385 307.479962 
L 216.966996 305.931624 
L 217.617606 305.858979 
L 218.268216 306.899438 
L 218.918827 305.652468 
L 219.569437 305.748781 
L 220.220047 304.80192 
L 220.870658 306.140888 
L 221.521268 306.171907 
L 222.171878 306.610036 
L 222.822489 306.89346 
L 224.123709 305.980837 
L 224.77432 307.385057 
L 225.42493 307.252801 
L 226.07554 306.423265 
L 226.72615 307.785276 
L 227.376761 306.557683 
L 228.027371 306.050601 
L 228.677981 307.271811 
L 229.328592 306.313129 
L 229.979202 306.321259 
L 230.629812 305.23737 
L 231.280423 307.327632 
L 231.931033 307.38865 
L 232.581643 305.420187 
L 233.882864 306.493948 
L 234.533474 305.190674 
L 235.184085 306.037821 
L 235.834695 305.723391 
L 236.485305 306.872665 
L 237.135915 306.485371 
L 237.786526 306.748687 
L 238.437136 306.296579 
L 239.087746 307.334379 
L 239.738357 307.207112 
L 240.388967 307.262531 
L 241.039577 306.543548 
L 241.690188 306.433208 
L 242.340798 307.297638 
L 242.991408 306.020081 
L 243.642019 307.373078 
L 244.292629 307.15743 
L 244.943239 306.531572 
L 246.89507 307.33652 
L 247.54568 306.479254 
L 248.196291 306.17424 
L 248.846901 307.349412 
L 249.497511 306.369472 
L 250.148122 305.680368 
L 250.798732 307.210014 
L 251.449342 306.257807 
L 252.099953 306.783906 
L 252.750563 306.508836 
L 253.401173 306.575201 
L 254.051784 307.256254 
L 254.702394 305.448635 
L 255.353004 307.76219 
L 256.003615 306.935796 
L 256.654225 307.404569 
L 257.304835 306.810005 
L 257.955445 306.972647 
L 258.606056 306.817112 
L 259.256666 307.447434 
L 259.907276 306.792789 
L 260.557887 306.766673 
L 261.208497 307.46605 
L 261.859107 306.043593 
L 262.509718 306.627254 
L 263.160328 306.028172 
L 263.810938 306.552031 
L 264.461549 305.897152 
L 265.112159 307.208945 
L 265.762769 307.175661 
L 266.413379 306.128656 
L 267.06399 307.135532 
L 267.7146 306.266015 
L 268.36521 307.665098 
L 269.015821 306.694892 
L 269.666431 307.171016 
L 270.317041 307.220241 
L 270.967652 306.60388 
L 271.618262 306.87241 
L 272.919483 306.892219 
L 273.570093 307.548353 
L 274.220703 306.151432 
L 274.871314 307.131423 
L 275.521924 306.956796 
L 276.172534 306.340326 
L 276.823144 306.616352 
L 277.473755 305.796472 
L 278.124365 307.219861 
L 278.774975 306.357195 
L 279.425586 307.153536 
L 280.076196 307.404074 
L 280.726806 306.790394 
L 281.377417 307.463165 
L 282.028027 306.707409 
L 282.678637 306.749986 
L 283.329248 306.336119 
L 283.979858 305.766024 
L 284.630468 307.020576 
L 285.281079 306.595568 
L 285.931689 307.137269 
L 286.582299 307.272627 
L 287.232909 305.794289 
L 287.88352 307.24047 
L 288.53413 305.156062 
L 289.18474 306.958507 
L 289.835351 307.464356 
L 290.485961 305.971249 
L 291.136571 306.25603 
L 291.787182 306.981089 
L 292.437792 307.367343 
L 293.739013 306.850707 
L 294.389623 307.414883 
L 295.040233 307.160409 
L 295.690844 307.123847 
L 296.341454 307.699032 
L 296.992064 307.192669 
L 297.642674 306.997235 
L 298.293285 307.164266 
L 298.943895 307.199589 
L 299.594505 307.459244 
L 300.895726 307.178011 
L 301.546336 307.33644 
L 302.196947 306.224233 
L 302.847557 306.684216 
L 303.498167 307.599986 
L 304.148778 307.502811 
L 304.799388 306.920335 
L 305.449998 306.91178 
L 306.100608 307.296218 
L 306.751219 307.394258 
L 307.401829 307.635952 
L 308.70305 306.51268 
L 310.00427 307.631731 
L 310.654881 306.3779 
L 311.305491 307.256515 
L 311.956101 307.677662 
L 312.606712 306.740756 
L 313.907932 307.268217 
L 314.558543 307.111099 
L 315.209153 306.719551 
L 315.859763 307.108455 
L 316.510373 307.06713 
L 317.160984 307.547882 
L 317.811594 307.278462 
L 318.462204 306.571453 
L 319.112815 307.708816 
L 319.763425 307.397508 
L 320.414035 307.535563 
L 321.064646 307.478304 
L 321.715256 307.166872 
L 322.365866 306.609445 
L 323.016477 307.7095 
L 323.667087 307.457158 
L 324.317697 307.555502 
L 324.968308 307.467307 
L 325.618918 306.344308 
L 326.269528 307.587731 
L 326.920138 307.251797 
L 327.570749 307.772479 
L 328.221359 307.299159 
L 328.871969 307.153285 
L 329.52258 306.671835 
L 330.17319 306.737735 
L 330.8238 307.417683 
L 331.474411 307.441637 
L 332.125021 306.757736 
L 332.775631 307.342926 
L 333.426242 306.680578 
L 334.076852 307.016174 
L 334.727462 307.779247 
L 335.378073 306.995444 
L 336.028683 307.357909 
L 336.679293 307.093152 
L 337.329903 307.38517 
L 337.980514 307.159594 
L 338.631124 306.754296 
L 339.281734 307.488314 
L 339.932345 307.103904 
L 340.582955 306.915887 
L 341.233565 307.129201 
L 341.884176 307.025952 
L 343.185396 307.795325 
L 343.836007 306.55839 
L 344.486617 307.517377 
L 345.137227 307.406586 
L 345.787837 306.53838 
L 346.438448 306.577381 
L 347.089058 307.078766 
L 347.739668 306.886881 
L 348.390279 307.298566 
L 349.691499 306.864447 
L 350.34211 307.212295 
L 350.99272 306.860105 
L 351.64333 307.578886 
L 352.293941 307.323077 
L 352.944551 307.622232 
L 354.245772 307.350648 
L 354.896382 307.510158 
L 356.197602 307.131743 
L 356.848213 307.443279 
L 357.498823 307.499118 
L 358.149433 306.845658 
L 358.800044 306.923128 
L 359.450654 307.360295 
L 361.402485 307.542949 
L 362.053095 307.736409 
L 362.703706 307.096194 
L 363.354316 307.259493 
L 364.004926 307.212076 
L 364.655537 306.718364 
L 365.306147 307.185474 
L 365.956757 306.73034 
L 366.607367 307.309694 
L 367.257978 306.664207 
L 367.908588 307.050026 
L 368.559198 307.096921 
L 369.860419 307.554378 
L 370.511029 306.857035 
L 371.16164 307.45725 
L 371.81225 307.501362 
L 372.46286 307.033174 
L 373.764081 307.257628 
L 374.414691 307.444609 
L 376.366522 307.079806 
L 377.017132 307.435478 
L 377.667743 306.488205 
L 378.318353 307.8 
L 378.968963 307.350331 
L 379.619574 307.711819 
L 380.270184 306.963738 
L 380.920794 307.580816 
L 381.571405 307.710064 
L 382.222015 307.188833 
L 384.173846 307.354991 
L 385.475066 307.096052 
L 386.125677 307.323358 
L 388.077508 307.321824 
L 388.728118 306.792285 
L 389.378728 307.569408 
L 390.679949 307.190231 
L 391.98117 307.174941 
L 392.63178 307.678043 
L 393.28239 306.616043 
L 393.933001 307.251971 
L 394.583611 306.85291 
L 395.234221 307.24358 
L 395.884831 306.619483 
L 396.535442 307.339447 
L 397.186052 307.566366 
L 397.836662 307.255588 
L 398.487273 307.658906 
L 398.487273 307.658906 
" style="fill:none;stroke:#ff0000;stroke-linecap:square;stroke-width:0.8;"/>
   </g>
   <g id="patch_3">
    <path d="M 57.6 320.4 
L 57.6 43.2 
" style="fill:none;stroke:#000000;stroke-linecap:square;stroke-linejoin:miter;stroke-width:0.8;"/>
   </g>
   <g id="patch_4">
    <path d="M 414.72 320.4 
L 414.72 43.2 
" style="fill:none;stroke:#000000;stroke-linecap:square;stroke-linejoin:miter;stroke-width:0.8;"/>
   </g>
   <g id="patch_5">
    <path d="M 57.6 320.4 
L 414.72 320.4 
" style="fill:none;stroke:#000000;stroke-linecap:square;stroke-linejoin:miter;stroke-width:0.8;"/>
   </g>
   <g id="patch_6">
    <path d="M 57.6 43.2 
L 414.72 43.2 
" style="fill:none;stroke:#000000;stroke-linecap:square;stroke-linejoin:miter;stroke-width:0.8;"/>
   </g>
   <g id="text_18">
    <!-- Torque pulsations - compensator enabled -->
    <defs>
     <path d="M -0.296875 72.90625 
L 61.375 72.90625 
L 61.375 64.59375 
L 35.5 64.59375 
L 35.5 0 
L 25.59375 0 
L 25.59375 64.59375 
L -0.296875 64.59375 
z
" id="DejaVuSans-84"/>
     <path d="M 30.609375 48.390625 
Q 23.390625 48.390625 19.1875 42.75 
Q 14.984375 37.109375 14.984375 27.296875 
Q 14.984375 17.484375 19.15625 11.84375 
Q 23.34375 6.203125 30.609375 6.203125 
Q 37.796875 6.203125 41.984375 11.859375 
Q 46.1875 17.53125 46.1875 27.296875 
Q 46.1875 37.015625 41.984375 42.703125 
Q 37.796875 48.390625 30.609375 48.390625 
z
M 30.609375 56 
Q 42.328125 56 49.015625 48.375 
Q 55.71875 40.765625 55.71875 27.296875 
Q 55.71875 13.875 49.015625 6.21875 
Q 42.328125 -1.421875 30.609375 -1.421875 
Q 18.84375 -1.421875 12.171875 6.21875 
Q 5.515625 13.875 5.515625 27.296875 
Q 5.515625 40.765625 12.171875 48.375 
Q 18.84375 56 30.609375 56 
z
" id="DejaVuSans-111"/>
     <path d="M 44.28125 53.078125 
L 44.28125 44.578125 
Q 40.484375 46.53125 36.375 47.5 
Q 32.28125 48.484375 27.875 48.484375 
Q 21.1875 48.484375 17.84375 46.4375 
Q 14.5 44.390625 14.5 40.28125 
Q 14.5 37.15625 16.890625 35.375 
Q 19.28125 33.59375 26.515625 31.984375 
L 29.59375 31.296875 
Q 39.15625 29.25 43.1875 25.515625 
Q 47.21875 21.78125 47.21875 15.09375 
Q 47.21875 7.46875 41.1875 3.015625 
Q 35.15625 -1.421875 24.609375 -1.421875 
Q 20.21875 -1.421875 15.453125 -0.5625 
Q 10.6875 0.296875 5.421875 2 
L 5.421875 11.28125 
Q 10.40625 8.6875 15.234375 7.390625 
Q 20.0625 6.109375 24.8125 6.109375 
Q 31.15625 6.109375 34.5625 8.28125 
Q 37.984375 10.453125 37.984375 14.40625 
Q 37.984375 18.0625 35.515625 20.015625 
Q 33.0625 21.96875 24.703125 23.78125 
L 21.578125 24.515625 
Q 13.234375 26.265625 9.515625 29.90625 
Q 5.8125 33.546875 5.8125 39.890625 
Q 5.8125 47.609375 11.28125 51.796875 
Q 16.75 56 26.8125 56 
Q 31.78125 56 36.171875 55.265625 
Q 40.578125 54.546875 44.28125 53.078125 
z
" id="DejaVuSans-115"/>
     <path d="M 34.28125 27.484375 
Q 23.390625 27.484375 19.1875 25 
Q 14.984375 22.515625 14.984375 16.5 
Q 14.984375 11.71875 18.140625 8.90625 
Q 21.296875 6.109375 26.703125 6.109375 
Q 34.1875 6.109375 38.703125 11.40625 
Q 43.21875 16.703125 43.21875 25.484375 
L 43.21875 27.484375 
z
M 52.203125 31.203125 
L 52.203125 0 
L 43.21875 0 
L 43.21875 8.296875 
Q 40.140625 3.328125 35.546875 0.953125 
Q 30.953125 -1.421875 24.3125 -1.421875 
Q 15.921875 -1.421875 10.953125 3.296875 
Q 6 8.015625 6 15.921875 
Q 6 25.140625 12.171875 29.828125 
Q 18.359375 34.515625 30.609375 34.515625 
L 43.21875 34.515625 
L 43.21875 35.40625 
Q 43.21875 41.609375 39.140625 45 
Q 35.0625 48.390625 27.6875 48.390625 
Q 23 48.390625 18.546875 47.265625 
Q 14.109375 46.140625 10.015625 43.890625 
L 10.015625 52.203125 
Q 14.9375 54.109375 19.578125 55.046875 
Q 24.21875 56 28.609375 56 
Q 40.484375 56 46.34375 49.84375 
Q 52.203125 43.703125 52.203125 31.203125 
z
" id="DejaVuSans-97"/>
     <path d="M 4.890625 31.390625 
L 31.203125 31.390625 
L 31.203125 23.390625 
L 4.890625 23.390625 
z
" id="DejaVuSans-45"/>
     <path d="M 48.6875 27.296875 
Q 48.6875 37.203125 44.609375 42.84375 
Q 40.53125 48.484375 33.40625 48.484375 
Q 26.265625 48.484375 22.1875 42.84375 
Q 18.109375 37.203125 18.109375 27.296875 
Q 18.109375 17.390625 22.1875 11.75 
Q 26.265625 6.109375 33.40625 6.109375 
Q 40.53125 6.109375 44.609375 11.75 
Q 48.6875 17.390625 48.6875 27.296875 
z
M 18.109375 46.390625 
Q 20.953125 51.265625 25.265625 53.625 
Q 29.59375 56 35.59375 56 
Q 45.5625 56 51.78125 48.09375 
Q 58.015625 40.1875 58.015625 27.296875 
Q 58.015625 14.40625 51.78125 6.484375 
Q 45.5625 -1.421875 35.59375 -1.421875 
Q 29.59375 -1.421875 25.265625 0.953125 
Q 20.953125 3.328125 18.109375 8.203125 
L 18.109375 0 
L 9.078125 0 
L 9.078125 75.984375 
L 18.109375 75.984375 
z
" id="DejaVuSans-98"/>
    </defs>
    <g transform="translate(112.12875 37.2)scale(0.12 -0.12)">
     <use xlink:href="#DejaVuSans-84"/>
     <use x="44.083984" xlink:href="#DejaVuSans-111"/>
     <use x="105.265625" xlink:href="#DejaVuSans-114"/>
     <use x="144.628906" xlink:href="#DejaVuSans-113"/>
     <use x="208.105469" xlink:href="#DejaVuSans-117"/>
     <use x="271.484375" xlink:href="#DejaVuSans-101"/>
     <use x="333.007812" xlink:href="#DejaVuSans-32"/>
     <use x="364.794922" xlink:href="#DejaVuSans-112"/>
     <use x="428.271484" xlink:href="#DejaVuSans-117"/>
     <use x="491.650391" xlink:href="#DejaVuSans-108"/>
     <use x="519.433594" xlink:href="#DejaVuSans-115"/>
     <use x="571.533203" xlink:href="#DejaVuSans-97"/>
     <use x="632.8125" xlink:href="#DejaVuSans-116"/>
     <use x="672.021484" xlink:href="#DejaVuSans-105"/>
     <use x="699.804688" xlink:href="#DejaVuSans-111"/>
     <use x="760.986328" xlink:href="#DejaVuSans-110"/>
     <use x="824.365234" xlink:href="#DejaVuSans-115"/>
     <use x="876.464844" xlink:href="#DejaVuSans-32"/>
     <use x="908.251953" xlink:href="#DejaVuSans-45"/>
     <use x="944.335938" xlink:href="#DejaVuSans-32"/>
     <use x="976.123047" xlink:href="#DejaVuSans-99"/>
     <use x="1031.103516" xlink:href="#DejaVuSans-111"/>
     <use x="1092.285156" xlink:href="#DejaVuSans-109"/>
     <use x="1189.697266" xlink:href="#DejaVuSans-112"/>
     <use x="1253.173828" xlink:href="#DejaVuSans-101"/>
     <use x="1314.697266" xlink:href="#DejaVuSans-110"/>
     <use x="1378.076172" xlink:href="#DejaVuSans-115"/>
     <use x="1430.175781" xlink:href="#DejaVuSans-97"/>
     <use x="1491.455078" xlink:href="#DejaVuSans-116"/>
     <use x="1530.664062" xlink:href="#DejaVuSans-111"/>
     <use x="1591.845703" xlink:href="#DejaVuSans-114"/>
     <use x="1632.958984" xlink:href="#DejaVuSans-32"/>
     <use x="1664.746094" xlink:href="#DejaVuSans-101"/>
     <use x="1726.269531" xlink:href="#DejaVuSans-110"/>
     <use x="1789.648438" xlink:href="#DejaVuSans-97"/>
     <use x="1850.927734" xlink:href="#DejaVuSans-98"/>
     <use x="1914.404297" xlink:href="#DejaVuSans-108"/>
     <use x="1942.1875" xlink:href="#DejaVuSans-101"/>
     <use x="2003.710938" xlink:href="#DejaVuSans-100"/>
    </g>
   </g>
   <g id="legend_1">
    <g id="patch_7">
     <path d="M 261.880938 95.234375 
L 407.72 95.234375 
Q 409.72 95.234375 409.72 93.234375 
L 409.72 50.2 
Q 409.72 48.2 407.72 48.2 
L 261.880938 48.2 
Q 259.880938 48.2 259.880938 50.2 
L 259.880938 93.234375 
Q 259.880938 95.234375 261.880938 95.234375 
z
" style="fill:#ffffff;opacity:0.8;stroke:#cccccc;stroke-linejoin:miter;"/>
    </g>
    <g id="line2d_34">
     <path d="M 263.880938 56.298437 
L 283.880938 56.298437 
" style="fill:none;stroke:#9acd32;stroke-linecap:square;stroke-width:0.8;"/>
    </g>
    <g id="line2d_35"/>
    <g id="text_19">
     <!-- Compensation torque -->
     <defs>
      <path d="M 64.40625 67.28125 
L 64.40625 56.890625 
Q 59.421875 61.53125 53.78125 63.8125 
Q 48.140625 66.109375 41.796875 66.109375 
Q 29.296875 66.109375 22.65625 58.46875 
Q 16.015625 50.828125 16.015625 36.375 
Q 16.015625 21.96875 22.65625 14.328125 
Q 29.296875 6.6875 41.796875 6.6875 
Q 48.140625 6.6875 53.78125 8.984375 
Q 59.421875 11.28125 64.40625 15.921875 
L 64.40625 5.609375 
Q 59.234375 2.09375 53.4375 0.328125 
Q 47.65625 -1.421875 41.21875 -1.421875 
Q 24.65625 -1.421875 15.125 8.703125 
Q 5.609375 18.84375 5.609375 36.375 
Q 5.609375 53.953125 15.125 64.078125 
Q 24.65625 74.21875 41.21875 74.21875 
Q 47.75 74.21875 53.53125 72.484375 
Q 59.328125 70.75 64.40625 67.28125 
z
" id="DejaVuSans-67"/>
     </defs>
     <g transform="translate(291.880938 59.798437)scale(0.1 -0.1)">
      <use xlink:href="#DejaVuSans-67"/>
      <use x="69.824219" xlink:href="#DejaVuSans-111"/>
      <use x="131.005859" xlink:href="#DejaVuSans-109"/>
      <use x="228.417969" xlink:href="#DejaVuSans-112"/>
      <use x="291.894531" xlink:href="#DejaVuSans-101"/>
      <use x="353.417969" xlink:href="#DejaVuSans-110"/>
      <use x="416.796875" xlink:href="#DejaVuSans-115"/>
      <use x="468.896484" xlink:href="#DejaVuSans-97"/>
      <use x="530.175781" xlink:href="#DejaVuSans-116"/>
      <use x="569.384766" xlink:href="#DejaVuSans-105"/>
      <use x="597.167969" xlink:href="#DejaVuSans-111"/>
      <use x="658.349609" xlink:href="#DejaVuSans-110"/>
      <use x="721.728516" xlink:href="#DejaVuSans-32"/>
      <use x="753.515625" xlink:href="#DejaVuSans-116"/>
      <use x="792.724609" xlink:href="#DejaVuSans-111"/>
      <use x="853.90625" xlink:href="#DejaVuSans-114"/>
      <use x="893.269531" xlink:href="#DejaVuSans-113"/>
      <use x="956.746094" xlink:href="#DejaVuSans-117"/>
      <use x="1020.125" xlink:href="#DejaVuSans-101"/>
     </g>
    </g>
    <g id="line2d_36">
     <path d="M 263.880938 70.976562 
L 283.880938 70.976562 
" style="fill:none;stroke:#ff8c00;stroke-linecap:square;stroke-width:0.8;"/>
    </g>
    <g id="line2d_37"/>
    <g id="text_20">
     <!-- Pulsating torque -->
     <defs>
      <path d="M 19.671875 64.796875 
L 19.671875 37.40625 
L 32.078125 37.40625 
Q 38.96875 37.40625 42.71875 40.96875 
Q 46.484375 44.53125 46.484375 51.125 
Q 46.484375 57.671875 42.71875 61.234375 
Q 38.96875 64.796875 32.078125 64.796875 
z
M 9.8125 72.90625 
L 32.078125 72.90625 
Q 44.34375 72.90625 50.609375 67.359375 
Q 56.890625 61.8125 56.890625 51.125 
Q 56.890625 40.328125 50.609375 34.8125 
Q 44.34375 29.296875 32.078125 29.296875 
L 19.671875 29.296875 
L 19.671875 0 
L 9.8125 0 
z
" id="DejaVuSans-80"/>
      <path d="M 45.40625 27.984375 
Q 45.40625 37.75 41.375 43.109375 
Q 37.359375 48.484375 30.078125 48.484375 
Q 22.859375 48.484375 18.828125 43.109375 
Q 14.796875 37.75 14.796875 27.984375 
Q 14.796875 18.265625 18.828125 12.890625 
Q 22.859375 7.515625 30.078125 7.515625 
Q 37.359375 7.515625 41.375 12.890625 
Q 45.40625 18.265625 45.40625 27.984375 
z
M 54.390625 6.78125 
Q 54.390625 -7.171875 48.1875 -13.984375 
Q 42 -20.796875 29.203125 -20.796875 
Q 24.46875 -20.796875 20.265625 -20.09375 
Q 16.0625 -19.390625 12.109375 -17.921875 
L 12.109375 -9.1875 
Q 16.0625 -11.328125 19.921875 -12.34375 
Q 23.78125 -13.375 27.78125 -13.375 
Q 36.625 -13.375 41.015625 -8.765625 
Q 45.40625 -4.15625 45.40625 5.171875 
L 45.40625 9.625 
Q 42.625 4.78125 38.28125 2.390625 
Q 33.9375 0 27.875 0 
Q 17.828125 0 11.671875 7.65625 
Q 5.515625 15.328125 5.515625 27.984375 
Q 5.515625 40.671875 11.671875 48.328125 
Q 17.828125 56 27.875 56 
Q 33.9375 56 38.28125 53.609375 
Q 42.625 51.21875 45.40625 46.390625 
L 45.40625 54.6875 
L 54.390625 54.6875 
z
" id="DejaVuSans-103"/>
     </defs>
     <g transform="translate(291.880938 74.476562)scale(0.1 -0.1)">
      <use xlink:href="#DejaVuSans-80"/>
      <use x="58.552734" xlink:href="#DejaVuSans-117"/>
      <use x="121.931641" xlink:href="#DejaVuSans-108"/>
      <use x="149.714844" xlink:href="#DejaVuSans-115"/>
      <use x="201.814453" xlink:href="#DejaVuSans-97"/>
      <use x="263.09375" xlink:href="#DejaVuSans-116"/>
      <use x="302.302734" xlink:href="#DejaVuSans-105"/>
      <use x="330.085938" xlink:href="#DejaVuSans-110"/>
      <use x="393.464844" xlink:href="#DejaVuSans-103"/>
      <use x="456.941406" xlink:href="#DejaVuSans-32"/>
      <use x="488.728516" xlink:href="#DejaVuSans-116"/>
      <use x="527.9375" xlink:href="#DejaVuSans-111"/>
      <use x="589.119141" xlink:href="#DejaVuSans-114"/>
      <use x="628.482422" xlink:href="#DejaVuSans-113"/>
      <use x="691.958984" xlink:href="#DejaVuSans-117"/>
      <use x="755.337891" xlink:href="#DejaVuSans-101"/>
     </g>
    </g>
    <g id="line2d_38">
     <path d="M 263.880938 85.654687 
L 283.880938 85.654687 
" style="fill:none;stroke:#ff0000;stroke-linecap:square;stroke-width:0.8;"/>
    </g>
    <g id="line2d_39"/>
    <g id="text_21">
     <!-- Actual torque (filtered) -->
     <defs>
      <path d="M 31 75.875 
Q 24.46875 64.65625 21.28125 53.65625 
Q 18.109375 42.671875 18.109375 31.390625 
Q 18.109375 20.125 21.3125 9.0625 
Q 24.515625 -2 31 -13.1875 
L 23.1875 -13.1875 
Q 15.875 -1.703125 12.234375 9.375 
Q 8.59375 20.453125 8.59375 31.390625 
Q 8.59375 42.28125 12.203125 53.3125 
Q 15.828125 64.359375 23.1875 75.875 
z
" id="DejaVuSans-40"/>
      <path d="M 37.109375 75.984375 
L 37.109375 68.5 
L 28.515625 68.5 
Q 23.6875 68.5 21.796875 66.546875 
Q 19.921875 64.59375 19.921875 59.515625 
L 19.921875 54.6875 
L 34.71875 54.6875 
L 34.71875 47.703125 
L 19.921875 47.703125 
L 19.921875 0 
L 10.890625 0 
L 10.890625 47.703125 
L 2.296875 47.703125 
L 2.296875 54.6875 
L 10.890625 54.6875 
L 10.890625 58.5 
Q 10.890625 67.625 15.140625 71.796875 
Q 19.390625 75.984375 28.609375 75.984375 
z
" id="DejaVuSans-102"/>
      <path d="M 8.015625 75.875 
L 15.828125 75.875 
Q 23.140625 64.359375 26.78125 53.3125 
Q 30.421875 42.28125 30.421875 31.390625 
Q 30.421875 20.453125 26.78125 9.375 
Q 23.140625 -1.703125 15.828125 -13.1875 
L 8.015625 -13.1875 
Q 14.5 -2 17.703125 9.0625 
Q 20.90625 20.125 20.90625 31.390625 
Q 20.90625 42.671875 17.703125 53.65625 
Q 14.5 64.65625 8.015625 75.875 
z
" id="DejaVuSans-41"/>
     </defs>
     <g transform="translate(291.880938 89.154687)scale(0.1 -0.1)">
      <use xlink:href="#DejaVuSans-65"/>
      <use x="66.658203" xlink:href="#DejaVuSans-99"/>
      <use x="121.638672" xlink:href="#DejaVuSans-116"/>
      <use x="160.847656" xlink:href="#DejaVuSans-117"/>
      <use x="224.226562" xlink:href="#DejaVuSans-97"/>
      <use x="285.505859" xlink:href="#DejaVuSans-108"/>
      <use x="313.289062" xlink:href="#DejaVuSans-32"/>
      <use x="345.076172" xlink:href="#DejaVuSans-116"/>
      <use x="384.285156" xlink:href="#DejaVuSans-111"/>
      <use x="445.466797" xlink:href="#DejaVuSans-114"/>
      <use x="484.830078" xlink:href="#DejaVuSans-113"/>
      <use x="548.306641" xlink:href="#DejaVuSans-117"/>
      <use x="611.685547" xlink:href="#DejaVuSans-101"/>
      <use x="673.208984" xlink:href="#DejaVuSans-32"/>
      <use x="704.996094" xlink:href="#DejaVuSans-40"/>
      <use x="744.009766" xlink:href="#DejaVuSans-102"/>
      <use x="779.214844" xlink:href="#DejaVuSans-105"/>
      <use x="806.998047" xlink:href="#DejaVuSans-108"/>
      <use x="834.78125" xlink:href="#DejaVuSans-116"/>
      <use x="873.990234" xlink:href="#DejaVuSans-101"/>
      <use x="935.513672" xlink:href="#DejaVuSans-114"/>
      <use x="974.376953" xlink:href="#DejaVuSans-101"/>
      <use x="1035.900391" xlink:href="#DejaVuSans-100"/>
      <use x="1099.376953" xlink:href="#DejaVuSans-41"/>
     </g>
    </g>
   </g>
  </g>
 </g>
 <defs>
  <clipPath id="p1e7b185822">
   <rect height="277.2" width="357.12" x="57.6" y="43.2"/>
  </clipPath>
 </defs>
</svg>
