<?xml version="1.0" encoding="utf-8" standalone="no"?>
<!DOCTYPE svg PUBLIC "-//W3C//DTD SVG 1.1//EN"
  "http://www.w3.org/Graphics/SVG/1.1/DTD/svg11.dtd">
<!-- Created with matplotlib (https://matplotlib.org/) -->
<svg height="504pt" version="1.1" viewBox="0 0 1080 504" width="1080pt" xmlns="http://www.w3.org/2000/svg" xmlns:xlink="http://www.w3.org/1999/xlink">
 <defs>
  <style type="text/css">
*{stroke-linecap:butt;stroke-linejoin:round;}
  </style>
 </defs>
 <g id="figure_1">
  <g id="patch_1">
   <path d="M 0 504 
L 1080 504 
L 1080 0 
L 0 0 
z
" style="fill:#ffffff;"/>
  </g>
  <g id="axes_1">
   <g id="patch_2">
    <path d="M 135 448.56 
L 972 448.56 
L 972 60.48 
L 135 60.48 
z
" style="fill:#ffffff;"/>
   </g>
   <g id="matplotlib.axis_1">
    <g id="xtick_1">
     <g id="line2d_1">
      <defs>
       <path d="M 0 0 
L 0 3.5 
" id="m9a03b96f02" style="stroke:#000000;stroke-width:0.8;"/>
      </defs>
      <g>
       <use style="stroke:#000000;stroke-width:0.8;" x="173.045455" xlink:href="#m9a03b96f02" y="448.56"/>
      </g>
     </g>
     <g id="text_1">
      <!-- 0 -->
      <defs>
       <path d="M 31.78125 66.40625 
Q 24.171875 66.40625 20.328125 58.90625 
Q 16.5 51.421875 16.5 36.375 
Q 16.5 21.390625 20.328125 13.890625 
Q 24.171875 6.390625 31.78125 6.390625 
Q 39.453125 6.390625 43.28125 13.890625 
Q 47.125 21.390625 47.125 36.375 
Q 47.125 51.421875 43.28125 58.90625 
Q 39.453125 66.40625 31.78125 66.40625 
z
M 31.78125 74.21875 
Q 44.046875 74.21875 50.515625 64.515625 
Q 56.984375 54.828125 56.984375 36.375 
Q 56.984375 17.96875 50.515625 8.265625 
Q 44.046875 -1.421875 31.78125 -1.421875 
Q 19.53125 -1.421875 13.0625 8.265625 
Q 6.59375 17.96875 6.59375 36.375 
Q 6.59375 54.828125 13.0625 64.515625 
Q 19.53125 74.21875 31.78125 74.21875 
z
" id="DejaVuSans-48"/>
      </defs>
      <g transform="translate(167.319205 469.237188)scale(0.18 -0.18)">
       <use xlink:href="#DejaVuSans-48"/>
      </g>
     </g>
    </g>
    <g id="xtick_2">
     <g id="line2d_2">
      <g>
       <use style="stroke:#000000;stroke-width:0.8;" x="325.532246" xlink:href="#m9a03b96f02" y="448.56"/>
      </g>
     </g>
     <g id="text_2">
      <!-- 200 -->
      <defs>
       <path d="M 19.1875 8.296875 
L 53.609375 8.296875 
L 53.609375 0 
L 7.328125 0 
L 7.328125 8.296875 
Q 12.9375 14.109375 22.625 23.890625 
Q 32.328125 33.6875 34.8125 36.53125 
Q 39.546875 41.84375 41.421875 45.53125 
Q 43.3125 49.21875 43.3125 52.78125 
Q 43.3125 58.59375 39.234375 62.25 
Q 35.15625 65.921875 28.609375 65.921875 
Q 23.96875 65.921875 18.8125 64.3125 
Q 13.671875 62.703125 7.8125 59.421875 
L 7.8125 69.390625 
Q 13.765625 71.78125 18.9375 73 
Q 24.125 74.21875 28.421875 74.21875 
Q 39.75 74.21875 46.484375 68.546875 
Q 53.21875 62.890625 53.21875 53.421875 
Q 53.21875 48.921875 51.53125 44.890625 
Q 49.859375 40.875 45.40625 35.40625 
Q 44.1875 33.984375 37.640625 27.21875 
Q 31.109375 20.453125 19.1875 8.296875 
z
" id="DejaVuSans-50"/>
      </defs>
      <g transform="translate(308.353496 469.237188)scale(0.18 -0.18)">
       <use xlink:href="#DejaVuSans-50"/>
       <use x="63.623047" xlink:href="#DejaVuSans-48"/>
       <use x="127.246094" xlink:href="#DejaVuSans-48"/>
      </g>
     </g>
    </g>
    <g id="xtick_3">
     <g id="line2d_3">
      <g>
       <use style="stroke:#000000;stroke-width:0.8;" x="478.019038" xlink:href="#m9a03b96f02" y="448.56"/>
      </g>
     </g>
     <g id="text_3">
      <!-- 400 -->
      <defs>
       <path d="M 37.796875 64.3125 
L 12.890625 25.390625 
L 37.796875 25.390625 
z
M 35.203125 72.90625 
L 47.609375 72.90625 
L 47.609375 25.390625 
L 58.015625 25.390625 
L 58.015625 17.1875 
L 47.609375 17.1875 
L 47.609375 0 
L 37.796875 0 
L 37.796875 17.1875 
L 4.890625 17.1875 
L 4.890625 26.703125 
z
" id="DejaVuSans-52"/>
      </defs>
      <g transform="translate(460.840288 469.237188)scale(0.18 -0.18)">
       <use xlink:href="#DejaVuSans-52"/>
       <use x="63.623047" xlink:href="#DejaVuSans-48"/>
       <use x="127.246094" xlink:href="#DejaVuSans-48"/>
      </g>
     </g>
    </g>
    <g id="xtick_4">
     <g id="line2d_4">
      <g>
       <use style="stroke:#000000;stroke-width:0.8;" x="630.50583" xlink:href="#m9a03b96f02" y="448.56"/>
      </g>
     </g>
     <g id="text_4">
      <!-- 600 -->
      <defs>
       <path d="M 33.015625 40.375 
Q 26.375 40.375 22.484375 35.828125 
Q 18.609375 31.296875 18.609375 23.390625 
Q 18.609375 15.53125 22.484375 10.953125 
Q 26.375 6.390625 33.015625 6.390625 
Q 39.65625 6.390625 43.53125 10.953125 
Q 47.40625 15.53125 47.40625 23.390625 
Q 47.40625 31.296875 43.53125 35.828125 
Q 39.65625 40.375 33.015625 40.375 
z
M 52.59375 71.296875 
L 52.59375 62.3125 
Q 48.875 64.0625 45.09375 64.984375 
Q 41.3125 65.921875 37.59375 65.921875 
Q 27.828125 65.921875 22.671875 59.328125 
Q 17.53125 52.734375 16.796875 39.40625 
Q 19.671875 43.65625 24.015625 45.921875 
Q 28.375 48.1875 33.59375 48.1875 
Q 44.578125 48.1875 50.953125 41.515625 
Q 57.328125 34.859375 57.328125 23.390625 
Q 57.328125 12.15625 50.6875 5.359375 
Q 44.046875 -1.421875 33.015625 -1.421875 
Q 20.359375 -1.421875 13.671875 8.265625 
Q 6.984375 17.96875 6.984375 36.375 
Q 6.984375 53.65625 15.1875 63.9375 
Q 23.390625 74.21875 37.203125 74.21875 
Q 40.921875 74.21875 44.703125 73.484375 
Q 48.484375 72.75 52.59375 71.296875 
z
" id="DejaVuSans-54"/>
      </defs>
      <g transform="translate(613.32708 469.237188)scale(0.18 -0.18)">
       <use xlink:href="#DejaVuSans-54"/>
       <use x="63.623047" xlink:href="#DejaVuSans-48"/>
       <use x="127.246094" xlink:href="#DejaVuSans-48"/>
      </g>
     </g>
    </g>
    <g id="xtick_5">
     <g id="line2d_5">
      <g>
       <use style="stroke:#000000;stroke-width:0.8;" x="782.992622" xlink:href="#m9a03b96f02" y="448.56"/>
      </g>
     </g>
     <g id="text_5">
      <!-- 800 -->
      <defs>
       <path d="M 31.78125 34.625 
Q 24.75 34.625 20.71875 30.859375 
Q 16.703125 27.09375 16.703125 20.515625 
Q 16.703125 13.921875 20.71875 10.15625 
Q 24.75 6.390625 31.78125 6.390625 
Q 38.8125 6.390625 42.859375 10.171875 
Q 46.921875 13.96875 46.921875 20.515625 
Q 46.921875 27.09375 42.890625 30.859375 
Q 38.875 34.625 31.78125 34.625 
z
M 21.921875 38.8125 
Q 15.578125 40.375 12.03125 44.71875 
Q 8.5 49.078125 8.5 55.328125 
Q 8.5 64.0625 14.71875 69.140625 
Q 20.953125 74.21875 31.78125 74.21875 
Q 42.671875 74.21875 48.875 69.140625 
Q 55.078125 64.0625 55.078125 55.328125 
Q 55.078125 49.078125 51.53125 44.71875 
Q 48 40.375 41.703125 38.8125 
Q 48.828125 37.15625 52.796875 32.3125 
Q 56.78125 27.484375 56.78125 20.515625 
Q 56.78125 9.90625 50.3125 4.234375 
Q 43.84375 -1.421875 31.78125 -1.421875 
Q 19.734375 -1.421875 13.25 4.234375 
Q 6.78125 9.90625 6.78125 20.515625 
Q 6.78125 27.484375 10.78125 32.3125 
Q 14.796875 37.15625 21.921875 38.8125 
z
M 18.3125 54.390625 
Q 18.3125 48.734375 21.84375 45.5625 
Q 25.390625 42.390625 31.78125 42.390625 
Q 38.140625 42.390625 41.71875 45.5625 
Q 45.3125 48.734375 45.3125 54.390625 
Q 45.3125 60.0625 41.71875 63.234375 
Q 38.140625 66.40625 31.78125 66.40625 
Q 25.390625 66.40625 21.84375 63.234375 
Q 18.3125 60.0625 18.3125 54.390625 
z
" id="DejaVuSans-56"/>
      </defs>
      <g transform="translate(765.813872 469.237188)scale(0.18 -0.18)">
       <use xlink:href="#DejaVuSans-56"/>
       <use x="63.623047" xlink:href="#DejaVuSans-48"/>
       <use x="127.246094" xlink:href="#DejaVuSans-48"/>
      </g>
     </g>
    </g>
    <g id="xtick_6">
     <g id="line2d_6">
      <g>
       <use style="stroke:#000000;stroke-width:0.8;" x="935.479413" xlink:href="#m9a03b96f02" y="448.56"/>
      </g>
     </g>
     <g id="text_6">
      <!-- 1000 -->
      <defs>
       <path d="M 12.40625 8.296875 
L 28.515625 8.296875 
L 28.515625 63.921875 
L 10.984375 60.40625 
L 10.984375 69.390625 
L 28.421875 72.90625 
L 38.28125 72.90625 
L 38.28125 8.296875 
L 54.390625 8.296875 
L 54.390625 0 
L 12.40625 0 
z
" id="DejaVuSans-49"/>
      </defs>
      <g transform="translate(912.574413 469.237188)scale(0.18 -0.18)">
       <use xlink:href="#DejaVuSans-49"/>
       <use x="63.623047" xlink:href="#DejaVuSans-48"/>
       <use x="127.246094" xlink:href="#DejaVuSans-48"/>
       <use x="190.869141" xlink:href="#DejaVuSans-48"/>
      </g>
     </g>
    </g>
    <g id="text_7">
     <!-- Angle ($\theta_m$) -->
     <defs>
      <path d="M 34.1875 63.1875 
L 20.796875 26.90625 
L 47.609375 26.90625 
z
M 28.609375 72.90625 
L 39.796875 72.90625 
L 67.578125 0 
L 57.328125 0 
L 50.6875 18.703125 
L 17.828125 18.703125 
L 11.1875 0 
L 0.78125 0 
z
" id="DejaVuSans-65"/>
      <path d="M 54.890625 33.015625 
L 54.890625 0 
L 45.90625 0 
L 45.90625 32.71875 
Q 45.90625 40.484375 42.875 44.328125 
Q 39.84375 48.1875 33.796875 48.1875 
Q 26.515625 48.1875 22.3125 43.546875 
Q 18.109375 38.921875 18.109375 30.90625 
L 18.109375 0 
L 9.078125 0 
L 9.078125 54.6875 
L 18.109375 54.6875 
L 18.109375 46.1875 
Q 21.34375 51.125 25.703125 53.5625 
Q 30.078125 56 35.796875 56 
Q 45.21875 56 50.046875 50.171875 
Q 54.890625 44.34375 54.890625 33.015625 
z
" id="DejaVuSans-110"/>
      <path d="M 45.40625 27.984375 
Q 45.40625 37.75 41.375 43.109375 
Q 37.359375 48.484375 30.078125 48.484375 
Q 22.859375 48.484375 18.828125 43.109375 
Q 14.796875 37.75 14.796875 27.984375 
Q 14.796875 18.265625 18.828125 12.890625 
Q 22.859375 7.515625 30.078125 7.515625 
Q 37.359375 7.515625 41.375 12.890625 
Q 45.40625 18.265625 45.40625 27.984375 
z
M 54.390625 6.78125 
Q 54.390625 -7.171875 48.1875 -13.984375 
Q 42 -20.796875 29.203125 -20.796875 
Q 24.46875 -20.796875 20.265625 -20.09375 
Q 16.0625 -19.390625 12.109375 -17.921875 
L 12.109375 -9.1875 
Q 16.0625 -11.328125 19.921875 -12.34375 
Q 23.78125 -13.375 27.78125 -13.375 
Q 36.625 -13.375 41.015625 -8.765625 
Q 45.40625 -4.15625 45.40625 5.171875 
L 45.40625 9.625 
Q 42.625 4.78125 38.28125 2.390625 
Q 33.9375 0 27.875 0 
Q 17.828125 0 11.671875 7.65625 
Q 5.515625 15.328125 5.515625 27.984375 
Q 5.515625 40.671875 11.671875 48.328125 
Q 17.828125 56 27.875 56 
Q 33.9375 56 38.28125 53.609375 
Q 42.625 51.21875 45.40625 46.390625 
L 45.40625 54.6875 
L 54.390625 54.6875 
z
" id="DejaVuSans-103"/>
      <path d="M 9.421875 75.984375 
L 18.40625 75.984375 
L 18.40625 0 
L 9.421875 0 
z
" id="DejaVuSans-108"/>
      <path d="M 56.203125 29.59375 
L 56.203125 25.203125 
L 14.890625 25.203125 
Q 15.484375 15.921875 20.484375 11.0625 
Q 25.484375 6.203125 34.421875 6.203125 
Q 39.59375 6.203125 44.453125 7.46875 
Q 49.3125 8.734375 54.109375 11.28125 
L 54.109375 2.78125 
Q 49.265625 0.734375 44.1875 -0.34375 
Q 39.109375 -1.421875 33.890625 -1.421875 
Q 20.796875 -1.421875 13.15625 6.1875 
Q 5.515625 13.8125 5.515625 26.8125 
Q 5.515625 40.234375 12.765625 48.109375 
Q 20.015625 56 32.328125 56 
Q 43.359375 56 49.78125 48.890625 
Q 56.203125 41.796875 56.203125 29.59375 
z
M 47.21875 32.234375 
Q 47.125 39.59375 43.09375 43.984375 
Q 39.0625 48.390625 32.421875 48.390625 
Q 24.90625 48.390625 20.390625 44.140625 
Q 15.875 39.890625 15.1875 32.171875 
z
" id="DejaVuSans-101"/>
      <path id="DejaVuSans-32"/>
      <path d="M 31 75.875 
Q 24.46875 64.65625 21.28125 53.65625 
Q 18.109375 42.671875 18.109375 31.390625 
Q 18.109375 20.125 21.3125 9.0625 
Q 24.515625 -2 31 -13.1875 
L 23.1875 -13.1875 
Q 15.875 -1.703125 12.234375 9.375 
Q 8.59375 20.453125 8.59375 31.390625 
Q 8.59375 42.28125 12.203125 53.3125 
Q 15.828125 64.359375 23.1875 75.875 
z
" id="DejaVuSans-40"/>
      <path d="M 45.515625 34.671875 
L 14.453125 34.671875 
Q 12.359375 20.0625 14.5 13.875 
Q 17.1875 6.25 24.46875 6.25 
Q 31.78125 6.25 37.359375 13.921875 
Q 42.234375 20.65625 45.515625 34.671875 
z
M 47.015625 42.96875 
Q 48.34375 56.84375 46.625 61.71875 
Q 43.953125 69.4375 36.765625 69.4375 
Q 29.296875 69.4375 23.828125 61.8125 
Q 19.53125 55.671875 16.15625 42.96875 
z
M 38.1875 76.765625 
Q 49.90625 76.765625 54.59375 66.40625 
Q 59.28125 56.109375 55.71875 37.84375 
Q 52.203125 19.625 43.453125 9.28125 
Q 34.765625 -1.125 23.046875 -1.125 
Q 11.28125 -1.125 6.640625 9.28125 
Q 2 19.625 5.515625 37.84375 
Q 9.078125 56.109375 17.71875 66.40625 
Q 26.421875 76.765625 38.1875 76.765625 
z
" id="DejaVuSans-Oblique-952"/>
      <path d="M 89.796875 33.015625 
L 83.40625 0 
L 74.421875 0 
L 80.71875 32.71875 
Q 81.109375 34.8125 81.296875 36.328125 
Q 81.5 37.84375 81.5 38.921875 
Q 81.5 43.3125 79.046875 45.75 
Q 76.609375 48.1875 72.21875 48.1875 
Q 65.671875 48.1875 60.546875 43.28125 
Q 55.421875 38.375 53.90625 30.515625 
L 47.90625 0 
L 38.921875 0 
L 45.3125 32.71875 
Q 45.703125 34.515625 45.890625 36.046875 
Q 46.09375 37.59375 46.09375 38.8125 
Q 46.09375 43.265625 43.65625 45.71875 
Q 41.21875 48.1875 36.921875 48.1875 
Q 30.28125 48.1875 25.140625 43.28125 
Q 20.015625 38.375 18.5 30.515625 
L 12.5 0 
L 3.515625 0 
L 14.203125 54.6875 
L 23.1875 54.6875 
L 21.484375 46.1875 
Q 25.140625 50.984375 30.046875 53.484375 
Q 34.96875 56 40.578125 56 
Q 46.53125 56 50.359375 52.875 
Q 54.203125 49.75 54.984375 44.1875 
Q 59.078125 49.953125 64.46875 52.96875 
Q 69.875 56 75.875 56 
Q 82.90625 56 86.734375 51.953125 
Q 90.578125 47.90625 90.578125 40.484375 
Q 90.578125 38.875 90.375 36.9375 
Q 90.1875 35.015625 89.796875 33.015625 
z
" id="DejaVuSans-Oblique-109"/>
      <path d="M 8.015625 75.875 
L 15.828125 75.875 
Q 23.140625 64.359375 26.78125 53.3125 
Q 30.421875 42.28125 30.421875 31.390625 
Q 30.421875 20.453125 26.78125 9.375 
Q 23.140625 -1.703125 15.828125 -13.1875 
L 8.015625 -13.1875 
Q 14.5 -2 17.703125 9.0625 
Q 20.90625 20.125 20.90625 31.390625 
Q 20.90625 42.671875 17.703125 53.65625 
Q 14.5 64.65625 8.015625 75.875 
z
" id="DejaVuSans-41"/>
     </defs>
     <g transform="translate(506.07 491.840625)scale(0.18 -0.18)">
      <use transform="translate(0 0.234375)" xlink:href="#DejaVuSans-65"/>
      <use transform="translate(68.408203 0.234375)" xlink:href="#DejaVuSans-110"/>
      <use transform="translate(131.787109 0.234375)" xlink:href="#DejaVuSans-103"/>
      <use transform="translate(195.263672 0.234375)" xlink:href="#DejaVuSans-108"/>
      <use transform="translate(223.046875 0.234375)" xlink:href="#DejaVuSans-101"/>
      <use transform="translate(284.570312 0.234375)" xlink:href="#DejaVuSans-32"/>
      <use transform="translate(316.357422 0.234375)" xlink:href="#DejaVuSans-40"/>
      <use transform="translate(355.371094 0.234375)" xlink:href="#DejaVuSans-Oblique-952"/>
      <use transform="translate(416.552734 -16.171875)scale(0.7)" xlink:href="#DejaVuSans-Oblique-109"/>
      <use transform="translate(487.475586 0.234375)" xlink:href="#DejaVuSans-41"/>
     </g>
    </g>
   </g>
   <g id="matplotlib.axis_2">
    <g id="ytick_1">
     <g id="line2d_7">
      <defs>
       <path d="M 0 0 
L -3.5 0 
" id="m26152000e5" style="stroke:#000000;stroke-width:0.8;"/>
      </defs>
      <g>
       <use style="stroke:#000000;stroke-width:0.8;" x="135" xlink:href="#m26152000e5" y="436.064739"/>
      </g>
     </g>
     <g id="text_8">
      <!-- −10 -->
      <defs>
       <path d="M 10.59375 35.5 
L 73.1875 35.5 
L 73.1875 27.203125 
L 10.59375 27.203125 
z
" id="DejaVuSans-8722"/>
      </defs>
      <g transform="translate(90.011562 442.903333)scale(0.18 -0.18)">
       <use xlink:href="#DejaVuSans-8722"/>
       <use x="83.789062" xlink:href="#DejaVuSans-49"/>
       <use x="147.412109" xlink:href="#DejaVuSans-48"/>
      </g>
     </g>
    </g>
    <g id="ytick_2">
     <g id="line2d_8">
      <g>
       <use style="stroke:#000000;stroke-width:0.8;" x="135" xlink:href="#m26152000e5" y="350.020331"/>
      </g>
     </g>
     <g id="text_9">
      <!-- −5 -->
      <defs>
       <path d="M 10.796875 72.90625 
L 49.515625 72.90625 
L 49.515625 64.59375 
L 19.828125 64.59375 
L 19.828125 46.734375 
Q 21.96875 47.46875 24.109375 47.828125 
Q 26.265625 48.1875 28.421875 48.1875 
Q 40.625 48.1875 47.75 41.5 
Q 54.890625 34.8125 54.890625 23.390625 
Q 54.890625 11.625 47.5625 5.09375 
Q 40.234375 -1.421875 26.90625 -1.421875 
Q 22.3125 -1.421875 17.546875 -0.640625 
Q 12.796875 0.140625 7.71875 1.703125 
L 7.71875 11.625 
Q 12.109375 9.234375 16.796875 8.0625 
Q 21.484375 6.890625 26.703125 6.890625 
Q 35.15625 6.890625 40.078125 11.328125 
Q 45.015625 15.765625 45.015625 23.390625 
Q 45.015625 31 40.078125 35.4375 
Q 35.15625 39.890625 26.703125 39.890625 
Q 22.75 39.890625 18.8125 39.015625 
Q 14.890625 38.140625 10.796875 36.28125 
z
" id="DejaVuSans-53"/>
      </defs>
      <g transform="translate(101.464062 356.858924)scale(0.18 -0.18)">
       <use xlink:href="#DejaVuSans-8722"/>
       <use x="83.789062" xlink:href="#DejaVuSans-53"/>
      </g>
     </g>
    </g>
    <g id="ytick_3">
     <g id="line2d_9">
      <g>
       <use style="stroke:#000000;stroke-width:0.8;" x="135" xlink:href="#m26152000e5" y="263.975922"/>
      </g>
     </g>
     <g id="text_10">
      <!-- 0 -->
      <g transform="translate(116.5475 270.814516)scale(0.18 -0.18)">
       <use xlink:href="#DejaVuSans-48"/>
      </g>
     </g>
    </g>
    <g id="ytick_4">
     <g id="line2d_10">
      <g>
       <use style="stroke:#000000;stroke-width:0.8;" x="135" xlink:href="#m26152000e5" y="177.931514"/>
      </g>
     </g>
     <g id="text_11">
      <!-- 5 -->
      <g transform="translate(116.5475 184.770108)scale(0.18 -0.18)">
       <use xlink:href="#DejaVuSans-53"/>
      </g>
     </g>
    </g>
    <g id="ytick_5">
     <g id="line2d_11">
      <g>
       <use style="stroke:#000000;stroke-width:0.8;" x="135" xlink:href="#m26152000e5" y="91.887105"/>
      </g>
     </g>
     <g id="text_12">
      <!-- 10 -->
      <g transform="translate(105.095 98.725699)scale(0.18 -0.18)">
       <use xlink:href="#DejaVuSans-49"/>
       <use x="63.623047" xlink:href="#DejaVuSans-48"/>
      </g>
     </g>
    </g>
    <g id="text_13">
     <!-- Torque [pu.] -->
     <defs>
      <path d="M -0.296875 72.90625 
L 61.375 72.90625 
L 61.375 64.59375 
L 35.5 64.59375 
L 35.5 0 
L 25.59375 0 
L 25.59375 64.59375 
L -0.296875 64.59375 
z
" id="DejaVuSans-84"/>
      <path d="M 30.609375 48.390625 
Q 23.390625 48.390625 19.1875 42.75 
Q 14.984375 37.109375 14.984375 27.296875 
Q 14.984375 17.484375 19.15625 11.84375 
Q 23.34375 6.203125 30.609375 6.203125 
Q 37.796875 6.203125 41.984375 11.859375 
Q 46.1875 17.53125 46.1875 27.296875 
Q 46.1875 37.015625 41.984375 42.703125 
Q 37.796875 48.390625 30.609375 48.390625 
z
M 30.609375 56 
Q 42.328125 56 49.015625 48.375 
Q 55.71875 40.765625 55.71875 27.296875 
Q 55.71875 13.875 49.015625 6.21875 
Q 42.328125 -1.421875 30.609375 -1.421875 
Q 18.84375 -1.421875 12.171875 6.21875 
Q 5.515625 13.875 5.515625 27.296875 
Q 5.515625 40.765625 12.171875 48.375 
Q 18.84375 56 30.609375 56 
z
" id="DejaVuSans-111"/>
      <path d="M 41.109375 46.296875 
Q 39.59375 47.171875 37.8125 47.578125 
Q 36.03125 48 33.890625 48 
Q 26.265625 48 22.1875 43.046875 
Q 18.109375 38.09375 18.109375 28.8125 
L 18.109375 0 
L 9.078125 0 
L 9.078125 54.6875 
L 18.109375 54.6875 
L 18.109375 46.1875 
Q 20.953125 51.171875 25.484375 53.578125 
Q 30.03125 56 36.53125 56 
Q 37.453125 56 38.578125 55.875 
Q 39.703125 55.765625 41.0625 55.515625 
z
" id="DejaVuSans-114"/>
      <path d="M 14.796875 27.296875 
Q 14.796875 17.390625 18.875 11.75 
Q 22.953125 6.109375 30.078125 6.109375 
Q 37.203125 6.109375 41.296875 11.75 
Q 45.40625 17.390625 45.40625 27.296875 
Q 45.40625 37.203125 41.296875 42.84375 
Q 37.203125 48.484375 30.078125 48.484375 
Q 22.953125 48.484375 18.875 42.84375 
Q 14.796875 37.203125 14.796875 27.296875 
z
M 45.40625 8.203125 
Q 42.578125 3.328125 38.25 0.953125 
Q 33.9375 -1.421875 27.875 -1.421875 
Q 17.96875 -1.421875 11.734375 6.484375 
Q 5.515625 14.40625 5.515625 27.296875 
Q 5.515625 40.1875 11.734375 48.09375 
Q 17.96875 56 27.875 56 
Q 33.9375 56 38.25 53.625 
Q 42.578125 51.265625 45.40625 46.390625 
L 45.40625 54.6875 
L 54.390625 54.6875 
L 54.390625 -20.796875 
L 45.40625 -20.796875 
z
" id="DejaVuSans-113"/>
      <path d="M 8.5 21.578125 
L 8.5 54.6875 
L 17.484375 54.6875 
L 17.484375 21.921875 
Q 17.484375 14.15625 20.5 10.265625 
Q 23.53125 6.390625 29.59375 6.390625 
Q 36.859375 6.390625 41.078125 11.03125 
Q 45.3125 15.671875 45.3125 23.6875 
L 45.3125 54.6875 
L 54.296875 54.6875 
L 54.296875 0 
L 45.3125 0 
L 45.3125 8.40625 
Q 42.046875 3.421875 37.71875 1 
Q 33.40625 -1.421875 27.6875 -1.421875 
Q 18.265625 -1.421875 13.375 4.4375 
Q 8.5 10.296875 8.5 21.578125 
z
M 31.109375 56 
z
" id="DejaVuSans-117"/>
      <path d="M 8.59375 75.984375 
L 29.296875 75.984375 
L 29.296875 69 
L 17.578125 69 
L 17.578125 -6.203125 
L 29.296875 -6.203125 
L 29.296875 -13.1875 
L 8.59375 -13.1875 
z
" id="DejaVuSans-91"/>
      <path d="M 18.109375 8.203125 
L 18.109375 -20.796875 
L 9.078125 -20.796875 
L 9.078125 54.6875 
L 18.109375 54.6875 
L 18.109375 46.390625 
Q 20.953125 51.265625 25.265625 53.625 
Q 29.59375 56 35.59375 56 
Q 45.5625 56 51.78125 48.09375 
Q 58.015625 40.1875 58.015625 27.296875 
Q 58.015625 14.40625 51.78125 6.484375 
Q 45.5625 -1.421875 35.59375 -1.421875 
Q 29.59375 -1.421875 25.265625 0.953125 
Q 20.953125 3.328125 18.109375 8.203125 
z
M 48.6875 27.296875 
Q 48.6875 37.203125 44.609375 42.84375 
Q 40.53125 48.484375 33.40625 48.484375 
Q 26.265625 48.484375 22.1875 42.84375 
Q 18.109375 37.203125 18.109375 27.296875 
Q 18.109375 17.390625 22.1875 11.75 
Q 26.265625 6.109375 33.40625 6.109375 
Q 40.53125 6.109375 44.609375 11.75 
Q 48.6875 17.390625 48.6875 27.296875 
z
" id="DejaVuSans-112"/>
      <path d="M 10.6875 12.40625 
L 21 12.40625 
L 21 0 
L 10.6875 0 
z
" id="DejaVuSans-46"/>
      <path d="M 30.421875 75.984375 
L 30.421875 -13.1875 
L 9.71875 -13.1875 
L 9.71875 -6.203125 
L 21.390625 -6.203125 
L 21.390625 69 
L 9.71875 69 
L 9.71875 75.984375 
z
" id="DejaVuSans-93"/>
     </defs>
     <g transform="translate(81.268125 308.652188)rotate(-90)scale(0.18 -0.18)">
      <use xlink:href="#DejaVuSans-84"/>
      <use x="44.083984" xlink:href="#DejaVuSans-111"/>
      <use x="105.265625" xlink:href="#DejaVuSans-114"/>
      <use x="144.628906" xlink:href="#DejaVuSans-113"/>
      <use x="208.105469" xlink:href="#DejaVuSans-117"/>
      <use x="271.484375" xlink:href="#DejaVuSans-101"/>
      <use x="333.007812" xlink:href="#DejaVuSans-32"/>
      <use x="364.794922" xlink:href="#DejaVuSans-91"/>
      <use x="403.808594" xlink:href="#DejaVuSans-112"/>
      <use x="467.285156" xlink:href="#DejaVuSans-117"/>
      <use x="530.664062" xlink:href="#DejaVuSans-46"/>
      <use x="562.451172" xlink:href="#DejaVuSans-93"/>
     </g>
    </g>
   </g>
   <g id="line2d_12">
    <path clip-path="url(#p79d061c91b)" d="M 173.045455 85.84909 
L 173.807889 83.579084 
L 174.570322 82.682304 
L 175.332756 86.418089 
L 176.09519 83.912215 
L 176.857624 79.732257 
L 178.382492 78.536047 
L 179.90736 81.997715 
L 180.669794 79.433646 
L 181.432228 83.526921 
L 182.194662 83.950018 
L 182.957096 89.493541 
L 183.71953 85.757605 
L 184.481964 91.286176 
L 185.244398 87.975309 
L 186.006832 94.705481 
L 186.769266 95.088841 
L 187.5317 88.941737 
L 188.294134 94.505161 
L 189.056568 92.032333 
L 189.819002 98.751683 
L 190.581436 97.841623 
L 191.34387 106.698452 
L 192.106304 117.102062 
L 192.868737 104.620053 
L 193.631171 95.60921 
L 194.393605 94.77338 
L 195.156039 88.185926 
L 195.918473 84.167833 
L 196.680907 91.267125 
L 197.443341 91.681379 
L 198.205775 89.928799 
L 200.493077 79.223604 
L 201.255511 81.107316 
L 202.017945 78.425435 
L 202.780379 78.242971 
L 203.542813 80.998662 
L 204.305247 80.686609 
L 205.067681 79.264197 
L 205.830115 78.461443 
L 206.592549 78.126862 
L 208.879851 78.532593 
L 209.642285 78.273892 
L 210.404719 80.263913 
L 211.167152 82.953843 
L 211.929586 91.208007 
L 212.69202 88.589784 
L 213.454454 92.847736 
L 214.216888 89.626375 
L 214.979322 101.600903 
L 215.741756 115.761564 
L 216.50419 107.307743 
L 217.266624 110.740286 
L 218.029058 115.58023 
L 218.791492 124.175175 
L 219.553926 121.121472 
L 220.31636 136.249571 
L 221.078794 134.376998 
L 221.841228 147.898342 
L 222.603662 139.630244 
L 223.366096 138.684232 
L 224.12853 135.260196 
L 224.890964 142.497203 
L 225.653398 142.917643 
L 226.415832 161.685847 
L 227.178266 170.482938 
L 227.9407 189.366588 
L 228.703134 191.747154 
L 229.465567 206.754719 
L 230.228001 199.942509 
L 230.990435 212.438937 
L 231.752869 206.301759 
L 232.515303 215.464958 
L 233.277737 213.019421 
L 234.040171 217.728943 
L 234.802605 220.78144 
L 235.565039 230.821919 
L 236.327473 229.302374 
L 237.089907 220.306756 
L 237.852341 229.924118 
L 238.614775 226.085095 
L 239.377209 227.899808 
L 240.139643 234.40553 
L 240.902077 235.821324 
L 241.664511 238.806809 
L 242.426945 240.734976 
L 243.189379 240.541502 
L 243.951813 241.056529 
L 244.714247 238.333339 
L 245.476681 239.829459 
L 246.239115 240.350176 
L 247.001549 237.693896 
L 247.763983 233.964581 
L 248.526416 237.89909 
L 249.28885 231.000865 
L 250.051284 230.536337 
L 250.813718 219.828964 
L 251.576152 219.016565 
L 252.338586 215.810816 
L 253.10102 216.608995 
L 253.863454 208.14654 
L 254.625888 201.267894 
L 255.388322 210.082252 
L 256.150756 202.168096 
L 256.91319 209.308186 
L 257.675624 209.222531 
L 258.438058 202.163418 
L 259.200492 200.25278 
L 259.962926 208.31927 
L 260.72536 195.559061 
L 261.487794 192.078896 
L 262.250228 199.879989 
L 263.012662 198.936485 
L 263.775096 194.315246 
L 264.53753 198.211527 
L 265.299964 203.249526 
L 266.062398 198.307839 
L 267.587265 187.114429 
L 268.349699 183.430241 
L 269.112133 186.933101 
L 269.874567 191.601138 
L 270.637001 183.066519 
L 271.399435 186.508481 
L 272.161869 186.113531 
L 272.924303 173.940051 
L 273.686737 178.083932 
L 274.449171 180.900611 
L 275.211605 174.510257 
L 275.974039 182.379038 
L 276.736473 180.580207 
L 277.498907 185.510606 
L 278.261341 192.040404 
L 279.023775 189.359615 
L 279.786209 188.615446 
L 281.311077 204.248534 
L 282.073511 207.491322 
L 282.835945 216.019242 
L 283.598379 212.931717 
L 284.360813 209.017656 
L 285.123246 215.774282 
L 285.88568 218.925781 
L 286.648114 206.167882 
L 287.410548 212.307519 
L 288.172982 204.109539 
L 288.935416 200.058059 
L 289.69785 188.764253 
L 290.460284 195.467854 
L 291.222718 203.751835 
L 291.985152 195.494929 
L 292.747586 190.489735 
L 293.51002 198.561344 
L 294.272454 188.555573 
L 295.034888 176.756883 
L 295.797322 167.849179 
L 296.559756 165.202894 
L 297.32219 165.316884 
L 298.084624 159.835766 
L 298.847058 159.605239 
L 299.609492 162.918855 
L 300.371926 162.664039 
L 301.13436 158.908128 
L 301.896794 156.268808 
L 302.659228 156.298567 
L 303.421662 156.064472 
L 304.184095 156.185056 
L 304.946529 157.79226 
L 305.708963 156.398014 
L 306.471397 156.841323 
L 307.233831 156.493505 
L 307.996265 157.516586 
L 308.758699 160.857351 
L 309.521133 162.967335 
L 310.283567 172.384579 
L 311.046001 183.921323 
L 311.808435 185.290719 
L 312.570869 182.072839 
L 313.333303 199.896916 
L 314.095737 202.896883 
L 314.858171 204.580848 
L 315.620605 218.665451 
L 316.383039 226.307577 
L 317.145473 239.382038 
L 317.907907 258.923028 
L 318.670341 261.393723 
L 319.432775 270.243079 
L 320.195209 288.145649 
L 320.957643 280.440124 
L 321.720077 302.682303 
L 322.48251 292.469275 
L 323.244944 310.477093 
L 324.007378 311.916304 
L 324.769812 328.944226 
L 325.532246 342.604681 
L 326.29468 350.863731 
L 327.819548 355.141183 
L 328.581982 356.726621 
L 329.344416 356.542945 
L 330.10685 355.07173 
L 331.631718 356.92358 
L 332.394152 355.595119 
L 333.156586 351.41926 
L 333.91902 349.670002 
L 334.681454 355.108463 
L 335.443888 356.006123 
L 336.206322 353.010808 
L 336.968756 353.639376 
L 337.73119 353.67337 
L 338.493624 349.541207 
L 339.256058 347.679552 
L 340.018492 347.441464 
L 340.780925 345.189323 
L 341.543359 350.727907 
L 342.305793 354.686444 
L 343.068227 351.511271 
L 343.830661 354.48609 
L 344.593095 355.016258 
L 345.355529 355.021921 
L 346.117963 356.452764 
L 346.880397 356.606198 
L 347.642831 353.030506 
L 348.405265 348.332571 
L 349.167699 350.126555 
L 349.930133 347.577511 
L 350.692567 344.461803 
L 351.455001 350.683247 
L 352.217435 354.79584 
L 353.742303 345.917045 
L 354.504737 345.857862 
L 355.267171 337.136126 
L 356.029605 342.618508 
L 356.792039 345.275898 
L 357.554473 344.756323 
L 358.316907 342.297519 
L 359.841774 319.381091 
L 360.604208 310.447625 
L 361.366642 321.117595 
L 362.129076 319.368313 
L 362.89151 328.329061 
L 363.653944 319.57423 
L 364.416378 307.143305 
L 365.178812 305.066723 
L 365.941246 309.221129 
L 366.70368 296.133546 
L 367.466114 294.97568 
L 368.228548 291.871122 
L 368.990982 299.939723 
L 369.753416 290.984731 
L 370.51585 288.733933 
L 371.278284 299.409612 
L 372.040718 294.283019 
L 372.803152 299.835233 
L 373.565586 307.362426 
L 374.32802 302.75209 
L 375.090454 304.998565 
L 375.852888 299.968073 
L 376.615322 310.905594 
L 377.377756 310.408169 
L 378.140189 321.623334 
L 378.902623 306.786767 
L 379.665057 314.040773 
L 380.427491 311.489429 
L 381.189925 305.996875 
L 381.952359 306.219915 
L 382.714793 300.672487 
L 383.477227 303.141732 
L 384.239661 310.818104 
L 385.764529 318.286871 
L 386.526963 328.119955 
L 388.814265 301.138412 
L 389.576699 304.973708 
L 390.339133 304.999579 
L 391.101567 309.586742 
L 391.864001 309.290794 
L 392.626435 317.369645 
L 393.388869 316.193517 
L 394.151303 313.063991 
L 394.913737 322.409349 
L 395.676171 320.283229 
L 396.438604 311.307118 
L 397.201038 297.26827 
L 397.963472 299.916961 
L 398.725906 291.397107 
L 399.48834 291.814821 
L 400.250774 300.774216 
L 401.013208 301.268968 
L 401.775642 290.292306 
L 402.538076 297.973491 
L 404.062944 309.384261 
L 404.825378 302.793539 
L 405.587812 310.770955 
L 406.350246 312.707951 
L 407.11268 309.971692 
L 407.875114 319.269193 
L 408.637548 316.870037 
L 409.399982 321.04467 
L 410.162416 312.267143 
L 410.92485 305.864337 
L 411.687284 292.902637 
L 412.449718 282.012483 
L 413.212152 281.01629 
L 414.737019 279.658512 
L 415.499453 268.247258 
L 416.261887 268.075087 
L 417.024321 271.780723 
L 417.786755 277.79739 
L 418.549189 285.807418 
L 419.311623 289.061813 
L 420.074057 276.142107 
L 420.836491 282.246715 
L 421.598925 285.444394 
L 422.361359 276.126017 
L 423.123793 279.277762 
L 423.886227 277.24804 
L 424.648661 267.316946 
L 425.411095 259.062152 
L 426.173529 260.846994 
L 426.935963 255.959388 
L 427.698397 254.030326 
L 428.460831 257.000542 
L 429.223265 254.493166 
L 429.985699 253.454283 
L 430.748133 253.305978 
L 432.273001 256.665393 
L 433.035435 258.719801 
L 433.797868 257.098159 
L 434.560302 262.585595 
L 435.322736 258.484371 
L 436.08517 266.631398 
L 436.847604 259.60747 
L 437.610038 257.813602 
L 438.372472 263.584924 
L 439.134906 266.661995 
L 439.89734 261.55925 
L 440.659774 264.816534 
L 441.422208 273.486043 
L 442.184642 271.094796 
L 442.947076 275.486006 
L 443.70951 277.435289 
L 444.471944 288.202559 
L 445.234378 293.460374 
L 445.996812 308.515558 
L 446.759246 304.824229 
L 448.284114 328.103216 
L 449.046548 328.331379 
L 449.808982 318.054128 
L 452.096283 339.704631 
L 452.858717 358.810192 
L 453.621151 355.840514 
L 454.383585 362.865086 
L 455.908453 350.75728 
L 456.670887 343.10786 
L 457.433321 331.085316 
L 458.195755 345.96223 
L 458.958189 340.524012 
L 459.720623 332.269828 
L 460.483057 348.249831 
L 461.245491 337.343301 
L 462.007925 335.272696 
L 462.770359 338.98338 
L 464.295227 364.5094 
L 465.057661 374.194063 
L 465.820095 382.219857 
L 466.582529 387.623702 
L 467.344963 383.335236 
L 468.107397 373.515298 
L 468.869831 379.833165 
L 469.632265 388.993236 
L 470.394698 383.336097 
L 471.157132 384.679277 
L 471.919566 383.314895 
L 472.682 392.446717 
L 473.444434 389.698913 
L 474.206868 398.545808 
L 474.969302 398.684123 
L 475.731736 398.388442 
L 476.49417 394.760261 
L 477.256604 396.72899 
L 478.019038 397.366529 
L 478.781472 402.514028 
L 479.543906 399.438134 
L 480.30634 393.756343 
L 481.068774 400.334619 
L 481.831208 403.341989 
L 482.593642 403.467698 
L 483.356076 402.564569 
L 484.11851 400.012666 
L 484.880944 402.593904 
L 485.643378 400.308996 
L 486.405812 397.424361 
L 487.168246 400.301702 
L 487.93068 397.825274 
L 488.693113 391.270569 
L 489.455547 378.977344 
L 490.980415 348.814203 
L 491.742849 350.610767 
L 492.505283 358.110423 
L 493.267717 347.916981 
L 494.030151 333.124808 
L 494.792585 321.174593 
L 495.555019 319.140177 
L 496.317453 325.591254 
L 497.079887 329.642154 
L 497.842321 331.87648 
L 498.604755 326.415574 
L 500.129623 312.922178 
L 501.654491 325.502593 
L 502.416925 308.494976 
L 503.179359 300.497797 
L 503.941793 307.145687 
L 504.704227 292.219788 
L 505.466661 280.640419 
L 506.229095 274.153345 
L 506.991529 272.85439 
L 507.753962 268.408667 
L 508.516396 267.559831 
L 509.27883 267.724661 
L 510.041264 268.410563 
L 510.803698 272.971407 
L 511.566132 281.251663 
L 512.328566 275.247107 
L 513.091 273.216065 
L 513.853434 274.852286 
L 515.378302 270.057355 
L 516.90317 283.147544 
L 517.665604 280.86894 
L 519.190472 271.275419 
L 519.952906 276.947373 
L 520.71534 284.797663 
L 521.477774 285.379441 
L 522.240208 297.403802 
L 523.002642 301.711046 
L 523.765076 291.074158 
L 524.52751 292.568987 
L 525.289944 289.492333 
L 526.052377 296.497043 
L 527.577245 325.873351 
L 528.339679 314.340831 
L 529.102113 331.977721 
L 529.864547 337.76839 
L 530.626981 329.764488 
L 531.389415 343.328016 
L 532.151849 339.351972 
L 532.914283 354.748651 
L 534.439151 377.786402 
L 535.201585 373.212963 
L 535.964019 386.759191 
L 536.726453 380.413712 
L 537.488887 379.057197 
L 538.251321 389.607447 
L 539.013755 381.967557 
L 539.776189 376.36388 
L 540.538623 371.75351 
L 541.301057 370.080383 
L 542.063491 373.846319 
L 542.825925 386.169194 
L 543.588359 386.731745 
L 544.350792 396.434681 
L 545.113226 389.149474 
L 545.87566 391.36334 
L 546.638094 389.533908 
L 548.162962 400.783111 
L 548.925396 398.644865 
L 549.68783 402.132712 
L 550.450264 403.240857 
L 551.212698 401.372201 
L 551.975132 401.048975 
L 552.737566 403.525693 
L 553.5 403.56638 
L 554.262434 402.871284 
L 555.024868 403.585028 
L 555.787302 402.618368 
L 556.549736 403.553308 
L 557.31217 401.587577 
L 558.074604 403.144077 
L 558.837038 403.605678 
L 559.599472 403.543014 
L 560.361906 402.558817 
L 561.12434 401.053927 
L 561.886774 402.858712 
L 562.649208 401.093928 
L 563.411641 400.011973 
L 564.174075 402.824642 
L 564.936509 398.958234 
L 565.698943 401.058088 
L 566.461377 400.5319 
L 567.223811 393.722754 
L 567.986245 388.688869 
L 568.748679 387.25079 
L 569.511113 390.691749 
L 570.273547 391.219843 
L 571.035981 390.384657 
L 571.798415 394.817891 
L 572.560849 400.34925 
L 573.323283 396.367608 
L 574.085717 391.449573 
L 574.848151 382.740365 
L 575.610585 390.980003 
L 576.373019 385.552498 
L 577.135453 381.457612 
L 577.897887 378.676126 
L 578.660321 384.128682 
L 579.422755 380.125717 
L 580.185189 369.629047 
L 580.947623 363.392486 
L 581.710056 374.261502 
L 582.47249 369.507321 
L 583.234924 366.767877 
L 583.997358 348.789407 
L 584.759792 354.623561 
L 585.522226 351.374062 
L 586.28466 357.856664 
L 587.047094 360.422064 
L 587.809528 356.167178 
L 588.571962 348.514562 
L 589.334396 354.557202 
L 590.09683 350.18628 
L 590.859264 336.578979 
L 591.621698 318.247556 
L 593.146566 329.710268 
L 593.909 336.246623 
L 594.671434 327.847577 
L 595.433868 331.161385 
L 596.196302 318.34207 
L 596.958736 317.403083 
L 597.72117 302.407062 
L 598.483604 290.819728 
L 599.246038 301.24884 
L 600.008471 303.551012 
L 600.770905 299.115272 
L 601.533339 286.57957 
L 602.295773 299.260803 
L 603.058207 304.647419 
L 603.820641 308.728177 
L 604.583075 318.434325 
L 605.345509 321.123264 
L 606.107943 328.811839 
L 606.870377 319.850848 
L 607.632811 331.414596 
L 608.395245 337.412599 
L 609.157679 320.824312 
L 609.920113 310.795678 
L 610.682547 312.784615 
L 611.444981 317.358108 
L 612.969849 283.327531 
L 613.732283 271.890971 
L 614.494717 270.776553 
L 615.257151 264.792878 
L 616.019585 257.388248 
L 616.782019 254.074262 
L 617.544453 253.461027 
L 618.306887 253.579268 
L 619.831754 253.31457 
L 620.594188 253.619901 
L 621.356622 254.425676 
L 622.119056 253.260606 
L 622.88149 254.183853 
L 623.643924 253.258691 
L 624.406358 253.37106 
L 625.931226 253.96481 
L 626.69366 253.608374 
L 627.456094 254.200308 
L 628.218528 257.578092 
L 628.980962 255.889176 
L 629.743396 259.816481 
L 630.50583 261.723416 
L 631.268264 270.649069 
L 632.030698 267.963079 
L 632.793132 272.670748 
L 633.555566 266.580278 
L 634.318 268.289135 
L 635.080434 264.683806 
L 635.842868 262.660524 
L 636.605302 262.894312 
L 637.367735 265.652709 
L 638.130169 267.350469 
L 638.892603 272.235075 
L 639.655037 280.641252 
L 640.417471 282.859676 
L 641.179905 280.941519 
L 641.942339 271.778166 
L 642.704773 267.834641 
L 643.467207 265.296931 
L 644.229641 259.128029 
L 644.992075 259.128922 
L 645.754509 256.017823 
L 646.516943 258.133096 
L 647.279377 258.551098 
L 648.041811 259.310309 
L 649.566679 271.842589 
L 650.329113 264.096846 
L 651.091547 261.366039 
L 651.853981 257.687095 
L 652.616415 258.479847 
L 653.378849 260.755712 
L 654.141283 266.814811 
L 654.903717 263.272658 
L 655.66615 272.885649 
L 656.428584 279.359989 
L 657.191018 274.515555 
L 659.47832 312.109351 
L 660.240754 311.505223 
L 661.003188 325.696673 
L 661.765622 337.608332 
L 662.528056 345.681907 
L 663.29049 341.697532 
L 664.052924 335.315835 
L 664.815358 342.515358 
L 665.577792 339.282967 
L 667.10266 353.932758 
L 667.865094 355.907479 
L 668.627528 356.668214 
L 669.389962 354.116558 
L 670.152396 356.924746 
L 670.91483 356.817295 
L 671.677264 353.872199 
L 672.439698 346.458331 
L 673.202132 345.379242 
L 673.964565 346.968511 
L 674.726999 345.020097 
L 675.489433 339.85218 
L 676.251867 337.800129 
L 677.014301 338.718854 
L 677.776735 345.997849 
L 678.539169 345.511537 
L 679.301603 341.668414 
L 680.064037 338.901283 
L 680.826471 330.370373 
L 681.588905 334.198386 
L 682.351339 333.31597 
L 683.113773 333.018836 
L 683.876207 330.639455 
L 684.638641 329.146314 
L 685.401075 319.588938 
L 686.163509 331.890249 
L 686.925943 318.408314 
L 687.688377 317.36828 
L 688.450811 308.687659 
L 689.213245 319.955346 
L 689.975679 322.237663 
L 690.738113 321.844047 
L 691.500547 333.788221 
L 692.262981 328.612758 
L 693.025414 339.591893 
L 693.787848 338.885846 
L 694.550282 342.75096 
L 695.312716 349.212318 
L 696.07515 338.1108 
L 696.837584 324.867897 
L 697.600018 331.107618 
L 698.362452 325.413657 
L 699.124886 312.840917 
L 699.88732 303.782468 
L 700.649754 316.529572 
L 701.412188 321.667549 
L 702.174622 317.013825 
L 702.937056 317.279998 
L 703.69949 326.648829 
L 704.461924 319.774308 
L 705.224358 328.024798 
L 705.986792 309.187365 
L 706.749226 321.219518 
L 707.51166 315.250734 
L 708.274094 327.145501 
L 709.798962 337.839634 
L 710.561396 323.353631 
L 711.323829 323.331787 
L 712.086263 331.850061 
L 712.848697 313.798834 
L 713.611131 313.026805 
L 714.373565 293.963885 
L 715.135999 299.722131 
L 715.898433 283.140055 
L 716.660867 288.185443 
L 717.423301 292.182408 
L 718.185735 295.220251 
L 718.948169 284.635503 
L 719.710603 272.21887 
L 720.473037 281.108134 
L 721.235471 270.546406 
L 721.997905 280.534249 
L 722.760339 293.094686 
L 723.522773 294.35238 
L 724.285207 307.495406 
L 726.572509 271.445719 
L 727.334943 271.369431 
L 728.097377 286.387716 
L 728.859811 291.102526 
L 729.622244 269.933705 
L 730.384678 278.132116 
L 732.67198 235.008566 
L 733.434414 216.615866 
L 734.959282 188.965845 
L 735.721716 178.694004 
L 736.48415 179.819666 
L 737.246584 172.038088 
L 738.009018 171.10179 
L 738.771452 161.995318 
L 739.533886 166.79691 
L 740.29632 169.14694 
L 741.058754 163.556589 
L 741.821188 164.838644 
L 742.583622 168.69526 
L 743.346056 175.792404 
L 744.10849 170.64861 
L 744.870924 172.263601 
L 745.633358 164.318999 
L 746.395792 163.098151 
L 747.158226 159.195603 
L 747.92066 163.514442 
L 748.683093 170.282441 
L 749.445527 174.526532 
L 750.207961 166.310607 
L 750.970395 165.753422 
L 751.732829 171.602564 
L 752.495263 163.800901 
L 753.257697 159.845236 
L 754.020131 165.13742 
L 754.782565 168.065426 
L 755.544999 176.969214 
L 756.307433 174.724043 
L 757.069867 172.954799 
L 757.832301 168.176467 
L 758.594735 174.560716 
L 760.119603 165.718413 
L 760.882037 165.409928 
L 761.644471 159.338296 
L 762.406905 156.108331 
L 763.169339 157.171921 
L 763.931773 156.132408 
L 764.694207 156.178438 
L 765.456641 157.172262 
L 766.219075 156.169969 
L 766.981508 157.405875 
L 767.743942 156.731793 
L 768.506376 158.059963 
L 769.26881 158.294587 
L 770.031244 157.612433 
L 770.793678 159.991451 
L 771.556112 157.169982 
L 772.318546 156.048727 
L 773.08098 156.068415 
L 773.843414 156.492282 
L 774.605848 156.152512 
L 775.368282 156.049398 
L 776.130716 156.077754 
L 776.89315 156.32199 
L 777.655584 156.802214 
L 778.418018 161.476618 
L 779.180452 169.132401 
L 779.942886 173.896314 
L 780.70532 169.811305 
L 781.467754 175.719603 
L 782.230188 185.751942 
L 782.992622 193.244769 
L 783.755056 195.017432 
L 784.51749 200.1359 
L 785.279923 200.761881 
L 786.042357 206.158335 
L 786.804791 198.899501 
L 787.567225 210.583148 
L 788.329659 203.655207 
L 789.092093 206.741492 
L 789.854527 202.497551 
L 790.616961 194.608843 
L 791.379395 193.236621 
L 792.141829 199.52785 
L 792.904263 192.746505 
L 793.666697 205.946057 
L 794.429131 200.852531 
L 795.191565 202.102956 
L 795.953999 204.284114 
L 796.716433 197.378558 
L 797.478867 208.664292 
L 798.241301 198.738295 
L 799.003735 193.158935 
L 799.766169 205.103282 
L 800.528603 202.105653 
L 801.291037 213.715449 
L 802.815905 224.557188 
L 803.578338 226.960841 
L 804.340772 223.203338 
L 805.103206 231.33249 
L 805.86564 228.938766 
L 806.628074 234.897263 
L 807.390508 235.555838 
L 808.152942 239.598343 
L 808.915376 240.933833 
L 810.440244 238.856173 
L 811.965112 240.513361 
L 812.727546 241.14345 
L 813.48998 241.070289 
L 814.252414 240.504924 
L 815.014848 236.99464 
L 815.777282 240.27345 
L 816.539716 235.137535 
L 817.30215 233.12485 
L 818.064584 235.723164 
L 818.827018 227.000235 
L 819.589452 227.860102 
L 820.351886 224.954713 
L 821.11432 216.576569 
L 821.876754 219.040454 
L 822.639187 205.541359 
L 823.401621 189.944985 
L 824.164055 194.620524 
L 824.926489 206.822224 
L 825.688923 197.681329 
L 826.451357 197.970673 
L 827.213791 199.82514 
L 827.976225 189.770725 
L 828.738659 193.628417 
L 829.501093 203.052102 
L 830.263527 206.953753 
L 831.025961 202.457684 
L 831.788395 187.721894 
L 832.550829 178.02301 
L 833.313263 178.229982 
L 834.075697 161.242802 
L 834.838131 176.61439 
L 836.362999 136.990131 
L 837.887867 112.963384 
L 838.650301 122.4255 
L 839.412735 127.327609 
L 840.175169 132.953376 
L 840.937602 114.681861 
L 841.700036 123.551211 
L 842.46247 124.811064 
L 843.224904 133.409437 
L 843.987338 136.027191 
L 844.749772 119.01614 
L 845.512206 123.504109 
L 846.27464 115.020527 
L 847.037074 99.490943 
L 847.799508 98.469201 
L 848.561942 106.529212 
L 849.324376 92.447342 
L 850.08681 86.632153 
L 850.849244 81.717601 
L 851.611678 83.424972 
L 852.374112 82.939184 
L 853.136546 78.472678 
L 854.661414 78.12 
L 855.423848 80.026814 
L 856.186282 81.336613 
L 856.948716 88.076168 
L 857.71115 86.844618 
L 858.473584 96.818193 
L 859.236017 103.205187 
L 859.998451 102.964118 
L 860.760885 99.142726 
L 861.523319 90.958868 
L 862.285753 99.809253 
L 863.048187 97.363866 
L 863.810621 89.355654 
L 864.573055 91.407143 
L 865.335489 88.444256 
L 866.097923 90.042076 
L 866.860357 86.899216 
L 867.622791 94.142397 
L 868.385225 104.157453 
L 869.147659 100.809124 
L 869.910093 111.001719 
L 870.672527 129.515573 
L 871.434961 122.246544 
L 872.197395 111.024022 
L 872.959829 125.368407 
L 873.722263 123.506432 
L 874.484697 111.06014 
L 875.247131 126.29815 
L 876.009565 129.103689 
L 876.771999 120.848314 
L 877.534433 130.773231 
L 878.296866 120.754891 
L 879.0593 131.304301 
L 879.821734 138.694636 
L 880.584168 143.386635 
L 881.346602 152.348765 
L 882.109036 142.464111 
L 882.87147 129.744522 
L 883.633904 134.785951 
L 884.396338 138.817227 
L 885.158772 145.320238 
L 885.921206 142.868204 
L 886.68364 154.903299 
L 887.446074 158.925287 
L 888.208508 144.66543 
L 888.970942 143.141913 
L 889.733376 147.337377 
L 890.49581 144.120527 
L 891.258244 135.31635 
L 892.783112 133.813617 
L 893.545546 150.618683 
L 895.070414 165.880947 
L 895.832848 172.055618 
L 896.595281 191.189736 
L 897.357715 193.284045 
L 898.120149 205.820742 
L 898.882583 197.006392 
L 899.645017 199.639665 
L 900.407451 215.296283 
L 901.169885 227.244048 
L 901.932319 235.838208 
L 902.694753 240.399694 
L 903.457187 241.056625 
L 904.219621 241.114257 
L 904.982055 240.95212 
L 905.744489 237.8544 
L 906.506923 235.402323 
L 907.269357 239.157461 
L 908.031791 238.168049 
L 908.794225 234.937057 
L 909.556659 234.426879 
L 910.319093 237.716245 
L 911.081527 232.632714 
L 911.843961 237.693915 
L 912.606395 237.650773 
L 913.368829 234.733661 
L 914.131263 236.098972 
L 914.893696 237.040627 
L 915.65613 239.648107 
L 916.418564 240.653179 
L 917.180998 241.233686 
L 918.705866 238.388158 
L 919.4683 236.466404 
L 920.230734 237.398815 
L 920.993168 239.666683 
L 921.755602 240.688231 
L 922.518036 240.771896 
L 923.28047 237.203188 
L 924.042904 232.486115 
L 924.805338 223.172151 
L 925.567772 211.956612 
L 926.330206 218.893834 
L 927.09264 222.080811 
L 928.617508 205.085283 
L 929.379942 204.149538 
L 930.142376 207.360693 
L 930.90481 213.647502 
L 931.667244 211.686943 
L 932.429678 211.606393 
L 933.192111 211.945086 
L 933.954545 209.544172 
L 933.954545 209.544172 
" style="fill:none;stroke:#0000ff;stroke-linecap:square;stroke-width:1.5;"/>
   </g>
   <g id="line2d_13">
    <path clip-path="url(#p79d061c91b)" d="M 173.045455 84.875531 
L 173.807889 84.42153 
L 174.570322 84.242174 
L 175.332756 84.989331 
L 176.09519 84.488156 
L 176.857624 83.26479 
L 178.382492 81.54409 
L 179.144926 80.290247 
L 179.90736 79.907347 
L 180.669794 79.847624 
L 181.432228 80.72864 
L 182.194662 81.811435 
L 182.957096 83.680368 
L 183.71953 84.432346 
L 184.481964 86.802852 
L 185.244398 87.69253 
L 186.006832 89.843623 
L 186.769266 90.962683 
L 188.294134 92.243306 
L 189.819002 93.863951 
L 190.581436 94.414507 
L 191.34387 97.96585 
L 192.106304 102.485231 
L 192.868737 105.002775 
L 194.393605 103.760632 
L 195.156039 100.058126 
L 195.918473 93.47128 
L 196.680907 90.800695 
L 197.443341 90.015129 
L 198.205775 89.046212 
L 199.730643 88.377763 
L 201.255511 83.854246 
L 202.017945 81.553573 
L 202.780379 79.944031 
L 203.542813 79.599597 
L 204.305247 79.892198 
L 205.067681 79.523575 
L 206.592549 79.507555 
L 208.117417 78.498391 
L 209.642285 78.31456 
L 210.404719 78.74197 
L 211.167152 79.67514 
L 211.929586 82.24645 
L 212.69202 84.257888 
L 213.454454 87.172657 
L 214.216888 89.045149 
L 214.979322 92.774561 
L 215.741756 97.685272 
L 217.266624 105.007374 
L 218.791492 114.713 
L 219.553926 115.784981 
L 220.31636 121.573347 
L 221.078794 126.300689 
L 221.841228 132.764311 
L 223.366096 139.367877 
L 224.12853 139.170002 
L 224.890964 140.794043 
L 225.653398 139.797903 
L 226.415832 144.209024 
L 227.178266 150.568766 
L 229.465567 184.007449 
L 230.990435 200.049981 
L 231.752869 203.437016 
L 232.515303 208.180577 
L 233.277737 209.433517 
L 234.040171 212.990804 
L 234.802605 214.659304 
L 235.565039 219.563336 
L 236.327473 222.330819 
L 237.089907 223.788286 
L 237.852341 226.227321 
L 238.614775 227.288052 
L 239.377209 226.70363 
L 240.139643 227.724261 
L 240.902077 230.827175 
L 241.664511 232.603713 
L 243.189379 238.062028 
L 243.951813 239.392228 
L 244.714247 239.894631 
L 245.476681 240.099161 
L 246.239115 240.022201 
L 247.001549 239.45268 
L 247.763983 238.03429 
L 248.526416 237.94744 
L 250.051284 234.218954 
L 250.813718 230.645967 
L 251.576152 227.656364 
L 252.338586 223.238709 
L 253.10102 220.360335 
L 253.863454 215.882376 
L 254.625888 212.170162 
L 255.388322 210.383299 
L 256.150756 207.654755 
L 256.91319 206.194594 
L 258.438058 206.588897 
L 259.200492 204.623003 
L 259.962926 205.853237 
L 260.72536 203.103412 
L 261.487794 199.674685 
L 262.250228 199.217999 
L 263.012662 198.95474 
L 263.775096 196.153935 
L 264.53753 196.684429 
L 265.299964 198.918555 
L 266.062398 198.604125 
L 267.587265 195.876879 
L 269.112133 189.657337 
L 269.874567 188.315997 
L 270.637001 186.429085 
L 271.399435 186.307896 
L 272.161869 186.844554 
L 273.686737 181.542503 
L 274.449171 181.109321 
L 275.211605 178.709676 
L 275.974039 177.962778 
L 277.498907 180.776144 
L 278.261341 183.004102 
L 279.023775 185.973974 
L 279.786209 187.221256 
L 280.548643 190.399336 
L 281.311077 194.146922 
L 282.073511 197.237105 
L 283.598379 207.432285 
L 285.123246 212.246844 
L 285.88568 214.533736 
L 286.648114 212.563464 
L 287.410548 212.438624 
L 288.172982 211.457001 
L 288.935416 208.313756 
L 289.69785 202.28145 
L 290.460284 200.141445 
L 292.747586 194.793721 
L 293.51002 196.753139 
L 294.272454 195.370683 
L 296.559756 179.385174 
L 298.084624 166.992321 
L 298.847058 163.561993 
L 299.609492 162.575928 
L 300.371926 162.068157 
L 301.13436 160.786405 
L 302.659228 159.411679 
L 304.184095 156.745006 
L 304.946529 156.521833 
L 306.471397 156.656225 
L 307.233831 156.742032 
L 307.996265 157.008338 
L 308.758699 157.621356 
L 309.521133 158.93522 
L 310.283567 162.043871 
L 311.808435 173.084261 
L 312.570869 177.327359 
L 313.333303 184.713275 
L 314.095737 190.815736 
L 314.858171 194.947641 
L 315.620605 201.622587 
L 317.145473 218.366559 
L 320.195209 263.617504 
L 321.720077 280.580976 
L 322.48251 286.796086 
L 323.244944 294.842889 
L 324.007378 299.59702 
L 324.769812 309.29784 
L 325.532246 317.282316 
L 326.29468 328.961207 
L 327.819548 346.145779 
L 328.581982 351.702258 
L 329.344416 354.489911 
L 330.10685 355.331511 
L 330.869284 355.899419 
L 331.631718 356.255898 
L 332.394152 356.029598 
L 333.91902 353.924515 
L 335.443888 353.559793 
L 336.206322 353.042931 
L 336.968756 353.486955 
L 337.73119 354.287628 
L 338.493624 353.174177 
L 339.256058 351.508863 
L 340.018492 350.394994 
L 340.780925 348.704983 
L 341.543359 348.115891 
L 342.305793 349.144938 
L 343.068227 349.911282 
L 343.830661 351.320207 
L 344.593095 353.285594 
L 345.355529 354.144397 
L 346.117963 354.497661 
L 346.880397 355.516646 
L 347.642831 355.225529 
L 348.405265 353.888792 
L 349.167699 352.909719 
L 349.930133 351.134668 
L 350.692567 348.705789 
L 351.455001 348.236337 
L 352.217435 349.528991 
L 352.979869 349.572967 
L 353.742303 349.240874 
L 354.504737 349.520086 
L 356.029605 344.375195 
L 356.792039 343.361088 
L 357.554473 343.128943 
L 358.316907 342.416875 
L 359.07934 341.029185 
L 359.841774 336.381702 
L 360.604208 329.416047 
L 362.129076 320.10246 
L 362.89151 319.728737 
L 363.653944 319.767365 
L 364.416378 319.106501 
L 365.178812 315.896326 
L 365.941246 313.866889 
L 366.70368 307.427786 
L 367.466114 302.508076 
L 368.228548 299.45364 
L 368.990982 298.42824 
L 369.753416 294.78096 
L 370.51585 293.301037 
L 371.278284 294.187824 
L 372.040718 294.670203 
L 372.803152 294.649306 
L 374.32802 300.728476 
L 375.852888 302.983278 
L 376.615322 305.19735 
L 377.377756 305.806498 
L 378.140189 309.580747 
L 378.902623 309.938387 
L 379.665057 312.752927 
L 380.427491 312.869694 
L 381.189925 311.987436 
L 381.952359 308.906752 
L 382.714793 307.683896 
L 383.477227 305.504088 
L 384.239661 305.369823 
L 385.002095 307.03839 
L 385.764529 309.451781 
L 386.526963 314.941275 
L 387.289397 318.101154 
L 388.051831 318.075596 
L 389.576699 312.772704 
L 390.339133 308.148629 
L 391.101567 306.277752 
L 391.864001 305.997847 
L 392.626435 309.244094 
L 393.388869 311.488055 
L 394.151303 313.100938 
L 395.676171 317.863946 
L 396.438604 316.651441 
L 397.201038 312.866391 
L 397.963472 310.236985 
L 399.48834 298.340855 
L 400.250774 296.234275 
L 401.013208 297.034414 
L 401.775642 295.109483 
L 402.538076 296.42476 
L 403.30051 298.794251 
L 404.062944 300.51626 
L 404.825378 300.821174 
L 405.587812 304.916904 
L 406.350246 307.863796 
L 407.11268 309.12568 
L 407.875114 311.102666 
L 408.637548 313.917966 
L 409.399982 315.972709 
L 410.162416 315.884547 
L 410.92485 315.063076 
L 411.687284 309.789765 
L 412.449718 302.818254 
L 413.212152 294.812578 
L 413.974586 288.416778 
L 415.499453 278.244537 
L 416.261887 275.457058 
L 417.024321 273.609944 
L 417.786755 273.111794 
L 418.549189 274.341575 
L 419.311623 278.504486 
L 420.074057 280.11789 
L 420.836491 282.211088 
L 421.598925 283.740489 
L 423.123793 279.847399 
L 423.886227 280.068586 
L 424.648661 277.082632 
L 425.411095 271.806183 
L 426.173529 268.750379 
L 427.698397 259.443161 
L 428.460831 257.37988 
L 429.223265 256.466083 
L 429.985699 254.987541 
L 430.748133 254.456859 
L 431.510567 254.62575 
L 432.273001 254.55872 
L 433.797868 256.132822 
L 434.560302 257.988746 
L 435.322736 258.710664 
L 436.08517 260.703865 
L 438.372472 261.224353 
L 439.134906 262.859878 
L 439.89734 261.845448 
L 440.659774 262.887261 
L 441.422208 266.021749 
L 442.184642 267.523724 
L 442.947076 269.288526 
L 443.70951 272.463734 
L 445.234378 281.135805 
L 445.996812 288.619957 
L 446.759246 294.487602 
L 449.046548 317.37319 
L 449.808982 319.280904 
L 450.571416 323.324469 
L 451.33385 326.20721 
L 452.096283 328.527493 
L 452.858717 334.623255 
L 454.383585 349.74514 
L 455.146019 354.761505 
L 455.908453 356.972035 
L 456.670887 353.831568 
L 457.433321 348.880528 
L 459.720623 338.589849 
L 460.483057 339.618243 
L 461.245491 340.86984 
L 462.007925 338.731934 
L 462.770359 338.423807 
L 463.532793 342.325852 
L 464.295227 345.577765 
L 465.057661 352.947918 
L 466.582529 372.065415 
L 467.344963 378.376452 
L 468.107397 380.177631 
L 468.869831 381.305452 
L 469.632265 382.660127 
L 470.394698 381.802606 
L 471.157132 382.071415 
L 471.919566 384.031334 
L 472.682 386.554044 
L 473.444434 386.69518 
L 475.731736 395.5528 
L 476.49417 396.015509 
L 477.256604 397.421525 
L 478.019038 397.185669 
L 478.781472 397.95165 
L 479.543906 398.161589 
L 480.30634 397.960805 
L 481.068774 398.681931 
L 481.831208 399.877023 
L 482.593642 400.067757 
L 483.356076 400.693043 
L 484.11851 401.944308 
L 484.880944 402.396165 
L 485.643378 401.789567 
L 486.405812 400.580899 
L 487.93068 399.690848 
L 488.693113 397.42618 
L 489.455547 393.15985 
L 490.217981 386.254825 
L 491.742849 366.514424 
L 493.267717 353.670322 
L 496.317453 329.389563 
L 497.079887 325.734597 
L 497.842321 325.484932 
L 498.604755 326.533128 
L 499.367189 326.556989 
L 500.129623 324.023173 
L 500.892057 321.960238 
L 501.654491 320.68546 
L 503.179359 313.349004 
L 503.941793 312.193706 
L 504.704227 306.772168 
L 505.466661 297.799733 
L 506.229095 290.931407 
L 506.991529 285.402726 
L 507.753962 277.655322 
L 508.516396 272.72333 
L 509.27883 270.140179 
L 510.041264 268.991622 
L 510.803698 269.015026 
L 511.566132 271.583625 
L 512.328566 273.12108 
L 513.853434 275.507706 
L 514.615868 275.402029 
L 515.378302 273.163167 
L 516.140736 273.394169 
L 516.90317 275.380464 
L 517.665604 276.583795 
L 518.428038 277.356573 
L 519.190472 277.600186 
L 519.952906 277.709238 
L 520.71534 278.039261 
L 521.477774 278.941362 
L 522.240208 283.16074 
L 523.002642 289.247865 
L 523.765076 292.073222 
L 524.52751 293.627487 
L 525.289944 294.450065 
L 526.052377 294.268713 
L 526.814811 296.179064 
L 527.577245 303.138903 
L 528.339679 307.493271 
L 529.864547 324.244618 
L 531.389415 331.435889 
L 533.676717 346.611903 
L 534.439151 356.216286 
L 535.201585 362.193275 
L 535.964019 371.674719 
L 536.726453 376.807731 
L 538.251321 381.810102 
L 539.013755 383.561021 
L 539.776189 381.481959 
L 541.301057 377.954556 
L 542.063491 374.80233 
L 542.825925 375.642657 
L 543.588359 377.71623 
L 544.350792 382.652464 
L 545.87566 389.969687 
L 546.638094 390.642629 
L 547.400528 392.391928 
L 548.162962 393.261614 
L 549.68783 397.314567 
L 550.450264 400.055957 
L 551.212698 401.234749 
L 551.975132 401.287922 
L 552.737566 402.264088 
L 553.5 402.550821 
L 554.262434 402.476907 
L 555.024868 402.919472 
L 555.787302 403.233351 
L 556.549736 403.238874 
L 557.31217 402.843113 
L 559.599472 403.086731 
L 561.12434 402.781103 
L 561.886774 402.72403 
L 562.649208 402.22168 
L 563.411641 401.515471 
L 564.174075 401.568636 
L 565.698943 400.789373 
L 566.461377 400.676967 
L 567.223811 399.419124 
L 567.986245 396.591969 
L 569.511113 392.177212 
L 570.273547 390.314801 
L 571.035981 389.647182 
L 571.798415 390.872986 
L 572.560849 393.492678 
L 573.323283 394.62785 
L 574.085717 394.673796 
L 574.848151 393.144938 
L 575.610585 392.37736 
L 577.897887 383.881321 
L 578.660321 384.158984 
L 579.422755 381.988127 
L 580.947623 375.190412 
L 581.710056 374.307487 
L 583.234924 368.711647 
L 583.997358 364.543719 
L 584.759792 362.789934 
L 585.522226 358.212446 
L 586.28466 355.882314 
L 587.047094 354.613152 
L 587.809528 356.088706 
L 588.571962 354.866906 
L 589.334396 355.503534 
L 590.09683 353.969457 
L 590.859264 349.20084 
L 591.621698 341.616916 
L 593.146566 331.674751 
L 593.909 328.886819 
L 594.671434 327.140539 
L 595.433868 329.723304 
L 596.196302 328.661584 
L 596.958736 326.200147 
L 599.246038 306.044157 
L 600.008471 303.085945 
L 601.533339 296.262885 
L 602.295773 297.951099 
L 603.058207 298.630815 
L 603.820641 299.666248 
L 604.583075 303.530059 
L 606.107943 316.349005 
L 606.870377 319.389691 
L 607.632811 323.926974 
L 608.395245 327.722629 
L 609.157679 327.662839 
L 609.920113 324.059607 
L 610.682547 322.64636 
L 611.444981 319.835062 
L 613.732283 297.192828 
L 614.494717 288.791215 
L 615.257151 278.27817 
L 616.019585 269.635236 
L 616.782019 263.784582 
L 618.306887 256.659137 
L 619.06932 254.37924 
L 619.831754 253.564505 
L 620.594188 253.473633 
L 621.356622 253.666562 
L 622.119056 253.60283 
L 622.88149 253.760921 
L 624.406358 253.699977 
L 625.168792 253.556024 
L 625.931226 253.696865 
L 626.69366 253.581769 
L 627.456094 253.770093 
L 628.218528 254.611499 
L 628.980962 255.048152 
L 629.743396 256.218486 
L 630.50583 257.841495 
L 631.268264 261.131247 
L 632.030698 263.208244 
L 632.793132 266.564559 
L 634.318 269.230462 
L 635.842868 266.976898 
L 636.605302 265.021611 
L 638.130169 264.648364 
L 638.892603 266.158618 
L 641.179905 276.805598 
L 641.942339 277.691138 
L 642.704773 276.811051 
L 643.467207 273.742187 
L 644.992075 264.633338 
L 645.754509 261.481269 
L 646.516943 259.54096 
L 647.279377 258.191793 
L 648.041811 258.228249 
L 648.804245 259.461434 
L 649.566679 262.626387 
L 650.329113 263.819137 
L 651.091547 264.382125 
L 651.853981 264.057483 
L 652.616415 262.694483 
L 653.378849 260.477108 
L 654.141283 261.020701 
L 654.903717 261.402025 
L 655.66615 264.441735 
L 656.428584 268.617764 
L 657.191018 271.369732 
L 657.953452 275.480787 
L 660.240754 297.453518 
L 661.765622 317.737392 
L 662.528056 326.520297 
L 663.29049 332.437933 
L 664.052924 337.200056 
L 664.815358 340.563793 
L 665.577792 340.89872 
L 666.340226 340.998288 
L 667.10266 343.445333 
L 667.865094 347.563662 
L 669.389962 353.360951 
L 670.152396 355.509951 
L 670.91483 356.086858 
L 671.677264 355.679802 
L 673.202132 351.890362 
L 673.964565 349.899115 
L 674.726999 347.539676 
L 675.489433 344.735672 
L 676.251867 343.004032 
L 677.014301 341.671954 
L 677.776735 341.477822 
L 678.539169 341.57611 
L 679.301603 341.939357 
L 680.064037 342.159587 
L 680.826471 340.489891 
L 682.351339 335.690885 
L 683.876207 332.308604 
L 684.638641 332.063792 
L 685.401075 329.141903 
L 686.163509 328.856758 
L 687.688377 323.280419 
L 688.450811 319.188688 
L 689.213245 319.26197 
L 689.975679 317.331452 
L 690.738113 318.018599 
L 691.500547 321.302587 
L 693.025414 329.214917 
L 693.787848 332.544553 
L 694.550282 336.725936 
L 695.312716 339.810755 
L 696.07515 341.710363 
L 696.837584 338.765564 
L 697.600018 337.209919 
L 698.362452 333.742458 
L 699.88732 319.602512 
L 702.174622 314.366866 
L 702.937056 315.254682 
L 703.69949 319.827955 
L 704.461924 320.476902 
L 705.224358 321.748352 
L 705.986792 320.18306 
L 706.749226 320.970964 
L 707.51166 318.691345 
L 708.274094 320.165583 
L 709.036528 321.053524 
L 709.798962 326.783978 
L 710.561396 327.2108 
L 711.323829 328.827011 
L 712.086263 329.767923 
L 712.848697 326.034789 
L 713.611131 321.072224 
L 714.373565 315.194275 
L 715.135999 310.472343 
L 715.898433 300.730342 
L 716.660867 295.607664 
L 717.423301 291.438784 
L 718.185735 291.690058 
L 718.948169 288.672732 
L 719.710603 286.488495 
L 720.473037 285.073033 
L 721.235471 280.745833 
L 721.997905 277.808633 
L 722.760339 279.500469 
L 723.522773 283.927171 
L 725.047641 294.245054 
L 725.810075 294.948655 
L 728.097377 281.800734 
L 728.859811 280.871529 
L 729.622244 278.04782 
L 730.384678 279.385099 
L 731.147112 277.854269 
L 731.909546 270.093615 
L 733.434414 248.211255 
L 735.721716 204.252021 
L 736.48415 193.214241 
L 737.246584 184.298685 
L 738.771452 172.729773 
L 740.29632 168.215809 
L 741.058754 166.519509 
L 741.821188 165.26688 
L 742.583622 166.606869 
L 743.346056 168.405967 
L 744.10849 168.706301 
L 744.870924 170.447704 
L 745.633358 170.343775 
L 746.395792 169.224353 
L 747.158226 165.904993 
L 747.92066 164.478159 
L 748.683093 164.081927 
L 749.445527 166.123434 
L 750.207961 166.765925 
L 750.970395 168.077489 
L 751.732829 169.695113 
L 752.495263 168.398805 
L 753.257697 165.462546 
L 754.020131 165.227909 
L 754.782565 165.69031 
L 755.544999 166.76364 
L 756.307433 168.948268 
L 757.069867 171.570181 
L 757.832301 172.17799 
L 758.594735 173.477048 
L 759.357169 172.088327 
L 760.119603 170.287201 
L 760.882037 168.778227 
L 761.644471 167.010593 
L 762.406905 163.320116 
L 763.169339 160.749378 
L 764.694207 156.985879 
L 765.456641 156.552672 
L 766.981508 156.611791 
L 767.743942 156.731668 
L 768.506376 157.107973 
L 770.031244 157.62093 
L 770.793678 158.138046 
L 771.556112 158.225683 
L 773.08098 157.378202 
L 773.843414 157.154172 
L 774.605848 156.386384 
L 775.368282 156.162267 
L 777.655584 156.280774 
L 778.418018 157.345595 
L 779.180452 159.962195 
L 779.942886 163.525907 
L 780.70532 166.22377 
L 781.467754 170.007248 
L 786.042357 199.063663 
L 786.804791 200.19461 
L 787.567225 203.307753 
L 788.329659 204.011614 
L 789.092093 205.207536 
L 790.616961 203.617248 
L 791.379395 200.147943 
L 792.141829 199.322471 
L 792.904263 196.523474 
L 793.666697 197.213175 
L 794.429131 198.461913 
L 795.191565 200.23518 
L 796.716433 202.112843 
L 797.478867 202.65649 
L 798.241301 202.233643 
L 799.003735 200.444839 
L 799.766169 200.608672 
L 801.291037 202.564323 
L 802.053471 206.657719 
L 802.815905 212.937369 
L 804.340772 221.528418 
L 805.103206 225.051826 
L 807.390508 230.785539 
L 808.152942 234.06454 
L 809.67781 238.179383 
L 811.202678 239.796955 
L 811.965112 239.979959 
L 812.727546 240.021882 
L 814.252414 240.583363 
L 815.014848 240.045333 
L 815.777282 239.997351 
L 816.539716 238.796168 
L 817.30215 237.20708 
L 818.064584 236.250728 
L 818.827018 234.251847 
L 819.589452 231.769177 
L 820.351886 229.732612 
L 821.876754 223.086414 
L 822.639187 218.794639 
L 823.401621 211.211616 
L 824.164055 205.144778 
L 824.926489 203.19391 
L 825.688923 198.922084 
L 826.451357 197.407947 
L 827.213791 199.383978 
L 827.976225 198.414018 
L 828.738659 195.775257 
L 829.501093 196.849411 
L 830.263527 198.646028 
L 831.025961 199.172536 
L 831.788395 198.76277 
L 832.550829 195.641689 
L 833.313263 190.677265 
L 834.075697 181.535074 
L 834.838131 176.366416 
L 835.600565 170.098842 
L 836.362999 161.892266 
L 838.650301 130.659626 
L 839.412735 124.848343 
L 840.175169 124.040992 
L 840.937602 122.070346 
L 841.700036 124.187911 
L 842.46247 124.665024 
L 843.224904 125.88139 
L 843.987338 126.496153 
L 844.749772 127.363009 
L 845.512206 127.353588 
L 846.27464 125.395481 
L 847.799508 111.100184 
L 848.561942 108.602798 
L 850.08681 96.71377 
L 850.849244 93.159102 
L 851.611678 90.150256 
L 852.374112 85.432251 
L 853.136546 82.637318 
L 853.89898 80.967429 
L 855.423848 79.568277 
L 856.186282 79.247763 
L 857.71115 82.880843 
L 858.473584 86.620481 
L 859.998451 95.581657 
L 860.760885 97.794968 
L 861.523319 98.617818 
L 862.285753 99.21603 
L 863.048187 98.047766 
L 863.810621 95.326073 
L 864.573055 93.778957 
L 865.335489 93.276034 
L 866.860357 89.229669 
L 867.622791 90.187018 
L 869.147659 95.210053 
L 869.910093 99.401982 
L 870.672527 107.925253 
L 871.434961 113.546083 
L 872.197395 114.919396 
L 872.959829 119.831253 
L 873.722263 122.332195 
L 874.484697 118.641109 
L 875.247131 119.45143 
L 876.009565 123.067364 
L 876.771999 122.163345 
L 877.534433 123.616705 
L 878.296866 125.555655 
L 879.0593 126.556885 
L 879.821734 128.475075 
L 882.109036 141.63969 
L 882.87147 141.327734 
L 884.396338 139.632115 
L 885.158772 138.22641 
L 885.921206 138.307229 
L 887.446074 148.166851 
L 888.208508 149.336492 
L 888.970942 148.900827 
L 889.733376 149.794661 
L 890.49581 147.638107 
L 891.258244 142.916319 
L 892.783112 139.016472 
L 893.545546 139.672733 
L 894.30798 142.505356 
L 895.070414 148.618275 
L 895.832848 156.130501 
L 896.595281 167.605725 
L 898.120149 185.646218 
L 899.645017 197.388116 
L 900.407451 202.209425 
L 901.932319 215.004919 
L 903.457187 231.966972 
L 904.219621 237.130566 
L 904.982055 239.872181 
L 905.744489 240.275419 
L 906.506923 239.275945 
L 907.269357 238.896112 
L 908.031791 238.306871 
L 908.794225 237.103858 
L 909.556659 236.418354 
L 910.319093 236.881138 
L 911.081527 235.576189 
L 911.843961 235.481362 
L 912.606395 236.024105 
L 913.368829 236.085462 
L 914.131263 235.762007 
L 914.893696 236.64359 
L 915.65613 237.034428 
L 916.418564 237.634909 
L 917.180998 238.934914 
L 917.943432 239.670426 
L 918.705866 239.939933 
L 920.230734 238.652719 
L 920.993168 238.339319 
L 921.755602 238.521658 
L 922.518036 238.998406 
L 923.28047 239.145762 
L 924.042904 238.163222 
L 924.805338 234.864316 
L 925.567772 229.117992 
L 926.330206 224.74238 
L 927.09264 221.717905 
L 928.617508 214.249398 
L 929.379942 212.687983 
L 930.142376 210.381355 
L 930.90481 208.694693 
L 931.667244 208.385992 
L 932.429678 209.690214 
L 933.192111 211.249323 
L 933.954545 211.686019 
L 933.954545 211.686019 
" style="fill:none;stroke:#ff0000;stroke-dasharray:5.55,2.4;stroke-dashoffset:0;stroke-width:1.5;"/>
   </g>
   <g id="line2d_14">
    <path clip-path="url(#p79d061c91b)" d="M 173.045455 98.91943 
L 173.807889 102.111556 
L 174.570322 100.476833 
L 175.332756 109.411524 
L 176.09519 99.77187 
L 176.857624 97.583912 
L 177.620058 104.231084 
L 178.382492 85.17055 
L 179.144926 97.937393 
L 179.90736 96.721733 
L 180.669794 105.63982 
L 181.432228 99.877373 
L 182.194662 101.884213 
L 182.957096 105.523856 
L 183.71953 101.306011 
L 184.481964 101.882227 
L 185.244398 99.322797 
L 186.006832 95.323713 
L 186.769266 102.731859 
L 187.5317 103.580509 
L 188.294134 103.309565 
L 189.056568 97.671121 
L 189.819002 99.788802 
L 190.581436 100.314541 
L 191.34387 91.928765 
L 192.106304 91.006873 
L 192.868737 94.032478 
L 193.631171 90.936344 
L 194.393605 95.055214 
L 195.156039 93.767586 
L 195.918473 98.081538 
L 197.443341 109.530929 
L 198.205775 100.41992 
L 198.968209 103.812121 
L 199.730643 90.975675 
L 200.493077 92.349522 
L 201.255511 88.970122 
L 202.017945 95.898012 
L 202.780379 98.997831 
L 203.542813 96.645614 
L 204.305247 99.197022 
L 205.067681 99.42224 
L 205.830115 102.7682 
L 206.592549 100.028343 
L 207.354983 113.430321 
L 208.117417 116.545032 
L 208.879851 112.282014 
L 209.642285 117.900663 
L 210.404719 120.736039 
L 211.167152 118.558471 
L 211.929586 114.006241 
L 212.69202 118.110091 
L 213.454454 119.161548 
L 214.979322 137.242785 
L 215.741756 129.782621 
L 216.50419 132.009319 
L 217.266624 147.002692 
L 218.029058 149.205029 
L 218.791492 157.756404 
L 220.31636 162.917133 
L 221.078794 161.554498 
L 221.841228 165.565563 
L 222.603662 176.552728 
L 223.366096 169.401182 
L 224.12853 168.564306 
L 224.890964 166.31265 
L 225.653398 165.625809 
L 226.415832 170.233596 
L 227.178266 165.26675 
L 227.9407 169.36986 
L 228.703134 180.127522 
L 229.465567 175.220621 
L 230.228001 171.262866 
L 230.990435 174.459432 
L 231.752869 175.86062 
L 232.515303 175.241132 
L 233.277737 171.221171 
L 234.040171 185.799839 
L 234.802605 180.872463 
L 235.565039 187.189454 
L 236.327473 187.255942 
L 237.089907 196.423995 
L 237.852341 211.984263 
L 238.614775 215.768291 
L 239.377209 207.537091 
L 240.139643 209.174704 
L 240.902077 215.507831 
L 241.664511 219.881918 
L 242.426945 207.330295 
L 243.189379 230.52699 
L 243.951813 221.971483 
L 244.714247 218.789708 
L 245.476681 216.973293 
L 246.239115 219.867838 
L 247.001549 213.564649 
L 247.763983 220.215875 
L 248.526416 221.549009 
L 249.28885 234.141239 
L 250.051284 220.139385 
L 250.813718 223.855491 
L 251.576152 223.005943 
L 252.338586 238.717149 
L 253.10102 227.370715 
L 253.863454 240.565776 
L 254.625888 232.475013 
L 255.388322 229.239083 
L 256.150756 228.714071 
L 256.91319 231.298806 
L 257.675624 227.135769 
L 258.438058 234.671087 
L 259.200492 213.09719 
L 259.962926 219.929129 
L 260.72536 210.843204 
L 261.487794 218.390994 
L 262.250228 218.421962 
L 263.012662 201.533838 
L 263.775096 205.913917 
L 264.53753 200.039808 
L 265.299964 203.472528 
L 266.062398 208.212298 
L 266.824831 197.841841 
L 267.587265 195.96201 
L 268.349699 197.207135 
L 269.112133 197.099708 
L 269.874567 209.243506 
L 270.637001 204.466873 
L 271.399435 218.391919 
L 272.161869 208.51262 
L 272.924303 201.91826 
L 273.686737 202.173379 
L 274.449171 212.146548 
L 275.211605 203.282179 
L 275.974039 204.81479 
L 276.736473 203.676443 
L 277.498907 206.752456 
L 278.261341 194.589574 
L 279.023775 209.087337 
L 279.786209 206.076181 
L 280.548643 193.496953 
L 281.311077 190.177228 
L 282.073511 174.013403 
L 282.835945 162.420213 
L 283.598379 168.545971 
L 284.360813 164.735034 
L 285.123246 168.639346 
L 285.88568 164.860216 
L 286.648114 154.487215 
L 287.410548 148.557825 
L 288.172982 153.464175 
L 288.935416 159.708173 
L 289.69785 170.577481 
L 290.460284 190.661052 
L 291.222718 176.268666 
L 291.985152 176.334915 
L 292.747586 174.651624 
L 293.51002 174.028953 
L 294.272454 173.230627 
L 295.034888 177.496809 
L 295.797322 191.224577 
L 296.559756 186.096591 
L 297.32219 185.932613 
L 298.084624 193.148798 
L 298.847058 189.720607 
L 299.609492 204.157198 
L 300.371926 205.522819 
L 301.13436 199.563989 
L 301.896794 200.639454 
L 302.659228 196.10769 
L 303.421662 190.393011 
L 304.184095 210.257028 
L 304.946529 203.645554 
L 305.708963 209.485971 
L 306.471397 216.830973 
L 307.233831 213.090297 
L 307.996265 213.145831 
L 308.758699 217.37854 
L 309.521133 218.671251 
L 311.046001 244.392244 
L 311.808435 245.082219 
L 312.570869 251.607023 
L 313.333303 244.836435 
L 314.095737 250.030408 
L 314.858171 245.202673 
L 315.620605 256.146848 
L 316.383039 258.486956 
L 317.145473 253.663661 
L 317.907907 260.878602 
L 318.670341 256.057038 
L 319.432775 265.106538 
L 320.195209 255.091143 
L 320.957643 270.748195 
L 321.720077 273.903383 
L 322.48251 272.906083 
L 324.007378 289.322334 
L 324.769812 284.647077 
L 325.532246 304.981463 
L 326.29468 302.613275 
L 327.057114 303.056054 
L 327.819548 304.356636 
L 328.581982 308.536177 
L 329.344416 316.158307 
L 330.10685 331.765379 
L 330.869284 330.661579 
L 331.631718 340.138163 
L 332.394152 346.122348 
L 333.156586 356.553861 
L 333.91902 350.591281 
L 335.443888 357.507421 
L 336.206322 364.618985 
L 336.968756 362.548585 
L 337.73119 363.426828 
L 338.493624 358.046798 
L 339.256058 356.787138 
L 340.018492 364.557026 
L 340.780925 365.185734 
L 341.543359 367.308259 
L 342.305793 370.901296 
L 343.068227 376.540258 
L 343.830661 370.706788 
L 344.593095 375.602008 
L 345.355529 372.454596 
L 346.117963 378.187326 
L 346.880397 369.699354 
L 347.642831 371.549945 
L 348.405265 380.876667 
L 349.167699 383.925267 
L 349.930133 379.03255 
L 350.692567 370.944135 
L 351.455001 370.98667 
L 352.217435 357.349176 
L 352.979869 352.563931 
L 353.742303 355.888404 
L 354.504737 346.293061 
L 355.267171 346.531697 
L 356.029605 358.433886 
L 356.792039 352.522761 
L 357.554473 340.831715 
L 358.316907 342.307332 
L 359.07934 338.735631 
L 359.841774 332.54479 
L 360.604208 337.291259 
L 361.366642 340.923827 
L 362.129076 336.505222 
L 362.89151 335.25155 
L 363.653944 329.722635 
L 364.416378 326.607133 
L 365.178812 324.73663 
L 365.941246 314.95477 
L 366.70368 330.372341 
L 367.466114 322.295056 
L 368.228548 322.439137 
L 368.990982 313.02329 
L 369.753416 314.957166 
L 370.51585 315.462575 
L 371.278284 323.887347 
L 372.040718 321.230915 
L 372.803152 322.591812 
L 373.565586 322.160881 
L 374.32802 311.214817 
L 375.090454 323.882289 
L 375.852888 329.173403 
L 376.615322 320.153936 
L 377.377756 327.614263 
L 378.140189 329.040031 
L 378.902623 325.548939 
L 379.665057 325.802586 
L 380.427491 335.99836 
L 381.189925 321.545604 
L 381.952359 324.86017 
L 382.714793 324.355756 
L 383.477227 314.742399 
L 384.239661 314.550322 
L 385.002095 323.396178 
L 385.764529 316.527649 
L 386.526963 322.954246 
L 387.289397 318.752352 
L 388.051831 323.169358 
L 388.814265 324.781928 
L 389.576699 324.201566 
L 390.339133 316.597807 
L 391.101567 316.2049 
L 391.864001 317.320287 
L 392.626435 316.484016 
L 393.388869 313.556188 
L 394.151303 307.297677 
L 394.913737 297.370087 
L 395.676171 296.993502 
L 396.438604 304.146152 
L 397.201038 309.634242 
L 397.963472 308.182696 
L 398.725906 302.46738 
L 399.48834 304.082879 
L 400.250774 303.413947 
L 401.013208 303.834775 
L 401.775642 295.307845 
L 402.538076 297.997298 
L 403.30051 295.055983 
L 404.062944 286.643422 
L 404.825378 290.588561 
L 405.587812 292.74319 
L 406.350246 281.480598 
L 407.11268 286.419917 
L 407.875114 276.372873 
L 408.637548 273.688485 
L 409.399982 264.376709 
L 410.162416 264.510361 
L 410.92485 258.800285 
L 411.687284 244.975132 
L 412.449718 257.101134 
L 413.212152 247.359046 
L 413.974586 246.245185 
L 414.737019 248.970554 
L 415.499453 247.833367 
L 416.261887 240.410915 
L 417.024321 240.467819 
L 417.786755 248.166565 
L 418.549189 245.650525 
L 420.074057 254.812757 
L 420.836491 251.453963 
L 421.598925 259.590253 
L 422.361359 246.157271 
L 423.123793 252.147724 
L 423.886227 261.539577 
L 424.648661 269.462103 
L 425.411095 264.001577 
L 426.173529 272.673765 
L 426.935963 265.993908 
L 427.698397 275.814435 
L 428.460831 268.955873 
L 429.985699 279.651447 
L 430.748133 291.079079 
L 431.510567 288.093339 
L 432.273001 295.303932 
L 433.035435 298.05762 
L 433.797868 293.871804 
L 434.560302 286.901256 
L 435.322736 295.101507 
L 436.08517 288.528601 
L 436.847604 288.47131 
L 437.610038 285.938926 
L 438.372472 291.473191 
L 439.134906 295.720328 
L 439.89734 281.200315 
L 440.659774 287.51846 
L 441.422208 284.38109 
L 442.184642 282.644 
L 442.947076 291.871916 
L 443.70951 288.370823 
L 444.471944 282.97594 
L 445.234378 282.795012 
L 446.759246 286.898234 
L 447.52168 296.238743 
L 448.284114 302.846383 
L 449.046548 299.995455 
L 449.808982 310.824139 
L 450.571416 315.117108 
L 451.33385 316.872765 
L 452.096283 326.348504 
L 452.858717 322.572478 
L 453.621151 317.286178 
L 454.383585 326.039747 
L 455.146019 345.650756 
L 455.908453 345.281711 
L 456.670887 347.334082 
L 457.433321 344.826122 
L 458.958189 354.871603 
L 459.720623 349.517699 
L 460.483057 353.870675 
L 461.245491 347.184208 
L 462.007925 360.60164 
L 462.770359 362.002399 
L 463.532793 365.629615 
L 464.295227 359.385184 
L 465.057661 358.696413 
L 465.820095 358.843756 
L 466.582529 345.905919 
L 467.344963 356.677453 
L 468.107397 356.095459 
L 468.869831 350.658997 
L 469.632265 365.634398 
L 470.394698 376.62373 
L 471.157132 390.487473 
L 471.919566 383.924104 
L 472.682 398.366012 
L 473.444434 392.897369 
L 474.206868 392.435386 
L 474.969302 393.616714 
L 475.731736 397.872542 
L 476.49417 389.882809 
L 477.256604 387.751263 
L 478.019038 394.199463 
L 479.543906 390.545939 
L 480.30634 388.549734 
L 481.068774 392.905066 
L 481.831208 383.649033 
L 482.593642 389.016714 
L 483.356076 385.892492 
L 484.11851 381.389786 
L 484.880944 389.296584 
L 485.643378 373.636686 
L 486.405812 365.926064 
L 487.168246 368.919979 
L 487.93068 359.495402 
L 488.693113 360.735 
L 490.980415 346.983101 
L 491.742849 344.777092 
L 492.505283 340.119299 
L 493.267717 337.892986 
L 494.030151 343.974148 
L 494.792585 346.16568 
L 495.555019 339.878062 
L 496.317453 345.238113 
L 497.079887 327.208171 
L 497.842321 333.765956 
L 498.604755 328.033419 
L 499.367189 318.458233 
L 500.129623 312.73758 
L 500.892057 311.544074 
L 501.654491 309.996967 
L 502.416925 314.85852 
L 503.179359 293.147588 
L 503.941793 301.71118 
L 504.704227 297.211529 
L 505.466661 288.980802 
L 506.229095 277.897568 
L 506.991529 289.580256 
L 507.753962 283.108906 
L 508.516396 284.596021 
L 509.27883 276.030923 
L 510.041264 280.287869 
L 511.566132 266.641086 
L 512.328566 271.581794 
L 513.091 278.278428 
L 513.853434 279.941076 
L 514.615868 278.774623 
L 515.378302 276.802922 
L 516.140736 277.806884 
L 516.90317 277.112132 
L 517.665604 285.939647 
L 518.428038 275.20269 
L 519.952906 268.729815 
L 520.71534 255.614434 
L 521.477774 266.362219 
L 522.240208 270.681619 
L 523.002642 279.164063 
L 523.765076 286.163163 
L 524.52751 281.532762 
L 525.289944 299.681006 
L 526.052377 307.303691 
L 526.814811 301.965283 
L 527.577245 307.775867 
L 528.339679 311.399413 
L 529.102113 308.830783 
L 529.864547 323.031083 
L 530.626981 325.352973 
L 531.389415 325.504357 
L 532.151849 332.330064 
L 532.914283 327.428877 
L 533.676717 333.374207 
L 534.439151 334.351715 
L 535.201585 342.777561 
L 536.726453 356.263592 
L 537.488887 360.507476 
L 538.251321 342.959443 
L 539.013755 361.51795 
L 539.776189 352.509205 
L 540.538623 361.366422 
L 541.301057 357.004378 
L 542.063491 350.766802 
L 542.825925 359.50451 
L 543.588359 354.569298 
L 544.350792 366.859907 
L 545.113226 373.17054 
L 545.87566 385.283182 
L 546.638094 375.605142 
L 547.400528 380.845757 
L 548.162962 379.476737 
L 548.925396 390.252306 
L 549.68783 386.230189 
L 550.450264 394.515252 
L 551.212698 387.727654 
L 552.737566 404.827067 
L 553.5 397.805551 
L 554.262434 405.48843 
L 555.024868 411.401858 
L 555.787302 402.282838 
L 556.549736 407.114051 
L 557.31217 408.209147 
L 558.074604 402.427701 
L 558.837038 403.134194 
L 559.599472 403.663477 
L 560.361906 405.07173 
L 561.12434 403.573442 
L 561.886774 410.757095 
L 562.649208 406.946234 
L 563.411641 415.507332 
L 564.174075 409.034323 
L 564.936509 416.112179 
L 565.698943 418.32159 
L 566.461377 419.323719 
L 567.223811 430.92 
L 567.986245 429.120007 
L 568.748679 421.070672 
L 569.511113 426.910398 
L 570.273547 422.596768 
L 571.035981 423.970369 
L 571.798415 407.014871 
L 572.560849 406.867486 
L 573.323283 407.278116 
L 574.085717 410.275504 
L 574.848151 401.470552 
L 575.610585 389.554612 
L 576.373019 398.141682 
L 577.135453 394.26309 
L 577.897887 386.596595 
L 578.660321 393.308053 
L 579.422755 385.462605 
L 580.185189 388.761504 
L 580.947623 372.273577 
L 581.710056 379.015158 
L 582.47249 365.568381 
L 583.234924 372.584307 
L 583.997358 364.94897 
L 584.759792 366.452005 
L 585.522226 362.597653 
L 586.28466 357.301765 
L 587.047094 349.112061 
L 587.809528 332.992723 
L 588.571962 338.86355 
L 589.334396 329.806851 
L 590.09683 340.17313 
L 590.859264 328.584064 
L 591.621698 325.588884 
L 592.384132 316.955688 
L 593.146566 311.875356 
L 593.909 314.834135 
L 594.671434 305.470291 
L 596.196302 319.716398 
L 596.958736 304.45672 
L 597.72117 304.986078 
L 598.483604 296.738586 
L 599.246038 302.316033 
L 600.008471 305.935432 
L 601.533339 290.921175 
L 602.295773 288.572279 
L 603.058207 296.300012 
L 603.820641 282.130713 
L 604.583075 285.079969 
L 605.345509 276.500195 
L 606.107943 278.279645 
L 606.870377 271.367777 
L 607.632811 274.110462 
L 608.395245 272.000446 
L 609.157679 276.83923 
L 609.920113 278.869017 
L 610.682547 280.553765 
L 611.444981 282.923224 
L 612.207415 286.332704 
L 612.969849 274.837262 
L 613.732283 278.272838 
L 614.494717 279.696439 
L 615.257151 283.198778 
L 616.019585 274.013931 
L 616.782019 273.13407 
L 617.544453 268.38957 
L 618.306887 277.456885 
L 619.06932 272.095788 
L 619.831754 279.428482 
L 620.594188 281.671922 
L 621.356622 272.194899 
L 622.119056 283.68497 
L 622.88149 287.040974 
L 623.643924 285.623259 
L 624.406358 289.647012 
L 625.168792 288.447412 
L 625.931226 282.522282 
L 626.69366 277.929082 
L 627.456094 272.427295 
L 628.218528 278.918093 
L 628.980962 282.81172 
L 629.743396 291.377144 
L 630.50583 297.82755 
L 631.268264 296.80818 
L 632.030698 302.39978 
L 632.793132 310.336604 
L 633.555566 304.85567 
L 634.318 301.829085 
L 635.080434 306.60232 
L 635.842868 306.995571 
L 636.605302 311.853798 
L 637.367735 305.765836 
L 638.130169 307.017576 
L 638.892603 290.067499 
L 639.655037 281.98523 
L 640.417471 298.813775 
L 641.179905 287.456114 
L 641.942339 298.95776 
L 643.467207 291.806685 
L 644.229641 295.662768 
L 644.992075 291.097053 
L 645.754509 296.307785 
L 646.516943 294.121286 
L 647.279377 287.526899 
L 648.041811 293.476589 
L 648.804245 281.937432 
L 649.566679 282.047555 
L 650.329113 272.574354 
L 651.091547 293.041356 
L 652.616415 277.947709 
L 653.378849 277.900451 
L 654.141283 273.434651 
L 654.903717 274.905158 
L 655.66615 279.324972 
L 656.428584 272.848897 
L 657.953452 285.012671 
L 658.715886 275.275261 
L 659.47832 286.505029 
L 660.240754 284.442966 
L 661.003188 292.821569 
L 661.765622 290.124789 
L 662.528056 309.43636 
L 663.29049 299.223409 
L 664.052924 300.147199 
L 664.815358 295.085934 
L 665.577792 294.666648 
L 666.340226 296.855956 
L 667.10266 298.335951 
L 667.865094 291.868526 
L 668.627528 305.30794 
L 669.389962 315.894161 
L 670.152396 307.262187 
L 670.91483 305.603732 
L 671.677264 317.146916 
L 672.439698 316.266084 
L 673.202132 321.334694 
L 674.726999 346.70281 
L 675.489433 336.94859 
L 676.251867 359.812389 
L 677.014301 337.932202 
L 677.776735 338.164237 
L 678.539169 341.989155 
L 679.301603 334.923746 
L 680.064037 352.735056 
L 680.826471 357.74554 
L 681.588905 351.562457 
L 682.351339 358.687152 
L 683.113773 356.85445 
L 683.876207 358.200574 
L 684.638641 358.674755 
L 685.401075 345.311245 
L 686.163509 352.581559 
L 686.925943 344.021177 
L 687.688377 353.896207 
L 688.450811 345.377093 
L 689.213245 348.465349 
L 689.975679 347.511061 
L 690.738113 354.795131 
L 691.500547 347.177942 
L 692.262981 354.329301 
L 693.025414 359.223611 
L 693.787848 350.751873 
L 694.550282 349.480054 
L 695.312716 369.180427 
L 696.07515 364.962724 
L 696.837584 351.917244 
L 697.600018 352.375894 
L 698.362452 362.475035 
L 699.124886 359.327817 
L 699.88732 347.952813 
L 700.649754 359.482881 
L 701.412188 350.038776 
L 702.174622 359.802573 
L 702.937056 344.334715 
L 703.69949 342.490901 
L 704.461924 343.323327 
L 705.224358 345.127304 
L 705.986792 336.265881 
L 706.749226 325.974081 
L 707.51166 322.294311 
L 708.274094 324.720711 
L 709.036528 317.821598 
L 709.798962 317.998788 
L 710.561396 323.367453 
L 711.323829 312.647565 
L 712.086263 304.022758 
L 713.611131 290.149271 
L 714.373565 305.806391 
L 715.135999 298.431177 
L 715.898433 279.923061 
L 716.660867 283.923533 
L 718.185735 263.954558 
L 718.948169 258.266009 
L 719.710603 273.403961 
L 720.473037 253.201321 
L 721.235471 262.18532 
L 721.997905 263.813847 
L 722.760339 250.275746 
L 723.522773 251.486631 
L 724.285207 250.432947 
L 725.810075 235.353397 
L 726.572509 239.648957 
L 727.334943 238.415853 
L 728.097377 229.129653 
L 728.859811 240.850152 
L 729.622244 234.341747 
L 730.384678 245.631519 
L 731.147112 237.762938 
L 731.909546 243.455703 
L 732.67198 236.106286 
L 733.434414 243.736557 
L 734.196848 233.946516 
L 734.959282 215.158911 
L 735.721716 222.86069 
L 737.246584 208.211255 
L 738.009018 217.575912 
L 738.771452 207.223725 
L 739.533886 212.866635 
L 740.29632 200.735088 
L 741.058754 199.759611 
L 741.821188 203.327867 
L 742.583622 201.768356 
L 743.346056 189.546232 
L 744.10849 190.410832 
L 744.870924 178.918206 
L 745.633358 181.920589 
L 746.395792 180.607317 
L 747.158226 190.408979 
L 747.92066 179.168569 
L 748.683093 184.944547 
L 749.445527 170.148694 
L 750.207961 179.091583 
L 750.970395 185.107586 
L 752.495263 174.343013 
L 753.257697 181.931692 
L 754.020131 177.053809 
L 754.782565 170.458843 
L 755.544999 174.98425 
L 756.307433 174.050767 
L 757.069867 170.929489 
L 757.832301 185.452736 
L 758.594735 172.442061 
L 759.357169 177.204334 
L 760.119603 157.727093 
L 760.882037 155.376971 
L 761.644471 172.984312 
L 762.406905 162.706733 
L 763.169339 162.557736 
L 763.931773 162.262322 
L 764.694207 152.274664 
L 765.456641 153.054132 
L 766.219075 159.313185 
L 766.981508 156.803125 
L 767.743942 152.131045 
L 768.506376 155.752631 
L 769.26881 161.082451 
L 770.031244 162.544156 
L 770.793678 165.869154 
L 772.318546 151.993424 
L 773.08098 154.715864 
L 773.843414 162.354822 
L 775.368282 157.567026 
L 776.130716 153.272523 
L 776.89315 155.340393 
L 777.655584 158.711851 
L 778.418018 165.318149 
L 779.180452 159.759261 
L 779.942886 156.144324 
L 780.70532 157.553259 
L 781.467754 165.664784 
L 782.230188 158.295386 
L 782.992622 165.996317 
L 783.755056 164.420091 
L 784.51749 157.216739 
L 786.042357 173.534557 
L 786.804791 168.058423 
L 787.567225 170.118694 
L 788.329659 178.131085 
L 789.092093 179.859114 
L 789.854527 172.661764 
L 791.379395 190.671635 
L 792.141829 203.602086 
L 792.904263 191.620575 
L 793.666697 206.956445 
L 795.191565 213.017805 
L 795.953999 210.869452 
L 796.716433 206.227544 
L 797.478867 211.544595 
L 798.241301 219.466523 
L 799.003735 223.659789 
L 799.766169 216.787399 
L 800.528603 225.01148 
L 801.291037 229.658805 
L 802.053471 237.147139 
L 802.815905 227.903054 
L 803.578338 230.818855 
L 805.103206 242.144973 
L 805.86564 251.497036 
L 806.628074 249.366136 
L 807.390508 232.712606 
L 808.152942 232.21537 
L 808.915376 236.915523 
L 809.67781 235.892537 
L 810.440244 230.499037 
L 811.202678 223.457104 
L 811.965112 224.231155 
L 812.727546 227.581269 
L 813.48998 228.259089 
L 814.252414 226.960107 
L 815.014848 224.98524 
L 815.777282 222.573537 
L 816.539716 210.28691 
L 817.30215 218.056478 
L 818.064584 217.102284 
L 818.827018 213.616428 
L 819.589452 214.149702 
L 820.351886 206.999865 
L 821.11432 202.719012 
L 821.876754 202.401311 
L 822.639187 196.098252 
L 823.401621 198.400114 
L 824.164055 202.445451 
L 824.926489 202.282329 
L 825.688923 212.169886 
L 826.451357 207.701606 
L 827.213791 199.223268 
L 827.976225 196.185755 
L 828.738659 193.94103 
L 829.501093 187.606403 
L 830.263527 177.164781 
L 831.025961 174.682534 
L 831.788395 180.960102 
L 832.550829 158.342528 
L 833.313263 166.879433 
L 834.075697 166.459924 
L 834.838131 162.389867 
L 835.600565 159.072706 
L 836.362999 157.949613 
L 837.125433 158.842345 
L 837.887867 150.935151 
L 838.650301 146.277247 
L 839.412735 137.641866 
L 840.175169 148.749993 
L 840.937602 137.961742 
L 841.700036 139.191372 
L 842.46247 143.329482 
L 843.224904 137.768699 
L 843.987338 141.570626 
L 844.749772 123.538917 
L 845.512206 118.58268 
L 846.27464 122.356152 
L 847.037074 112.464366 
L 847.799508 107.183201 
L 848.561942 116.455034 
L 849.324376 116.383091 
L 850.08681 110.820385 
L 850.849244 125.818657 
L 851.611678 114.237585 
L 852.374112 110.134461 
L 853.136546 108.040359 
L 853.89898 117.187193 
L 854.661414 116.237221 
L 855.423848 95.614425 
L 856.186282 109.71535 
L 856.948716 114.289787 
L 857.71115 108.223231 
L 858.473584 117.512813 
L 859.236017 115.607319 
L 859.998451 108.387735 
L 860.760885 99.480905 
L 861.523319 85.674946 
L 862.285753 96.239855 
L 863.048187 86.60611 
L 863.810621 95.860117 
L 864.573055 99.216026 
L 865.335489 90.264075 
L 866.097923 86.122583 
L 866.860357 84.38381 
L 867.622791 84.676564 
L 868.385225 83.304227 
L 869.147659 88.24394 
L 869.910093 97.313245 
L 870.672527 102.331946 
L 871.434961 109.294824 
L 872.197395 119.721867 
L 872.959829 115.542711 
L 873.722263 129.193713 
L 874.484697 127.574724 
L 875.247131 129.237446 
L 876.009565 123.505536 
L 876.771999 135.974623 
L 877.534433 135.017474 
L 878.296866 146.743152 
L 879.0593 140.508563 
L 879.821734 145.549812 
L 880.584168 156.957845 
L 881.346602 161.29145 
L 882.109036 162.865099 
L 882.87147 149.734417 
L 884.396338 156.868434 
L 885.158772 155.917241 
L 885.921206 154.648881 
L 886.68364 156.952458 
L 887.446074 155.037273 
L 888.970942 168.224731 
L 889.733376 170.274185 
L 890.49581 167.679385 
L 891.258244 174.626942 
L 892.020678 170.252812 
L 892.783112 167.089554 
L 893.545546 176.300815 
L 894.30798 174.494657 
L 895.070414 165.098513 
L 895.832848 169.08099 
L 896.595281 175.353689 
L 897.357715 172.066277 
L 898.120149 170.183487 
L 898.882583 181.602092 
L 899.645017 176.968829 
L 900.407451 188.407172 
L 901.169885 182.581953 
L 901.932319 190.232034 
L 902.694753 196.270693 
L 903.457187 194.820287 
L 904.219621 199.815247 
L 904.982055 198.908585 
L 905.744489 198.496053 
L 906.506923 193.322957 
L 907.269357 202.768769 
L 908.031791 210.565327 
L 908.794225 200.036713 
L 909.556659 203.741121 
L 910.319093 198.917467 
L 911.081527 208.139314 
L 913.368829 225.109619 
L 914.131263 227.524214 
L 914.893696 230.429375 
L 915.65613 223.38623 
L 916.418564 221.741883 
L 917.180998 221.924432 
L 917.943432 234.058621 
L 919.4683 246.95733 
L 920.230734 241.337193 
L 920.993168 234.008667 
L 921.755602 247.62033 
L 922.518036 240.668873 
L 923.28047 253.678949 
L 924.042904 255.054577 
L 924.805338 263.873771 
L 925.567772 264.501272 
L 926.330206 268.429716 
L 927.09264 257.266585 
L 927.855074 264.915663 
L 928.617508 269.153861 
L 929.379942 259.445111 
L 930.142376 261.168687 
L 930.90481 262.396898 
L 931.667244 250.248205 
L 932.429678 264.66631 
L 933.192111 255.115008 
L 933.954545 252.415661 
L 933.954545 252.415661 
" style="fill:none;stroke:#008000;stroke-linecap:square;stroke-width:1.5;"/>
   </g>
   <g id="patch_3">
    <path d="M 135 448.56 
L 135 60.48 
" style="fill:none;stroke:#000000;stroke-linecap:square;stroke-linejoin:miter;stroke-width:0.8;"/>
   </g>
   <g id="patch_4">
    <path d="M 972 448.56 
L 972 60.48 
" style="fill:none;stroke:#000000;stroke-linecap:square;stroke-linejoin:miter;stroke-width:0.8;"/>
   </g>
   <g id="patch_5">
    <path d="M 135 448.56 
L 972 448.56 
" style="fill:none;stroke:#000000;stroke-linecap:square;stroke-linejoin:miter;stroke-width:0.8;"/>
   </g>
   <g id="patch_6">
    <path d="M 135 60.48 
L 972 60.48 
" style="fill:none;stroke:#000000;stroke-linecap:square;stroke-linejoin:miter;stroke-width:0.8;"/>
   </g>
   <g id="legend_1">
    <g id="patch_7">
     <path d="M 142 443.56 
L 250.957812 443.56 
Q 252.957812 443.56 252.957812 441.56 
L 252.957812 398.525625 
Q 252.957812 396.525625 250.957812 396.525625 
L 142 396.525625 
Q 140 396.525625 140 398.525625 
L 140 441.56 
Q 140 443.56 142 443.56 
z
" style="fill:#ffffff;opacity:0.8;stroke:#cccccc;stroke-linejoin:miter;"/>
    </g>
    <g id="line2d_15">
     <path d="M 144 404.624063 
L 164 404.624063 
" style="fill:none;stroke:#0000ff;stroke-linecap:square;stroke-width:1.5;"/>
    </g>
    <g id="line2d_16"/>
    <g id="text_14">
     <!-- input -->
     <defs>
      <path d="M 9.421875 54.6875 
L 18.40625 54.6875 
L 18.40625 0 
L 9.421875 0 
z
M 9.421875 75.984375 
L 18.40625 75.984375 
L 18.40625 64.59375 
L 9.421875 64.59375 
z
" id="DejaVuSans-105"/>
      <path d="M 18.3125 70.21875 
L 18.3125 54.6875 
L 36.8125 54.6875 
L 36.8125 47.703125 
L 18.3125 47.703125 
L 18.3125 18.015625 
Q 18.3125 11.328125 20.140625 9.421875 
Q 21.96875 7.515625 27.59375 7.515625 
L 36.8125 7.515625 
L 36.8125 0 
L 27.59375 0 
Q 17.1875 0 13.234375 3.875 
Q 9.28125 7.765625 9.28125 18.015625 
L 9.28125 47.703125 
L 2.6875 47.703125 
L 2.6875 54.6875 
L 9.28125 54.6875 
L 9.28125 70.21875 
z
" id="DejaVuSans-116"/>
     </defs>
     <g transform="translate(172 408.124063)scale(0.1 -0.1)">
      <use xlink:href="#DejaVuSans-105"/>
      <use x="27.783203" xlink:href="#DejaVuSans-110"/>
      <use x="91.162109" xlink:href="#DejaVuSans-112"/>
      <use x="154.638672" xlink:href="#DejaVuSans-117"/>
      <use x="218.017578" xlink:href="#DejaVuSans-116"/>
     </g>
    </g>
    <g id="line2d_17">
     <path d="M 144 419.302188 
L 164 419.302188 
" style="fill:none;stroke:#ff0000;stroke-dasharray:5.55,2.4;stroke-dashoffset:0;stroke-width:1.5;"/>
    </g>
    <g id="line2d_18"/>
    <g id="text_15">
     <!-- filtered input -->
     <defs>
      <path d="M 37.109375 75.984375 
L 37.109375 68.5 
L 28.515625 68.5 
Q 23.6875 68.5 21.796875 66.546875 
Q 19.921875 64.59375 19.921875 59.515625 
L 19.921875 54.6875 
L 34.71875 54.6875 
L 34.71875 47.703125 
L 19.921875 47.703125 
L 19.921875 0 
L 10.890625 0 
L 10.890625 47.703125 
L 2.296875 47.703125 
L 2.296875 54.6875 
L 10.890625 54.6875 
L 10.890625 58.5 
Q 10.890625 67.625 15.140625 71.796875 
Q 19.390625 75.984375 28.609375 75.984375 
z
" id="DejaVuSans-102"/>
      <path d="M 45.40625 46.390625 
L 45.40625 75.984375 
L 54.390625 75.984375 
L 54.390625 0 
L 45.40625 0 
L 45.40625 8.203125 
Q 42.578125 3.328125 38.25 0.953125 
Q 33.9375 -1.421875 27.875 -1.421875 
Q 17.96875 -1.421875 11.734375 6.484375 
Q 5.515625 14.40625 5.515625 27.296875 
Q 5.515625 40.1875 11.734375 48.09375 
Q 17.96875 56 27.875 56 
Q 33.9375 56 38.25 53.625 
Q 42.578125 51.265625 45.40625 46.390625 
z
M 14.796875 27.296875 
Q 14.796875 17.390625 18.875 11.75 
Q 22.953125 6.109375 30.078125 6.109375 
Q 37.203125 6.109375 41.296875 11.75 
Q 45.40625 17.390625 45.40625 27.296875 
Q 45.40625 37.203125 41.296875 42.84375 
Q 37.203125 48.484375 30.078125 48.484375 
Q 22.953125 48.484375 18.875 42.84375 
Q 14.796875 37.203125 14.796875 27.296875 
z
" id="DejaVuSans-100"/>
     </defs>
     <g transform="translate(172 422.802188)scale(0.1 -0.1)">
      <use xlink:href="#DejaVuSans-102"/>
      <use x="35.205078" xlink:href="#DejaVuSans-105"/>
      <use x="62.988281" xlink:href="#DejaVuSans-108"/>
      <use x="90.771484" xlink:href="#DejaVuSans-116"/>
      <use x="129.980469" xlink:href="#DejaVuSans-101"/>
      <use x="191.503906" xlink:href="#DejaVuSans-114"/>
      <use x="230.367188" xlink:href="#DejaVuSans-101"/>
      <use x="291.890625" xlink:href="#DejaVuSans-100"/>
      <use x="355.367188" xlink:href="#DejaVuSans-32"/>
      <use x="387.154297" xlink:href="#DejaVuSans-105"/>
      <use x="414.9375" xlink:href="#DejaVuSans-110"/>
      <use x="478.316406" xlink:href="#DejaVuSans-112"/>
      <use x="541.792969" xlink:href="#DejaVuSans-117"/>
      <use x="605.171875" xlink:href="#DejaVuSans-116"/>
     </g>
    </g>
    <g id="line2d_19">
     <path d="M 144 433.980313 
L 164 433.980313 
" style="fill:none;stroke:#008000;stroke-linecap:square;stroke-width:1.5;"/>
    </g>
    <g id="line2d_20"/>
    <g id="text_16">
     <!-- learning output -->
     <defs>
      <path d="M 34.28125 27.484375 
Q 23.390625 27.484375 19.1875 25 
Q 14.984375 22.515625 14.984375 16.5 
Q 14.984375 11.71875 18.140625 8.90625 
Q 21.296875 6.109375 26.703125 6.109375 
Q 34.1875 6.109375 38.703125 11.40625 
Q 43.21875 16.703125 43.21875 25.484375 
L 43.21875 27.484375 
z
M 52.203125 31.203125 
L 52.203125 0 
L 43.21875 0 
L 43.21875 8.296875 
Q 40.140625 3.328125 35.546875 0.953125 
Q 30.953125 -1.421875 24.3125 -1.421875 
Q 15.921875 -1.421875 10.953125 3.296875 
Q 6 8.015625 6 15.921875 
Q 6 25.140625 12.171875 29.828125 
Q 18.359375 34.515625 30.609375 34.515625 
L 43.21875 34.515625 
L 43.21875 35.40625 
Q 43.21875 41.609375 39.140625 45 
Q 35.0625 48.390625 27.6875 48.390625 
Q 23 48.390625 18.546875 47.265625 
Q 14.109375 46.140625 10.015625 43.890625 
L 10.015625 52.203125 
Q 14.9375 54.109375 19.578125 55.046875 
Q 24.21875 56 28.609375 56 
Q 40.484375 56 46.34375 49.84375 
Q 52.203125 43.703125 52.203125 31.203125 
z
" id="DejaVuSans-97"/>
     </defs>
     <g transform="translate(172 437.480313)scale(0.1 -0.1)">
      <use xlink:href="#DejaVuSans-108"/>
      <use x="27.783203" xlink:href="#DejaVuSans-101"/>
      <use x="89.306641" xlink:href="#DejaVuSans-97"/>
      <use x="150.585938" xlink:href="#DejaVuSans-114"/>
      <use x="189.949219" xlink:href="#DejaVuSans-110"/>
      <use x="253.328125" xlink:href="#DejaVuSans-105"/>
      <use x="281.111328" xlink:href="#DejaVuSans-110"/>
      <use x="344.490234" xlink:href="#DejaVuSans-103"/>
      <use x="407.966797" xlink:href="#DejaVuSans-32"/>
      <use x="439.753906" xlink:href="#DejaVuSans-111"/>
      <use x="500.935547" xlink:href="#DejaVuSans-117"/>
      <use x="564.314453" xlink:href="#DejaVuSans-116"/>
      <use x="603.523438" xlink:href="#DejaVuSans-112"/>
      <use x="667" xlink:href="#DejaVuSans-117"/>
      <use x="730.378906" xlink:href="#DejaVuSans-116"/>
     </g>
    </g>
   </g>
  </g>
 </g>
 <defs>
  <clipPath id="p79d061c91b">
   <rect height="388.08" width="837" x="135" y="60.48"/>
  </clipPath>
 </defs>
</svg>
